<svg width="24" height="24" viewBox="0 0 24 24" fill="none" xmlns="http://www.w3.org/2000/svg">
<path d="M11.25 10.5H12V17.25H12.75M21.75 12C21.75 14.5859 20.7228 17.0658 18.8943 18.8943C17.0658 20.7228 14.5859 21.75 12 21.75C9.41414 21.75 6.93419 20.7228 5.10571 18.8943C3.27723 17.0658 2.25 14.5859 2.25 12C2.25 9.41414 3.27723 6.93419 5.10571 5.10571C6.93419 3.27723 9.41414 2.25 12 2.25C14.5859 2.25 17.0658 3.27723 18.8943 5.10571C20.7228 6.93419 21.75 9.41414 21.75 12Z" stroke="#2D2D2D" stroke-width="1.5" stroke-linecap="round" stroke-linejoin="round"/>
<path d="M11.25 10.5H12V17.25H12.75M21.75 12C21.75 14.5859 20.7228 17.0658 18.8943 18.8943C17.0658 20.7228 14.5859 21.75 12 21.75C9.41414 21.75 6.93419 20.7228 5.10571 18.8943C3.27723 17.0658 2.25 14.5859 2.25 12C2.25 9.41414 3.27723 6.93419 5.10571 5.10571C6.93419 3.27723 9.41414 2.25 12 2.25C14.5859 2.25 17.0658 3.27723 18.8943 5.10571C20.7228 6.93419 21.75 9.41414 21.75 12Z" stroke="black" stroke-opacity="0.2" stroke-width="1.5" stroke-linecap="round" stroke-linejoin="round"/>
<path d="M11.25 10.5H12V17.25H12.75M21.75 12C21.75 14.5859 20.7228 17.0658 18.8943 18.8943C17.0658 20.7228 14.5859 21.75 12 21.75C9.41414 21.75 6.93419 20.7228 5.10571 18.8943C3.27723 17.0658 2.25 14.5859 2.25 12C2.25 9.41414 3.27723 6.93419 5.10571 5.10571C6.93419 3.27723 9.41414 2.25 12 2.25C14.5859 2.25 17.0658 3.27723 18.8943 5.10571C20.7228 6.93419 21.75 9.41414 21.75 12Z" stroke="black" stroke-opacity="0.2" stroke-width="1.5" stroke-linecap="round" stroke-linejoin="round"/>
<path d="M11.25 10.5H12V17.25H12.75M21.75 12C21.75 14.5859 20.7228 17.0658 18.8943 18.8943C17.0658 20.7228 14.5859 21.75 12 21.75C9.41414 21.75 6.93419 20.7228 5.10571 18.8943C3.27723 17.0658 2.25 14.5859 2.25 12C2.25 9.41414 3.27723 6.93419 5.10571 5.10571C6.93419 3.27723 9.41414 2.25 12 2.25C14.5859 2.25 17.0658 3.27723 18.8943 5.10571C20.7228 6.93419 21.75 9.41414 21.75 12Z" stroke="black" stroke-opacity="0.2" stroke-width="1.5" stroke-linecap="round" stroke-linejoin="round"/>
<path d="M11.25 10.5H12V17.25H12.75M21.75 12C21.75 14.5859 20.7228 17.0658 18.8943 18.8943C17.0658 20.7228 14.5859 21.75 12 21.75C9.41414 21.75 6.93419 20.7228 5.10571 18.8943C3.27723 17.0658 2.25 14.5859 2.25 12C2.25 9.41414 3.27723 6.93419 5.10571 5.10571C6.93419 3.27723 9.41414 2.25 12 2.25C14.5859 2.25 17.0658 3.27723 18.8943 5.10571C20.7228 6.93419 21.75 9.41414 21.75 12Z" stroke="black" stroke-opacity="0.2" stroke-width="1.5" stroke-linecap="round" stroke-linejoin="round"/>
<path d="M11.25 10.5H12V17.25H12.75M21.75 12C21.75 14.5859 20.7228 17.0658 18.8943 18.8943C17.0658 20.7228 14.5859 21.75 12 21.75C9.41414 21.75 6.93419 20.7228 5.10571 18.8943C3.27723 17.0658 2.25 14.5859 2.25 12C2.25 9.41414 3.27723 6.93419 5.10571 5.10571C6.93419 3.27723 9.41414 2.25 12 2.25C14.5859 2.25 17.0658 3.27723 18.8943 5.10571C20.7228 6.93419 21.75 9.41414 21.75 12Z" stroke="black" stroke-opacity="0.2" stroke-width="1.5" stroke-linecap="round" stroke-linejoin="round"/>
<path d="M11.25 10.5H12V17.25H12.75M21.75 12C21.75 14.5859 20.7228 17.0658 18.8943 18.8943C17.0658 20.7228 14.5859 21.75 12 21.75C9.41414 21.75 6.93419 20.7228 5.10571 18.8943C3.27723 17.0658 2.25 14.5859 2.25 12C2.25 9.41414 3.27723 6.93419 5.10571 5.10571C6.93419 3.27723 9.41414 2.25 12 2.25C14.5859 2.25 17.0658 3.27723 18.8943 5.10571C20.7228 6.93419 21.75 9.41414 21.75 12Z" stroke="black" stroke-opacity="0.2" stroke-width="1.5" stroke-linecap="round" stroke-linejoin="round"/>
<mask id="mask0_1_3546" style="mask-type:luminance" maskUnits="userSpaceOnUse" x="10" y="6" width="4" height="3">
<path d="M13.125 7.125C13.125 7.42337 13.0065 7.70952 12.7955 7.9205C12.5845 8.13147 12.2984 8.25 12 8.25C11.7016 8.25 11.4155 8.13147 11.2045 7.9205C10.9935 7.70952 10.875 7.42337 10.875 7.125C10.875 6.82663 10.9935 6.54048 11.2045 6.3295C11.4155 6.11853 11.7016 6 12 6C12.2984 6 12.5845 6.11853 12.7955 6.3295C13.0065 6.54048 13.125 6.82663 13.125 7.125Z" fill="white"/>
</mask>
<g mask="url(#mask0_1_3546)">
<path d="M13.125 7.125C13.125 7.42337 13.0065 7.70952 12.7955 7.9205C12.5845 8.13147 12.2984 8.25 12 8.25C11.7016 8.25 11.4155 8.13147 11.2045 7.9205C10.9935 7.70952 10.875 7.42337 10.875 7.125C10.875 6.82663 10.9935 6.54048 11.2045 6.3295C11.4155 6.11853 11.7016 6 12 6C12.2984 6 12.5845 6.11853 12.7955 6.3295C13.0065 6.54048 13.125 6.82663 13.125 7.125Z" fill="#2D2D2D"/>
<path d="M13.125 7.125C13.125 7.42337 13.0065 7.70952 12.7955 7.9205C12.5845 8.13147 12.2984 8.25 12 8.25C11.7016 8.25 11.4155 8.13147 11.2045 7.9205C10.9935 7.70952 10.875 7.42337 10.875 7.125C10.875 6.82663 10.9935 6.54048 11.2045 6.3295C11.4155 6.11853 11.7016 6 12 6C12.2984 6 12.5845 6.11853 12.7955 6.3295C13.0065 6.54048 13.125 6.82663 13.125 7.125Z" fill="black" fill-opacity="0.2"/>
<path d="M13.125 7.125C13.125 7.42337 13.0065 7.70952 12.7955 7.9205C12.5845 8.13147 12.2984 8.25 12 8.25C11.7016 8.25 11.4155 8.13147 11.2045 7.9205C10.9935 7.70952 10.875 7.42337 10.875 7.125C10.875 6.82663 10.9935 6.54048 11.2045 6.3295C11.4155 6.11853 11.7016 6 12 6C12.2984 6 12.5845 6.11853 12.7955 6.3295C13.0065 6.54048 13.125 6.82663 13.125 7.125Z" fill="black" fill-opacity="0.2"/>
<path d="M13.125 7.125C13.125 7.42337 13.0065 7.70952 12.7955 7.9205C12.5845 8.13147 12.2984 8.25 12 8.25C11.7016 8.25 11.4155 8.13147 11.2045 7.9205C10.9935 7.70952 10.875 7.42337 10.875 7.125C10.875 6.82663 10.9935 6.54048 11.2045 6.3295C11.4155 6.11853 11.7016 6 12 6C12.2984 6 12.5845 6.11853 12.7955 6.3295C13.0065 6.54048 13.125 6.82663 13.125 7.125Z" fill="black" fill-opacity="0.2"/>
<path d="M13.125 7.125C13.125 7.42337 13.0065 7.70952 12.7955 7.9205C12.5845 8.13147 12.2984 8.25 12 8.25C11.7016 8.25 11.4155 8.13147 11.2045 7.9205C10.9935 7.70952 10.875 7.42337 10.875 7.125C10.875 6.82663 10.9935 6.54048 11.2045 6.3295C11.4155 6.11853 11.7016 6 12 6C12.2984 6 12.5845 6.11853 12.7955 6.3295C13.0065 6.54048 13.125 6.82663 13.125 7.125Z" fill="black" fill-opacity="0.2"/>
<path d="M13.125 7.125C13.125 7.42337 13.0065 7.70952 12.7955 7.9205C12.5845 8.13147 12.2984 8.25 12 8.25C11.7016 8.25 11.4155 8.13147 11.2045 7.9205C10.9935 7.70952 10.875 7.42337 10.875 7.125C10.875 6.82663 10.9935 6.54048 11.2045 6.3295C11.4155 6.11853 11.7016 6 12 6C12.2984 6 12.5845 6.11853 12.7955 6.3295C13.0065 6.54048 13.125 6.82663 13.125 7.125Z" fill="black" fill-opacity="0.2"/>
<path d="M13.125 7.125C13.125 7.42337 13.0065 7.70952 12.7955 7.9205C12.5845 8.13147 12.2984 8.25 12 8.25C11.7016 8.25 11.4155 8.13147 11.2045 7.9205C10.9935 7.70952 10.875 7.42337 10.875 7.125C10.875 6.82663 10.9935 6.54048 11.2045 6.3295C11.4155 6.11853 11.7016 6 12 6C12.2984 6 12.5845 6.11853 12.7955 6.3295C13.0065 6.54048 13.125 6.82663 13.125 7.125Z" fill="black" fill-opacity="0.2"/>
<path d="M13.125 7.125C13.125 7.42337 13.0065 7.70952 12.7955 7.9205C12.5845 8.13147 12.2984 8.25 12 8.25C11.7016 8.25 11.4155 8.13147 11.2045 7.9205C10.9935 7.70952 10.875 7.42337 10.875 7.125C10.875 6.82663 10.9935 6.54048 11.2045 6.3295C11.4155 6.11853 11.7016 6 12 6C12.2984 6 12.5845 6.11853 12.7955 6.3295C13.0065 6.54048 13.125 6.82663 13.125 7.125Z" stroke="#2D2D2D" stroke-width="1.5"/>
<path d="M13.125 7.125C13.125 7.42337 13.0065 7.70952 12.7955 7.9205C12.5845 8.13147 12.2984 8.25 12 8.25C11.7016 8.25 11.4155 8.13147 11.2045 7.9205C10.9935 7.70952 10.875 7.42337 10.875 7.125C10.875 6.82663 10.9935 6.54048 11.2045 6.3295C11.4155 6.11853 11.7016 6 12 6C12.2984 6 12.5845 6.11853 12.7955 6.3295C13.0065 6.54048 13.125 6.82663 13.125 7.125Z" stroke="black" stroke-opacity="0.2" stroke-width="1.5"/>
<path d="M13.125 7.125C13.125 7.42337 13.0065 7.70952 12.7955 7.9205C12.5845 8.13147 12.2984 8.25 12 8.25C11.7016 8.25 11.4155 8.13147 11.2045 7.9205C10.9935 7.70952 10.875 7.42337 10.875 7.125C10.875 6.82663 10.9935 6.54048 11.2045 6.3295C11.4155 6.11853 11.7016 6 12 6C12.2984 6 12.5845 6.11853 12.7955 6.3295C13.0065 6.54048 13.125 6.82663 13.125 7.125Z" stroke="black" stroke-opacity="0.2" stroke-width="1.5"/>
<path d="M13.125 7.125C13.125 7.42337 13.0065 7.70952 12.7955 7.9205C12.5845 8.13147 12.2984 8.25 12 8.25C11.7016 8.25 11.4155 8.13147 11.2045 7.9205C10.9935 7.70952 10.875 7.42337 10.875 7.125C10.875 6.82663 10.9935 6.54048 11.2045 6.3295C11.4155 6.11853 11.7016 6 12 6C12.2984 6 12.5845 6.11853 12.7955 6.3295C13.0065 6.54048 13.125 6.82663 13.125 7.125Z" stroke="black" stroke-opacity="0.2" stroke-width="1.5"/>
<path d="M13.125 7.125C13.125 7.42337 13.0065 7.70952 12.7955 7.9205C12.5845 8.13147 12.2984 8.25 12 8.25C11.7016 8.25 11.4155 8.13147 11.2045 7.9205C10.9935 7.70952 10.875 7.42337 10.875 7.125C10.875 6.82663 10.9935 6.54048 11.2045 6.3295C11.4155 6.11853 11.7016 6 12 6C12.2984 6 12.5845 6.11853 12.7955 6.3295C13.0065 6.54048 13.125 6.82663 13.125 7.125Z" stroke="black" stroke-opacity="0.2" stroke-width="1.5"/>
<path d="M13.125 7.125C13.125 7.42337 13.0065 7.70952 12.7955 7.9205C12.5845 8.13147 12.2984 8.25 12 8.25C11.7016 8.25 11.4155 8.13147 11.2045 7.9205C10.9935 7.70952 10.875 7.42337 10.875 7.125C10.875 6.82663 10.9935 6.54048 11.2045 6.3295C11.4155 6.11853 11.7016 6 12 6C12.2984 6 12.5845 6.11853 12.7955 6.3295C13.0065 6.54048 13.125 6.82663 13.125 7.125Z" stroke="black" stroke-opacity="0.2" stroke-width="1.5"/>
<path d="M13.125 7.125C13.125 7.42337 13.0065 7.70952 12.7955 7.9205C12.5845 8.13147 12.2984 8.25 12 8.25C11.7016 8.25 11.4155 8.13147 11.2045 7.9205C10.9935 7.70952 10.875 7.42337 10.875 7.125C10.875 6.82663 10.9935 6.54048 11.2045 6.3295C11.4155 6.11853 11.7016 6 12 6C12.2984 6 12.5845 6.11853 12.7955 6.3295C13.0065 6.54048 13.125 6.82663 13.125 7.125Z" stroke="black" stroke-opacity="0.2" stroke-width="1.5"/>
</g>
</svg>
