<svg width="22" height="22" viewBox="0 0 22 22" fill="none" xmlns="http://www.w3.org/2000/svg">
<path d="M18.7778 4.3335H3.22222C1.99492 4.3335 1 5.32842 1 6.55572V18.7779C1 20.0052 1.99492 21.0002 3.22222 21.0002H18.7778C20.0051 21.0002 21 20.0052 21 18.7779V6.55572C21 5.32842 20.0051 4.3335 18.7778 4.3335Z" stroke="#423526" stroke-width="2"/>
<path d="M5.44434 4.8335H16.5557C17.6173 4.8335 18.3629 4.83484 18.9268 4.91064C19.4762 4.98456 19.7779 5.12114 19.9951 5.33838C20.2124 5.55562 20.3489 5.8573 20.4229 6.40674C20.4862 6.8776 20.4971 7.47525 20.499 8.27783H1.50098C1.50294 7.47525 1.51385 6.8776 1.57715 6.40674C1.65106 5.8573 1.78764 5.55562 2.00488 5.33838C2.22213 5.12113 2.52381 4.98456 3.07324 4.91064C3.63709 4.83484 4.38274 4.8335 5.44434 4.8335Z" fill="#423526" stroke="#423526"/>
<path d="M5.44446 1V4.33333M16.5556 1V4.33333" stroke="#423526" stroke-width="2" stroke-linecap="round"/>
<path d="M6.00012 11.5H9.33313C9.36381 11.5 9.38879 11.525 9.38879 11.5557V12.667C9.38862 12.6975 9.3637 12.7227 9.33313 12.7227H6.00012C5.96955 12.7227 5.94463 12.6975 5.94446 12.667V11.5557C5.94446 11.525 5.96944 11.5 6.00012 11.5Z" fill="#423526" stroke="#423526"/>
<path d="M6.00012 15.9443H9.33313C9.36381 15.9443 9.38879 15.9693 9.38879 16V17.1113C9.38862 17.1419 9.3637 17.167 9.33313 17.167H6.00012C5.96955 17.167 5.94463 17.1419 5.94446 17.1113V16C5.94446 15.9693 5.96944 15.9443 6.00012 15.9443Z" fill="#423526" stroke="#423526"/>
<path d="M12.6667 11.5H15.9998C16.0304 11.5 16.0554 11.525 16.0554 11.5557V12.667C16.0552 12.6975 16.0303 12.7227 15.9998 12.7227H12.6667C12.6362 12.7227 12.6113 12.6975 12.6111 12.667V11.5557C12.6111 11.525 12.6361 11.5 12.6667 11.5Z" fill="#423526" stroke="#423526"/>
<path d="M12.6667 15.9443H15.9998C16.0304 15.9443 16.0554 15.9693 16.0554 16V17.1113C16.0552 17.1419 16.0303 17.167 15.9998 17.167H12.6667C12.6362 17.167 12.6113 17.1419 12.6111 17.1113V16C12.6111 15.9693 12.6361 15.9443 12.6667 15.9443Z" fill="#423526" stroke="#423526"/>
</svg>
