<svg width="201" height="154" viewBox="0 0 201 154" fill="none" xmlns="http://www.w3.org/2000/svg">
<path opacity="0.15" d="M201 142V12.0003C201 5.37276 195.627 0.00013327 189 0.000297665L98.0155 0.00255451C95.0175 0.00262888 92.1281 1.12491 89.916 3.1485L62.9003 27.8627C60.4153 30.1359 59 33.3488 59 36.7167V75.3817C59 78.7496 60.4153 81.9625 62.9003 84.2358L135.722 150.854C137.934 152.877 140.824 154 143.822 154H189C195.627 154 201 148.627 201 142Z" fill="#F8EFE4"/>
<path opacity="0.15" d="M96.8543 154H125L27.3179 63.5111L42.2185 49.8237H0V89.3651L13.245 77.1985L96.8543 154Z" fill="#F8EFE4"/>
</svg>
