<svg width="24" height="24" viewBox="0 0 24 24" fill="none" xmlns="http://www.w3.org/2000/svg">
<path d="M3.50023 10V15C3.50023 17.828 3.50023 19.243 4.37923 20.121C5.25723 21 6.67223 21 9.50023 21H13.5002M20.5002 12V10M18.5012 15.5V14M18.5012 19.5V21M21.5002 15.748L20.2332 16.488M20.2332 16.488C20.0571 16.187 19.8054 15.9374 19.503 15.7637C19.2006 15.5901 18.8581 15.4985 18.5094 15.4981C18.1607 15.4977 17.8179 15.5885 17.5151 15.7614C17.2124 15.9344 16.961 16.1835 16.7842 16.484M20.2332 16.488C20.4119 16.7931 20.5066 17.1402 20.5074 17.4938C20.5083 17.8474 20.4154 18.195 20.2382 18.501C20.0629 18.8046 19.8109 19.0567 19.5074 19.2322C19.204 19.4077 18.8597 19.5003 18.5092 19.5008C18.1586 19.5013 17.8141 19.4097 17.5101 19.2351C17.2062 19.0605 16.9534 18.8091 16.7772 18.506M15.5072 19.248L16.7772 18.506M16.7772 18.506C16.6062 18.21 16.5072 17.867 16.5072 17.5C16.5071 17.1427 16.6028 16.7918 16.7842 16.484M21.5072 19.242L20.2382 18.502M15.5142 15.742L16.7842 16.484M17.0002 7.502C17 8.16504 16.7363 8.80082 16.2673 9.26947C16.035 9.50153 15.7594 9.68557 15.456 9.81108C15.1527 9.9366 14.8275 10.0011 14.4992 10.001C14.1709 10.0009 13.8459 9.93607 13.5426 9.81032C13.2393 9.68456 12.9638 9.5003 12.7318 9.26806C12.2631 8.79903 12 8.16304 12.0002 7.5C12.0002 8.16304 11.7368 8.79893 11.268 9.26777C10.7992 9.73661 10.1633 10 9.50023 10C8.83719 10 8.2013 9.73661 7.73246 9.26777C7.26362 8.79893 7.00023 8.16304 7.00023 7.5C7.00023 8.88 5.82723 10 4.37923 10C3.59923 10 2.90023 9.676 2.42023 9.16C1.59523 8.276 2.12623 6.974 2.81423 5.988L3.20223 5.458C4.08423 4.253 4.52523 3.65 5.16523 3.325C5.80523 3 6.55223 3 8.04523 3L15.9552 3.001C17.4482 3.001 18.1952 3.001 18.8352 3.326C19.4752 3.651 19.9152 4.254 20.7972 5.459L21.1862 5.99C21.8742 6.976 22.4062 8.278 21.5802 9.163C21.1002 9.677 20.4002 10.002 19.6212 10.002C18.1742 10.002 17.0002 8.882 17.0002 7.502Z" stroke="#2D2D2D" stroke-width="1.5" stroke-linecap="round" stroke-linejoin="round"/>
<path d="M3.50023 10V15C3.50023 17.828 3.50023 19.243 4.37923 20.121C5.25723 21 6.67223 21 9.50023 21H13.5002M20.5002 12V10M18.5012 15.5V14M18.5012 19.5V21M21.5002 15.748L20.2332 16.488M20.2332 16.488C20.0571 16.187 19.8054 15.9374 19.503 15.7637C19.2006 15.5901 18.8581 15.4985 18.5094 15.4981C18.1607 15.4977 17.8179 15.5885 17.5151 15.7614C17.2124 15.9344 16.961 16.1835 16.7842 16.484M20.2332 16.488C20.4119 16.7931 20.5066 17.1402 20.5074 17.4938C20.5083 17.8474 20.4154 18.195 20.2382 18.501C20.0629 18.8046 19.8109 19.0567 19.5074 19.2322C19.204 19.4077 18.8597 19.5003 18.5092 19.5008C18.1586 19.5013 17.8141 19.4097 17.5101 19.2351C17.2062 19.0605 16.9534 18.8091 16.7772 18.506M15.5072 19.248L16.7772 18.506M16.7772 18.506C16.6062 18.21 16.5072 17.867 16.5072 17.5C16.5071 17.1427 16.6028 16.7918 16.7842 16.484M21.5072 19.242L20.2382 18.502M15.5142 15.742L16.7842 16.484M17.0002 7.502C17 8.16504 16.7363 8.80082 16.2673 9.26947C16.035 9.50153 15.7594 9.68557 15.456 9.81108C15.1527 9.9366 14.8275 10.0011 14.4992 10.001C14.1709 10.0009 13.8459 9.93607 13.5426 9.81032C13.2393 9.68456 12.9638 9.5003 12.7318 9.26806C12.2631 8.79903 12 8.16304 12.0002 7.5C12.0002 8.16304 11.7368 8.79893 11.268 9.26777C10.7992 9.73661 10.1633 10 9.50023 10C8.83719 10 8.2013 9.73661 7.73246 9.26777C7.26362 8.79893 7.00023 8.16304 7.00023 7.5C7.00023 8.88 5.82723 10 4.37923 10C3.59923 10 2.90023 9.676 2.42023 9.16C1.59523 8.276 2.12623 6.974 2.81423 5.988L3.20223 5.458C4.08423 4.253 4.52523 3.65 5.16523 3.325C5.80523 3 6.55223 3 8.04523 3L15.9552 3.001C17.4482 3.001 18.1952 3.001 18.8352 3.326C19.4752 3.651 19.9152 4.254 20.7972 5.459L21.1862 5.99C21.8742 6.976 22.4062 8.278 21.5802 9.163C21.1002 9.677 20.4002 10.002 19.6212 10.002C18.1742 10.002 17.0002 8.882 17.0002 7.502Z" stroke="black" stroke-opacity="0.2" stroke-width="1.5" stroke-linecap="round" stroke-linejoin="round"/>
<path d="M3.50023 10V15C3.50023 17.828 3.50023 19.243 4.37923 20.121C5.25723 21 6.67223 21 9.50023 21H13.5002M20.5002 12V10M18.5012 15.5V14M18.5012 19.5V21M21.5002 15.748L20.2332 16.488M20.2332 16.488C20.0571 16.187 19.8054 15.9374 19.503 15.7637C19.2006 15.5901 18.8581 15.4985 18.5094 15.4981C18.1607 15.4977 17.8179 15.5885 17.5151 15.7614C17.2124 15.9344 16.961 16.1835 16.7842 16.484M20.2332 16.488C20.4119 16.7931 20.5066 17.1402 20.5074 17.4938C20.5083 17.8474 20.4154 18.195 20.2382 18.501C20.0629 18.8046 19.8109 19.0567 19.5074 19.2322C19.204 19.4077 18.8597 19.5003 18.5092 19.5008C18.1586 19.5013 17.8141 19.4097 17.5101 19.2351C17.2062 19.0605 16.9534 18.8091 16.7772 18.506M15.5072 19.248L16.7772 18.506M16.7772 18.506C16.6062 18.21 16.5072 17.867 16.5072 17.5C16.5071 17.1427 16.6028 16.7918 16.7842 16.484M21.5072 19.242L20.2382 18.502M15.5142 15.742L16.7842 16.484M17.0002 7.502C17 8.16504 16.7363 8.80082 16.2673 9.26947C16.035 9.50153 15.7594 9.68557 15.456 9.81108C15.1527 9.9366 14.8275 10.0011 14.4992 10.001C14.1709 10.0009 13.8459 9.93607 13.5426 9.81032C13.2393 9.68456 12.9638 9.5003 12.7318 9.26806C12.2631 8.79903 12 8.16304 12.0002 7.5C12.0002 8.16304 11.7368 8.79893 11.268 9.26777C10.7992 9.73661 10.1633 10 9.50023 10C8.83719 10 8.2013 9.73661 7.73246 9.26777C7.26362 8.79893 7.00023 8.16304 7.00023 7.5C7.00023 8.88 5.82723 10 4.37923 10C3.59923 10 2.90023 9.676 2.42023 9.16C1.59523 8.276 2.12623 6.974 2.81423 5.988L3.20223 5.458C4.08423 4.253 4.52523 3.65 5.16523 3.325C5.80523 3 6.55223 3 8.04523 3L15.9552 3.001C17.4482 3.001 18.1952 3.001 18.8352 3.326C19.4752 3.651 19.9152 4.254 20.7972 5.459L21.1862 5.99C21.8742 6.976 22.4062 8.278 21.5802 9.163C21.1002 9.677 20.4002 10.002 19.6212 10.002C18.1742 10.002 17.0002 8.882 17.0002 7.502Z" stroke="black" stroke-opacity="0.2" stroke-width="1.5" stroke-linecap="round" stroke-linejoin="round"/>
<path d="M3.50023 10V15C3.50023 17.828 3.50023 19.243 4.37923 20.121C5.25723 21 6.67223 21 9.50023 21H13.5002M20.5002 12V10M18.5012 15.5V14M18.5012 19.5V21M21.5002 15.748L20.2332 16.488M20.2332 16.488C20.0571 16.187 19.8054 15.9374 19.503 15.7637C19.2006 15.5901 18.8581 15.4985 18.5094 15.4981C18.1607 15.4977 17.8179 15.5885 17.5151 15.7614C17.2124 15.9344 16.961 16.1835 16.7842 16.484M20.2332 16.488C20.4119 16.7931 20.5066 17.1402 20.5074 17.4938C20.5083 17.8474 20.4154 18.195 20.2382 18.501C20.0629 18.8046 19.8109 19.0567 19.5074 19.2322C19.204 19.4077 18.8597 19.5003 18.5092 19.5008C18.1586 19.5013 17.8141 19.4097 17.5101 19.2351C17.2062 19.0605 16.9534 18.8091 16.7772 18.506M15.5072 19.248L16.7772 18.506M16.7772 18.506C16.6062 18.21 16.5072 17.867 16.5072 17.5C16.5071 17.1427 16.6028 16.7918 16.7842 16.484M21.5072 19.242L20.2382 18.502M15.5142 15.742L16.7842 16.484M17.0002 7.502C17 8.16504 16.7363 8.80082 16.2673 9.26947C16.035 9.50153 15.7594 9.68557 15.456 9.81108C15.1527 9.9366 14.8275 10.0011 14.4992 10.001C14.1709 10.0009 13.8459 9.93607 13.5426 9.81032C13.2393 9.68456 12.9638 9.5003 12.7318 9.26806C12.2631 8.79903 12 8.16304 12.0002 7.5C12.0002 8.16304 11.7368 8.79893 11.268 9.26777C10.7992 9.73661 10.1633 10 9.50023 10C8.83719 10 8.2013 9.73661 7.73246 9.26777C7.26362 8.79893 7.00023 8.16304 7.00023 7.5C7.00023 8.88 5.82723 10 4.37923 10C3.59923 10 2.90023 9.676 2.42023 9.16C1.59523 8.276 2.12623 6.974 2.81423 5.988L3.20223 5.458C4.08423 4.253 4.52523 3.65 5.16523 3.325C5.80523 3 6.55223 3 8.04523 3L15.9552 3.001C17.4482 3.001 18.1952 3.001 18.8352 3.326C19.4752 3.651 19.9152 4.254 20.7972 5.459L21.1862 5.99C21.8742 6.976 22.4062 8.278 21.5802 9.163C21.1002 9.677 20.4002 10.002 19.6212 10.002C18.1742 10.002 17.0002 8.882 17.0002 7.502Z" stroke="black" stroke-opacity="0.2" stroke-width="1.5" stroke-linecap="round" stroke-linejoin="round"/>
<path d="M3.50023 10V15C3.50023 17.828 3.50023 19.243 4.37923 20.121C5.25723 21 6.67223 21 9.50023 21H13.5002M20.5002 12V10M18.5012 15.5V14M18.5012 19.5V21M21.5002 15.748L20.2332 16.488M20.2332 16.488C20.0571 16.187 19.8054 15.9374 19.503 15.7637C19.2006 15.5901 18.8581 15.4985 18.5094 15.4981C18.1607 15.4977 17.8179 15.5885 17.5151 15.7614C17.2124 15.9344 16.961 16.1835 16.7842 16.484M20.2332 16.488C20.4119 16.7931 20.5066 17.1402 20.5074 17.4938C20.5083 17.8474 20.4154 18.195 20.2382 18.501C20.0629 18.8046 19.8109 19.0567 19.5074 19.2322C19.204 19.4077 18.8597 19.5003 18.5092 19.5008C18.1586 19.5013 17.8141 19.4097 17.5101 19.2351C17.2062 19.0605 16.9534 18.8091 16.7772 18.506M15.5072 19.248L16.7772 18.506M16.7772 18.506C16.6062 18.21 16.5072 17.867 16.5072 17.5C16.5071 17.1427 16.6028 16.7918 16.7842 16.484M21.5072 19.242L20.2382 18.502M15.5142 15.742L16.7842 16.484M17.0002 7.502C17 8.16504 16.7363 8.80082 16.2673 9.26947C16.035 9.50153 15.7594 9.68557 15.456 9.81108C15.1527 9.9366 14.8275 10.0011 14.4992 10.001C14.1709 10.0009 13.8459 9.93607 13.5426 9.81032C13.2393 9.68456 12.9638 9.5003 12.7318 9.26806C12.2631 8.79903 12 8.16304 12.0002 7.5C12.0002 8.16304 11.7368 8.79893 11.268 9.26777C10.7992 9.73661 10.1633 10 9.50023 10C8.83719 10 8.2013 9.73661 7.73246 9.26777C7.26362 8.79893 7.00023 8.16304 7.00023 7.5C7.00023 8.88 5.82723 10 4.37923 10C3.59923 10 2.90023 9.676 2.42023 9.16C1.59523 8.276 2.12623 6.974 2.81423 5.988L3.20223 5.458C4.08423 4.253 4.52523 3.65 5.16523 3.325C5.80523 3 6.55223 3 8.04523 3L15.9552 3.001C17.4482 3.001 18.1952 3.001 18.8352 3.326C19.4752 3.651 19.9152 4.254 20.7972 5.459L21.1862 5.99C21.8742 6.976 22.4062 8.278 21.5802 9.163C21.1002 9.677 20.4002 10.002 19.6212 10.002C18.1742 10.002 17.0002 8.882 17.0002 7.502Z" stroke="black" stroke-opacity="0.2" stroke-width="1.5" stroke-linecap="round" stroke-linejoin="round"/>
<path d="M3.50023 10V15C3.50023 17.828 3.50023 19.243 4.37923 20.121C5.25723 21 6.67223 21 9.50023 21H13.5002M20.5002 12V10M18.5012 15.5V14M18.5012 19.5V21M21.5002 15.748L20.2332 16.488M20.2332 16.488C20.0571 16.187 19.8054 15.9374 19.503 15.7637C19.2006 15.5901 18.8581 15.4985 18.5094 15.4981C18.1607 15.4977 17.8179 15.5885 17.5151 15.7614C17.2124 15.9344 16.961 16.1835 16.7842 16.484M20.2332 16.488C20.4119 16.7931 20.5066 17.1402 20.5074 17.4938C20.5083 17.8474 20.4154 18.195 20.2382 18.501C20.0629 18.8046 19.8109 19.0567 19.5074 19.2322C19.204 19.4077 18.8597 19.5003 18.5092 19.5008C18.1586 19.5013 17.8141 19.4097 17.5101 19.2351C17.2062 19.0605 16.9534 18.8091 16.7772 18.506M15.5072 19.248L16.7772 18.506M16.7772 18.506C16.6062 18.21 16.5072 17.867 16.5072 17.5C16.5071 17.1427 16.6028 16.7918 16.7842 16.484M21.5072 19.242L20.2382 18.502M15.5142 15.742L16.7842 16.484M17.0002 7.502C17 8.16504 16.7363 8.80082 16.2673 9.26947C16.035 9.50153 15.7594 9.68557 15.456 9.81108C15.1527 9.9366 14.8275 10.0011 14.4992 10.001C14.1709 10.0009 13.8459 9.93607 13.5426 9.81032C13.2393 9.68456 12.9638 9.5003 12.7318 9.26806C12.2631 8.79903 12 8.16304 12.0002 7.5C12.0002 8.16304 11.7368 8.79893 11.268 9.26777C10.7992 9.73661 10.1633 10 9.50023 10C8.83719 10 8.2013 9.73661 7.73246 9.26777C7.26362 8.79893 7.00023 8.16304 7.00023 7.5C7.00023 8.88 5.82723 10 4.37923 10C3.59923 10 2.90023 9.676 2.42023 9.16C1.59523 8.276 2.12623 6.974 2.81423 5.988L3.20223 5.458C4.08423 4.253 4.52523 3.65 5.16523 3.325C5.80523 3 6.55223 3 8.04523 3L15.9552 3.001C17.4482 3.001 18.1952 3.001 18.8352 3.326C19.4752 3.651 19.9152 4.254 20.7972 5.459L21.1862 5.99C21.8742 6.976 22.4062 8.278 21.5802 9.163C21.1002 9.677 20.4002 10.002 19.6212 10.002C18.1742 10.002 17.0002 8.882 17.0002 7.502Z" stroke="black" stroke-opacity="0.2" stroke-width="1.5" stroke-linecap="round" stroke-linejoin="round"/>
<path d="M3.50023 10V15C3.50023 17.828 3.50023 19.243 4.37923 20.121C5.25723 21 6.67223 21 9.50023 21H13.5002M20.5002 12V10M18.5012 15.5V14M18.5012 19.5V21M21.5002 15.748L20.2332 16.488M20.2332 16.488C20.0571 16.187 19.8054 15.9374 19.503 15.7637C19.2006 15.5901 18.8581 15.4985 18.5094 15.4981C18.1607 15.4977 17.8179 15.5885 17.5151 15.7614C17.2124 15.9344 16.961 16.1835 16.7842 16.484M20.2332 16.488C20.4119 16.7931 20.5066 17.1402 20.5074 17.4938C20.5083 17.8474 20.4154 18.195 20.2382 18.501C20.0629 18.8046 19.8109 19.0567 19.5074 19.2322C19.204 19.4077 18.8597 19.5003 18.5092 19.5008C18.1586 19.5013 17.8141 19.4097 17.5101 19.2351C17.2062 19.0605 16.9534 18.8091 16.7772 18.506M15.5072 19.248L16.7772 18.506M16.7772 18.506C16.6062 18.21 16.5072 17.867 16.5072 17.5C16.5071 17.1427 16.6028 16.7918 16.7842 16.484M21.5072 19.242L20.2382 18.502M15.5142 15.742L16.7842 16.484M17.0002 7.502C17 8.16504 16.7363 8.80082 16.2673 9.26947C16.035 9.50153 15.7594 9.68557 15.456 9.81108C15.1527 9.9366 14.8275 10.0011 14.4992 10.001C14.1709 10.0009 13.8459 9.93607 13.5426 9.81032C13.2393 9.68456 12.9638 9.5003 12.7318 9.26806C12.2631 8.79903 12 8.16304 12.0002 7.5C12.0002 8.16304 11.7368 8.79893 11.268 9.26777C10.7992 9.73661 10.1633 10 9.50023 10C8.83719 10 8.2013 9.73661 7.73246 9.26777C7.26362 8.79893 7.00023 8.16304 7.00023 7.5C7.00023 8.88 5.82723 10 4.37923 10C3.59923 10 2.90023 9.676 2.42023 9.16C1.59523 8.276 2.12623 6.974 2.81423 5.988L3.20223 5.458C4.08423 4.253 4.52523 3.65 5.16523 3.325C5.80523 3 6.55223 3 8.04523 3L15.9552 3.001C17.4482 3.001 18.1952 3.001 18.8352 3.326C19.4752 3.651 19.9152 4.254 20.7972 5.459L21.1862 5.99C21.8742 6.976 22.4062 8.278 21.5802 9.163C21.1002 9.677 20.4002 10.002 19.6212 10.002C18.1742 10.002 17.0002 8.882 17.0002 7.502Z" stroke="black" stroke-opacity="0.2" stroke-width="1.5" stroke-linecap="round" stroke-linejoin="round"/>
</svg>
