<svg width="350" height="261" viewBox="0 0 350 261" fill="none" xmlns="http://www.w3.org/2000/svg">
<path d="M350 229.18H0V229.355H350V229.18Z" fill="#F5E3CC"/>
<path d="M314.93 240.443H291.746V240.618H314.93V240.443Z" fill="#F5E3CC"/>
<path d="M231.854 242.347H225.771V242.522H231.854V242.347Z" fill="#F5E3CC"/>
<path d="M291.046 233.947H277.613V234.122H291.046V233.947Z" fill="#F5E3CC"/>
<path d="M66.955 235.123H36.722V235.298H66.955V235.123Z" fill="#F5E3CC"/>
<path d="M77.623 235.123H73.192V235.298H77.623V235.123Z" fill="#F5E3CC"/>
<path d="M157.605 238.077H92.029V238.252H157.605V238.077Z" fill="#F5E3CC"/>
<path d="M165.9 197.96H30.737C29.6782 197.958 28.6633 197.536 27.9152 196.787C27.1672 196.037 26.747 195.022 26.747 193.963V3.962C26.7562 2.90922 27.1804 1.90258 27.9275 1.16075C28.6746 0.418921 29.6842 0.00180347 30.737 0H165.9C166.96 0 167.977 0.421111 168.726 1.17069C169.476 1.92028 169.897 2.93693 169.897 3.997V193.963C169.897 195.023 169.476 196.04 168.726 196.789C167.977 197.539 166.96 197.96 165.9 197.96ZM30.737 0.14C29.7246 0.141855 28.7542 0.545345 28.039 1.26191C27.3237 1.97847 26.922 2.94955 26.922 3.962V193.963C26.922 194.975 27.3237 195.946 28.039 196.663C28.7542 197.38 29.7246 197.783 30.737 197.785H165.9C166.913 197.783 167.884 197.38 168.601 196.663C169.317 195.947 169.72 194.976 169.722 193.963V3.962C169.72 2.94891 169.317 1.97784 168.601 1.26148C167.884 0.545118 166.913 0.141851 165.9 0.14H30.737Z" fill="#F5E3CC"/>
<path d="M317.317 197.96H182.147C181.088 197.958 180.072 197.536 179.323 196.787C178.574 196.038 178.152 195.022 178.15 193.963V3.962C178.161 2.90858 178.587 1.90195 179.335 1.16031C180.083 0.418676 181.094 0.0017838 182.147 0H317.317C318.369 0.00364315 319.376 0.421574 320.122 1.16321C320.868 1.90484 321.291 2.91043 321.3 3.962V193.963C321.3 195.021 320.881 196.035 320.134 196.784C319.388 197.533 318.375 197.956 317.317 197.96ZM182.147 0.14C181.134 0.141851 180.163 0.545118 179.447 1.26148C178.73 1.97784 178.327 2.94891 178.325 3.962V193.963C178.327 194.976 178.73 195.947 179.447 196.663C180.163 197.38 181.134 197.783 182.147 197.785H317.317C318.33 197.783 319.301 197.38 320.018 196.663C320.734 195.947 321.137 194.976 321.139 193.963V3.962C321.137 2.94891 320.734 1.97784 320.018 1.26148C319.301 0.545118 318.33 0.141851 317.317 0.14H182.147Z" fill="#F5E3CC"/>
<path d="M202.783 83.3423L299.229 83.3423V20.1813L202.783 20.1813V83.3423Z" fill="#F1D8BA"/>
<path d="M199.836 83.3423L297.85 83.3423V20.1813L199.836 20.1813V83.3423Z" fill="#F5E3CC"/>
<path d="M202.783 95.7319L299.229 95.7319V83.3349L202.783 83.3349V95.7319Z" fill="#F1D8BA"/>
<path d="M194.943 95.7319L292.957 95.7319V83.3349L194.943 83.3349V95.7319Z" fill="#F5E3CC"/>
<path d="M293.734 79.2262V24.3042L203.959 24.3042V79.2262H293.734Z" fill="#CBA576"/>
<path d="M273.49 79.2192L262.024 24.3042H244.132L255.598 79.2192H273.49Z" fill="#FCF8F3"/>
<path d="M291.83 75.124C291.869 75.124 291.908 75.1162 291.944 75.101C291.98 75.0858 292.013 75.0635 292.04 75.0354C292.068 75.0074 292.089 74.9741 292.104 74.9377C292.118 74.9012 292.125 74.8622 292.124 74.823V26.985C292.124 26.907 292.093 26.8323 292.038 26.7771C291.983 26.722 291.908 26.691 291.83 26.691C291.791 26.69 291.752 26.697 291.716 26.7114C291.68 26.7259 291.647 26.7475 291.62 26.775C291.592 26.8025 291.571 26.8353 291.556 26.8714C291.542 26.9075 291.535 26.9461 291.536 26.985V74.823C291.535 74.8622 291.542 74.9012 291.556 74.9377C291.571 74.9741 291.592 75.0074 291.62 75.0354C291.647 75.0635 291.68 75.0858 291.716 75.101C291.752 75.1162 291.791 75.124 291.83 75.124Z" fill="#F5E3CC"/>
<path d="M251.755 79.2192L240.289 24.3042H233.31L244.783 79.2192H251.755Z" fill="#FCF8F3"/>
<path d="M204.484 79.2262V24.3042H203.959V79.2262H204.484Z" fill="#F1D8BA"/>
<path opacity="0.6" d="M198.87 30.5129H295.316L295.694 25.8999H199.248L198.87 30.5129Z" fill="#F5E3CC"/>
<path opacity="0.6" d="M198.87 38.0728H295.316L295.694 33.4668H199.248L198.87 38.0728Z" fill="#F5E3CC"/>
<path opacity="0.6" d="M198.87 45.6329H295.316L295.694 41.0269H199.248L198.87 45.6329Z" fill="#F5E3CC"/>
<path opacity="0.6" d="M198.87 53.1999H295.316L295.694 48.5869H199.248L198.87 53.1999Z" fill="#F5E3CC"/>
<path opacity="0.6" d="M198.87 60.76H295.316L295.694 56.147H199.248L198.87 60.76Z" fill="#F5E3CC"/>
<path opacity="0.6" d="M198.87 68.32H295.316L295.694 63.707H199.248L198.87 68.32Z" fill="#F5E3CC"/>
<path d="M285.383 183.246H265.16V187.236H285.383V183.246Z" fill="#F1D8BA"/>
<path d="M227.017 229.18H230.748V137.431H227.017V229.18Z" fill="#F1D8BA"/>
<path d="M214.081 187.236H265.153V183.246H214.081V187.236Z" fill="#B09050"/>
<path d="M285.383 205.065H265.16V209.055H285.383V205.065Z" fill="#F1D8BA"/>
<path d="M214.081 209.048H265.153V205.058H214.081V209.048Z" fill="#B09050"/>
<path d="M285.383 139.615H265.16V143.605H285.383V139.615Z" fill="#F1D8BA"/>
<path d="M214.081 143.598H265.153V139.608H214.081V143.598Z" fill="#B09050"/>
<path d="M285.383 161.427H265.16V165.417H285.383V161.427Z" fill="#F1D8BA"/>
<path d="M214.081 165.417H265.153V161.427H214.081V165.417Z" fill="#B09050"/>
<path d="M278.096 229.18H281.827V137.431H278.096V229.18Z" fill="#F1D8BA"/>
<path d="M261.422 229.18H265.153V137.431H261.422V229.18Z" fill="#B09050"/>
<path d="M214.081 229.18H217.812V137.431H214.081V229.18Z" fill="#B09050"/>
<path d="M45.766 229.18H83.972L83.972 155.057H45.766L45.766 229.18Z" fill="#F1D8BA"/>
<path d="M55.965 229.18H45.759V218.946H66.661L55.965 229.18Z" fill="#CBA576"/>
<path d="M149.926 229.18H188.132V155.057H149.926V229.18Z" fill="#F1D8BA"/>
<path d="M45.766 225.652H158.837V155.05H45.766L45.766 225.652Z" fill="#CBA576"/>
<path d="M148.631 229.18H158.83V218.946H137.935L148.631 229.18Z" fill="#CBA576"/>
<path d="M53.676 199.031H150.92V181.363H53.676V199.031Z" fill="#F5E3CC"/>
<path d="M53.676 220.472H150.92V202.804H53.676V220.472Z" fill="#F5E3CC"/>
<path d="M132.44 183.253H72.163C71.3128 183.253 70.4973 182.915 69.8961 182.314C69.2948 181.713 68.957 180.897 68.957 180.047V179.83H135.639V180.047C135.639 180.896 135.302 181.71 134.702 182.311C134.103 182.912 133.289 183.251 132.44 183.253Z" fill="#CBA576"/>
<path d="M53.676 177.583H150.92V159.915H53.676V177.583Z" fill="#F5E3CC"/>
<path d="M132.44 161.805H72.163C71.3128 161.805 70.4973 161.467 69.8961 160.866C69.2948 160.265 68.957 159.449 68.957 158.599V158.382H135.639V158.599C135.639 159.448 135.302 160.263 134.702 160.864C134.103 161.465 133.289 161.803 132.44 161.805Z" fill="#CBA576"/>
<path d="M132.44 204.701H72.163C71.3128 204.701 70.4973 204.363 69.8961 203.762C69.2948 203.161 68.957 202.345 68.957 201.495V201.278H135.639V201.495C135.639 202.344 135.302 203.159 134.702 203.76C134.103 204.361 133.289 204.699 132.44 204.701Z" fill="#CBA576"/>
<path d="M51.849 83.3423L148.295 83.3423V20.1813L51.849 20.1813L51.849 83.3423Z" fill="#F1D8BA"/>
<path d="M48.909 83.3423L146.923 83.3423V20.1813L48.909 20.1813L48.909 83.3423Z" fill="#F5E3CC"/>
<path d="M51.849 95.7319L148.295 95.7319V83.3349L51.849 83.3349V95.7319Z" fill="#F1D8BA"/>
<path d="M44.002 95.7319L142.016 95.7319V83.3349L44.002 83.3349V95.7319Z" fill="#F5E3CC"/>
<path d="M142.8 79.2262V24.3042L53.0249 24.3042V79.2262H142.8Z" fill="#CBA576"/>
<path d="M122.556 79.2192L111.09 24.3042H93.198L104.664 79.2192H122.556Z" fill="#FCF8F3"/>
<path d="M140.889 75.124C140.928 75.124 140.967 75.1162 141.003 75.101C141.039 75.0858 141.072 75.0635 141.099 75.0354C141.127 75.0074 141.148 74.9741 141.163 74.9377C141.177 74.9012 141.184 74.8622 141.183 74.823V26.985C141.184 26.9461 141.177 26.9075 141.163 26.8714C141.148 26.8353 141.127 26.8025 141.099 26.775C141.072 26.7475 141.039 26.7259 141.003 26.7114C140.967 26.697 140.928 26.69 140.889 26.691C140.811 26.691 140.736 26.722 140.681 26.7771C140.626 26.8323 140.595 26.907 140.595 26.985V74.823C140.594 74.8622 140.601 74.9012 140.615 74.9377C140.63 74.9741 140.651 75.0074 140.679 75.0354C140.706 75.0635 140.739 75.0858 140.775 75.101C140.811 75.1162 140.85 75.124 140.889 75.124Z" fill="#F5E3CC"/>
<path d="M100.821 79.2192L89.355 24.3042H82.376L93.842 79.2192H100.821Z" fill="#FCF8F3"/>
<path d="M53.55 79.2262V24.3042H53.025V79.2262H53.55Z" fill="#F1D8BA"/>
<path opacity="0.6" d="M47.929 30.5129H144.375L144.753 25.8999H48.307L47.929 30.5129Z" fill="#F5E3CC"/>
<path opacity="0.6" d="M47.929 33.1169H144.375L144.753 28.5039H48.307L47.929 33.1169Z" fill="#F5E3CC"/>
<path opacity="0.6" d="M47.929 35.7139H144.375L144.753 31.1079H48.307L47.929 35.7139Z" fill="#F5E3CC"/>
<path opacity="0.6" d="M47.929 38.3181H144.375L144.753 33.7051H48.307L47.929 38.3181Z" fill="#F5E3CC"/>
<path opacity="0.6" d="M47.929 40.9151H144.375L144.753 36.3091H48.307L47.929 40.9151Z" fill="#F5E3CC"/>
<path opacity="0.6" d="M47.929 43.5188H144.375L144.753 38.9058H48.307L47.929 43.5188Z" fill="#F5E3CC"/>
<path d="M67.214 152.789H70.546V115.626H67.214V152.789Z" fill="#B09050"/>
<path d="M67.634 152.768H68.579V115.605H67.634V152.768Z" fill="#CBA576"/>
<path d="M68.971 152.768H69.342V115.605H68.971V152.768Z" fill="#CBA576"/>
<path d="M81.2209 155.057H56.5529C56.5529 154.233 56.8804 153.442 57.4633 152.859C58.0461 152.277 58.8367 151.949 59.661 151.949H78.1059C78.9302 151.949 79.7208 152.277 80.3036 152.859C80.8865 153.442 81.214 154.233 81.214 155.057H81.2209Z" fill="#F5E3CC"/>
<path d="M62.888 138.698C63.1418 138.696 63.3846 138.594 63.5641 138.415C63.7435 138.236 63.8452 137.993 63.847 137.739V113.4C63.847 113.146 63.746 112.902 63.5661 112.722C63.3863 112.542 63.1423 112.441 62.888 112.441C62.7615 112.44 62.636 112.464 62.5189 112.512C62.4017 112.56 62.2951 112.63 62.2054 112.719C62.1156 112.808 62.0443 112.915 61.9957 113.031C61.947 113.148 61.922 113.273 61.922 113.4V137.767C61.9311 138.017 62.0368 138.254 62.217 138.427C62.3972 138.601 62.6377 138.698 62.888 138.698Z" fill="#F5E3CC"/>
<path d="M53.949 124.46H83.804L80.367 103.6H57.386L53.949 124.46Z" fill="#B09050"/>
<path d="M175 260.792C249.958 260.792 310.723 257.244 310.723 252.868C310.723 248.492 249.958 244.944 175 244.944C100.042 244.944 39.277 248.492 39.277 252.868C39.277 257.244 100.042 260.792 175 260.792Z" fill="#F5E3CC"/>
<path d="M72.883 103.151L72.1848 103.202L73.1147 116.111L73.8129 116.061L72.883 103.151Z" fill="#B09050"/>
<path d="M74.2872 122.726L73.5891 122.776L73.9391 127.635L74.6373 127.585L74.2872 122.726Z" fill="#B09050"/>
<path d="M236.397 182.112H86.485C84.8162 182.082 83.2177 181.435 81.9975 180.297C80.7774 179.158 80.022 177.608 79.877 175.945L72.5129 73.6541C72.4445 72.8652 72.542 72.0707 72.7992 71.3218C73.0564 70.5729 73.4677 69.8862 74.0064 69.3059C74.5452 68.7255 75.1995 68.2645 75.9273 67.9525C76.6551 67.6404 77.4402 67.4843 78.232 67.4941H228.144C229.812 67.5239 231.409 68.1697 232.629 69.3069C233.849 70.4442 234.605 71.9927 234.752 73.6541L242.116 175.945C242.184 176.734 242.087 177.529 241.83 178.278C241.573 179.028 241.161 179.715 240.623 180.296C240.084 180.876 239.43 181.338 238.702 181.651C237.974 181.964 237.189 182.121 236.397 182.112Z" fill="#B09050"/>
<path d="M236.971 182.112H87.0589C85.3902 182.082 83.7917 181.435 82.5715 180.297C81.3513 179.158 80.5959 177.608 80.4509 175.945L73.0869 73.6541C73.0184 72.8652 73.1159 72.0707 73.3732 71.3218C73.6304 70.5729 74.0416 69.8862 74.5804 69.3059C75.1192 68.7255 75.7735 68.2645 76.5013 67.9525C77.2291 67.6404 78.0141 67.4843 78.8059 67.4941H228.718C230.386 67.5239 231.983 68.1697 233.203 69.3069C234.423 70.4442 235.179 71.9927 235.326 73.6541L242.69 175.945C242.759 176.735 242.663 177.53 242.406 178.28C242.149 179.029 241.738 179.717 241.199 180.298C240.66 180.879 240.006 181.341 239.277 181.653C238.549 181.966 237.763 182.122 236.971 182.112Z" fill="#B09050"/>
<path opacity="0.5" d="M236.971 182.112H87.0589C85.3902 182.082 83.7917 181.435 82.5715 180.297C81.3513 179.158 80.5959 177.608 80.4509 175.945L73.0869 73.6541C73.0184 72.8652 73.1159 72.0707 73.3732 71.3218C73.6304 70.5729 74.0416 69.8862 74.5804 69.3059C75.1192 68.7255 75.7735 68.2645 76.5013 67.9525C77.2291 67.6404 78.0141 67.4843 78.8059 67.4941H228.718C230.386 67.5239 231.983 68.1697 233.203 69.3069C234.423 70.4442 235.179 71.9927 235.326 73.6541L242.69 175.945C242.759 176.735 242.663 177.53 242.406 178.28C242.149 179.029 241.738 179.717 241.199 180.298C240.66 180.879 240.006 181.341 239.277 181.653C238.549 181.966 237.763 182.122 236.971 182.112Z" fill="#FCF8F3"/>
<path d="M228.942 70.5742H79.03H78.526C74.697 70.8892 75.481 76.7202 79.345 76.7202H229.509C233.38 76.7202 233.324 70.8892 229.446 70.5742H228.942Z" fill="#B09050"/>
<path d="M82.936 73.654C82.9507 73.8345 82.9274 74.016 82.8676 74.1869C82.8078 74.3578 82.7128 74.5143 82.5888 74.6462C82.4648 74.7782 82.3145 74.8826 82.1476 74.9529C81.9808 75.0231 81.801 75.0576 81.62 75.054C81.2395 75.0487 80.8745 74.9027 80.5953 74.6442C80.3161 74.3857 80.1425 74.033 80.108 73.654C80.0933 73.4742 80.1164 73.2932 80.1758 73.1228C80.2352 72.9524 80.3295 72.7963 80.4528 72.6645C80.576 72.5326 80.7255 72.428 80.8915 72.3574C81.0575 72.2867 81.2365 72.2515 81.417 72.254C81.7986 72.2577 82.1654 72.4029 82.446 72.6616C82.7267 72.9202 82.9013 73.2739 82.936 73.654Z" fill="#CBA576"/>
<path d="M87.7449 73.654C87.7596 73.8345 87.7364 74.016 87.6766 74.1869C87.6168 74.3578 87.5218 74.5143 87.3978 74.6462C87.2738 74.7782 87.1235 74.8826 86.9566 74.9529C86.7897 75.0231 86.61 75.0576 86.4289 75.054C86.0485 75.0487 85.6835 74.9027 85.4043 74.6442C85.1251 74.3857 84.9515 74.033 84.9169 73.654C84.9023 73.4742 84.9254 73.2932 84.9848 73.1228C85.0441 72.9524 85.1385 72.7963 85.2617 72.6645C85.385 72.5326 85.5344 72.428 85.7005 72.3574C85.8665 72.2867 86.0455 72.2515 86.2259 72.254C86.6076 72.2577 86.9743 72.4029 87.255 72.6616C87.5357 72.9202 87.7103 73.2739 87.7449 73.654Z" fill="#CBA576"/>
<path d="M92.5469 73.6542C92.5616 73.834 92.5385 74.015 92.4791 74.1854C92.4197 74.3558 92.3254 74.5119 92.2021 74.6437C92.0789 74.7756 91.9294 74.8802 91.7634 74.9508C91.5973 75.0215 91.4184 75.0567 91.2379 75.0542C90.857 75.0504 90.4911 74.9049 90.2116 74.6461C89.9321 74.3873 89.7589 74.0337 89.7259 73.6542C89.7102 73.4741 89.7325 73.2927 89.7915 73.1218C89.8504 72.9509 89.9447 72.7943 90.0682 72.6622C90.1917 72.5302 90.3416 72.4256 90.5081 72.3553C90.6747 72.285 90.8542 72.2505 91.0349 72.2542C91.4154 72.2595 91.7804 72.4055 92.0596 72.664C92.3388 72.9225 92.5124 73.2752 92.5469 73.6542Z" fill="#CBA576"/>
<path d="M232.995 171.906H89.5999C88.9942 171.896 88.4138 171.661 87.9714 171.247C87.529 170.833 87.2562 170.27 87.2059 169.666L81.1509 85.547C81.124 85.2584 81.1587 84.9673 81.2529 84.6931C81.3471 84.4189 81.4985 84.1679 81.6971 83.9567C81.8957 83.7455 82.137 83.579 82.4049 83.4682C82.6728 83.3574 82.9612 83.3048 83.2509 83.314H226.681C227.286 83.3224 227.866 83.5556 228.309 83.9684C228.752 84.3812 229.025 84.9439 229.075 85.547L235.137 169.666C235.163 169.958 235.127 170.253 235.03 170.53C234.933 170.807 234.777 171.06 234.575 171.272C234.372 171.485 234.126 171.651 233.853 171.76C233.581 171.869 233.288 171.919 232.995 171.906Z" fill="#FCF8F3"/>
<path d="M172.571 139.86L170.233 107.436L163.163 103.18H143.696L146.342 139.86H172.571Z" fill="#FCF8F3"/>
<path d="M172.571 140.196H146.342C146.255 140.198 146.171 140.166 146.107 140.107C146.043 140.049 146.004 139.968 145.999 139.881L143.36 103.201C143.357 103.155 143.363 103.109 143.379 103.065C143.394 103.022 143.419 102.982 143.451 102.949C143.482 102.914 143.52 102.887 143.562 102.867C143.604 102.848 143.65 102.838 143.696 102.837H163.163C163.224 102.839 163.284 102.856 163.338 102.886L170.408 107.142C170.456 107.169 170.496 107.208 170.525 107.254C170.554 107.3 170.572 107.353 170.576 107.408L172.9 139.832C172.905 139.879 172.899 139.927 172.883 139.972C172.868 140.016 172.842 140.057 172.809 140.091C172.778 140.124 172.742 140.15 172.701 140.168C172.66 140.186 172.616 140.195 172.571 140.196ZM146.671 139.496H172.2L169.904 107.611L163.1 103.516H144.06L146.671 139.496Z" fill="#B09050"/>
<path d="M170.233 107.436L163.163 103.18L165.76 108.822L170.233 107.436Z" fill="#F5E3CC"/>
<path d="M165.76 109.158C165.695 109.158 165.632 109.139 165.578 109.104C165.523 109.07 165.48 109.02 165.452 108.962L162.855 103.32C162.825 103.254 162.816 103.18 162.83 103.108C162.843 103.037 162.879 102.971 162.932 102.921C162.988 102.873 163.057 102.844 163.129 102.838C163.202 102.832 163.275 102.849 163.338 102.886L170.408 107.142C170.465 107.176 170.511 107.226 170.541 107.285C170.571 107.345 170.583 107.412 170.576 107.478C170.567 107.542 170.54 107.603 170.498 107.652C170.456 107.702 170.4 107.739 170.338 107.758L165.858 109.158H165.76ZM163.933 104.034L165.942 108.409L169.442 107.338L163.933 104.034Z" fill="#B09050"/>
<path d="M154.7 119.7C154.71 119.89 154.682 120.081 154.616 120.26C154.551 120.438 154.449 120.602 154.318 120.74C154.187 120.879 154.029 120.989 153.854 121.064C153.679 121.139 153.49 121.177 153.3 121.177C152.9 121.17 152.518 121.015 152.225 120.742C151.933 120.47 151.753 120.098 151.718 119.7C151.7 119.508 151.723 119.314 151.786 119.132C151.849 118.949 151.95 118.782 152.082 118.641C152.215 118.501 152.376 118.39 152.554 118.317C152.733 118.244 152.925 118.209 153.118 118.216C153.518 118.225 153.901 118.381 154.193 118.655C154.485 118.929 154.666 119.301 154.7 119.7Z" fill="#B09050"/>
<path d="M164.29 119.7C164.307 119.892 164.283 120.085 164.22 120.267C164.156 120.448 164.055 120.615 163.923 120.754C163.79 120.894 163.63 121.004 163.452 121.077C163.274 121.15 163.082 121.184 162.89 121.177C162.49 121.17 162.106 121.016 161.813 120.743C161.519 120.47 161.337 120.099 161.301 119.7C161.289 119.51 161.317 119.318 161.382 119.139C161.448 118.959 161.549 118.795 161.68 118.656C161.811 118.517 161.969 118.406 162.145 118.33C162.321 118.255 162.51 118.216 162.701 118.216C163.103 118.222 163.488 118.377 163.782 118.651C164.076 118.926 164.257 119.3 164.29 119.7Z" fill="#B09050"/>
<path d="M167.006 129.318C166.921 129.317 166.839 129.284 166.777 129.225C166.715 129.167 166.677 129.088 166.67 129.003C166.495 126.616 162.757 124.677 158.34 124.677C155.407 124.677 152.775 125.552 151.473 126.952C151.205 127.21 150.996 127.522 150.858 127.867C150.721 128.212 150.658 128.583 150.675 128.954C150.678 129 150.672 129.046 150.658 129.09C150.643 129.134 150.62 129.174 150.59 129.209C150.529 129.279 150.442 129.322 150.349 129.329C150.257 129.335 150.165 129.304 150.095 129.243C150.025 129.182 149.981 129.096 149.975 129.003C149.954 128.539 150.031 128.076 150.199 127.643C150.368 127.21 150.625 126.817 150.955 126.49C152.355 124.957 155.204 123.998 158.319 123.998C163.17 123.998 167.125 126.175 167.321 128.954C167.324 128.998 167.318 129.042 167.304 129.084C167.289 129.126 167.267 129.165 167.238 129.198C167.208 129.231 167.173 129.258 167.133 129.278C167.093 129.297 167.05 129.308 167.006 129.311V129.318Z" fill="#B09050"/>
<path d="M149.219 116.704C149.134 116.702 149.052 116.67 148.988 116.613C148.924 116.549 148.889 116.462 148.889 116.372C148.889 116.281 148.924 116.194 148.988 116.13L150.479 114.527C150.543 114.466 150.628 114.431 150.717 114.431C150.806 114.431 150.891 114.466 150.955 114.527C150.986 114.558 151.011 114.595 151.028 114.636C151.045 114.677 151.054 114.721 151.054 114.765C151.054 114.809 151.045 114.853 151.028 114.894C151.011 114.935 150.986 114.972 150.955 115.003L149.464 116.606C149.432 116.638 149.394 116.663 149.352 116.68C149.309 116.697 149.264 116.705 149.219 116.704Z" fill="#B09050"/>
<path d="M166.306 116.704C166.221 116.7 166.14 116.668 166.075 116.613L164.36 115.01C164.328 114.979 164.302 114.941 164.284 114.9C164.267 114.858 164.258 114.814 164.258 114.769C164.258 114.724 164.267 114.679 164.284 114.638C164.302 114.596 164.328 114.558 164.36 114.527C164.424 114.466 164.509 114.431 164.598 114.431C164.687 114.431 164.772 114.466 164.836 114.527L166.551 116.13C166.582 116.161 166.607 116.198 166.624 116.239C166.641 116.28 166.65 116.324 166.65 116.368C166.65 116.412 166.641 116.456 166.624 116.497C166.607 116.538 166.582 116.575 166.551 116.606C166.484 116.668 166.397 116.703 166.306 116.704Z" fill="#B09050"/>
<path d="M141.582 147.105H143.164L145.446 150.143L145.229 147.105H146.825L147.217 152.593H145.6L143.332 149.576L143.549 152.593H141.953L141.582 147.105Z" fill="#B09050"/>
<path d="M147.931 149.849C147.877 149.476 147.903 149.096 148.006 148.734C148.11 148.372 148.29 148.037 148.533 147.749C148.799 147.488 149.118 147.285 149.467 147.156C149.817 147.027 150.191 146.974 150.563 147C151.352 146.957 152.127 147.221 152.726 147.735C153.275 148.282 153.593 149.019 153.615 149.793C153.673 150.327 153.601 150.868 153.405 151.368C153.224 151.771 152.92 152.107 152.537 152.327C152.077 152.574 151.56 152.692 151.039 152.67C150.503 152.687 149.971 152.587 149.478 152.376C149.046 152.169 148.682 151.844 148.428 151.438C148.128 150.96 147.956 150.413 147.931 149.849ZM149.632 149.849C149.625 150.279 149.763 150.698 150.024 151.039C150.133 151.16 150.268 151.255 150.418 151.317C150.568 151.38 150.73 151.41 150.892 151.403C151.047 151.414 151.203 151.387 151.345 151.325C151.488 151.263 151.613 151.167 151.711 151.046C151.912 150.664 151.979 150.225 151.9 149.8C151.903 149.388 151.765 148.988 151.508 148.666C151.396 148.548 151.26 148.455 151.109 148.393C150.958 148.332 150.796 148.303 150.633 148.309C150.481 148.303 150.329 148.332 150.19 148.395C150.052 148.459 149.93 148.554 149.835 148.673C149.63 149.034 149.558 149.455 149.632 149.863V149.849Z" fill="#B09050"/>
<path d="M156.905 147.105H159.425C159.84 147.092 160.254 147.161 160.643 147.308C160.951 147.437 161.224 147.636 161.441 147.889C161.661 148.146 161.83 148.443 161.938 148.764C162.052 149.109 162.122 149.466 162.148 149.828C162.202 150.286 162.166 150.749 162.043 151.193C161.947 151.5 161.776 151.779 161.546 152.005C161.354 152.208 161.113 152.358 160.846 152.439C160.52 152.533 160.184 152.585 159.845 152.593H157.332L156.905 147.105ZM158.69 148.351L158.907 151.347H159.32C159.575 151.364 159.831 151.323 160.069 151.228C160.226 151.137 160.341 150.989 160.391 150.815C160.471 150.504 160.49 150.181 160.447 149.863C160.46 149.436 160.33 149.017 160.076 148.673C159.946 148.556 159.793 148.466 159.627 148.411C159.461 148.355 159.285 148.335 159.11 148.351H158.69Z" fill="#B09050"/>
<path d="M166.215 151.683H164.29L164.087 152.593H162.358L164.024 147.105H165.9L168.357 152.593H166.579L166.215 151.683ZM165.774 150.5L165.032 148.526L164.57 150.5H165.774Z" fill="#B09050"/>
<path d="M167.559 147.105H172.711L172.809 148.463H171.08L171.374 152.593H169.68L169.386 148.463H167.657L167.559 147.105Z" fill="#B09050"/>
<path d="M176.659 151.683H174.734L174.531 152.593H172.802L174.468 147.105H176.316L178.766 152.593H176.995L176.659 151.683ZM176.218 150.5L175.469 148.526L175 150.5H176.218Z" fill="#B09050"/>
</svg>
