<svg width="24" height="24" viewBox="0 0 24 24" fill="none" xmlns="http://www.w3.org/2000/svg">
<path d="M5.6 2C4.91044 2 4.24912 2.27393 3.76152 2.76152C3.27393 3.24912 3 3.91044 3 4.6V9.4C3 9.74144 3.06725 10.0795 3.19791 10.395C3.32858 10.7104 3.52009 10.997 3.76152 11.2385C4.24912 11.7261 4.91044 12 5.6 12H8.4C9.08956 12 9.75088 11.7261 10.2385 11.2385C10.7261 10.7509 11 10.0896 11 9.4V4.6C11 3.91044 10.7261 3.24912 10.2385 2.76152C9.75088 2.27393 9.08956 2 8.4 2H5.6ZM5.6 14C4.91044 14 4.24912 14.2739 3.76152 14.7615C3.27393 15.2491 3 15.9104 3 16.6V19.4C3 20.0896 3.27393 20.7509 3.76152 21.2385C4.24912 21.7261 4.91044 22 5.6 22H8.4C9.08956 22 9.75088 21.7261 10.2385 21.2385C10.7261 20.7509 11 20.0896 11 19.4V16.6C11 15.9104 10.7261 15.2491 10.2385 14.7615C9.75088 14.2739 9.08956 14 8.4 14H5.6ZM15.6 2C14.9104 2 14.2491 2.27393 13.7615 2.76152C13.2739 3.24912 13 3.91044 13 4.6V7.4C13 8.08956 13.2739 8.75088 13.7615 9.23848C14.2491 9.72607 14.9104 10 15.6 10H18.4C18.7414 10 19.0795 9.93275 19.395 9.80209C19.7104 9.67142 19.997 9.47991 20.2385 9.23848C20.4799 8.99705 20.6714 8.71042 20.8021 8.39498C20.9327 8.07953 21 7.74144 21 7.4V4.6C21 4.25856 20.9327 3.92047 20.8021 3.60502C20.6714 3.28958 20.4799 3.00295 20.2385 2.76152C19.997 2.52009 19.7104 2.32858 19.395 2.19791C19.0795 2.06725 18.7414 2 18.4 2H15.6ZM15.6 12C14.9104 12 14.2491 12.2739 13.7615 12.7615C13.2739 13.2491 13 13.9104 13 14.6V19.4C13 20.0896 13.2739 20.7509 13.7615 21.2385C14.2491 21.7261 14.9104 22 15.6 22H18.4C18.7414 22 19.0795 21.9327 19.395 21.8021C19.7104 21.6714 19.997 21.4799 20.2385 21.2385C20.4799 20.997 20.6714 20.7104 20.8021 20.395C20.9327 20.0795 21 19.7414 21 19.4V14.6C21 14.2586 20.9327 13.9205 20.8021 13.605C20.6714 13.2896 20.4799 13.003 20.2385 12.7615C19.997 12.5201 19.7104 12.3286 19.395 12.1979C19.0795 12.0673 18.7414 12 18.4 12H15.6Z" fill="#2D2D2D"/>
<path d="M5.6 2C4.91044 2 4.24912 2.27393 3.76152 2.76152C3.27393 3.24912 3 3.91044 3 4.6V9.4C3 9.74144 3.06725 10.0795 3.19791 10.395C3.32858 10.7104 3.52009 10.997 3.76152 11.2385C4.24912 11.7261 4.91044 12 5.6 12H8.4C9.08956 12 9.75088 11.7261 10.2385 11.2385C10.7261 10.7509 11 10.0896 11 9.4V4.6C11 3.91044 10.7261 3.24912 10.2385 2.76152C9.75088 2.27393 9.08956 2 8.4 2H5.6ZM5.6 14C4.91044 14 4.24912 14.2739 3.76152 14.7615C3.27393 15.2491 3 15.9104 3 16.6V19.4C3 20.0896 3.27393 20.7509 3.76152 21.2385C4.24912 21.7261 4.91044 22 5.6 22H8.4C9.08956 22 9.75088 21.7261 10.2385 21.2385C10.7261 20.7509 11 20.0896 11 19.4V16.6C11 15.9104 10.7261 15.2491 10.2385 14.7615C9.75088 14.2739 9.08956 14 8.4 14H5.6ZM15.6 2C14.9104 2 14.2491 2.27393 13.7615 2.76152C13.2739 3.24912 13 3.91044 13 4.6V7.4C13 8.08956 13.2739 8.75088 13.7615 9.23848C14.2491 9.72607 14.9104 10 15.6 10H18.4C18.7414 10 19.0795 9.93275 19.395 9.80209C19.7104 9.67142 19.997 9.47991 20.2385 9.23848C20.4799 8.99705 20.6714 8.71042 20.8021 8.39498C20.9327 8.07953 21 7.74144 21 7.4V4.6C21 4.25856 20.9327 3.92047 20.8021 3.60502C20.6714 3.28958 20.4799 3.00295 20.2385 2.76152C19.997 2.52009 19.7104 2.32858 19.395 2.19791C19.0795 2.06725 18.7414 2 18.4 2H15.6ZM15.6 12C14.9104 12 14.2491 12.2739 13.7615 12.7615C13.2739 13.2491 13 13.9104 13 14.6V19.4C13 20.0896 13.2739 20.7509 13.7615 21.2385C14.2491 21.7261 14.9104 22 15.6 22H18.4C18.7414 22 19.0795 21.9327 19.395 21.8021C19.7104 21.6714 19.997 21.4799 20.2385 21.2385C20.4799 20.997 20.6714 20.7104 20.8021 20.395C20.9327 20.0795 21 19.7414 21 19.4V14.6C21 14.2586 20.9327 13.9205 20.8021 13.605C20.6714 13.2896 20.4799 13.003 20.2385 12.7615C19.997 12.5201 19.7104 12.3286 19.395 12.1979C19.0795 12.0673 18.7414 12 18.4 12H15.6Z" fill="black" fill-opacity="0.2"/>
<path d="M5.6 2C4.91044 2 4.24912 2.27393 3.76152 2.76152C3.27393 3.24912 3 3.91044 3 4.6V9.4C3 9.74144 3.06725 10.0795 3.19791 10.395C3.32858 10.7104 3.52009 10.997 3.76152 11.2385C4.24912 11.7261 4.91044 12 5.6 12H8.4C9.08956 12 9.75088 11.7261 10.2385 11.2385C10.7261 10.7509 11 10.0896 11 9.4V4.6C11 3.91044 10.7261 3.24912 10.2385 2.76152C9.75088 2.27393 9.08956 2 8.4 2H5.6ZM5.6 14C4.91044 14 4.24912 14.2739 3.76152 14.7615C3.27393 15.2491 3 15.9104 3 16.6V19.4C3 20.0896 3.27393 20.7509 3.76152 21.2385C4.24912 21.7261 4.91044 22 5.6 22H8.4C9.08956 22 9.75088 21.7261 10.2385 21.2385C10.7261 20.7509 11 20.0896 11 19.4V16.6C11 15.9104 10.7261 15.2491 10.2385 14.7615C9.75088 14.2739 9.08956 14 8.4 14H5.6ZM15.6 2C14.9104 2 14.2491 2.27393 13.7615 2.76152C13.2739 3.24912 13 3.91044 13 4.6V7.4C13 8.08956 13.2739 8.75088 13.7615 9.23848C14.2491 9.72607 14.9104 10 15.6 10H18.4C18.7414 10 19.0795 9.93275 19.395 9.80209C19.7104 9.67142 19.997 9.47991 20.2385 9.23848C20.4799 8.99705 20.6714 8.71042 20.8021 8.39498C20.9327 8.07953 21 7.74144 21 7.4V4.6C21 4.25856 20.9327 3.92047 20.8021 3.60502C20.6714 3.28958 20.4799 3.00295 20.2385 2.76152C19.997 2.52009 19.7104 2.32858 19.395 2.19791C19.0795 2.06725 18.7414 2 18.4 2H15.6ZM15.6 12C14.9104 12 14.2491 12.2739 13.7615 12.7615C13.2739 13.2491 13 13.9104 13 14.6V19.4C13 20.0896 13.2739 20.7509 13.7615 21.2385C14.2491 21.7261 14.9104 22 15.6 22H18.4C18.7414 22 19.0795 21.9327 19.395 21.8021C19.7104 21.6714 19.997 21.4799 20.2385 21.2385C20.4799 20.997 20.6714 20.7104 20.8021 20.395C20.9327 20.0795 21 19.7414 21 19.4V14.6C21 14.2586 20.9327 13.9205 20.8021 13.605C20.6714 13.2896 20.4799 13.003 20.2385 12.7615C19.997 12.5201 19.7104 12.3286 19.395 12.1979C19.0795 12.0673 18.7414 12 18.4 12H15.6Z" fill="black" fill-opacity="0.2"/>
<path d="M5.6 2C4.91044 2 4.24912 2.27393 3.76152 2.76152C3.27393 3.24912 3 3.91044 3 4.6V9.4C3 9.74144 3.06725 10.0795 3.19791 10.395C3.32858 10.7104 3.52009 10.997 3.76152 11.2385C4.24912 11.7261 4.91044 12 5.6 12H8.4C9.08956 12 9.75088 11.7261 10.2385 11.2385C10.7261 10.7509 11 10.0896 11 9.4V4.6C11 3.91044 10.7261 3.24912 10.2385 2.76152C9.75088 2.27393 9.08956 2 8.4 2H5.6ZM5.6 14C4.91044 14 4.24912 14.2739 3.76152 14.7615C3.27393 15.2491 3 15.9104 3 16.6V19.4C3 20.0896 3.27393 20.7509 3.76152 21.2385C4.24912 21.7261 4.91044 22 5.6 22H8.4C9.08956 22 9.75088 21.7261 10.2385 21.2385C10.7261 20.7509 11 20.0896 11 19.4V16.6C11 15.9104 10.7261 15.2491 10.2385 14.7615C9.75088 14.2739 9.08956 14 8.4 14H5.6ZM15.6 2C14.9104 2 14.2491 2.27393 13.7615 2.76152C13.2739 3.24912 13 3.91044 13 4.6V7.4C13 8.08956 13.2739 8.75088 13.7615 9.23848C14.2491 9.72607 14.9104 10 15.6 10H18.4C18.7414 10 19.0795 9.93275 19.395 9.80209C19.7104 9.67142 19.997 9.47991 20.2385 9.23848C20.4799 8.99705 20.6714 8.71042 20.8021 8.39498C20.9327 8.07953 21 7.74144 21 7.4V4.6C21 4.25856 20.9327 3.92047 20.8021 3.60502C20.6714 3.28958 20.4799 3.00295 20.2385 2.76152C19.997 2.52009 19.7104 2.32858 19.395 2.19791C19.0795 2.06725 18.7414 2 18.4 2H15.6ZM15.6 12C14.9104 12 14.2491 12.2739 13.7615 12.7615C13.2739 13.2491 13 13.9104 13 14.6V19.4C13 20.0896 13.2739 20.7509 13.7615 21.2385C14.2491 21.7261 14.9104 22 15.6 22H18.4C18.7414 22 19.0795 21.9327 19.395 21.8021C19.7104 21.6714 19.997 21.4799 20.2385 21.2385C20.4799 20.997 20.6714 20.7104 20.8021 20.395C20.9327 20.0795 21 19.7414 21 19.4V14.6C21 14.2586 20.9327 13.9205 20.8021 13.605C20.6714 13.2896 20.4799 13.003 20.2385 12.7615C19.997 12.5201 19.7104 12.3286 19.395 12.1979C19.0795 12.0673 18.7414 12 18.4 12H15.6Z" fill="black" fill-opacity="0.2"/>
<path d="M5.6 2C4.91044 2 4.24912 2.27393 3.76152 2.76152C3.27393 3.24912 3 3.91044 3 4.6V9.4C3 9.74144 3.06725 10.0795 3.19791 10.395C3.32858 10.7104 3.52009 10.997 3.76152 11.2385C4.24912 11.7261 4.91044 12 5.6 12H8.4C9.08956 12 9.75088 11.7261 10.2385 11.2385C10.7261 10.7509 11 10.0896 11 9.4V4.6C11 3.91044 10.7261 3.24912 10.2385 2.76152C9.75088 2.27393 9.08956 2 8.4 2H5.6ZM5.6 14C4.91044 14 4.24912 14.2739 3.76152 14.7615C3.27393 15.2491 3 15.9104 3 16.6V19.4C3 20.0896 3.27393 20.7509 3.76152 21.2385C4.24912 21.7261 4.91044 22 5.6 22H8.4C9.08956 22 9.75088 21.7261 10.2385 21.2385C10.7261 20.7509 11 20.0896 11 19.4V16.6C11 15.9104 10.7261 15.2491 10.2385 14.7615C9.75088 14.2739 9.08956 14 8.4 14H5.6ZM15.6 2C14.9104 2 14.2491 2.27393 13.7615 2.76152C13.2739 3.24912 13 3.91044 13 4.6V7.4C13 8.08956 13.2739 8.75088 13.7615 9.23848C14.2491 9.72607 14.9104 10 15.6 10H18.4C18.7414 10 19.0795 9.93275 19.395 9.80209C19.7104 9.67142 19.997 9.47991 20.2385 9.23848C20.4799 8.99705 20.6714 8.71042 20.8021 8.39498C20.9327 8.07953 21 7.74144 21 7.4V4.6C21 4.25856 20.9327 3.92047 20.8021 3.60502C20.6714 3.28958 20.4799 3.00295 20.2385 2.76152C19.997 2.52009 19.7104 2.32858 19.395 2.19791C19.0795 2.06725 18.7414 2 18.4 2H15.6ZM15.6 12C14.9104 12 14.2491 12.2739 13.7615 12.7615C13.2739 13.2491 13 13.9104 13 14.6V19.4C13 20.0896 13.2739 20.7509 13.7615 21.2385C14.2491 21.7261 14.9104 22 15.6 22H18.4C18.7414 22 19.0795 21.9327 19.395 21.8021C19.7104 21.6714 19.997 21.4799 20.2385 21.2385C20.4799 20.997 20.6714 20.7104 20.8021 20.395C20.9327 20.0795 21 19.7414 21 19.4V14.6C21 14.2586 20.9327 13.9205 20.8021 13.605C20.6714 13.2896 20.4799 13.003 20.2385 12.7615C19.997 12.5201 19.7104 12.3286 19.395 12.1979C19.0795 12.0673 18.7414 12 18.4 12H15.6Z" fill="black" fill-opacity="0.2"/>
<path d="M5.6 2C4.91044 2 4.24912 2.27393 3.76152 2.76152C3.27393 3.24912 3 3.91044 3 4.6V9.4C3 9.74144 3.06725 10.0795 3.19791 10.395C3.32858 10.7104 3.52009 10.997 3.76152 11.2385C4.24912 11.7261 4.91044 12 5.6 12H8.4C9.08956 12 9.75088 11.7261 10.2385 11.2385C10.7261 10.7509 11 10.0896 11 9.4V4.6C11 3.91044 10.7261 3.24912 10.2385 2.76152C9.75088 2.27393 9.08956 2 8.4 2H5.6ZM5.6 14C4.91044 14 4.24912 14.2739 3.76152 14.7615C3.27393 15.2491 3 15.9104 3 16.6V19.4C3 20.0896 3.27393 20.7509 3.76152 21.2385C4.24912 21.7261 4.91044 22 5.6 22H8.4C9.08956 22 9.75088 21.7261 10.2385 21.2385C10.7261 20.7509 11 20.0896 11 19.4V16.6C11 15.9104 10.7261 15.2491 10.2385 14.7615C9.75088 14.2739 9.08956 14 8.4 14H5.6ZM15.6 2C14.9104 2 14.2491 2.27393 13.7615 2.76152C13.2739 3.24912 13 3.91044 13 4.6V7.4C13 8.08956 13.2739 8.75088 13.7615 9.23848C14.2491 9.72607 14.9104 10 15.6 10H18.4C18.7414 10 19.0795 9.93275 19.395 9.80209C19.7104 9.67142 19.997 9.47991 20.2385 9.23848C20.4799 8.99705 20.6714 8.71042 20.8021 8.39498C20.9327 8.07953 21 7.74144 21 7.4V4.6C21 4.25856 20.9327 3.92047 20.8021 3.60502C20.6714 3.28958 20.4799 3.00295 20.2385 2.76152C19.997 2.52009 19.7104 2.32858 19.395 2.19791C19.0795 2.06725 18.7414 2 18.4 2H15.6ZM15.6 12C14.9104 12 14.2491 12.2739 13.7615 12.7615C13.2739 13.2491 13 13.9104 13 14.6V19.4C13 20.0896 13.2739 20.7509 13.7615 21.2385C14.2491 21.7261 14.9104 22 15.6 22H18.4C18.7414 22 19.0795 21.9327 19.395 21.8021C19.7104 21.6714 19.997 21.4799 20.2385 21.2385C20.4799 20.997 20.6714 20.7104 20.8021 20.395C20.9327 20.0795 21 19.7414 21 19.4V14.6C21 14.2586 20.9327 13.9205 20.8021 13.605C20.6714 13.2896 20.4799 13.003 20.2385 12.7615C19.997 12.5201 19.7104 12.3286 19.395 12.1979C19.0795 12.0673 18.7414 12 18.4 12H15.6Z" fill="black" fill-opacity="0.2"/>
<path d="M5.6 2C4.91044 2 4.24912 2.27393 3.76152 2.76152C3.27393 3.24912 3 3.91044 3 4.6V9.4C3 9.74144 3.06725 10.0795 3.19791 10.395C3.32858 10.7104 3.52009 10.997 3.76152 11.2385C4.24912 11.7261 4.91044 12 5.6 12H8.4C9.08956 12 9.75088 11.7261 10.2385 11.2385C10.7261 10.7509 11 10.0896 11 9.4V4.6C11 3.91044 10.7261 3.24912 10.2385 2.76152C9.75088 2.27393 9.08956 2 8.4 2H5.6ZM5.6 14C4.91044 14 4.24912 14.2739 3.76152 14.7615C3.27393 15.2491 3 15.9104 3 16.6V19.4C3 20.0896 3.27393 20.7509 3.76152 21.2385C4.24912 21.7261 4.91044 22 5.6 22H8.4C9.08956 22 9.75088 21.7261 10.2385 21.2385C10.7261 20.7509 11 20.0896 11 19.4V16.6C11 15.9104 10.7261 15.2491 10.2385 14.7615C9.75088 14.2739 9.08956 14 8.4 14H5.6ZM15.6 2C14.9104 2 14.2491 2.27393 13.7615 2.76152C13.2739 3.24912 13 3.91044 13 4.6V7.4C13 8.08956 13.2739 8.75088 13.7615 9.23848C14.2491 9.72607 14.9104 10 15.6 10H18.4C18.7414 10 19.0795 9.93275 19.395 9.80209C19.7104 9.67142 19.997 9.47991 20.2385 9.23848C20.4799 8.99705 20.6714 8.71042 20.8021 8.39498C20.9327 8.07953 21 7.74144 21 7.4V4.6C21 4.25856 20.9327 3.92047 20.8021 3.60502C20.6714 3.28958 20.4799 3.00295 20.2385 2.76152C19.997 2.52009 19.7104 2.32858 19.395 2.19791C19.0795 2.06725 18.7414 2 18.4 2H15.6ZM15.6 12C14.9104 12 14.2491 12.2739 13.7615 12.7615C13.2739 13.2491 13 13.9104 13 14.6V19.4C13 20.0896 13.2739 20.7509 13.7615 21.2385C14.2491 21.7261 14.9104 22 15.6 22H18.4C18.7414 22 19.0795 21.9327 19.395 21.8021C19.7104 21.6714 19.997 21.4799 20.2385 21.2385C20.4799 20.997 20.6714 20.7104 20.8021 20.395C20.9327 20.0795 21 19.7414 21 19.4V14.6C21 14.2586 20.9327 13.9205 20.8021 13.605C20.6714 13.2896 20.4799 13.003 20.2385 12.7615C19.997 12.5201 19.7104 12.3286 19.395 12.1979C19.0795 12.0673 18.7414 12 18.4 12H15.6Z" fill="black" fill-opacity="0.2"/>
</svg>
