<svg width="40" height="40" viewBox="0 0 40 40" fill="none" xmlns="http://www.w3.org/2000/svg">
<rect y="-8" width="48" height="48" rx="24" fill="#FCF8F3"/>
<g opacity="0.25">
<path d="M25.1111 8.80176C26.8028 8.81256 27.719 8.89986 28.3163 9.59106C29 10.3822 29 11.6548 29 14.2V19.6C29 22.1461 29 23.4187 28.3163 24.2098C27.6334 25 26.5329 25 24.3333 25H19.6667C17.4671 25 16.3666 25 15.6837 24.2098C15 23.4178 15 22.1461 15 19.6V14.2C15 11.6548 15 10.3822 15.6837 9.59106C16.281 8.89986 17.1972 8.81256 18.8889 8.80176" stroke="#2D2D2D" stroke-width="1.5"/>
<path d="M25.1111 8.80176C26.8028 8.81256 27.719 8.89986 28.3163 9.59106C29 10.3822 29 11.6548 29 14.2V19.6C29 22.1461 29 23.4187 28.3163 24.2098C27.6334 25 26.5329 25 24.3333 25H19.6667C17.4671 25 16.3666 25 15.6837 24.2098C15 23.4178 15 22.1461 15 19.6V14.2C15 11.6548 15 10.3822 15.6837 9.59106C16.281 8.89986 17.1972 8.81256 18.8889 8.80176" stroke="black" stroke-opacity="0.2" stroke-width="1.5"/>
<path d="M25.1111 8.80176C26.8028 8.81256 27.719 8.89986 28.3163 9.59106C29 10.3822 29 11.6548 29 14.2V19.6C29 22.1461 29 23.4187 28.3163 24.2098C27.6334 25 26.5329 25 24.3333 25H19.6667C17.4671 25 16.3666 25 15.6837 24.2098C15 23.4178 15 22.1461 15 19.6V14.2C15 11.6548 15 10.3822 15.6837 9.59106C16.281 8.89986 17.1972 8.81256 18.8889 8.80176" stroke="black" stroke-opacity="0.2" stroke-width="1.5"/>
<path d="M25.1111 8.80176C26.8028 8.81256 27.719 8.89986 28.3163 9.59106C29 10.3822 29 11.6548 29 14.2V19.6C29 22.1461 29 23.4187 28.3163 24.2098C27.6334 25 26.5329 25 24.3333 25H19.6667C17.4671 25 16.3666 25 15.6837 24.2098C15 23.4178 15 22.1461 15 19.6V14.2C15 11.6548 15 10.3822 15.6837 9.59106C16.281 8.89986 17.1972 8.81256 18.8889 8.80176" stroke="black" stroke-opacity="0.2" stroke-width="1.5"/>
<path d="M25.1111 8.80176C26.8028 8.81256 27.719 8.89986 28.3163 9.59106C29 10.3822 29 11.6548 29 14.2V19.6C29 22.1461 29 23.4187 28.3163 24.2098C27.6334 25 26.5329 25 24.3333 25H19.6667C17.4671 25 16.3666 25 15.6837 24.2098C15 23.4178 15 22.1461 15 19.6V14.2C15 11.6548 15 10.3822 15.6837 9.59106C16.281 8.89986 17.1972 8.81256 18.8889 8.80176" stroke="black" stroke-opacity="0.2" stroke-width="1.5"/>
<path d="M25.1111 8.80176C26.8028 8.81256 27.719 8.89986 28.3163 9.59106C29 10.3822 29 11.6548 29 14.2V19.6C29 22.1461 29 23.4187 28.3163 24.2098C27.6334 25 26.5329 25 24.3333 25H19.6667C17.4671 25 16.3666 25 15.6837 24.2098C15 23.4178 15 22.1461 15 19.6V14.2C15 11.6548 15 10.3822 15.6837 9.59106C16.281 8.89986 17.1972 8.81256 18.8889 8.80176" stroke="black" stroke-opacity="0.2" stroke-width="1.5"/>
<path d="M25.1111 8.80176C26.8028 8.81256 27.719 8.89986 28.3163 9.59106C29 10.3822 29 11.6548 29 14.2V19.6C29 22.1461 29 23.4187 28.3163 24.2098C27.6334 25 26.5329 25 24.3333 25H19.6667C17.4671 25 16.3666 25 15.6837 24.2098C15 23.4178 15 22.1461 15 19.6V14.2C15 11.6548 15 10.3822 15.6837 9.59106C16.281 8.89986 17.1972 8.81256 18.8889 8.80176" stroke="black" stroke-opacity="0.2" stroke-width="1.5"/>
<path d="M20.8333 17.7999H25.8889M18.1111 17.7999H18.5M18.1111 14.6499H18.5M18.1111 20.9499H18.5M20.8333 14.6499H25.8889M20.8333 20.9499H25.8889" stroke="#2D2D2D" stroke-width="1.5" stroke-linecap="round"/>
<path d="M20.8333 17.7999H25.8889M18.1111 17.7999H18.5M18.1111 14.6499H18.5M18.1111 20.9499H18.5M20.8333 14.6499H25.8889M20.8333 20.9499H25.8889" stroke="black" stroke-opacity="0.2" stroke-width="1.5" stroke-linecap="round"/>
<path d="M20.8333 17.7999H25.8889M18.1111 17.7999H18.5M18.1111 14.6499H18.5M18.1111 20.9499H18.5M20.8333 14.6499H25.8889M20.8333 20.9499H25.8889" stroke="black" stroke-opacity="0.2" stroke-width="1.5" stroke-linecap="round"/>
<path d="M20.8333 17.7999H25.8889M18.1111 17.7999H18.5M18.1111 14.6499H18.5M18.1111 20.9499H18.5M20.8333 14.6499H25.8889M20.8333 20.9499H25.8889" stroke="black" stroke-opacity="0.2" stroke-width="1.5" stroke-linecap="round"/>
<path d="M20.8333 17.7999H25.8889M18.1111 17.7999H18.5M18.1111 14.6499H18.5M18.1111 20.9499H18.5M20.8333 14.6499H25.8889M20.8333 20.9499H25.8889" stroke="black" stroke-opacity="0.2" stroke-width="1.5" stroke-linecap="round"/>
<path d="M20.8333 17.7999H25.8889M18.1111 17.7999H18.5M18.1111 14.6499H18.5M18.1111 20.9499H18.5M20.8333 14.6499H25.8889M20.8333 20.9499H25.8889" stroke="black" stroke-opacity="0.2" stroke-width="1.5" stroke-linecap="round"/>
<path d="M20.8333 17.7999H25.8889M18.1111 17.7999H18.5M18.1111 14.6499H18.5M18.1111 20.9499H18.5M20.8333 14.6499H25.8889M20.8333 20.9499H25.8889" stroke="black" stroke-opacity="0.2" stroke-width="1.5" stroke-linecap="round"/>
<path d="M18.8889 8.35C18.8889 7.99196 19.0118 7.64858 19.2306 7.39541C19.4494 7.14223 19.7462 7 20.0556 7H23.9445C24.2539 7 24.5506 7.14223 24.7694 7.39541C24.9882 7.64858 25.1111 7.99196 25.1111 8.35V9.25C25.1111 9.60804 24.9882 9.95142 24.7694 10.2046C24.5506 10.4578 24.2539 10.6 23.9445 10.6H20.0556C19.7462 10.6 19.4494 10.4578 19.2306 10.2046C19.0118 9.95142 18.8889 9.60804 18.8889 9.25V8.35Z" stroke="#2D2D2D" stroke-width="1.5"/>
<path d="M18.8889 8.35C18.8889 7.99196 19.0118 7.64858 19.2306 7.39541C19.4494 7.14223 19.7462 7 20.0556 7H23.9445C24.2539 7 24.5506 7.14223 24.7694 7.39541C24.9882 7.64858 25.1111 7.99196 25.1111 8.35V9.25C25.1111 9.60804 24.9882 9.95142 24.7694 10.2046C24.5506 10.4578 24.2539 10.6 23.9445 10.6H20.0556C19.7462 10.6 19.4494 10.4578 19.2306 10.2046C19.0118 9.95142 18.8889 9.60804 18.8889 9.25V8.35Z" stroke="black" stroke-opacity="0.2" stroke-width="1.5"/>
<path d="M18.8889 8.35C18.8889 7.99196 19.0118 7.64858 19.2306 7.39541C19.4494 7.14223 19.7462 7 20.0556 7H23.9445C24.2539 7 24.5506 7.14223 24.7694 7.39541C24.9882 7.64858 25.1111 7.99196 25.1111 8.35V9.25C25.1111 9.60804 24.9882 9.95142 24.7694 10.2046C24.5506 10.4578 24.2539 10.6 23.9445 10.6H20.0556C19.7462 10.6 19.4494 10.4578 19.2306 10.2046C19.0118 9.95142 18.8889 9.60804 18.8889 9.25V8.35Z" stroke="black" stroke-opacity="0.2" stroke-width="1.5"/>
<path d="M18.8889 8.35C18.8889 7.99196 19.0118 7.64858 19.2306 7.39541C19.4494 7.14223 19.7462 7 20.0556 7H23.9445C24.2539 7 24.5506 7.14223 24.7694 7.39541C24.9882 7.64858 25.1111 7.99196 25.1111 8.35V9.25C25.1111 9.60804 24.9882 9.95142 24.7694 10.2046C24.5506 10.4578 24.2539 10.6 23.9445 10.6H20.0556C19.7462 10.6 19.4494 10.4578 19.2306 10.2046C19.0118 9.95142 18.8889 9.60804 18.8889 9.25V8.35Z" stroke="black" stroke-opacity="0.2" stroke-width="1.5"/>
<path d="M18.8889 8.35C18.8889 7.99196 19.0118 7.64858 19.2306 7.39541C19.4494 7.14223 19.7462 7 20.0556 7H23.9445C24.2539 7 24.5506 7.14223 24.7694 7.39541C24.9882 7.64858 25.1111 7.99196 25.1111 8.35V9.25C25.1111 9.60804 24.9882 9.95142 24.7694 10.2046C24.5506 10.4578 24.2539 10.6 23.9445 10.6H20.0556C19.7462 10.6 19.4494 10.4578 19.2306 10.2046C19.0118 9.95142 18.8889 9.60804 18.8889 9.25V8.35Z" stroke="black" stroke-opacity="0.2" stroke-width="1.5"/>
<path d="M18.8889 8.35C18.8889 7.99196 19.0118 7.64858 19.2306 7.39541C19.4494 7.14223 19.7462 7 20.0556 7H23.9445C24.2539 7 24.5506 7.14223 24.7694 7.39541C24.9882 7.64858 25.1111 7.99196 25.1111 8.35V9.25C25.1111 9.60804 24.9882 9.95142 24.7694 10.2046C24.5506 10.4578 24.2539 10.6 23.9445 10.6H20.0556C19.7462 10.6 19.4494 10.4578 19.2306 10.2046C19.0118 9.95142 18.8889 9.60804 18.8889 9.25V8.35Z" stroke="black" stroke-opacity="0.2" stroke-width="1.5"/>
<path d="M18.8889 8.35C18.8889 7.99196 19.0118 7.64858 19.2306 7.39541C19.4494 7.14223 19.7462 7 20.0556 7H23.9445C24.2539 7 24.5506 7.14223 24.7694 7.39541C24.9882 7.64858 25.1111 7.99196 25.1111 8.35V9.25C25.1111 9.60804 24.9882 9.95142 24.7694 10.2046C24.5506 10.4578 24.2539 10.6 23.9445 10.6H20.0556C19.7462 10.6 19.4494 10.4578 19.2306 10.2046C19.0118 9.95142 18.8889 9.60804 18.8889 9.25V8.35Z" stroke="black" stroke-opacity="0.2" stroke-width="1.5"/>
</g>
</svg>
