<svg width="41" height="40" viewBox="0 0 41 40" fill="none" xmlns="http://www.w3.org/2000/svg">
<rect y="-8" width="48" height="48" rx="24" fill="#FCF8F3"/>
<g opacity="0.25">
<path d="M20 11H17C16.4696 11 15.9609 11.2107 15.5858 11.5858C15.2107 11.9609 15 12.4696 15 13V17M20 11H28M20 11V9C20 8.46957 20.2107 7.96086 20.5858 7.58579C20.9609 7.21071 21.4696 7 22 7H26C26.5304 7 27.0391 7.21071 27.4142 7.58579C27.7893 7.96086 28 8.46957 28 9V11M15 17V23C15 23.5304 15.2107 24.0391 15.5858 24.4142C15.9609 24.7893 16.4696 25 17 25H31C31.5304 25 32.0391 24.7893 32.4142 24.4142C32.7893 24.0391 33 23.5304 33 23V17M15 17C15 17 19 19 24 19C29 19 33 17 33 17M28 11H31C31.5304 11 32.0391 11.2107 32.4142 11.5858C32.7893 11.9609 33 12.4696 33 13V17M24 15H24.01" stroke="#2D2D2D" stroke-width="1.5" stroke-linecap="round" stroke-linejoin="round"/>
<path d="M20 11H17C16.4696 11 15.9609 11.2107 15.5858 11.5858C15.2107 11.9609 15 12.4696 15 13V17M20 11H28M20 11V9C20 8.46957 20.2107 7.96086 20.5858 7.58579C20.9609 7.21071 21.4696 7 22 7H26C26.5304 7 27.0391 7.21071 27.4142 7.58579C27.7893 7.96086 28 8.46957 28 9V11M15 17V23C15 23.5304 15.2107 24.0391 15.5858 24.4142C15.9609 24.7893 16.4696 25 17 25H31C31.5304 25 32.0391 24.7893 32.4142 24.4142C32.7893 24.0391 33 23.5304 33 23V17M15 17C15 17 19 19 24 19C29 19 33 17 33 17M28 11H31C31.5304 11 32.0391 11.2107 32.4142 11.5858C32.7893 11.9609 33 12.4696 33 13V17M24 15H24.01" stroke="black" stroke-opacity="0.2" stroke-width="1.5" stroke-linecap="round" stroke-linejoin="round"/>
<path d="M20 11H17C16.4696 11 15.9609 11.2107 15.5858 11.5858C15.2107 11.9609 15 12.4696 15 13V17M20 11H28M20 11V9C20 8.46957 20.2107 7.96086 20.5858 7.58579C20.9609 7.21071 21.4696 7 22 7H26C26.5304 7 27.0391 7.21071 27.4142 7.58579C27.7893 7.96086 28 8.46957 28 9V11M15 17V23C15 23.5304 15.2107 24.0391 15.5858 24.4142C15.9609 24.7893 16.4696 25 17 25H31C31.5304 25 32.0391 24.7893 32.4142 24.4142C32.7893 24.0391 33 23.5304 33 23V17M15 17C15 17 19 19 24 19C29 19 33 17 33 17M28 11H31C31.5304 11 32.0391 11.2107 32.4142 11.5858C32.7893 11.9609 33 12.4696 33 13V17M24 15H24.01" stroke="black" stroke-opacity="0.2" stroke-width="1.5" stroke-linecap="round" stroke-linejoin="round"/>
<path d="M20 11H17C16.4696 11 15.9609 11.2107 15.5858 11.5858C15.2107 11.9609 15 12.4696 15 13V17M20 11H28M20 11V9C20 8.46957 20.2107 7.96086 20.5858 7.58579C20.9609 7.21071 21.4696 7 22 7H26C26.5304 7 27.0391 7.21071 27.4142 7.58579C27.7893 7.96086 28 8.46957 28 9V11M15 17V23C15 23.5304 15.2107 24.0391 15.5858 24.4142C15.9609 24.7893 16.4696 25 17 25H31C31.5304 25 32.0391 24.7893 32.4142 24.4142C32.7893 24.0391 33 23.5304 33 23V17M15 17C15 17 19 19 24 19C29 19 33 17 33 17M28 11H31C31.5304 11 32.0391 11.2107 32.4142 11.5858C32.7893 11.9609 33 12.4696 33 13V17M24 15H24.01" stroke="black" stroke-opacity="0.2" stroke-width="1.5" stroke-linecap="round" stroke-linejoin="round"/>
<path d="M20 11H17C16.4696 11 15.9609 11.2107 15.5858 11.5858C15.2107 11.9609 15 12.4696 15 13V17M20 11H28M20 11V9C20 8.46957 20.2107 7.96086 20.5858 7.58579C20.9609 7.21071 21.4696 7 22 7H26C26.5304 7 27.0391 7.21071 27.4142 7.58579C27.7893 7.96086 28 8.46957 28 9V11M15 17V23C15 23.5304 15.2107 24.0391 15.5858 24.4142C15.9609 24.7893 16.4696 25 17 25H31C31.5304 25 32.0391 24.7893 32.4142 24.4142C32.7893 24.0391 33 23.5304 33 23V17M15 17C15 17 19 19 24 19C29 19 33 17 33 17M28 11H31C31.5304 11 32.0391 11.2107 32.4142 11.5858C32.7893 11.9609 33 12.4696 33 13V17M24 15H24.01" stroke="black" stroke-opacity="0.2" stroke-width="1.5" stroke-linecap="round" stroke-linejoin="round"/>
<path d="M20 11H17C16.4696 11 15.9609 11.2107 15.5858 11.5858C15.2107 11.9609 15 12.4696 15 13V17M20 11H28M20 11V9C20 8.46957 20.2107 7.96086 20.5858 7.58579C20.9609 7.21071 21.4696 7 22 7H26C26.5304 7 27.0391 7.21071 27.4142 7.58579C27.7893 7.96086 28 8.46957 28 9V11M15 17V23C15 23.5304 15.2107 24.0391 15.5858 24.4142C15.9609 24.7893 16.4696 25 17 25H31C31.5304 25 32.0391 24.7893 32.4142 24.4142C32.7893 24.0391 33 23.5304 33 23V17M15 17C15 17 19 19 24 19C29 19 33 17 33 17M28 11H31C31.5304 11 32.0391 11.2107 32.4142 11.5858C32.7893 11.9609 33 12.4696 33 13V17M24 15H24.01" stroke="black" stroke-opacity="0.2" stroke-width="1.5" stroke-linecap="round" stroke-linejoin="round"/>
<path d="M20 11H17C16.4696 11 15.9609 11.2107 15.5858 11.5858C15.2107 11.9609 15 12.4696 15 13V17M20 11H28M20 11V9C20 8.46957 20.2107 7.96086 20.5858 7.58579C20.9609 7.21071 21.4696 7 22 7H26C26.5304 7 27.0391 7.21071 27.4142 7.58579C27.7893 7.96086 28 8.46957 28 9V11M15 17V23C15 23.5304 15.2107 24.0391 15.5858 24.4142C15.9609 24.7893 16.4696 25 17 25H31C31.5304 25 32.0391 24.7893 32.4142 24.4142C32.7893 24.0391 33 23.5304 33 23V17M15 17C15 17 19 19 24 19C29 19 33 17 33 17M28 11H31C31.5304 11 32.0391 11.2107 32.4142 11.5858C32.7893 11.9609 33 12.4696 33 13V17M24 15H24.01" stroke="black" stroke-opacity="0.2" stroke-width="1.5" stroke-linecap="round" stroke-linejoin="round"/>
</g>
</svg>
