<svg width="24" height="24" viewBox="0 0 24 24" fill="none" xmlns="http://www.w3.org/2000/svg">
<path d="M2 5L8.913 8.925C11.439 10.358 12.561 10.358 15.087 8.925L22 5" stroke="#2D2D2D" stroke-width="1.5" stroke-linejoin="round"/>
<path d="M2 5L8.913 8.925C11.439 10.358 12.561 10.358 15.087 8.925L22 5" stroke="black" stroke-opacity="0.2" stroke-width="1.5" stroke-linejoin="round"/>
<path d="M2 5L8.913 8.925C11.439 10.358 12.561 10.358 15.087 8.925L22 5" stroke="black" stroke-opacity="0.2" stroke-width="1.5" stroke-linejoin="round"/>
<path d="M2 5L8.913 8.925C11.439 10.358 12.561 10.358 15.087 8.925L22 5" stroke="black" stroke-opacity="0.2" stroke-width="1.5" stroke-linejoin="round"/>
<path d="M2 5L8.913 8.925C11.439 10.358 12.561 10.358 15.087 8.925L22 5" stroke="black" stroke-opacity="0.2" stroke-width="1.5" stroke-linejoin="round"/>
<path d="M2 5L8.913 8.925C11.439 10.358 12.561 10.358 15.087 8.925L22 5" stroke="black" stroke-opacity="0.2" stroke-width="1.5" stroke-linejoin="round"/>
<path d="M2 5L8.913 8.925C11.439 10.358 12.561 10.358 15.087 8.925L22 5" stroke="black" stroke-opacity="0.2" stroke-width="1.5" stroke-linejoin="round"/>
<path d="M10.9999 19.49C10.9999 19.49 10.0699 19.514 9.09985 19.49C5.94985 19.41 4.37585 19.37 3.24485 18.233C2.11385 17.096 2.08085 15.561 2.01485 12.491C1.99375 11.5058 1.99375 10.5202 2.01485 9.53501C2.08085 6.46501 2.11385 4.93001 3.24485 3.79301C4.37585 2.65501 5.95085 2.61601 9.09885 2.53701C11.0389 2.48701 12.9609 2.48701 14.9019 2.53701C18.0509 2.61601 19.6249 2.65501 20.7559 3.79301C21.8869 4.93101 21.9199 6.46501 21.9859 9.53501C21.9929 9.89201 21.9979 10.512 21.9999 11.013" stroke="#2D2D2D" stroke-width="1.5" stroke-linecap="round" stroke-linejoin="round"/>
<path d="M10.9999 19.49C10.9999 19.49 10.0699 19.514 9.09985 19.49C5.94985 19.41 4.37585 19.37 3.24485 18.233C2.11385 17.096 2.08085 15.561 2.01485 12.491C1.99375 11.5058 1.99375 10.5202 2.01485 9.53501C2.08085 6.46501 2.11385 4.93001 3.24485 3.79301C4.37585 2.65501 5.95085 2.61601 9.09885 2.53701C11.0389 2.48701 12.9609 2.48701 14.9019 2.53701C18.0509 2.61601 19.6249 2.65501 20.7559 3.79301C21.8869 4.93101 21.9199 6.46501 21.9859 9.53501C21.9929 9.89201 21.9979 10.512 21.9999 11.013" stroke="black" stroke-opacity="0.2" stroke-width="1.5" stroke-linecap="round" stroke-linejoin="round"/>
<path d="M10.9999 19.49C10.9999 19.49 10.0699 19.514 9.09985 19.49C5.94985 19.41 4.37585 19.37 3.24485 18.233C2.11385 17.096 2.08085 15.561 2.01485 12.491C1.99375 11.5058 1.99375 10.5202 2.01485 9.53501C2.08085 6.46501 2.11385 4.93001 3.24485 3.79301C4.37585 2.65501 5.95085 2.61601 9.09885 2.53701C11.0389 2.48701 12.9609 2.48701 14.9019 2.53701C18.0509 2.61601 19.6249 2.65501 20.7559 3.79301C21.8869 4.93101 21.9199 6.46501 21.9859 9.53501C21.9929 9.89201 21.9979 10.512 21.9999 11.013" stroke="black" stroke-opacity="0.2" stroke-width="1.5" stroke-linecap="round" stroke-linejoin="round"/>
<path d="M10.9999 19.49C10.9999 19.49 10.0699 19.514 9.09985 19.49C5.94985 19.41 4.37585 19.37 3.24485 18.233C2.11385 17.096 2.08085 15.561 2.01485 12.491C1.99375 11.5058 1.99375 10.5202 2.01485 9.53501C2.08085 6.46501 2.11385 4.93001 3.24485 3.79301C4.37585 2.65501 5.95085 2.61601 9.09885 2.53701C11.0389 2.48701 12.9609 2.48701 14.9019 2.53701C18.0509 2.61601 19.6249 2.65501 20.7559 3.79301C21.8869 4.93101 21.9199 6.46501 21.9859 9.53501C21.9929 9.89201 21.9979 10.512 21.9999 11.013" stroke="black" stroke-opacity="0.2" stroke-width="1.5" stroke-linecap="round" stroke-linejoin="round"/>
<path d="M10.9999 19.49C10.9999 19.49 10.0699 19.514 9.09985 19.49C5.94985 19.41 4.37585 19.37 3.24485 18.233C2.11385 17.096 2.08085 15.561 2.01485 12.491C1.99375 11.5058 1.99375 10.5202 2.01485 9.53501C2.08085 6.46501 2.11385 4.93001 3.24485 3.79301C4.37585 2.65501 5.95085 2.61601 9.09885 2.53701C11.0389 2.48701 12.9609 2.48701 14.9019 2.53701C18.0509 2.61601 19.6249 2.65501 20.7559 3.79301C21.8869 4.93101 21.9199 6.46501 21.9859 9.53501C21.9929 9.89201 21.9979 10.512 21.9999 11.013" stroke="black" stroke-opacity="0.2" stroke-width="1.5" stroke-linecap="round" stroke-linejoin="round"/>
<path d="M10.9999 19.49C10.9999 19.49 10.0699 19.514 9.09985 19.49C5.94985 19.41 4.37585 19.37 3.24485 18.233C2.11385 17.096 2.08085 15.561 2.01485 12.491C1.99375 11.5058 1.99375 10.5202 2.01485 9.53501C2.08085 6.46501 2.11385 4.93001 3.24485 3.79301C4.37585 2.65501 5.95085 2.61601 9.09885 2.53701C11.0389 2.48701 12.9609 2.48701 14.9019 2.53701C18.0509 2.61601 19.6249 2.65501 20.7559 3.79301C21.8869 4.93101 21.9199 6.46501 21.9859 9.53501C21.9929 9.89201 21.9979 10.512 21.9999 11.013" stroke="black" stroke-opacity="0.2" stroke-width="1.5" stroke-linecap="round" stroke-linejoin="round"/>
<path d="M10.9999 19.49C10.9999 19.49 10.0699 19.514 9.09985 19.49C5.94985 19.41 4.37585 19.37 3.24485 18.233C2.11385 17.096 2.08085 15.561 2.01485 12.491C1.99375 11.5058 1.99375 10.5202 2.01485 9.53501C2.08085 6.46501 2.11385 4.93001 3.24485 3.79301C4.37585 2.65501 5.95085 2.61601 9.09885 2.53701C11.0389 2.48701 12.9609 2.48701 14.9019 2.53701C18.0509 2.61601 19.6249 2.65501 20.7559 3.79301C21.8869 4.93101 21.9199 6.46501 21.9859 9.53501C21.9929 9.89201 21.9979 10.512 21.9999 11.013" stroke="black" stroke-opacity="0.2" stroke-width="1.5" stroke-linecap="round" stroke-linejoin="round"/>
<path d="M18 21.5V20.214C17.4564 20.2178 16.9201 20.0897 16.4369 19.8406C15.9537 19.5915 15.5382 19.229 15.226 18.784M18 20.213C18.5436 20.2168 19.0799 20.0887 19.5631 19.8396C20.0463 19.5905 20.4618 19.228 20.774 18.783M18 13.785C19.157 13.785 20.176 14.353 20.774 15.215C21.1383 15.7382 21.3337 16.3614 21.3337 16.999C21.3337 17.6366 21.1383 18.2588 20.774 18.782L22 19.57M15.226 15.217C15.5382 14.772 15.9537 14.4095 16.4369 14.1604C16.9201 13.9113 17.4564 13.7832 18 13.787V12.5M22 14.429L20.774 15.217M14 19.57L15.226 18.782C14.8617 18.2588 14.6663 17.6366 14.6663 16.999C14.6663 16.3614 14.8617 15.7392 15.226 15.216M14 14.43L15.226 15.218" stroke="#2D2D2D" stroke-width="1.5" stroke-linecap="round"/>
<path d="M18 21.5V20.214C17.4564 20.2178 16.9201 20.0897 16.4369 19.8406C15.9537 19.5915 15.5382 19.229 15.226 18.784M18 20.213C18.5436 20.2168 19.0799 20.0887 19.5631 19.8396C20.0463 19.5905 20.4618 19.228 20.774 18.783M18 13.785C19.157 13.785 20.176 14.353 20.774 15.215C21.1383 15.7382 21.3337 16.3614 21.3337 16.999C21.3337 17.6366 21.1383 18.2588 20.774 18.782L22 19.57M15.226 15.217C15.5382 14.772 15.9537 14.4095 16.4369 14.1604C16.9201 13.9113 17.4564 13.7832 18 13.787V12.5M22 14.429L20.774 15.217M14 19.57L15.226 18.782C14.8617 18.2588 14.6663 17.6366 14.6663 16.999C14.6663 16.3614 14.8617 15.7392 15.226 15.216M14 14.43L15.226 15.218" stroke="black" stroke-opacity="0.2" stroke-width="1.5" stroke-linecap="round"/>
<path d="M18 21.5V20.214C17.4564 20.2178 16.9201 20.0897 16.4369 19.8406C15.9537 19.5915 15.5382 19.229 15.226 18.784M18 20.213C18.5436 20.2168 19.0799 20.0887 19.5631 19.8396C20.0463 19.5905 20.4618 19.228 20.774 18.783M18 13.785C19.157 13.785 20.176 14.353 20.774 15.215C21.1383 15.7382 21.3337 16.3614 21.3337 16.999C21.3337 17.6366 21.1383 18.2588 20.774 18.782L22 19.57M15.226 15.217C15.5382 14.772 15.9537 14.4095 16.4369 14.1604C16.9201 13.9113 17.4564 13.7832 18 13.787V12.5M22 14.429L20.774 15.217M14 19.57L15.226 18.782C14.8617 18.2588 14.6663 17.6366 14.6663 16.999C14.6663 16.3614 14.8617 15.7392 15.226 15.216M14 14.43L15.226 15.218" stroke="black" stroke-opacity="0.2" stroke-width="1.5" stroke-linecap="round"/>
<path d="M18 21.5V20.214C17.4564 20.2178 16.9201 20.0897 16.4369 19.8406C15.9537 19.5915 15.5382 19.229 15.226 18.784M18 20.213C18.5436 20.2168 19.0799 20.0887 19.5631 19.8396C20.0463 19.5905 20.4618 19.228 20.774 18.783M18 13.785C19.157 13.785 20.176 14.353 20.774 15.215C21.1383 15.7382 21.3337 16.3614 21.3337 16.999C21.3337 17.6366 21.1383 18.2588 20.774 18.782L22 19.57M15.226 15.217C15.5382 14.772 15.9537 14.4095 16.4369 14.1604C16.9201 13.9113 17.4564 13.7832 18 13.787V12.5M22 14.429L20.774 15.217M14 19.57L15.226 18.782C14.8617 18.2588 14.6663 17.6366 14.6663 16.999C14.6663 16.3614 14.8617 15.7392 15.226 15.216M14 14.43L15.226 15.218" stroke="black" stroke-opacity="0.2" stroke-width="1.5" stroke-linecap="round"/>
<path d="M18 21.5V20.214C17.4564 20.2178 16.9201 20.0897 16.4369 19.8406C15.9537 19.5915 15.5382 19.229 15.226 18.784M18 20.213C18.5436 20.2168 19.0799 20.0887 19.5631 19.8396C20.0463 19.5905 20.4618 19.228 20.774 18.783M18 13.785C19.157 13.785 20.176 14.353 20.774 15.215C21.1383 15.7382 21.3337 16.3614 21.3337 16.999C21.3337 17.6366 21.1383 18.2588 20.774 18.782L22 19.57M15.226 15.217C15.5382 14.772 15.9537 14.4095 16.4369 14.1604C16.9201 13.9113 17.4564 13.7832 18 13.787V12.5M22 14.429L20.774 15.217M14 19.57L15.226 18.782C14.8617 18.2588 14.6663 17.6366 14.6663 16.999C14.6663 16.3614 14.8617 15.7392 15.226 15.216M14 14.43L15.226 15.218" stroke="black" stroke-opacity="0.2" stroke-width="1.5" stroke-linecap="round"/>
<path d="M18 21.5V20.214C17.4564 20.2178 16.9201 20.0897 16.4369 19.8406C15.9537 19.5915 15.5382 19.229 15.226 18.784M18 20.213C18.5436 20.2168 19.0799 20.0887 19.5631 19.8396C20.0463 19.5905 20.4618 19.228 20.774 18.783M18 13.785C19.157 13.785 20.176 14.353 20.774 15.215C21.1383 15.7382 21.3337 16.3614 21.3337 16.999C21.3337 17.6366 21.1383 18.2588 20.774 18.782L22 19.57M15.226 15.217C15.5382 14.772 15.9537 14.4095 16.4369 14.1604C16.9201 13.9113 17.4564 13.7832 18 13.787V12.5M22 14.429L20.774 15.217M14 19.57L15.226 18.782C14.8617 18.2588 14.6663 17.6366 14.6663 16.999C14.6663 16.3614 14.8617 15.7392 15.226 15.216M14 14.43L15.226 15.218" stroke="black" stroke-opacity="0.2" stroke-width="1.5" stroke-linecap="round"/>
<path d="M18 21.5V20.214C17.4564 20.2178 16.9201 20.0897 16.4369 19.8406C15.9537 19.5915 15.5382 19.229 15.226 18.784M18 20.213C18.5436 20.2168 19.0799 20.0887 19.5631 19.8396C20.0463 19.5905 20.4618 19.228 20.774 18.783M18 13.785C19.157 13.785 20.176 14.353 20.774 15.215C21.1383 15.7382 21.3337 16.3614 21.3337 16.999C21.3337 17.6366 21.1383 18.2588 20.774 18.782L22 19.57M15.226 15.217C15.5382 14.772 15.9537 14.4095 16.4369 14.1604C16.9201 13.9113 17.4564 13.7832 18 13.787V12.5M22 14.429L20.774 15.217M14 19.57L15.226 18.782C14.8617 18.2588 14.6663 17.6366 14.6663 16.999C14.6663 16.3614 14.8617 15.7392 15.226 15.216M14 14.43L15.226 15.218" stroke="black" stroke-opacity="0.2" stroke-width="1.5" stroke-linecap="round"/>
</svg>
