<svg width="24" height="24" viewBox="0 0 24 24" fill="none" xmlns="http://www.w3.org/2000/svg">
<path d="M15.1114 19.3158C15 19.5 15 19.5 14.8745 19.7257C14.7181 20.1727 14.4889 20.5788 14.2 20.9209C13.911 21.263 13.568 21.5344 13.1905 21.7196C12.813 21.9047 12.4084 22 11.9997 22C11.5911 22 11.1865 21.9047 10.809 21.7196C10.4315 21.5344 10.0884 21.263 9.7995 20.9209C9.51056 20.5788 9.28136 20.1727 9.12498 19.7257C8.88813 19.3464 9 19.5 8.88813 19.3158M18.4283 18.3158H5.57204C5.26103 18.3156 4.95704 18.2063 4.69851 18.0016C4.43997 17.7969 4.2385 17.5061 4.11956 17.1658C4.00062 16.8256 3.96955 16.4512 4.03028 16.0901C4.09101 15.7289 4.24081 15.3972 4.46075 15.1368L4.99594 14.5021C5.49583 13.9099 5.7766 13.1068 5.77651 12.2695V9.36842C5.77651 7.41419 6.43217 5.54001 7.59925 4.15816C8.76634 2.77631 10.3492 2 11.9997 2C13.6502 2 15.2331 2.77631 16.4002 4.15816C17.5673 5.54001 18.223 7.41419 18.223 9.36842V12.2695C18.2231 13.1069 18.5042 13.91 19.0044 14.5021L19.5405 15.1368C19.76 15.3974 19.9094 15.7291 19.9699 16.0901C20.0304 16.451 19.9992 16.8251 19.8804 17.1652C19.7615 17.5052 19.5602 17.796 19.302 18.0007C19.0437 18.2055 18.7391 18.3151 18.4283 18.3158Z" fill="#2D2D2D"/>
<path d="M15.1114 19.3158C15 19.5 15 19.5 14.8745 19.7257C14.7181 20.1727 14.4889 20.5788 14.2 20.9209C13.911 21.263 13.568 21.5344 13.1905 21.7196C12.813 21.9047 12.4084 22 11.9997 22C11.5911 22 11.1865 21.9047 10.809 21.7196C10.4315 21.5344 10.0884 21.263 9.7995 20.9209C9.51056 20.5788 9.28136 20.1727 9.12498 19.7257C8.88813 19.3464 9 19.5 8.88813 19.3158M18.4283 18.3158H5.57204C5.26103 18.3156 4.95704 18.2063 4.69851 18.0016C4.43997 17.7969 4.2385 17.5061 4.11956 17.1658C4.00062 16.8256 3.96955 16.4512 4.03028 16.0901C4.09101 15.7289 4.24081 15.3972 4.46075 15.1368L4.99594 14.5021C5.49583 13.9099 5.7766 13.1068 5.77651 12.2695V9.36842C5.77651 7.41419 6.43217 5.54001 7.59925 4.15816C8.76634 2.77631 10.3492 2 11.9997 2C13.6502 2 15.2331 2.77631 16.4002 4.15816C17.5673 5.54001 18.223 7.41419 18.223 9.36842V12.2695C18.2231 13.1069 18.5042 13.91 19.0044 14.5021L19.5405 15.1368C19.76 15.3974 19.9094 15.7291 19.9699 16.0901C20.0304 16.451 19.9992 16.8251 19.8804 17.1652C19.7615 17.5052 19.5602 17.796 19.302 18.0007C19.0437 18.2055 18.7391 18.3151 18.4283 18.3158Z" fill="black" fill-opacity="0.2"/>
<path d="M15.1114 19.3158C15 19.5 15 19.5 14.8745 19.7257C14.7181 20.1727 14.4889 20.5788 14.2 20.9209C13.911 21.263 13.568 21.5344 13.1905 21.7196C12.813 21.9047 12.4084 22 11.9997 22C11.5911 22 11.1865 21.9047 10.809 21.7196C10.4315 21.5344 10.0884 21.263 9.7995 20.9209C9.51056 20.5788 9.28136 20.1727 9.12498 19.7257C8.88813 19.3464 9 19.5 8.88813 19.3158M18.4283 18.3158H5.57204C5.26103 18.3156 4.95704 18.2063 4.69851 18.0016C4.43997 17.7969 4.2385 17.5061 4.11956 17.1658C4.00062 16.8256 3.96955 16.4512 4.03028 16.0901C4.09101 15.7289 4.24081 15.3972 4.46075 15.1368L4.99594 14.5021C5.49583 13.9099 5.7766 13.1068 5.77651 12.2695V9.36842C5.77651 7.41419 6.43217 5.54001 7.59925 4.15816C8.76634 2.77631 10.3492 2 11.9997 2C13.6502 2 15.2331 2.77631 16.4002 4.15816C17.5673 5.54001 18.223 7.41419 18.223 9.36842V12.2695C18.2231 13.1069 18.5042 13.91 19.0044 14.5021L19.5405 15.1368C19.76 15.3974 19.9094 15.7291 19.9699 16.0901C20.0304 16.451 19.9992 16.8251 19.8804 17.1652C19.7615 17.5052 19.5602 17.796 19.302 18.0007C19.0437 18.2055 18.7391 18.3151 18.4283 18.3158Z" fill="black" fill-opacity="0.2"/>
<path d="M15.1114 19.3158C15 19.5 15 19.5 14.8745 19.7257C14.7181 20.1727 14.4889 20.5788 14.2 20.9209C13.911 21.263 13.568 21.5344 13.1905 21.7196C12.813 21.9047 12.4084 22 11.9997 22C11.5911 22 11.1865 21.9047 10.809 21.7196C10.4315 21.5344 10.0884 21.263 9.7995 20.9209C9.51056 20.5788 9.28136 20.1727 9.12498 19.7257C8.88813 19.3464 9 19.5 8.88813 19.3158M18.4283 18.3158H5.57204C5.26103 18.3156 4.95704 18.2063 4.69851 18.0016C4.43997 17.7969 4.2385 17.5061 4.11956 17.1658C4.00062 16.8256 3.96955 16.4512 4.03028 16.0901C4.09101 15.7289 4.24081 15.3972 4.46075 15.1368L4.99594 14.5021C5.49583 13.9099 5.7766 13.1068 5.77651 12.2695V9.36842C5.77651 7.41419 6.43217 5.54001 7.59925 4.15816C8.76634 2.77631 10.3492 2 11.9997 2C13.6502 2 15.2331 2.77631 16.4002 4.15816C17.5673 5.54001 18.223 7.41419 18.223 9.36842V12.2695C18.2231 13.1069 18.5042 13.91 19.0044 14.5021L19.5405 15.1368C19.76 15.3974 19.9094 15.7291 19.9699 16.0901C20.0304 16.451 19.9992 16.8251 19.8804 17.1652C19.7615 17.5052 19.5602 17.796 19.302 18.0007C19.0437 18.2055 18.7391 18.3151 18.4283 18.3158Z" fill="black" fill-opacity="0.2"/>
<path d="M15.1114 19.3158C15 19.5 15 19.5 14.8745 19.7257C14.7181 20.1727 14.4889 20.5788 14.2 20.9209C13.911 21.263 13.568 21.5344 13.1905 21.7196C12.813 21.9047 12.4084 22 11.9997 22C11.5911 22 11.1865 21.9047 10.809 21.7196C10.4315 21.5344 10.0884 21.263 9.7995 20.9209C9.51056 20.5788 9.28136 20.1727 9.12498 19.7257C8.88813 19.3464 9 19.5 8.88813 19.3158M18.4283 18.3158H5.57204C5.26103 18.3156 4.95704 18.2063 4.69851 18.0016C4.43997 17.7969 4.2385 17.5061 4.11956 17.1658C4.00062 16.8256 3.96955 16.4512 4.03028 16.0901C4.09101 15.7289 4.24081 15.3972 4.46075 15.1368L4.99594 14.5021C5.49583 13.9099 5.7766 13.1068 5.77651 12.2695V9.36842C5.77651 7.41419 6.43217 5.54001 7.59925 4.15816C8.76634 2.77631 10.3492 2 11.9997 2C13.6502 2 15.2331 2.77631 16.4002 4.15816C17.5673 5.54001 18.223 7.41419 18.223 9.36842V12.2695C18.2231 13.1069 18.5042 13.91 19.0044 14.5021L19.5405 15.1368C19.76 15.3974 19.9094 15.7291 19.9699 16.0901C20.0304 16.451 19.9992 16.8251 19.8804 17.1652C19.7615 17.5052 19.5602 17.796 19.302 18.0007C19.0437 18.2055 18.7391 18.3151 18.4283 18.3158Z" fill="black" fill-opacity="0.2"/>
<path d="M15.1114 19.3158C15 19.5 15 19.5 14.8745 19.7257C14.7181 20.1727 14.4889 20.5788 14.2 20.9209C13.911 21.263 13.568 21.5344 13.1905 21.7196C12.813 21.9047 12.4084 22 11.9997 22C11.5911 22 11.1865 21.9047 10.809 21.7196C10.4315 21.5344 10.0884 21.263 9.7995 20.9209C9.51056 20.5788 9.28136 20.1727 9.12498 19.7257C8.88813 19.3464 9 19.5 8.88813 19.3158M18.4283 18.3158H5.57204C5.26103 18.3156 4.95704 18.2063 4.69851 18.0016C4.43997 17.7969 4.2385 17.5061 4.11956 17.1658C4.00062 16.8256 3.96955 16.4512 4.03028 16.0901C4.09101 15.7289 4.24081 15.3972 4.46075 15.1368L4.99594 14.5021C5.49583 13.9099 5.7766 13.1068 5.77651 12.2695V9.36842C5.77651 7.41419 6.43217 5.54001 7.59925 4.15816C8.76634 2.77631 10.3492 2 11.9997 2C13.6502 2 15.2331 2.77631 16.4002 4.15816C17.5673 5.54001 18.223 7.41419 18.223 9.36842V12.2695C18.2231 13.1069 18.5042 13.91 19.0044 14.5021L19.5405 15.1368C19.76 15.3974 19.9094 15.7291 19.9699 16.0901C20.0304 16.451 19.9992 16.8251 19.8804 17.1652C19.7615 17.5052 19.5602 17.796 19.302 18.0007C19.0437 18.2055 18.7391 18.3151 18.4283 18.3158Z" fill="black" fill-opacity="0.2"/>
<path d="M15.1114 19.3158C15 19.5 15 19.5 14.8745 19.7257C14.7181 20.1727 14.4889 20.5788 14.2 20.9209C13.911 21.263 13.568 21.5344 13.1905 21.7196C12.813 21.9047 12.4084 22 11.9997 22C11.5911 22 11.1865 21.9047 10.809 21.7196C10.4315 21.5344 10.0884 21.263 9.7995 20.9209C9.51056 20.5788 9.28136 20.1727 9.12498 19.7257C8.88813 19.3464 9 19.5 8.88813 19.3158M18.4283 18.3158H5.57204C5.26103 18.3156 4.95704 18.2063 4.69851 18.0016C4.43997 17.7969 4.2385 17.5061 4.11956 17.1658C4.00062 16.8256 3.96955 16.4512 4.03028 16.0901C4.09101 15.7289 4.24081 15.3972 4.46075 15.1368L4.99594 14.5021C5.49583 13.9099 5.7766 13.1068 5.77651 12.2695V9.36842C5.77651 7.41419 6.43217 5.54001 7.59925 4.15816C8.76634 2.77631 10.3492 2 11.9997 2C13.6502 2 15.2331 2.77631 16.4002 4.15816C17.5673 5.54001 18.223 7.41419 18.223 9.36842V12.2695C18.2231 13.1069 18.5042 13.91 19.0044 14.5021L19.5405 15.1368C19.76 15.3974 19.9094 15.7291 19.9699 16.0901C20.0304 16.451 19.9992 16.8251 19.8804 17.1652C19.7615 17.5052 19.5602 17.796 19.302 18.0007C19.0437 18.2055 18.7391 18.3151 18.4283 18.3158Z" fill="black" fill-opacity="0.2"/>
</svg>
