<svg width="24" height="24" viewBox="0 0 24 24" fill="none" xmlns="http://www.w3.org/2000/svg">
<path d="M8 6.5H19C19.275 6.5 19.5 6.725 19.5 7V14C19.5 14.275 19.275 14.5 19 14.5H18.3375L15.1281 9.59062C14.9906 9.37812 14.7531 9.25 14.5 9.25C14.2469 9.25 14.0094 9.37812 13.8719 9.59062L12.2406 12.0844L11.8531 11.5563C11.7125 11.3625 11.4875 11.25 11.2469 11.25C11.0062 11.25 10.7844 11.3625 10.6406 11.5563L8.4875 14.5H8C7.725 14.5 7.5 14.275 7.5 14V7C7.5 6.725 7.725 6.5 8 6.5ZM6 7V14C6 15.1031 6.89687 16 8 16H19C20.1031 16 21 15.1031 21 14V7C21 5.89688 20.1031 5 19 5H8C6.89687 5 6 5.89688 6 7ZM4.5 7.75C4.5 7.33437 4.16562 7 3.75 7C3.33437 7 3 7.33437 3 7.75V14.75C3 17.0969 4.90313 19 7.25 19H17.25C17.6656 19 18 18.6656 18 18.25C18 17.8344 17.6656 17.5 17.25 17.5H7.25C5.73125 17.5 4.5 16.2688 4.5 14.75V7.75ZM11 8.5C11 8.23478 10.8946 7.98043 10.7071 7.79289C10.5196 7.60536 10.2652 7.5 10 7.5C9.73478 7.5 9.48043 7.60536 9.29289 7.79289C9.10536 7.98043 9 8.23478 9 8.5C9 8.76522 9.10536 9.01957 9.29289 9.20711C9.48043 9.39464 9.73478 9.5 10 9.5C10.2652 9.5 10.5196 9.39464 10.7071 9.20711C10.8946 9.01957 11 8.76522 11 8.5Z" fill="#906629"/>
</svg>
