<svg width="20" height="20" viewBox="0 0 20 20" fill="none" xmlns="http://www.w3.org/2000/svg">
<path d="M9.75 18.75C10.9321 18.7515 12.1029 18.5193 13.195 18.0669C14.2871 17.6145 15.2791 16.9508 16.1139 16.1139C16.9508 15.2791 17.6145 14.2871 18.0669 13.195C18.5193 12.1029 18.7515 10.9321 18.75 9.75C18.7515 8.56789 18.5193 7.39714 18.0669 6.30502C17.6145 5.2129 16.9508 4.22093 16.1139 3.3861C15.2791 2.54918 14.2871 1.88545 13.195 1.43307C12.1029 0.980682 10.9321 0.748549 9.75 0.750007C8.56789 0.748549 7.39714 0.980682 6.30502 1.43307C5.2129 1.88545 4.22093 2.54918 3.3861 3.3861C2.54918 4.22093 1.88545 5.2129 1.43307 6.30502C0.980682 7.39714 0.748549 8.56789 0.750007 9.75C0.748549 10.9321 0.980682 12.1029 1.43307 13.195C1.88545 14.2871 2.54918 15.2791 3.3861 16.1139C4.22093 16.9508 5.2129 17.6145 6.30502 18.0669C7.39714 18.5193 8.56789 18.7515 9.75 18.75Z" stroke="#2D2D2D" stroke-width="1.5" stroke-linejoin="round"/>
<path d="M9.75 18.75C10.9321 18.7515 12.1029 18.5193 13.195 18.0669C14.2871 17.6145 15.2791 16.9508 16.1139 16.1139C16.9508 15.2791 17.6145 14.2871 18.0669 13.195C18.5193 12.1029 18.7515 10.9321 18.75 9.75C18.7515 8.56789 18.5193 7.39714 18.0669 6.30502C17.6145 5.2129 16.9508 4.22093 16.1139 3.3861C15.2791 2.54918 14.2871 1.88545 13.195 1.43307C12.1029 0.980682 10.9321 0.748549 9.75 0.750007C8.56789 0.748549 7.39714 0.980682 6.30502 1.43307C5.2129 1.88545 4.22093 2.54918 3.3861 3.3861C2.54918 4.22093 1.88545 5.2129 1.43307 6.30502C0.980682 7.39714 0.748549 8.56789 0.750007 9.75C0.748549 10.9321 0.980682 12.1029 1.43307 13.195C1.88545 14.2871 2.54918 15.2791 3.3861 16.1139C4.22093 16.9508 5.2129 17.6145 6.30502 18.0669C7.39714 18.5193 8.56789 18.7515 9.75 18.75Z" stroke="black" stroke-opacity="0.2" stroke-width="1.5" stroke-linejoin="round"/>
<path d="M9.75 18.75C10.9321 18.7515 12.1029 18.5193 13.195 18.0669C14.2871 17.6145 15.2791 16.9508 16.1139 16.1139C16.9508 15.2791 17.6145 14.2871 18.0669 13.195C18.5193 12.1029 18.7515 10.9321 18.75 9.75C18.7515 8.56789 18.5193 7.39714 18.0669 6.30502C17.6145 5.2129 16.9508 4.22093 16.1139 3.3861C15.2791 2.54918 14.2871 1.88545 13.195 1.43307C12.1029 0.980682 10.9321 0.748549 9.75 0.750007C8.56789 0.748549 7.39714 0.980682 6.30502 1.43307C5.2129 1.88545 4.22093 2.54918 3.3861 3.3861C2.54918 4.22093 1.88545 5.2129 1.43307 6.30502C0.980682 7.39714 0.748549 8.56789 0.750007 9.75C0.748549 10.9321 0.980682 12.1029 1.43307 13.195C1.88545 14.2871 2.54918 15.2791 3.3861 16.1139C4.22093 16.9508 5.2129 17.6145 6.30502 18.0669C7.39714 18.5193 8.56789 18.7515 9.75 18.75Z" stroke="black" stroke-opacity="0.2" stroke-width="1.5" stroke-linejoin="round"/>
<path d="M9.75 18.75C10.9321 18.7515 12.1029 18.5193 13.195 18.0669C14.2871 17.6145 15.2791 16.9508 16.1139 16.1139C16.9508 15.2791 17.6145 14.2871 18.0669 13.195C18.5193 12.1029 18.7515 10.9321 18.75 9.75C18.7515 8.56789 18.5193 7.39714 18.0669 6.30502C17.6145 5.2129 16.9508 4.22093 16.1139 3.3861C15.2791 2.54918 14.2871 1.88545 13.195 1.43307C12.1029 0.980682 10.9321 0.748549 9.75 0.750007C8.56789 0.748549 7.39714 0.980682 6.30502 1.43307C5.2129 1.88545 4.22093 2.54918 3.3861 3.3861C2.54918 4.22093 1.88545 5.2129 1.43307 6.30502C0.980682 7.39714 0.748549 8.56789 0.750007 9.75C0.748549 10.9321 0.980682 12.1029 1.43307 13.195C1.88545 14.2871 2.54918 15.2791 3.3861 16.1139C4.22093 16.9508 5.2129 17.6145 6.30502 18.0669C7.39714 18.5193 8.56789 18.7515 9.75 18.75Z" stroke="black" stroke-opacity="0.2" stroke-width="1.5" stroke-linejoin="round"/>
<path d="M9.75 18.75C10.9321 18.7515 12.1029 18.5193 13.195 18.0669C14.2871 17.6145 15.2791 16.9508 16.1139 16.1139C16.9508 15.2791 17.6145 14.2871 18.0669 13.195C18.5193 12.1029 18.7515 10.9321 18.75 9.75C18.7515 8.56789 18.5193 7.39714 18.0669 6.30502C17.6145 5.2129 16.9508 4.22093 16.1139 3.3861C15.2791 2.54918 14.2871 1.88545 13.195 1.43307C12.1029 0.980682 10.9321 0.748549 9.75 0.750007C8.56789 0.748549 7.39714 0.980682 6.30502 1.43307C5.2129 1.88545 4.22093 2.54918 3.3861 3.3861C2.54918 4.22093 1.88545 5.2129 1.43307 6.30502C0.980682 7.39714 0.748549 8.56789 0.750007 9.75C0.748549 10.9321 0.980682 12.1029 1.43307 13.195C1.88545 14.2871 2.54918 15.2791 3.3861 16.1139C4.22093 16.9508 5.2129 17.6145 6.30502 18.0669C7.39714 18.5193 8.56789 18.7515 9.75 18.75Z" stroke="black" stroke-opacity="0.2" stroke-width="1.5" stroke-linejoin="round"/>
<path d="M9.75 18.75C10.9321 18.7515 12.1029 18.5193 13.195 18.0669C14.2871 17.6145 15.2791 16.9508 16.1139 16.1139C16.9508 15.2791 17.6145 14.2871 18.0669 13.195C18.5193 12.1029 18.7515 10.9321 18.75 9.75C18.7515 8.56789 18.5193 7.39714 18.0669 6.30502C17.6145 5.2129 16.9508 4.22093 16.1139 3.3861C15.2791 2.54918 14.2871 1.88545 13.195 1.43307C12.1029 0.980682 10.9321 0.748549 9.75 0.750007C8.56789 0.748549 7.39714 0.980682 6.30502 1.43307C5.2129 1.88545 4.22093 2.54918 3.3861 3.3861C2.54918 4.22093 1.88545 5.2129 1.43307 6.30502C0.980682 7.39714 0.748549 8.56789 0.750007 9.75C0.748549 10.9321 0.980682 12.1029 1.43307 13.195C1.88545 14.2871 2.54918 15.2791 3.3861 16.1139C4.22093 16.9508 5.2129 17.6145 6.30502 18.0669C7.39714 18.5193 8.56789 18.7515 9.75 18.75Z" stroke="black" stroke-opacity="0.2" stroke-width="1.5" stroke-linejoin="round"/>
<path d="M9.75 18.75C10.9321 18.7515 12.1029 18.5193 13.195 18.0669C14.2871 17.6145 15.2791 16.9508 16.1139 16.1139C16.9508 15.2791 17.6145 14.2871 18.0669 13.195C18.5193 12.1029 18.7515 10.9321 18.75 9.75C18.7515 8.56789 18.5193 7.39714 18.0669 6.30502C17.6145 5.2129 16.9508 4.22093 16.1139 3.3861C15.2791 2.54918 14.2871 1.88545 13.195 1.43307C12.1029 0.980682 10.9321 0.748549 9.75 0.750007C8.56789 0.748549 7.39714 0.980682 6.30502 1.43307C5.2129 1.88545 4.22093 2.54918 3.3861 3.3861C2.54918 4.22093 1.88545 5.2129 1.43307 6.30502C0.980682 7.39714 0.748549 8.56789 0.750007 9.75C0.748549 10.9321 0.980682 12.1029 1.43307 13.195C1.88545 14.2871 2.54918 15.2791 3.3861 16.1139C4.22093 16.9508 5.2129 17.6145 6.30502 18.0669C7.39714 18.5193 8.56789 18.7515 9.75 18.75Z" stroke="black" stroke-opacity="0.2" stroke-width="1.5" stroke-linejoin="round"/>
<path d="M6.1499 9.75005L8.8499 12.45L14.2499 7.05005" stroke="#2D2D2D" stroke-width="1.5" stroke-linecap="round" stroke-linejoin="round"/>
<path d="M6.1499 9.75005L8.8499 12.45L14.2499 7.05005" stroke="black" stroke-opacity="0.2" stroke-width="1.5" stroke-linecap="round" stroke-linejoin="round"/>
<path d="M6.1499 9.75005L8.8499 12.45L14.2499 7.05005" stroke="black" stroke-opacity="0.2" stroke-width="1.5" stroke-linecap="round" stroke-linejoin="round"/>
<path d="M6.1499 9.75005L8.8499 12.45L14.2499 7.05005" stroke="black" stroke-opacity="0.2" stroke-width="1.5" stroke-linecap="round" stroke-linejoin="round"/>
<path d="M6.1499 9.75005L8.8499 12.45L14.2499 7.05005" stroke="black" stroke-opacity="0.2" stroke-width="1.5" stroke-linecap="round" stroke-linejoin="round"/>
<path d="M6.1499 9.75005L8.8499 12.45L14.2499 7.05005" stroke="black" stroke-opacity="0.2" stroke-width="1.5" stroke-linecap="round" stroke-linejoin="round"/>
<path d="M6.1499 9.75005L8.8499 12.45L14.2499 7.05005" stroke="black" stroke-opacity="0.2" stroke-width="1.5" stroke-linecap="round" stroke-linejoin="round"/>
</svg>
