<svg width="24" height="33" viewBox="0 0 24 33" fill="none" xmlns="http://www.w3.org/2000/svg">
<path d="M18.375 0C18.6734 0 18.9595 0.130379 19.1705 0.362455C19.3815 0.594531 19.5 0.909295 19.5 1.2375V3.3H20.625C21.0682 3.3 21.5071 3.39603 21.9166 3.5826C22.326 3.76917 22.6981 4.04263 23.0115 4.38737C23.3249 4.7321 23.5735 5.14137 23.7431 5.59179C23.9127 6.04221 24 6.52497 24 7.0125V23.1H18.375C17.4799 23.1 16.6215 23.4911 15.9885 24.1874C15.3556 24.8836 15 25.8279 15 26.8125V33H3.375C2.47989 33 1.62145 32.6089 0.988515 31.9126C0.35558 31.2164 0 30.2721 0 29.2875V7.0125C0 6.02788 0.35558 5.0836 0.988515 4.38737C1.62145 3.69114 2.47989 3.3 3.375 3.3H4.5V1.2375C4.5 0.909295 4.61853 0.594531 4.8295 0.362455C5.04048 0.130379 5.32663 0 5.625 0C5.92337 0 6.20952 0.130379 6.42049 0.362455C6.63147 0.594531 6.75 0.909295 6.75 1.2375V3.3H10.875V1.2375C10.875 0.909295 10.9935 0.594531 11.2045 0.362455C11.4155 0.130379 11.7016 0 12 0C12.2984 0 12.5845 0.130379 12.7955 0.362455C13.0065 0.594531 13.125 0.909295 13.125 1.2375V3.3H17.25V1.2375C17.25 0.909295 17.3685 0.594531 17.5795 0.362455C17.7905 0.130379 18.0766 0 18.375 0ZM23.64 25.575C23.555 25.7246 23.455 25.8621 23.34 25.9875L17.625 32.274C17.51 32.4005 17.385 32.5105 17.25 32.604V26.8125C17.25 26.4843 17.3685 26.1695 17.5795 25.9375C17.7905 25.7054 18.0766 25.575 18.375 25.575H23.64ZM6.375 23.1C6.07663 23.1 5.79048 23.2304 5.5795 23.4625C5.36853 23.6945 5.25 24.0093 5.25 24.3375C5.25 24.6657 5.36853 24.9805 5.5795 25.2125C5.79048 25.4446 6.07663 25.575 6.375 25.575H10.875L10.9905 25.5684C11.2673 25.5368 11.5236 25.3935 11.71 25.1662C11.8963 24.9389 11.9995 24.6436 11.9995 24.3375C11.9995 24.0314 11.8963 23.7361 11.71 23.5088C11.5236 23.2815 11.2673 23.1382 10.9905 23.1066L10.875 23.1H6.375ZM6.375 16.5C6.07663 16.5 5.79048 16.6304 5.5795 16.8625C5.36853 17.0945 5.25 17.4093 5.25 17.7375C5.25 18.0657 5.36853 18.3805 5.5795 18.6125C5.79048 18.8446 6.07663 18.975 6.375 18.975H17.625C17.9234 18.975 18.2095 18.8446 18.4205 18.6125C18.6315 18.3805 18.75 18.0657 18.75 17.7375C18.75 17.4093 18.6315 17.0945 18.4205 16.8625C18.2095 16.6304 17.9234 16.5 17.625 16.5H6.375ZM6.375 9.9C6.07663 9.9 5.79048 10.0304 5.5795 10.2625C5.36853 10.4945 5.25 10.8093 5.25 11.1375C5.25 11.4657 5.36853 11.7805 5.5795 12.0125C5.79048 12.2446 6.07663 12.375 6.375 12.375H17.625C17.9234 12.375 18.2095 12.2446 18.4205 12.0125C18.6315 11.7805 18.75 11.4657 18.75 11.1375C18.75 10.8093 18.6315 10.4945 18.4205 10.2625C18.2095 10.0304 17.9234 9.9 17.625 9.9H6.375Z" fill="#423526"/>
</svg>
