<svg width="24" height="24" viewBox="0 0 24 24" fill="none" xmlns="http://www.w3.org/2000/svg">
<path d="M4 20.9474V18.8421C4 17.7254 4.44952 16.6544 5.24968 15.8648C6.04983 15.0752 7.13508 14.6316 8.26667 14.6316H11.4667M14.6667 22L20 16.7368M20 16.7368V21.4737M20 16.7368H15.2M6.13333 6.21053C6.13333 7.32723 6.58286 8.39819 7.38301 9.18782C8.18317 9.97745 9.26841 10.4211 10.4 10.4211C11.5316 10.4211 12.6168 9.97745 13.417 9.18782C14.2171 8.39819 14.6667 7.32723 14.6667 6.21053C14.6667 5.09383 14.2171 4.02286 13.417 3.23323C12.6168 2.44361 11.5316 2 10.4 2C9.26841 2 8.18317 2.44361 7.38301 3.23323C6.58286 4.02286 6.13333 5.09383 6.13333 6.21053Z" stroke="#2D2D2D" stroke-width="1.5" stroke-linecap="round" stroke-linejoin="round"/>
<path d="M4 20.9474V18.8421C4 17.7254 4.44952 16.6544 5.24968 15.8648C6.04983 15.0752 7.13508 14.6316 8.26667 14.6316H11.4667M14.6667 22L20 16.7368M20 16.7368V21.4737M20 16.7368H15.2M6.13333 6.21053C6.13333 7.32723 6.58286 8.39819 7.38301 9.18782C8.18317 9.97745 9.26841 10.4211 10.4 10.4211C11.5316 10.4211 12.6168 9.97745 13.417 9.18782C14.2171 8.39819 14.6667 7.32723 14.6667 6.21053C14.6667 5.09383 14.2171 4.02286 13.417 3.23323C12.6168 2.44361 11.5316 2 10.4 2C9.26841 2 8.18317 2.44361 7.38301 3.23323C6.58286 4.02286 6.13333 5.09383 6.13333 6.21053Z" stroke="black" stroke-opacity="0.2" stroke-width="1.5" stroke-linecap="round" stroke-linejoin="round"/>
<path d="M4 20.9474V18.8421C4 17.7254 4.44952 16.6544 5.24968 15.8648C6.04983 15.0752 7.13508 14.6316 8.26667 14.6316H11.4667M14.6667 22L20 16.7368M20 16.7368V21.4737M20 16.7368H15.2M6.13333 6.21053C6.13333 7.32723 6.58286 8.39819 7.38301 9.18782C8.18317 9.97745 9.26841 10.4211 10.4 10.4211C11.5316 10.4211 12.6168 9.97745 13.417 9.18782C14.2171 8.39819 14.6667 7.32723 14.6667 6.21053C14.6667 5.09383 14.2171 4.02286 13.417 3.23323C12.6168 2.44361 11.5316 2 10.4 2C9.26841 2 8.18317 2.44361 7.38301 3.23323C6.58286 4.02286 6.13333 5.09383 6.13333 6.21053Z" stroke="black" stroke-opacity="0.2" stroke-width="1.5" stroke-linecap="round" stroke-linejoin="round"/>
<path d="M4 20.9474V18.8421C4 17.7254 4.44952 16.6544 5.24968 15.8648C6.04983 15.0752 7.13508 14.6316 8.26667 14.6316H11.4667M14.6667 22L20 16.7368M20 16.7368V21.4737M20 16.7368H15.2M6.13333 6.21053C6.13333 7.32723 6.58286 8.39819 7.38301 9.18782C8.18317 9.97745 9.26841 10.4211 10.4 10.4211C11.5316 10.4211 12.6168 9.97745 13.417 9.18782C14.2171 8.39819 14.6667 7.32723 14.6667 6.21053C14.6667 5.09383 14.2171 4.02286 13.417 3.23323C12.6168 2.44361 11.5316 2 10.4 2C9.26841 2 8.18317 2.44361 7.38301 3.23323C6.58286 4.02286 6.13333 5.09383 6.13333 6.21053Z" stroke="black" stroke-opacity="0.2" stroke-width="1.5" stroke-linecap="round" stroke-linejoin="round"/>
<path d="M4 20.9474V18.8421C4 17.7254 4.44952 16.6544 5.24968 15.8648C6.04983 15.0752 7.13508 14.6316 8.26667 14.6316H11.4667M14.6667 22L20 16.7368M20 16.7368V21.4737M20 16.7368H15.2M6.13333 6.21053C6.13333 7.32723 6.58286 8.39819 7.38301 9.18782C8.18317 9.97745 9.26841 10.4211 10.4 10.4211C11.5316 10.4211 12.6168 9.97745 13.417 9.18782C14.2171 8.39819 14.6667 7.32723 14.6667 6.21053C14.6667 5.09383 14.2171 4.02286 13.417 3.23323C12.6168 2.44361 11.5316 2 10.4 2C9.26841 2 8.18317 2.44361 7.38301 3.23323C6.58286 4.02286 6.13333 5.09383 6.13333 6.21053Z" stroke="black" stroke-opacity="0.2" stroke-width="1.5" stroke-linecap="round" stroke-linejoin="round"/>
<path d="M4 20.9474V18.8421C4 17.7254 4.44952 16.6544 5.24968 15.8648C6.04983 15.0752 7.13508 14.6316 8.26667 14.6316H11.4667M14.6667 22L20 16.7368M20 16.7368V21.4737M20 16.7368H15.2M6.13333 6.21053C6.13333 7.32723 6.58286 8.39819 7.38301 9.18782C8.18317 9.97745 9.26841 10.4211 10.4 10.4211C11.5316 10.4211 12.6168 9.97745 13.417 9.18782C14.2171 8.39819 14.6667 7.32723 14.6667 6.21053C14.6667 5.09383 14.2171 4.02286 13.417 3.23323C12.6168 2.44361 11.5316 2 10.4 2C9.26841 2 8.18317 2.44361 7.38301 3.23323C6.58286 4.02286 6.13333 5.09383 6.13333 6.21053Z" stroke="black" stroke-opacity="0.2" stroke-width="1.5" stroke-linecap="round" stroke-linejoin="round"/>
<path d="M4 20.9474V18.8421C4 17.7254 4.44952 16.6544 5.24968 15.8648C6.04983 15.0752 7.13508 14.6316 8.26667 14.6316H11.4667M14.6667 22L20 16.7368M20 16.7368V21.4737M20 16.7368H15.2M6.13333 6.21053C6.13333 7.32723 6.58286 8.39819 7.38301 9.18782C8.18317 9.97745 9.26841 10.4211 10.4 10.4211C11.5316 10.4211 12.6168 9.97745 13.417 9.18782C14.2171 8.39819 14.6667 7.32723 14.6667 6.21053C14.6667 5.09383 14.2171 4.02286 13.417 3.23323C12.6168 2.44361 11.5316 2 10.4 2C9.26841 2 8.18317 2.44361 7.38301 3.23323C6.58286 4.02286 6.13333 5.09383 6.13333 6.21053Z" stroke="black" stroke-opacity="0.2" stroke-width="1.5" stroke-linecap="round" stroke-linejoin="round"/>
</svg>
