<svg width="20" height="16" viewBox="0 0 20 16" fill="none" xmlns="http://www.w3.org/2000/svg">
<path d="M13.2001 4.54035C14.3998 6.09612 14.3998 9.10966 13.2001 10.6654M15.9001 1.47781C19.4893 4.80985 19.5109 10.4178 15.9001 13.728M0.600098 10.192V5.01285C0.600098 4.5106 1.0033 4.10284 1.5001 4.10284H4.7275C4.8466 4.10243 4.96438 4.07857 5.07373 4.0327C5.18309 3.98684 5.28176 3.91991 5.3638 3.83596L8.0638 0.871423C8.63079 0.297415 9.60009 0.704296 9.60009 1.51543V13.6903C9.60009 14.5076 8.6191 14.911 8.0557 14.3256L5.3647 11.3777C5.28243 11.2913 5.18276 11.2224 5.0719 11.1751C4.96104 11.1279 4.84135 11.1033 4.7203 11.1029H1.5001C1.0033 11.1029 0.600098 10.6952 0.600098 10.192Z" stroke="#2D2D2D" stroke-width="1.2" stroke-linecap="round" stroke-linejoin="round"/>
<path d="M13.2001 4.54035C14.3998 6.09612 14.3998 9.10966 13.2001 10.6654M15.9001 1.47781C19.4893 4.80985 19.5109 10.4178 15.9001 13.728M0.600098 10.192V5.01285C0.600098 4.5106 1.0033 4.10284 1.5001 4.10284H4.7275C4.8466 4.10243 4.96438 4.07857 5.07373 4.0327C5.18309 3.98684 5.28176 3.91991 5.3638 3.83596L8.0638 0.871423C8.63079 0.297415 9.60009 0.704296 9.60009 1.51543V13.6903C9.60009 14.5076 8.6191 14.911 8.0557 14.3256L5.3647 11.3777C5.28243 11.2913 5.18276 11.2224 5.0719 11.1751C4.96104 11.1279 4.84135 11.1033 4.7203 11.1029H1.5001C1.0033 11.1029 0.600098 10.6952 0.600098 10.192Z" stroke="black" stroke-opacity="0.2" stroke-width="1.2" stroke-linecap="round" stroke-linejoin="round"/>
<path d="M13.2001 4.54035C14.3998 6.09612 14.3998 9.10966 13.2001 10.6654M15.9001 1.47781C19.4893 4.80985 19.5109 10.4178 15.9001 13.728M0.600098 10.192V5.01285C0.600098 4.5106 1.0033 4.10284 1.5001 4.10284H4.7275C4.8466 4.10243 4.96438 4.07857 5.07373 4.0327C5.18309 3.98684 5.28176 3.91991 5.3638 3.83596L8.0638 0.871423C8.63079 0.297415 9.60009 0.704296 9.60009 1.51543V13.6903C9.60009 14.5076 8.6191 14.911 8.0557 14.3256L5.3647 11.3777C5.28243 11.2913 5.18276 11.2224 5.0719 11.1751C4.96104 11.1279 4.84135 11.1033 4.7203 11.1029H1.5001C1.0033 11.1029 0.600098 10.6952 0.600098 10.192Z" stroke="black" stroke-opacity="0.2" stroke-width="1.2" stroke-linecap="round" stroke-linejoin="round"/>
<path d="M13.2001 4.54035C14.3998 6.09612 14.3998 9.10966 13.2001 10.6654M15.9001 1.47781C19.4893 4.80985 19.5109 10.4178 15.9001 13.728M0.600098 10.192V5.01285C0.600098 4.5106 1.0033 4.10284 1.5001 4.10284H4.7275C4.8466 4.10243 4.96438 4.07857 5.07373 4.0327C5.18309 3.98684 5.28176 3.91991 5.3638 3.83596L8.0638 0.871423C8.63079 0.297415 9.60009 0.704296 9.60009 1.51543V13.6903C9.60009 14.5076 8.6191 14.911 8.0557 14.3256L5.3647 11.3777C5.28243 11.2913 5.18276 11.2224 5.0719 11.1751C4.96104 11.1279 4.84135 11.1033 4.7203 11.1029H1.5001C1.0033 11.1029 0.600098 10.6952 0.600098 10.192Z" stroke="black" stroke-opacity="0.2" stroke-width="1.2" stroke-linecap="round" stroke-linejoin="round"/>
<path d="M13.2001 4.54035C14.3998 6.09612 14.3998 9.10966 13.2001 10.6654M15.9001 1.47781C19.4893 4.80985 19.5109 10.4178 15.9001 13.728M0.600098 10.192V5.01285C0.600098 4.5106 1.0033 4.10284 1.5001 4.10284H4.7275C4.8466 4.10243 4.96438 4.07857 5.07373 4.0327C5.18309 3.98684 5.28176 3.91991 5.3638 3.83596L8.0638 0.871423C8.63079 0.297415 9.60009 0.704296 9.60009 1.51543V13.6903C9.60009 14.5076 8.6191 14.911 8.0557 14.3256L5.3647 11.3777C5.28243 11.2913 5.18276 11.2224 5.0719 11.1751C4.96104 11.1279 4.84135 11.1033 4.7203 11.1029H1.5001C1.0033 11.1029 0.600098 10.6952 0.600098 10.192Z" stroke="black" stroke-opacity="0.2" stroke-width="1.2" stroke-linecap="round" stroke-linejoin="round"/>
<path d="M13.2001 4.54035C14.3998 6.09612 14.3998 9.10966 13.2001 10.6654M15.9001 1.47781C19.4893 4.80985 19.5109 10.4178 15.9001 13.728M0.600098 10.192V5.01285C0.600098 4.5106 1.0033 4.10284 1.5001 4.10284H4.7275C4.8466 4.10243 4.96438 4.07857 5.07373 4.0327C5.18309 3.98684 5.28176 3.91991 5.3638 3.83596L8.0638 0.871423C8.63079 0.297415 9.60009 0.704296 9.60009 1.51543V13.6903C9.60009 14.5076 8.6191 14.911 8.0557 14.3256L5.3647 11.3777C5.28243 11.2913 5.18276 11.2224 5.0719 11.1751C4.96104 11.1279 4.84135 11.1033 4.7203 11.1029H1.5001C1.0033 11.1029 0.600098 10.6952 0.600098 10.192Z" stroke="black" stroke-opacity="0.2" stroke-width="1.2" stroke-linecap="round" stroke-linejoin="round"/>
<path d="M13.2001 4.54035C14.3998 6.09612 14.3998 9.10966 13.2001 10.6654M15.9001 1.47781C19.4893 4.80985 19.5109 10.4178 15.9001 13.728M0.600098 10.192V5.01285C0.600098 4.5106 1.0033 4.10284 1.5001 4.10284H4.7275C4.8466 4.10243 4.96438 4.07857 5.07373 4.0327C5.18309 3.98684 5.28176 3.91991 5.3638 3.83596L8.0638 0.871423C8.63079 0.297415 9.60009 0.704296 9.60009 1.51543V13.6903C9.60009 14.5076 8.6191 14.911 8.0557 14.3256L5.3647 11.3777C5.28243 11.2913 5.18276 11.2224 5.0719 11.1751C4.96104 11.1279 4.84135 11.1033 4.7203 11.1029H1.5001C1.0033 11.1029 0.600098 10.6952 0.600098 10.192Z" stroke="black" stroke-opacity="0.2" stroke-width="1.2" stroke-linecap="round" stroke-linejoin="round"/>
</svg>
