<svg width="22" height="20" viewBox="0 0 22 20" fill="none" xmlns="http://www.w3.org/2000/svg">
<path d="M5.44444 14.5V1M5.44444 1L1 5.5M5.44444 1L9.88889 5.5M16.5556 5.5V19M16.5556 19L21 14.5M16.5556 19L12.1111 14.5" stroke="#2D2D2D" stroke-width="2" stroke-linecap="round" stroke-linejoin="round"/>
<path d="M5.44444 14.5V1M5.44444 1L1 5.5M5.44444 1L9.88889 5.5M16.5556 5.5V19M16.5556 19L21 14.5M16.5556 19L12.1111 14.5" stroke="black" stroke-opacity="0.2" stroke-width="2" stroke-linecap="round" stroke-linejoin="round"/>
<path d="M5.44444 14.5V1M5.44444 1L1 5.5M5.44444 1L9.88889 5.5M16.5556 5.5V19M16.5556 19L21 14.5M16.5556 19L12.1111 14.5" stroke="black" stroke-opacity="0.2" stroke-width="2" stroke-linecap="round" stroke-linejoin="round"/>
<path d="M5.44444 14.5V1M5.44444 1L1 5.5M5.44444 1L9.88889 5.5M16.5556 5.5V19M16.5556 19L21 14.5M16.5556 19L12.1111 14.5" stroke="black" stroke-opacity="0.2" stroke-width="2" stroke-linecap="round" stroke-linejoin="round"/>
<path d="M5.44444 14.5V1M5.44444 1L1 5.5M5.44444 1L9.88889 5.5M16.5556 5.5V19M16.5556 19L21 14.5M16.5556 19L12.1111 14.5" stroke="black" stroke-opacity="0.2" stroke-width="2" stroke-linecap="round" stroke-linejoin="round"/>
<path d="M5.44444 14.5V1M5.44444 1L1 5.5M5.44444 1L9.88889 5.5M16.5556 5.5V19M16.5556 19L21 14.5M16.5556 19L12.1111 14.5" stroke="black" stroke-opacity="0.2" stroke-width="2" stroke-linecap="round" stroke-linejoin="round"/>
<path d="M5.44444 14.5V1M5.44444 1L1 5.5M5.44444 1L9.88889 5.5M16.5556 5.5V19M16.5556 19L21 14.5M16.5556 19L12.1111 14.5" stroke="black" stroke-opacity="0.2" stroke-width="2" stroke-linecap="round" stroke-linejoin="round"/>
</svg>
