<svg width="24" height="24" viewBox="0 0 24 24" fill="none" xmlns="http://www.w3.org/2000/svg">
<path d="M11.9619 13.0906L16.1847 10.2765L11.9619 7.46237V13.0906ZM12.4545 16.9601H16.3959C16.3138 17.2649 16.173 17.5112 15.9736 17.6988C15.7742 17.8864 15.5161 18.0037 15.1994 18.0506L7.52786 18.9827C7.14076 19.0414 6.79167 18.9506 6.48059 18.7105C6.1695 18.4703 5.99073 18.1566 5.94428 17.7691L5.01173 10.083C4.96481 9.69609 5.05865 9.35019 5.29326 9.04532C5.52786 8.74046 5.83871 8.56457 6.22581 8.51767L7.03519 8.41214V9.81921L6.40176 9.90715L7.35191 17.5933L12.4545 16.9601ZM9.85044 15.553C9.46334 15.553 9.13208 15.4154 8.85666 15.14C8.58123 14.8647 8.44328 14.5334 8.44282 14.1459V6.40707C8.44282 6.02012 8.58076 5.68899 8.85666 5.41368C9.13255 5.13836 9.46381 5.00047 9.85044 5H17.5924C17.9795 5 18.311 5.13789 18.5869 5.41368C18.8628 5.68946 19.0005 6.02059 19 6.40707V14.1459C19 14.5329 18.8623 14.8643 18.5869 15.14C18.3114 15.4158 17.9799 15.5535 17.5924 15.553H9.85044ZM9.85044 14.1459H17.5924V6.40707H9.85044V14.1459Z" fill="#906629"/>
</svg>
