<svg width="24" height="24" viewBox="0 0 24 24" fill="none" xmlns="http://www.w3.org/2000/svg">
<path fill-rule="evenodd" clip-rule="evenodd" d="M11.9715 2.04286C9.3269 2.04286 6.79061 3.09643 4.92059 4.97179C3.05057 6.84715 2 9.39069 2 12.0429V12.6571C2.12821 14.8143 4.7208 15.2143 6.2735 13.6571C6.78131 13.2046 7.44236 12.9637 8.12143 12.9837C8.8005 13.0037 9.44627 13.2832 9.92665 13.765C10.407 14.2467 10.6857 14.8944 10.7057 15.5754C10.7257 16.2564 10.4855 16.9193 10.0342 17.4286C8.46724 19.0857 8.90883 21.8143 11.1738 22H12.0285C14.6731 22 17.2094 20.9464 19.0794 19.0711C20.9494 17.1957 22 14.6522 22 12C22 9.34784 20.9494 6.8043 19.0794 4.92893C17.2094 3.05357 14.6731 2 12.0285 2L11.9715 2.04286ZM11.9715 20.6143H11.2308C11.0421 20.6083 10.8611 20.5378 10.7179 20.4143C10.6047 20.2967 10.5302 20.1471 10.5043 19.9857C10.4589 19.7073 10.4804 19.4221 10.5672 19.1537C10.6539 18.8853 10.8032 18.6416 11.0028 18.4429C11.7443 17.6776 12.159 16.6527 12.159 15.5857C12.159 14.5187 11.7443 13.4938 11.0028 12.7286C10.6232 12.3476 10.1724 12.0454 9.6762 11.8392C9.18003 11.633 8.6482 11.5268 8.11111 11.5268C7.57402 11.5268 7.04219 11.633 6.54602 11.8392C6.04984 12.0454 5.59904 12.3476 5.21937 12.7286C5.06364 12.9111 4.86451 13.0513 4.64042 13.1362C4.41633 13.2211 4.17451 13.248 3.93732 13.2143C3.81725 13.1923 3.70739 13.1322 3.62393 13.0429C3.52606 12.9277 3.47518 12.7797 3.48148 12.6286V12.1C3.48148 10.4047 3.98275 8.74753 4.92191 7.33797C5.86107 5.92841 7.19593 4.82978 8.75769 4.18103C10.3195 3.53228 12.038 3.36254 13.6959 3.69327C15.3539 4.024 16.8768 4.84035 18.0721 6.03908C19.2675 7.23782 20.0815 8.7651 20.4113 10.4278C20.7411 12.0905 20.5718 13.8139 19.9249 15.3801C19.278 16.9464 18.1825 18.285 16.777 19.2269C15.3714 20.1687 13.7189 20.6714 12.0285 20.6714L11.9715 20.6143ZM13.396 6.32C13.396 6.69888 13.2459 7.06224 12.9788 7.33015C12.7116 7.59806 12.3493 7.74857 11.9715 7.74857C11.5937 7.74857 11.2314 7.59806 10.9642 7.33015C10.6971 7.06224 10.547 6.69888 10.547 6.32C10.547 5.94112 10.6971 5.57776 10.9642 5.30985C11.2314 5.04194 11.5937 4.89143 11.9715 4.89143C12.3493 4.89143 12.7116 5.04194 12.9788 5.30985C13.2459 5.57776 13.396 5.94112 13.396 6.32ZM17.6695 16.33C17.6695 16.7089 17.5194 17.0722 17.2523 17.3402C16.9851 17.6081 16.6228 17.7586 16.245 17.7586C15.8672 17.7586 15.5049 17.6081 15.2377 17.3402C14.9706 17.0722 14.8205 16.7089 14.8205 16.33C14.8205 15.9511 14.9706 15.5878 15.2377 15.3198C15.5049 15.0519 15.8672 14.9014 16.245 14.9014C16.6228 14.9014 16.9851 15.0519 17.2523 15.3198C17.5194 15.5878 17.6695 15.9511 17.6695 16.33ZM7.69801 9.18714C8.07581 9.18714 8.43813 9.03663 8.70528 8.76872C8.97243 8.50081 9.12251 8.13745 9.12251 7.75857C9.12251 7.37969 8.97243 7.01633 8.70528 6.74842C8.43813 6.48051 8.07581 6.33 7.69801 6.33C7.3202 6.33 6.95788 6.48051 6.69073 6.74842C6.42359 7.01633 6.2735 7.37969 6.2735 7.75857C6.2735 8.13745 6.42359 8.50081 6.69073 8.76872C6.95788 9.03663 7.3202 9.18714 7.69801 9.18714ZM17.6695 7.75857C17.6695 8.13745 17.5194 8.50081 17.2523 8.76872C16.9851 9.03663 16.6228 9.18714 16.245 9.18714C15.8672 9.18714 15.5049 9.03663 15.2377 8.76872C14.9706 8.50081 14.8205 8.13745 14.8205 7.75857C14.8205 7.37969 14.9706 7.01633 15.2377 6.74842C15.5049 6.48051 15.8672 6.33 16.245 6.33C16.6228 6.33 16.9851 6.48051 17.2523 6.74842C17.5194 7.01633 17.6695 7.37969 17.6695 7.75857ZM19.094 12.0386C19.094 12.4175 18.9439 12.7808 18.6768 13.0487C18.4096 13.3166 18.0473 13.4671 17.6695 13.4671C17.2917 13.4671 16.9294 13.3166 16.6622 13.0487C16.3951 12.7808 16.245 12.4175 16.245 12.0386C16.245 11.6597 16.3951 11.2963 16.6622 11.0284C16.9294 10.7605 17.2917 10.61 17.6695 10.61C18.0473 10.61 18.4096 10.7605 18.6768 11.0284C18.9439 11.2963 19.094 11.6597 19.094 12.0386Z" fill="#2D2D2D"/>
<path fill-rule="evenodd" clip-rule="evenodd" d="M11.9715 2.04286C9.3269 2.04286 6.79061 3.09643 4.92059 4.97179C3.05057 6.84715 2 9.39069 2 12.0429V12.6571C2.12821 14.8143 4.7208 15.2143 6.2735 13.6571C6.78131 13.2046 7.44236 12.9637 8.12143 12.9837C8.8005 13.0037 9.44627 13.2832 9.92665 13.765C10.407 14.2467 10.6857 14.8944 10.7057 15.5754C10.7257 16.2564 10.4855 16.9193 10.0342 17.4286C8.46724 19.0857 8.90883 21.8143 11.1738 22H12.0285C14.6731 22 17.2094 20.9464 19.0794 19.0711C20.9494 17.1957 22 14.6522 22 12C22 9.34784 20.9494 6.8043 19.0794 4.92893C17.2094 3.05357 14.6731 2 12.0285 2L11.9715 2.04286ZM11.9715 20.6143H11.2308C11.0421 20.6083 10.8611 20.5378 10.7179 20.4143C10.6047 20.2967 10.5302 20.1471 10.5043 19.9857C10.4589 19.7073 10.4804 19.4221 10.5672 19.1537C10.6539 18.8853 10.8032 18.6416 11.0028 18.4429C11.7443 17.6776 12.159 16.6527 12.159 15.5857C12.159 14.5187 11.7443 13.4938 11.0028 12.7286C10.6232 12.3476 10.1724 12.0454 9.6762 11.8392C9.18003 11.633 8.6482 11.5268 8.11111 11.5268C7.57402 11.5268 7.04219 11.633 6.54602 11.8392C6.04984 12.0454 5.59904 12.3476 5.21937 12.7286C5.06364 12.9111 4.86451 13.0513 4.64042 13.1362C4.41633 13.2211 4.17451 13.248 3.93732 13.2143C3.81725 13.1923 3.70739 13.1322 3.62393 13.0429C3.52606 12.9277 3.47518 12.7797 3.48148 12.6286V12.1C3.48148 10.4047 3.98275 8.74753 4.92191 7.33797C5.86107 5.92841 7.19593 4.82978 8.75769 4.18103C10.3195 3.53228 12.038 3.36254 13.6959 3.69327C15.3539 4.024 16.8768 4.84035 18.0721 6.03908C19.2675 7.23782 20.0815 8.7651 20.4113 10.4278C20.7411 12.0905 20.5718 13.8139 19.9249 15.3801C19.278 16.9464 18.1825 18.285 16.777 19.2269C15.3714 20.1687 13.7189 20.6714 12.0285 20.6714L11.9715 20.6143ZM13.396 6.32C13.396 6.69888 13.2459 7.06224 12.9788 7.33015C12.7116 7.59806 12.3493 7.74857 11.9715 7.74857C11.5937 7.74857 11.2314 7.59806 10.9642 7.33015C10.6971 7.06224 10.547 6.69888 10.547 6.32C10.547 5.94112 10.6971 5.57776 10.9642 5.30985C11.2314 5.04194 11.5937 4.89143 11.9715 4.89143C12.3493 4.89143 12.7116 5.04194 12.9788 5.30985C13.2459 5.57776 13.396 5.94112 13.396 6.32ZM17.6695 16.33C17.6695 16.7089 17.5194 17.0722 17.2523 17.3402C16.9851 17.6081 16.6228 17.7586 16.245 17.7586C15.8672 17.7586 15.5049 17.6081 15.2377 17.3402C14.9706 17.0722 14.8205 16.7089 14.8205 16.33C14.8205 15.9511 14.9706 15.5878 15.2377 15.3198C15.5049 15.0519 15.8672 14.9014 16.245 14.9014C16.6228 14.9014 16.9851 15.0519 17.2523 15.3198C17.5194 15.5878 17.6695 15.9511 17.6695 16.33ZM7.69801 9.18714C8.07581 9.18714 8.43813 9.03663 8.70528 8.76872C8.97243 8.50081 9.12251 8.13745 9.12251 7.75857C9.12251 7.37969 8.97243 7.01633 8.70528 6.74842C8.43813 6.48051 8.07581 6.33 7.69801 6.33C7.3202 6.33 6.95788 6.48051 6.69073 6.74842C6.42359 7.01633 6.2735 7.37969 6.2735 7.75857C6.2735 8.13745 6.42359 8.50081 6.69073 8.76872C6.95788 9.03663 7.3202 9.18714 7.69801 9.18714ZM17.6695 7.75857C17.6695 8.13745 17.5194 8.50081 17.2523 8.76872C16.9851 9.03663 16.6228 9.18714 16.245 9.18714C15.8672 9.18714 15.5049 9.03663 15.2377 8.76872C14.9706 8.50081 14.8205 8.13745 14.8205 7.75857C14.8205 7.37969 14.9706 7.01633 15.2377 6.74842C15.5049 6.48051 15.8672 6.33 16.245 6.33C16.6228 6.33 16.9851 6.48051 17.2523 6.74842C17.5194 7.01633 17.6695 7.37969 17.6695 7.75857ZM19.094 12.0386C19.094 12.4175 18.9439 12.7808 18.6768 13.0487C18.4096 13.3166 18.0473 13.4671 17.6695 13.4671C17.2917 13.4671 16.9294 13.3166 16.6622 13.0487C16.3951 12.7808 16.245 12.4175 16.245 12.0386C16.245 11.6597 16.3951 11.2963 16.6622 11.0284C16.9294 10.7605 17.2917 10.61 17.6695 10.61C18.0473 10.61 18.4096 10.7605 18.6768 11.0284C18.9439 11.2963 19.094 11.6597 19.094 12.0386Z" fill="black" fill-opacity="0.2"/>
<path fill-rule="evenodd" clip-rule="evenodd" d="M11.9715 2.04286C9.3269 2.04286 6.79061 3.09643 4.92059 4.97179C3.05057 6.84715 2 9.39069 2 12.0429V12.6571C2.12821 14.8143 4.7208 15.2143 6.2735 13.6571C6.78131 13.2046 7.44236 12.9637 8.12143 12.9837C8.8005 13.0037 9.44627 13.2832 9.92665 13.765C10.407 14.2467 10.6857 14.8944 10.7057 15.5754C10.7257 16.2564 10.4855 16.9193 10.0342 17.4286C8.46724 19.0857 8.90883 21.8143 11.1738 22H12.0285C14.6731 22 17.2094 20.9464 19.0794 19.0711C20.9494 17.1957 22 14.6522 22 12C22 9.34784 20.9494 6.8043 19.0794 4.92893C17.2094 3.05357 14.6731 2 12.0285 2L11.9715 2.04286ZM11.9715 20.6143H11.2308C11.0421 20.6083 10.8611 20.5378 10.7179 20.4143C10.6047 20.2967 10.5302 20.1471 10.5043 19.9857C10.4589 19.7073 10.4804 19.4221 10.5672 19.1537C10.6539 18.8853 10.8032 18.6416 11.0028 18.4429C11.7443 17.6776 12.159 16.6527 12.159 15.5857C12.159 14.5187 11.7443 13.4938 11.0028 12.7286C10.6232 12.3476 10.1724 12.0454 9.6762 11.8392C9.18003 11.633 8.6482 11.5268 8.11111 11.5268C7.57402 11.5268 7.04219 11.633 6.54602 11.8392C6.04984 12.0454 5.59904 12.3476 5.21937 12.7286C5.06364 12.9111 4.86451 13.0513 4.64042 13.1362C4.41633 13.2211 4.17451 13.248 3.93732 13.2143C3.81725 13.1923 3.70739 13.1322 3.62393 13.0429C3.52606 12.9277 3.47518 12.7797 3.48148 12.6286V12.1C3.48148 10.4047 3.98275 8.74753 4.92191 7.33797C5.86107 5.92841 7.19593 4.82978 8.75769 4.18103C10.3195 3.53228 12.038 3.36254 13.6959 3.69327C15.3539 4.024 16.8768 4.84035 18.0721 6.03908C19.2675 7.23782 20.0815 8.7651 20.4113 10.4278C20.7411 12.0905 20.5718 13.8139 19.9249 15.3801C19.278 16.9464 18.1825 18.285 16.777 19.2269C15.3714 20.1687 13.7189 20.6714 12.0285 20.6714L11.9715 20.6143ZM13.396 6.32C13.396 6.69888 13.2459 7.06224 12.9788 7.33015C12.7116 7.59806 12.3493 7.74857 11.9715 7.74857C11.5937 7.74857 11.2314 7.59806 10.9642 7.33015C10.6971 7.06224 10.547 6.69888 10.547 6.32C10.547 5.94112 10.6971 5.57776 10.9642 5.30985C11.2314 5.04194 11.5937 4.89143 11.9715 4.89143C12.3493 4.89143 12.7116 5.04194 12.9788 5.30985C13.2459 5.57776 13.396 5.94112 13.396 6.32ZM17.6695 16.33C17.6695 16.7089 17.5194 17.0722 17.2523 17.3402C16.9851 17.6081 16.6228 17.7586 16.245 17.7586C15.8672 17.7586 15.5049 17.6081 15.2377 17.3402C14.9706 17.0722 14.8205 16.7089 14.8205 16.33C14.8205 15.9511 14.9706 15.5878 15.2377 15.3198C15.5049 15.0519 15.8672 14.9014 16.245 14.9014C16.6228 14.9014 16.9851 15.0519 17.2523 15.3198C17.5194 15.5878 17.6695 15.9511 17.6695 16.33ZM7.69801 9.18714C8.07581 9.18714 8.43813 9.03663 8.70528 8.76872C8.97243 8.50081 9.12251 8.13745 9.12251 7.75857C9.12251 7.37969 8.97243 7.01633 8.70528 6.74842C8.43813 6.48051 8.07581 6.33 7.69801 6.33C7.3202 6.33 6.95788 6.48051 6.69073 6.74842C6.42359 7.01633 6.2735 7.37969 6.2735 7.75857C6.2735 8.13745 6.42359 8.50081 6.69073 8.76872C6.95788 9.03663 7.3202 9.18714 7.69801 9.18714ZM17.6695 7.75857C17.6695 8.13745 17.5194 8.50081 17.2523 8.76872C16.9851 9.03663 16.6228 9.18714 16.245 9.18714C15.8672 9.18714 15.5049 9.03663 15.2377 8.76872C14.9706 8.50081 14.8205 8.13745 14.8205 7.75857C14.8205 7.37969 14.9706 7.01633 15.2377 6.74842C15.5049 6.48051 15.8672 6.33 16.245 6.33C16.6228 6.33 16.9851 6.48051 17.2523 6.74842C17.5194 7.01633 17.6695 7.37969 17.6695 7.75857ZM19.094 12.0386C19.094 12.4175 18.9439 12.7808 18.6768 13.0487C18.4096 13.3166 18.0473 13.4671 17.6695 13.4671C17.2917 13.4671 16.9294 13.3166 16.6622 13.0487C16.3951 12.7808 16.245 12.4175 16.245 12.0386C16.245 11.6597 16.3951 11.2963 16.6622 11.0284C16.9294 10.7605 17.2917 10.61 17.6695 10.61C18.0473 10.61 18.4096 10.7605 18.6768 11.0284C18.9439 11.2963 19.094 11.6597 19.094 12.0386Z" fill="black" fill-opacity="0.2"/>
<path fill-rule="evenodd" clip-rule="evenodd" d="M11.9715 2.04286C9.3269 2.04286 6.79061 3.09643 4.92059 4.97179C3.05057 6.84715 2 9.39069 2 12.0429V12.6571C2.12821 14.8143 4.7208 15.2143 6.2735 13.6571C6.78131 13.2046 7.44236 12.9637 8.12143 12.9837C8.8005 13.0037 9.44627 13.2832 9.92665 13.765C10.407 14.2467 10.6857 14.8944 10.7057 15.5754C10.7257 16.2564 10.4855 16.9193 10.0342 17.4286C8.46724 19.0857 8.90883 21.8143 11.1738 22H12.0285C14.6731 22 17.2094 20.9464 19.0794 19.0711C20.9494 17.1957 22 14.6522 22 12C22 9.34784 20.9494 6.8043 19.0794 4.92893C17.2094 3.05357 14.6731 2 12.0285 2L11.9715 2.04286ZM11.9715 20.6143H11.2308C11.0421 20.6083 10.8611 20.5378 10.7179 20.4143C10.6047 20.2967 10.5302 20.1471 10.5043 19.9857C10.4589 19.7073 10.4804 19.4221 10.5672 19.1537C10.6539 18.8853 10.8032 18.6416 11.0028 18.4429C11.7443 17.6776 12.159 16.6527 12.159 15.5857C12.159 14.5187 11.7443 13.4938 11.0028 12.7286C10.6232 12.3476 10.1724 12.0454 9.6762 11.8392C9.18003 11.633 8.6482 11.5268 8.11111 11.5268C7.57402 11.5268 7.04219 11.633 6.54602 11.8392C6.04984 12.0454 5.59904 12.3476 5.21937 12.7286C5.06364 12.9111 4.86451 13.0513 4.64042 13.1362C4.41633 13.2211 4.17451 13.248 3.93732 13.2143C3.81725 13.1923 3.70739 13.1322 3.62393 13.0429C3.52606 12.9277 3.47518 12.7797 3.48148 12.6286V12.1C3.48148 10.4047 3.98275 8.74753 4.92191 7.33797C5.86107 5.92841 7.19593 4.82978 8.75769 4.18103C10.3195 3.53228 12.038 3.36254 13.6959 3.69327C15.3539 4.024 16.8768 4.84035 18.0721 6.03908C19.2675 7.23782 20.0815 8.7651 20.4113 10.4278C20.7411 12.0905 20.5718 13.8139 19.9249 15.3801C19.278 16.9464 18.1825 18.285 16.777 19.2269C15.3714 20.1687 13.7189 20.6714 12.0285 20.6714L11.9715 20.6143ZM13.396 6.32C13.396 6.69888 13.2459 7.06224 12.9788 7.33015C12.7116 7.59806 12.3493 7.74857 11.9715 7.74857C11.5937 7.74857 11.2314 7.59806 10.9642 7.33015C10.6971 7.06224 10.547 6.69888 10.547 6.32C10.547 5.94112 10.6971 5.57776 10.9642 5.30985C11.2314 5.04194 11.5937 4.89143 11.9715 4.89143C12.3493 4.89143 12.7116 5.04194 12.9788 5.30985C13.2459 5.57776 13.396 5.94112 13.396 6.32ZM17.6695 16.33C17.6695 16.7089 17.5194 17.0722 17.2523 17.3402C16.9851 17.6081 16.6228 17.7586 16.245 17.7586C15.8672 17.7586 15.5049 17.6081 15.2377 17.3402C14.9706 17.0722 14.8205 16.7089 14.8205 16.33C14.8205 15.9511 14.9706 15.5878 15.2377 15.3198C15.5049 15.0519 15.8672 14.9014 16.245 14.9014C16.6228 14.9014 16.9851 15.0519 17.2523 15.3198C17.5194 15.5878 17.6695 15.9511 17.6695 16.33ZM7.69801 9.18714C8.07581 9.18714 8.43813 9.03663 8.70528 8.76872C8.97243 8.50081 9.12251 8.13745 9.12251 7.75857C9.12251 7.37969 8.97243 7.01633 8.70528 6.74842C8.43813 6.48051 8.07581 6.33 7.69801 6.33C7.3202 6.33 6.95788 6.48051 6.69073 6.74842C6.42359 7.01633 6.2735 7.37969 6.2735 7.75857C6.2735 8.13745 6.42359 8.50081 6.69073 8.76872C6.95788 9.03663 7.3202 9.18714 7.69801 9.18714ZM17.6695 7.75857C17.6695 8.13745 17.5194 8.50081 17.2523 8.76872C16.9851 9.03663 16.6228 9.18714 16.245 9.18714C15.8672 9.18714 15.5049 9.03663 15.2377 8.76872C14.9706 8.50081 14.8205 8.13745 14.8205 7.75857C14.8205 7.37969 14.9706 7.01633 15.2377 6.74842C15.5049 6.48051 15.8672 6.33 16.245 6.33C16.6228 6.33 16.9851 6.48051 17.2523 6.74842C17.5194 7.01633 17.6695 7.37969 17.6695 7.75857ZM19.094 12.0386C19.094 12.4175 18.9439 12.7808 18.6768 13.0487C18.4096 13.3166 18.0473 13.4671 17.6695 13.4671C17.2917 13.4671 16.9294 13.3166 16.6622 13.0487C16.3951 12.7808 16.245 12.4175 16.245 12.0386C16.245 11.6597 16.3951 11.2963 16.6622 11.0284C16.9294 10.7605 17.2917 10.61 17.6695 10.61C18.0473 10.61 18.4096 10.7605 18.6768 11.0284C18.9439 11.2963 19.094 11.6597 19.094 12.0386Z" fill="black" fill-opacity="0.2"/>
<path fill-rule="evenodd" clip-rule="evenodd" d="M11.9715 2.04286C9.3269 2.04286 6.79061 3.09643 4.92059 4.97179C3.05057 6.84715 2 9.39069 2 12.0429V12.6571C2.12821 14.8143 4.7208 15.2143 6.2735 13.6571C6.78131 13.2046 7.44236 12.9637 8.12143 12.9837C8.8005 13.0037 9.44627 13.2832 9.92665 13.765C10.407 14.2467 10.6857 14.8944 10.7057 15.5754C10.7257 16.2564 10.4855 16.9193 10.0342 17.4286C8.46724 19.0857 8.90883 21.8143 11.1738 22H12.0285C14.6731 22 17.2094 20.9464 19.0794 19.0711C20.9494 17.1957 22 14.6522 22 12C22 9.34784 20.9494 6.8043 19.0794 4.92893C17.2094 3.05357 14.6731 2 12.0285 2L11.9715 2.04286ZM11.9715 20.6143H11.2308C11.0421 20.6083 10.8611 20.5378 10.7179 20.4143C10.6047 20.2967 10.5302 20.1471 10.5043 19.9857C10.4589 19.7073 10.4804 19.4221 10.5672 19.1537C10.6539 18.8853 10.8032 18.6416 11.0028 18.4429C11.7443 17.6776 12.159 16.6527 12.159 15.5857C12.159 14.5187 11.7443 13.4938 11.0028 12.7286C10.6232 12.3476 10.1724 12.0454 9.6762 11.8392C9.18003 11.633 8.6482 11.5268 8.11111 11.5268C7.57402 11.5268 7.04219 11.633 6.54602 11.8392C6.04984 12.0454 5.59904 12.3476 5.21937 12.7286C5.06364 12.9111 4.86451 13.0513 4.64042 13.1362C4.41633 13.2211 4.17451 13.248 3.93732 13.2143C3.81725 13.1923 3.70739 13.1322 3.62393 13.0429C3.52606 12.9277 3.47518 12.7797 3.48148 12.6286V12.1C3.48148 10.4047 3.98275 8.74753 4.92191 7.33797C5.86107 5.92841 7.19593 4.82978 8.75769 4.18103C10.3195 3.53228 12.038 3.36254 13.6959 3.69327C15.3539 4.024 16.8768 4.84035 18.0721 6.03908C19.2675 7.23782 20.0815 8.7651 20.4113 10.4278C20.7411 12.0905 20.5718 13.8139 19.9249 15.3801C19.278 16.9464 18.1825 18.285 16.777 19.2269C15.3714 20.1687 13.7189 20.6714 12.0285 20.6714L11.9715 20.6143ZM13.396 6.32C13.396 6.69888 13.2459 7.06224 12.9788 7.33015C12.7116 7.59806 12.3493 7.74857 11.9715 7.74857C11.5937 7.74857 11.2314 7.59806 10.9642 7.33015C10.6971 7.06224 10.547 6.69888 10.547 6.32C10.547 5.94112 10.6971 5.57776 10.9642 5.30985C11.2314 5.04194 11.5937 4.89143 11.9715 4.89143C12.3493 4.89143 12.7116 5.04194 12.9788 5.30985C13.2459 5.57776 13.396 5.94112 13.396 6.32ZM17.6695 16.33C17.6695 16.7089 17.5194 17.0722 17.2523 17.3402C16.9851 17.6081 16.6228 17.7586 16.245 17.7586C15.8672 17.7586 15.5049 17.6081 15.2377 17.3402C14.9706 17.0722 14.8205 16.7089 14.8205 16.33C14.8205 15.9511 14.9706 15.5878 15.2377 15.3198C15.5049 15.0519 15.8672 14.9014 16.245 14.9014C16.6228 14.9014 16.9851 15.0519 17.2523 15.3198C17.5194 15.5878 17.6695 15.9511 17.6695 16.33ZM7.69801 9.18714C8.07581 9.18714 8.43813 9.03663 8.70528 8.76872C8.97243 8.50081 9.12251 8.13745 9.12251 7.75857C9.12251 7.37969 8.97243 7.01633 8.70528 6.74842C8.43813 6.48051 8.07581 6.33 7.69801 6.33C7.3202 6.33 6.95788 6.48051 6.69073 6.74842C6.42359 7.01633 6.2735 7.37969 6.2735 7.75857C6.2735 8.13745 6.42359 8.50081 6.69073 8.76872C6.95788 9.03663 7.3202 9.18714 7.69801 9.18714ZM17.6695 7.75857C17.6695 8.13745 17.5194 8.50081 17.2523 8.76872C16.9851 9.03663 16.6228 9.18714 16.245 9.18714C15.8672 9.18714 15.5049 9.03663 15.2377 8.76872C14.9706 8.50081 14.8205 8.13745 14.8205 7.75857C14.8205 7.37969 14.9706 7.01633 15.2377 6.74842C15.5049 6.48051 15.8672 6.33 16.245 6.33C16.6228 6.33 16.9851 6.48051 17.2523 6.74842C17.5194 7.01633 17.6695 7.37969 17.6695 7.75857ZM19.094 12.0386C19.094 12.4175 18.9439 12.7808 18.6768 13.0487C18.4096 13.3166 18.0473 13.4671 17.6695 13.4671C17.2917 13.4671 16.9294 13.3166 16.6622 13.0487C16.3951 12.7808 16.245 12.4175 16.245 12.0386C16.245 11.6597 16.3951 11.2963 16.6622 11.0284C16.9294 10.7605 17.2917 10.61 17.6695 10.61C18.0473 10.61 18.4096 10.7605 18.6768 11.0284C18.9439 11.2963 19.094 11.6597 19.094 12.0386Z" fill="black" fill-opacity="0.2"/>
<path fill-rule="evenodd" clip-rule="evenodd" d="M11.9715 2.04286C9.3269 2.04286 6.79061 3.09643 4.92059 4.97179C3.05057 6.84715 2 9.39069 2 12.0429V12.6571C2.12821 14.8143 4.7208 15.2143 6.2735 13.6571C6.78131 13.2046 7.44236 12.9637 8.12143 12.9837C8.8005 13.0037 9.44627 13.2832 9.92665 13.765C10.407 14.2467 10.6857 14.8944 10.7057 15.5754C10.7257 16.2564 10.4855 16.9193 10.0342 17.4286C8.46724 19.0857 8.90883 21.8143 11.1738 22H12.0285C14.6731 22 17.2094 20.9464 19.0794 19.0711C20.9494 17.1957 22 14.6522 22 12C22 9.34784 20.9494 6.8043 19.0794 4.92893C17.2094 3.05357 14.6731 2 12.0285 2L11.9715 2.04286ZM11.9715 20.6143H11.2308C11.0421 20.6083 10.8611 20.5378 10.7179 20.4143C10.6047 20.2967 10.5302 20.1471 10.5043 19.9857C10.4589 19.7073 10.4804 19.4221 10.5672 19.1537C10.6539 18.8853 10.8032 18.6416 11.0028 18.4429C11.7443 17.6776 12.159 16.6527 12.159 15.5857C12.159 14.5187 11.7443 13.4938 11.0028 12.7286C10.6232 12.3476 10.1724 12.0454 9.6762 11.8392C9.18003 11.633 8.6482 11.5268 8.11111 11.5268C7.57402 11.5268 7.04219 11.633 6.54602 11.8392C6.04984 12.0454 5.59904 12.3476 5.21937 12.7286C5.06364 12.9111 4.86451 13.0513 4.64042 13.1362C4.41633 13.2211 4.17451 13.248 3.93732 13.2143C3.81725 13.1923 3.70739 13.1322 3.62393 13.0429C3.52606 12.9277 3.47518 12.7797 3.48148 12.6286V12.1C3.48148 10.4047 3.98275 8.74753 4.92191 7.33797C5.86107 5.92841 7.19593 4.82978 8.75769 4.18103C10.3195 3.53228 12.038 3.36254 13.6959 3.69327C15.3539 4.024 16.8768 4.84035 18.0721 6.03908C19.2675 7.23782 20.0815 8.7651 20.4113 10.4278C20.7411 12.0905 20.5718 13.8139 19.9249 15.3801C19.278 16.9464 18.1825 18.285 16.777 19.2269C15.3714 20.1687 13.7189 20.6714 12.0285 20.6714L11.9715 20.6143ZM13.396 6.32C13.396 6.69888 13.2459 7.06224 12.9788 7.33015C12.7116 7.59806 12.3493 7.74857 11.9715 7.74857C11.5937 7.74857 11.2314 7.59806 10.9642 7.33015C10.6971 7.06224 10.547 6.69888 10.547 6.32C10.547 5.94112 10.6971 5.57776 10.9642 5.30985C11.2314 5.04194 11.5937 4.89143 11.9715 4.89143C12.3493 4.89143 12.7116 5.04194 12.9788 5.30985C13.2459 5.57776 13.396 5.94112 13.396 6.32ZM17.6695 16.33C17.6695 16.7089 17.5194 17.0722 17.2523 17.3402C16.9851 17.6081 16.6228 17.7586 16.245 17.7586C15.8672 17.7586 15.5049 17.6081 15.2377 17.3402C14.9706 17.0722 14.8205 16.7089 14.8205 16.33C14.8205 15.9511 14.9706 15.5878 15.2377 15.3198C15.5049 15.0519 15.8672 14.9014 16.245 14.9014C16.6228 14.9014 16.9851 15.0519 17.2523 15.3198C17.5194 15.5878 17.6695 15.9511 17.6695 16.33ZM7.69801 9.18714C8.07581 9.18714 8.43813 9.03663 8.70528 8.76872C8.97243 8.50081 9.12251 8.13745 9.12251 7.75857C9.12251 7.37969 8.97243 7.01633 8.70528 6.74842C8.43813 6.48051 8.07581 6.33 7.69801 6.33C7.3202 6.33 6.95788 6.48051 6.69073 6.74842C6.42359 7.01633 6.2735 7.37969 6.2735 7.75857C6.2735 8.13745 6.42359 8.50081 6.69073 8.76872C6.95788 9.03663 7.3202 9.18714 7.69801 9.18714ZM17.6695 7.75857C17.6695 8.13745 17.5194 8.50081 17.2523 8.76872C16.9851 9.03663 16.6228 9.18714 16.245 9.18714C15.8672 9.18714 15.5049 9.03663 15.2377 8.76872C14.9706 8.50081 14.8205 8.13745 14.8205 7.75857C14.8205 7.37969 14.9706 7.01633 15.2377 6.74842C15.5049 6.48051 15.8672 6.33 16.245 6.33C16.6228 6.33 16.9851 6.48051 17.2523 6.74842C17.5194 7.01633 17.6695 7.37969 17.6695 7.75857ZM19.094 12.0386C19.094 12.4175 18.9439 12.7808 18.6768 13.0487C18.4096 13.3166 18.0473 13.4671 17.6695 13.4671C17.2917 13.4671 16.9294 13.3166 16.6622 13.0487C16.3951 12.7808 16.245 12.4175 16.245 12.0386C16.245 11.6597 16.3951 11.2963 16.6622 11.0284C16.9294 10.7605 17.2917 10.61 17.6695 10.61C18.0473 10.61 18.4096 10.7605 18.6768 11.0284C18.9439 11.2963 19.094 11.6597 19.094 12.0386Z" fill="black" fill-opacity="0.2"/>
<path fill-rule="evenodd" clip-rule="evenodd" d="M11.9715 2.04286C9.3269 2.04286 6.79061 3.09643 4.92059 4.97179C3.05057 6.84715 2 9.39069 2 12.0429V12.6571C2.12821 14.8143 4.7208 15.2143 6.2735 13.6571C6.78131 13.2046 7.44236 12.9637 8.12143 12.9837C8.8005 13.0037 9.44627 13.2832 9.92665 13.765C10.407 14.2467 10.6857 14.8944 10.7057 15.5754C10.7257 16.2564 10.4855 16.9193 10.0342 17.4286C8.46724 19.0857 8.90883 21.8143 11.1738 22H12.0285C14.6731 22 17.2094 20.9464 19.0794 19.0711C20.9494 17.1957 22 14.6522 22 12C22 9.34784 20.9494 6.8043 19.0794 4.92893C17.2094 3.05357 14.6731 2 12.0285 2L11.9715 2.04286ZM11.9715 20.6143H11.2308C11.0421 20.6083 10.8611 20.5378 10.7179 20.4143C10.6047 20.2967 10.5302 20.1471 10.5043 19.9857C10.4589 19.7073 10.4804 19.4221 10.5672 19.1537C10.6539 18.8853 10.8032 18.6416 11.0028 18.4429C11.7443 17.6776 12.159 16.6527 12.159 15.5857C12.159 14.5187 11.7443 13.4938 11.0028 12.7286C10.6232 12.3476 10.1724 12.0454 9.6762 11.8392C9.18003 11.633 8.6482 11.5268 8.11111 11.5268C7.57402 11.5268 7.04219 11.633 6.54602 11.8392C6.04984 12.0454 5.59904 12.3476 5.21937 12.7286C5.06364 12.9111 4.86451 13.0513 4.64042 13.1362C4.41633 13.2211 4.17451 13.248 3.93732 13.2143C3.81725 13.1923 3.70739 13.1322 3.62393 13.0429C3.52606 12.9277 3.47518 12.7797 3.48148 12.6286V12.1C3.48148 10.4047 3.98275 8.74753 4.92191 7.33797C5.86107 5.92841 7.19593 4.82978 8.75769 4.18103C10.3195 3.53228 12.038 3.36254 13.6959 3.69327C15.3539 4.024 16.8768 4.84035 18.0721 6.03908C19.2675 7.23782 20.0815 8.7651 20.4113 10.4278C20.7411 12.0905 20.5718 13.8139 19.9249 15.3801C19.278 16.9464 18.1825 18.285 16.777 19.2269C15.3714 20.1687 13.7189 20.6714 12.0285 20.6714L11.9715 20.6143ZM13.396 6.32C13.396 6.69888 13.2459 7.06224 12.9788 7.33015C12.7116 7.59806 12.3493 7.74857 11.9715 7.74857C11.5937 7.74857 11.2314 7.59806 10.9642 7.33015C10.6971 7.06224 10.547 6.69888 10.547 6.32C10.547 5.94112 10.6971 5.57776 10.9642 5.30985C11.2314 5.04194 11.5937 4.89143 11.9715 4.89143C12.3493 4.89143 12.7116 5.04194 12.9788 5.30985C13.2459 5.57776 13.396 5.94112 13.396 6.32ZM17.6695 16.33C17.6695 16.7089 17.5194 17.0722 17.2523 17.3402C16.9851 17.6081 16.6228 17.7586 16.245 17.7586C15.8672 17.7586 15.5049 17.6081 15.2377 17.3402C14.9706 17.0722 14.8205 16.7089 14.8205 16.33C14.8205 15.9511 14.9706 15.5878 15.2377 15.3198C15.5049 15.0519 15.8672 14.9014 16.245 14.9014C16.6228 14.9014 16.9851 15.0519 17.2523 15.3198C17.5194 15.5878 17.6695 15.9511 17.6695 16.33ZM7.69801 9.18714C8.07581 9.18714 8.43813 9.03663 8.70528 8.76872C8.97243 8.50081 9.12251 8.13745 9.12251 7.75857C9.12251 7.37969 8.97243 7.01633 8.70528 6.74842C8.43813 6.48051 8.07581 6.33 7.69801 6.33C7.3202 6.33 6.95788 6.48051 6.69073 6.74842C6.42359 7.01633 6.2735 7.37969 6.2735 7.75857C6.2735 8.13745 6.42359 8.50081 6.69073 8.76872C6.95788 9.03663 7.3202 9.18714 7.69801 9.18714ZM17.6695 7.75857C17.6695 8.13745 17.5194 8.50081 17.2523 8.76872C16.9851 9.03663 16.6228 9.18714 16.245 9.18714C15.8672 9.18714 15.5049 9.03663 15.2377 8.76872C14.9706 8.50081 14.8205 8.13745 14.8205 7.75857C14.8205 7.37969 14.9706 7.01633 15.2377 6.74842C15.5049 6.48051 15.8672 6.33 16.245 6.33C16.6228 6.33 16.9851 6.48051 17.2523 6.74842C17.5194 7.01633 17.6695 7.37969 17.6695 7.75857ZM19.094 12.0386C19.094 12.4175 18.9439 12.7808 18.6768 13.0487C18.4096 13.3166 18.0473 13.4671 17.6695 13.4671C17.2917 13.4671 16.9294 13.3166 16.6622 13.0487C16.3951 12.7808 16.245 12.4175 16.245 12.0386C16.245 11.6597 16.3951 11.2963 16.6622 11.0284C16.9294 10.7605 17.2917 10.61 17.6695 10.61C18.0473 10.61 18.4096 10.7605 18.6768 11.0284C18.9439 11.2963 19.094 11.6597 19.094 12.0386Z" fill="black" fill-opacity="0.2"/>
</svg>
