<svg width="24" height="24" viewBox="0 0 24 24" fill="none" xmlns="http://www.w3.org/2000/svg">
<path d="M12.0002 16.444C13.8227 16.444 15.3002 14.9516 15.3002 13.1107C15.3002 11.2697 13.8227 9.77734 12.0002 9.77734C10.1777 9.77734 8.7002 11.2697 8.7002 13.1107C8.7002 14.9516 10.1777 16.444 12.0002 16.444Z" stroke="#2D2D2D" stroke-width="1.5"/>
<path d="M12.0002 16.444C13.8227 16.444 15.3002 14.9516 15.3002 13.1107C15.3002 11.2697 13.8227 9.77734 12.0002 9.77734C10.1777 9.77734 8.7002 11.2697 8.7002 13.1107C8.7002 14.9516 10.1777 16.444 12.0002 16.444Z" stroke="black" stroke-opacity="0.2" stroke-width="1.5"/>
<path d="M12.0002 16.444C13.8227 16.444 15.3002 14.9516 15.3002 13.1107C15.3002 11.2697 13.8227 9.77734 12.0002 9.77734C10.1777 9.77734 8.7002 11.2697 8.7002 13.1107C8.7002 14.9516 10.1777 16.444 12.0002 16.444Z" stroke="black" stroke-opacity="0.2" stroke-width="1.5"/>
<path d="M12.0002 16.444C13.8227 16.444 15.3002 14.9516 15.3002 13.1107C15.3002 11.2697 13.8227 9.77734 12.0002 9.77734C10.1777 9.77734 8.7002 11.2697 8.7002 13.1107C8.7002 14.9516 10.1777 16.444 12.0002 16.444Z" stroke="black" stroke-opacity="0.2" stroke-width="1.5"/>
<path d="M12.0002 16.444C13.8227 16.444 15.3002 14.9516 15.3002 13.1107C15.3002 11.2697 13.8227 9.77734 12.0002 9.77734C10.1777 9.77734 8.7002 11.2697 8.7002 13.1107C8.7002 14.9516 10.1777 16.444 12.0002 16.444Z" stroke="black" stroke-opacity="0.2" stroke-width="1.5"/>
<path d="M12.0002 16.444C13.8227 16.444 15.3002 14.9516 15.3002 13.1107C15.3002 11.2697 13.8227 9.77734 12.0002 9.77734C10.1777 9.77734 8.7002 11.2697 8.7002 13.1107C8.7002 14.9516 10.1777 16.444 12.0002 16.444Z" stroke="black" stroke-opacity="0.2" stroke-width="1.5"/>
<path d="M12.0002 16.444C13.8227 16.444 15.3002 14.9516 15.3002 13.1107C15.3002 11.2697 13.8227 9.77734 12.0002 9.77734C10.1777 9.77734 8.7002 11.2697 8.7002 13.1107C8.7002 14.9516 10.1777 16.444 12.0002 16.444Z" stroke="black" stroke-opacity="0.2" stroke-width="1.5"/>
<path d="M9.5558 22.0001H14.4442C17.8773 22.0001 19.5944 22.0001 20.8275 21.1834C21.3597 20.8313 21.818 20.3767 22.1761 19.8456C23 18.6234 23 16.9201 23 13.5156C23 10.1112 23 8.40783 22.1761 7.18561C21.818 6.65449 21.3597 6.19989 20.8275 5.84783C20.0355 5.32227 19.0433 5.1345 17.5242 5.06783C16.7993 5.06783 16.1756 4.52339 16.0337 3.81783C15.9253 3.30102 15.6435 2.83787 15.236 2.50666C14.8286 2.17546 14.3204 1.99651 13.7974 2.00005H10.2026C9.1158 2.00005 8.1797 2.76116 7.9663 3.81783C7.8244 4.52339 7.2007 5.06783 6.4758 5.06783C4.9578 5.1345 3.9656 5.32338 3.1725 5.84783C2.64069 6.20001 2.1828 6.6546 1.825 7.18561C1 8.40783 1 10.1101 1 13.5156C1 16.9212 1 18.6223 1.8239 19.8456C2.1803 20.3745 2.6379 20.8289 3.1725 21.1834C4.4056 22.0001 6.1227 22.0001 9.5558 22.0001Z" stroke="#2D2D2D" stroke-width="1.5"/>
<path d="M9.5558 22.0001H14.4442C17.8773 22.0001 19.5944 22.0001 20.8275 21.1834C21.3597 20.8313 21.818 20.3767 22.1761 19.8456C23 18.6234 23 16.9201 23 13.5156C23 10.1112 23 8.40783 22.1761 7.18561C21.818 6.65449 21.3597 6.19989 20.8275 5.84783C20.0355 5.32227 19.0433 5.1345 17.5242 5.06783C16.7993 5.06783 16.1756 4.52339 16.0337 3.81783C15.9253 3.30102 15.6435 2.83787 15.236 2.50666C14.8286 2.17546 14.3204 1.99651 13.7974 2.00005H10.2026C9.1158 2.00005 8.1797 2.76116 7.9663 3.81783C7.8244 4.52339 7.2007 5.06783 6.4758 5.06783C4.9578 5.1345 3.9656 5.32338 3.1725 5.84783C2.64069 6.20001 2.1828 6.6546 1.825 7.18561C1 8.40783 1 10.1101 1 13.5156C1 16.9212 1 18.6223 1.8239 19.8456C2.1803 20.3745 2.6379 20.8289 3.1725 21.1834C4.4056 22.0001 6.1227 22.0001 9.5558 22.0001Z" stroke="black" stroke-opacity="0.2" stroke-width="1.5"/>
<path d="M9.5558 22.0001H14.4442C17.8773 22.0001 19.5944 22.0001 20.8275 21.1834C21.3597 20.8313 21.818 20.3767 22.1761 19.8456C23 18.6234 23 16.9201 23 13.5156C23 10.1112 23 8.40783 22.1761 7.18561C21.818 6.65449 21.3597 6.19989 20.8275 5.84783C20.0355 5.32227 19.0433 5.1345 17.5242 5.06783C16.7993 5.06783 16.1756 4.52339 16.0337 3.81783C15.9253 3.30102 15.6435 2.83787 15.236 2.50666C14.8286 2.17546 14.3204 1.99651 13.7974 2.00005H10.2026C9.1158 2.00005 8.1797 2.76116 7.9663 3.81783C7.8244 4.52339 7.2007 5.06783 6.4758 5.06783C4.9578 5.1345 3.9656 5.32338 3.1725 5.84783C2.64069 6.20001 2.1828 6.6546 1.825 7.18561C1 8.40783 1 10.1101 1 13.5156C1 16.9212 1 18.6223 1.8239 19.8456C2.1803 20.3745 2.6379 20.8289 3.1725 21.1834C4.4056 22.0001 6.1227 22.0001 9.5558 22.0001Z" stroke="black" stroke-opacity="0.2" stroke-width="1.5"/>
<path d="M9.5558 22.0001H14.4442C17.8773 22.0001 19.5944 22.0001 20.8275 21.1834C21.3597 20.8313 21.818 20.3767 22.1761 19.8456C23 18.6234 23 16.9201 23 13.5156C23 10.1112 23 8.40783 22.1761 7.18561C21.818 6.65449 21.3597 6.19989 20.8275 5.84783C20.0355 5.32227 19.0433 5.1345 17.5242 5.06783C16.7993 5.06783 16.1756 4.52339 16.0337 3.81783C15.9253 3.30102 15.6435 2.83787 15.236 2.50666C14.8286 2.17546 14.3204 1.99651 13.7974 2.00005H10.2026C9.1158 2.00005 8.1797 2.76116 7.9663 3.81783C7.8244 4.52339 7.2007 5.06783 6.4758 5.06783C4.9578 5.1345 3.9656 5.32338 3.1725 5.84783C2.64069 6.20001 2.1828 6.6546 1.825 7.18561C1 8.40783 1 10.1101 1 13.5156C1 16.9212 1 18.6223 1.8239 19.8456C2.1803 20.3745 2.6379 20.8289 3.1725 21.1834C4.4056 22.0001 6.1227 22.0001 9.5558 22.0001Z" stroke="black" stroke-opacity="0.2" stroke-width="1.5"/>
<path d="M9.5558 22.0001H14.4442C17.8773 22.0001 19.5944 22.0001 20.8275 21.1834C21.3597 20.8313 21.818 20.3767 22.1761 19.8456C23 18.6234 23 16.9201 23 13.5156C23 10.1112 23 8.40783 22.1761 7.18561C21.818 6.65449 21.3597 6.19989 20.8275 5.84783C20.0355 5.32227 19.0433 5.1345 17.5242 5.06783C16.7993 5.06783 16.1756 4.52339 16.0337 3.81783C15.9253 3.30102 15.6435 2.83787 15.236 2.50666C14.8286 2.17546 14.3204 1.99651 13.7974 2.00005H10.2026C9.1158 2.00005 8.1797 2.76116 7.9663 3.81783C7.8244 4.52339 7.2007 5.06783 6.4758 5.06783C4.9578 5.1345 3.9656 5.32338 3.1725 5.84783C2.64069 6.20001 2.1828 6.6546 1.825 7.18561C1 8.40783 1 10.1101 1 13.5156C1 16.9212 1 18.6223 1.8239 19.8456C2.1803 20.3745 2.6379 20.8289 3.1725 21.1834C4.4056 22.0001 6.1227 22.0001 9.5558 22.0001Z" stroke="black" stroke-opacity="0.2" stroke-width="1.5"/>
<path d="M9.5558 22.0001H14.4442C17.8773 22.0001 19.5944 22.0001 20.8275 21.1834C21.3597 20.8313 21.818 20.3767 22.1761 19.8456C23 18.6234 23 16.9201 23 13.5156C23 10.1112 23 8.40783 22.1761 7.18561C21.818 6.65449 21.3597 6.19989 20.8275 5.84783C20.0355 5.32227 19.0433 5.1345 17.5242 5.06783C16.7993 5.06783 16.1756 4.52339 16.0337 3.81783C15.9253 3.30102 15.6435 2.83787 15.236 2.50666C14.8286 2.17546 14.3204 1.99651 13.7974 2.00005H10.2026C9.1158 2.00005 8.1797 2.76116 7.9663 3.81783C7.8244 4.52339 7.2007 5.06783 6.4758 5.06783C4.9578 5.1345 3.9656 5.32338 3.1725 5.84783C2.64069 6.20001 2.1828 6.6546 1.825 7.18561C1 8.40783 1 10.1101 1 13.5156C1 16.9212 1 18.6223 1.8239 19.8456C2.1803 20.3745 2.6379 20.8289 3.1725 21.1834C4.4056 22.0001 6.1227 22.0001 9.5558 22.0001Z" stroke="black" stroke-opacity="0.2" stroke-width="1.5"/>
<path d="M9.5558 22.0001H14.4442C17.8773 22.0001 19.5944 22.0001 20.8275 21.1834C21.3597 20.8313 21.818 20.3767 22.1761 19.8456C23 18.6234 23 16.9201 23 13.5156C23 10.1112 23 8.40783 22.1761 7.18561C21.818 6.65449 21.3597 6.19989 20.8275 5.84783C20.0355 5.32227 19.0433 5.1345 17.5242 5.06783C16.7993 5.06783 16.1756 4.52339 16.0337 3.81783C15.9253 3.30102 15.6435 2.83787 15.236 2.50666C14.8286 2.17546 14.3204 1.99651 13.7974 2.00005H10.2026C9.1158 2.00005 8.1797 2.76116 7.9663 3.81783C7.8244 4.52339 7.2007 5.06783 6.4758 5.06783C4.9578 5.1345 3.9656 5.32338 3.1725 5.84783C2.64069 6.20001 2.1828 6.6546 1.825 7.18561C1 8.40783 1 10.1101 1 13.5156C1 16.9212 1 18.6223 1.8239 19.8456C2.1803 20.3745 2.6379 20.8289 3.1725 21.1834C4.4056 22.0001 6.1227 22.0001 9.5558 22.0001Z" stroke="black" stroke-opacity="0.2" stroke-width="1.5"/>
</svg>
