<svg width="24" height="24" viewBox="0 0 24 24" fill="none" xmlns="http://www.w3.org/2000/svg">
<rect width="24" height="24" rx="12" fill="#B09050"/>
<path d="M11.9999 14.6665C13.1597 14.6665 14.0999 13.7711 14.0999 12.6665C14.0999 11.5619 13.1597 10.6665 11.9999 10.6665C10.8401 10.6665 9.8999 11.5619 9.8999 12.6665C9.8999 13.7711 10.8401 14.6665 11.9999 14.6665Z" stroke="white"/>
<path d="M10.4446 18H13.5554C15.7401 18 16.8328 18 17.6175 17.51C17.9562 17.2988 18.2478 17.026 18.4757 16.7074C19 15.974 19 14.952 19 12.9094C19 10.8667 19 9.8447 18.4757 9.11136C18.2478 8.79269 17.9562 8.51994 17.6175 8.3087C17.1135 7.99336 16.4821 7.8807 15.5154 7.8407C15.0541 7.8407 14.6572 7.51403 14.5669 7.0907C14.4979 6.78061 14.3186 6.50272 14.0593 6.304C13.8 6.10527 13.4766 5.9979 13.1438 6.00003H10.8562C10.1646 6.00003 9.5689 6.4567 9.4331 7.0907C9.3428 7.51403 8.9459 7.8407 8.4846 7.8407C7.5186 7.8807 6.8872 7.99403 6.3825 8.3087C6.04408 8.52001 5.75269 8.79276 5.525 9.11136C5 9.8447 5 10.866 5 12.9094C5 14.9527 5 15.9734 5.5243 16.7074C5.7511 17.0247 6.0423 17.2974 6.3825 17.51C7.1672 18 8.2599 18 10.4446 18Z" stroke="white"/>
<path d="M16.9002 10.6665H16.2002" stroke="white" stroke-linecap="round"/>
</svg>
