<svg width="24" height="24" viewBox="0 0 24 24" fill="none" xmlns="http://www.w3.org/2000/svg">
<path d="M6.44531 15.4437H10.2551M6.44531 10.9995H15.3337M13.6671 1H8.11189C7.89303 1 7.67631 1.04311 7.47412 1.12686C7.27192 1.21061 7.0882 1.33337 6.93344 1.48813C6.77868 1.64289 6.65593 1.82661 6.57217 2.02881C6.48842 2.23101 6.44531 2.44772 6.44531 2.66658C6.44531 2.88544 6.48842 3.10215 6.57217 3.30435C6.65593 3.50655 6.77868 3.69027 6.93344 3.84503C7.0882 3.99979 7.27192 4.12255 7.47412 4.2063C7.67631 4.29005 7.89303 4.33316 8.11189 4.33316H13.6671C13.886 4.33316 14.1027 4.29005 14.3049 4.2063C14.5071 4.12255 14.6908 3.99979 14.8456 3.84503C15.0003 3.69027 15.1231 3.50655 15.2068 3.30435C15.2906 3.10215 15.3337 2.88544 15.3337 2.66658C15.3337 2.44772 15.2906 2.23101 15.2068 2.02881C15.1231 1.82661 15.0003 1.64289 14.8456 1.48813C14.6908 1.33337 14.5071 1.21061 14.3049 1.12686C14.1027 1.04311 13.886 1 13.6671 1Z" stroke="#006333" stroke-width="1.5" stroke-linecap="round" stroke-linejoin="round"/>
<path d="M19.7779 13.7772V9.31407C19.7779 6.1709 19.7779 4.59987 18.8013 3.62326C18.0902 2.91218 17.0603 2.71886 15.3348 2.66664M11.9994 23.2211H8.6663C5.52425 23.2211 3.95211 23.2211 2.97661 22.2434C2 21.2679 2 19.6969 2 16.5548V9.31296C2 6.16979 2 4.59876 2.97661 3.62214C3.6888 2.91107 4.71874 2.71775 6.4442 2.66553M14.2227 20.999C14.2227 20.999 15.3337 20.999 16.4448 23.2211C16.4448 23.2211 18.8624 17.6659 22 16.5548" stroke="#006333" stroke-width="1.5" stroke-linecap="round" stroke-linejoin="round"/>
</svg>
