<svg width="24" height="24" viewBox="0 0 24 24" fill="none" xmlns="http://www.w3.org/2000/svg">
<path d="M7.25 18.25C7.25 19.0456 7.56607 19.8087 8.12868 20.3713C8.69129 20.9339 9.45435 21.25 10.25 21.25L16.75 21.25C17.5456 21.25 18.3087 20.9339 18.8713 20.3713C19.4339 19.8087 19.75 19.0456 19.75 18.25L19.75 8.75C19.75 7.95435 19.4339 7.19129 18.8713 6.62868C18.3087 6.06607 17.5457 5.75 16.75 5.75L10.25 5.75C9.45435 5.75 8.69129 6.06607 8.12868 6.62868C7.56607 7.19129 7.25 7.95435 7.25 8.75L7.25 18.25Z" stroke="#423526" stroke-width="1.5" stroke-linecap="round" stroke-linejoin="round"/>
<path d="M4.25 17.25L4.25 8.75C4.25 7.1587 4.88214 5.63257 6.00736 4.50736C7.13258 3.38214 8.6587 2.75 10.25 2.75L15.75 2.75" stroke="#423526" stroke-width="1.5" stroke-linecap="round" stroke-linejoin="round"/>
</svg>
