<svg width="24" height="24" viewBox="0 0 24 24" fill="none" xmlns="http://www.w3.org/2000/svg">
<path d="M10.9989 9.99976C13.208 9.99976 14.9988 8.20895 14.9988 5.99988C14.9988 3.79081 13.208 2 10.9989 2C8.78983 2 6.99902 3.79081 6.99902 5.99988C6.99902 8.20895 8.78983 9.99976 10.9989 9.99976Z" stroke="#A70204" stroke-width="1.5"/>
<path d="M13.9997 13.3265C13.0149 13.1066 12.0088 12.9969 10.9997 12.9996C6.58189 12.9996 3 15.0145 3 17.4994C3 19.9843 3 21.9993 10.9997 21.9993C16.6866 21.9993 18.3305 20.9813 18.8065 19.4994" stroke="#A70204" stroke-width="1.5"/>
<path d="M19.8284 13.1706C20.1998 13.542 20.4945 13.983 20.6955 14.4683C20.8965 14.9536 21 15.4737 21 15.999C21 16.5243 20.8965 17.0444 20.6955 17.5297C20.4945 18.015 20.1998 18.456 19.8284 18.8274C19.457 19.1989 19.016 19.4935 18.5307 19.6945C18.0454 19.8955 17.5253 19.999 17 19.999C16.4747 19.999 15.9546 19.8955 15.4693 19.6945C14.984 19.4935 14.543 19.1989 14.1716 18.8274L19.8274 13.1716M14.1706 18.8274C13.4204 18.0773 12.999 17.0599 12.999 15.999C12.999 15.4737 13.1025 14.9536 13.3035 14.4683C13.5045 13.983 13.7992 13.542 14.1706 13.1706C14.542 12.7992 14.983 12.5045 15.4683 12.3035C15.9536 12.1025 16.4737 11.999 16.999 11.999C18.0599 11.999 19.0773 12.4204 19.8274 13.1706" stroke="#A70204" stroke-width="1.5" stroke-linejoin="round"/>
</svg>
