<svg width="24" height="24" viewBox="0 0 24 24" fill="none" xmlns="http://www.w3.org/2000/svg">
<path d="M20.3333 4.85L19.6444 15.8775C19.4689 18.6946 19.3811 20.1037 18.6667 21.1168C18.314 21.6175 17.8599 22.04 17.3333 22.3576C16.27 23 14.8444 23 11.9933 23C9.13778 23 7.71 23 6.64444 22.3565C6.11765 22.0383 5.66357 21.615 5.31111 21.1135C4.59778 20.0993 4.51111 18.688 4.34 15.8665L3.66667 4.85M2 4.85H22M16.5067 4.85L15.7478 3.3012C15.2444 2.2716 14.9922 1.7579 14.5578 1.4367C14.4613 1.36555 14.3591 1.30227 14.2522 1.2475C13.7711 1 13.1933 1 12.0389 1C10.8544 1 10.2622 1 9.77222 1.2574C9.66391 1.31483 9.56059 1.38106 9.46333 1.4554C9.02444 1.7887 8.77889 2.3222 8.28778 3.3881L7.61445 4.85M9.22222 16.95V10.35M14.7778 16.95V10.35" stroke="#A70204" stroke-width="1.5" stroke-linecap="round"/>
</svg>
