<svg width="24" height="24" viewBox="0 0 24 24" fill="none" xmlns="http://www.w3.org/2000/svg">
<path d="M14.9412 5.55138L18.4706 9.07609M12.5882 22H22M3.17647 17.3004L2 22L6.70588 20.8251L20.3365 7.21269C20.7776 6.77204 21.0254 6.17447 21.0254 5.55138C21.0254 4.9283 20.7776 4.33073 20.3365 3.89007L20.1341 3.68799C19.6929 3.24747 19.0945 3 18.4706 3C17.8467 3 17.2483 3.24747 16.8071 3.68799L3.17647 17.3004Z" stroke="#2D2D2D" stroke-width="1.5" stroke-linecap="round" stroke-linejoin="round"/>
<path d="M14.9412 5.55138L18.4706 9.07609M12.5882 22H22M3.17647 17.3004L2 22L6.70588 20.8251L20.3365 7.21269C20.7776 6.77204 21.0254 6.17447 21.0254 5.55138C21.0254 4.9283 20.7776 4.33073 20.3365 3.89007L20.1341 3.68799C19.6929 3.24747 19.0945 3 18.4706 3C17.8467 3 17.2483 3.24747 16.8071 3.68799L3.17647 17.3004Z" stroke="black" stroke-opacity="0.2" stroke-width="1.5" stroke-linecap="round" stroke-linejoin="round"/>
<path d="M14.9412 5.55138L18.4706 9.07609M12.5882 22H22M3.17647 17.3004L2 22L6.70588 20.8251L20.3365 7.21269C20.7776 6.77204 21.0254 6.17447 21.0254 5.55138C21.0254 4.9283 20.7776 4.33073 20.3365 3.89007L20.1341 3.68799C19.6929 3.24747 19.0945 3 18.4706 3C17.8467 3 17.2483 3.24747 16.8071 3.68799L3.17647 17.3004Z" stroke="black" stroke-opacity="0.2" stroke-width="1.5" stroke-linecap="round" stroke-linejoin="round"/>
<path d="M14.9412 5.55138L18.4706 9.07609M12.5882 22H22M3.17647 17.3004L2 22L6.70588 20.8251L20.3365 7.21269C20.7776 6.77204 21.0254 6.17447 21.0254 5.55138C21.0254 4.9283 20.7776 4.33073 20.3365 3.89007L20.1341 3.68799C19.6929 3.24747 19.0945 3 18.4706 3C17.8467 3 17.2483 3.24747 16.8071 3.68799L3.17647 17.3004Z" stroke="black" stroke-opacity="0.2" stroke-width="1.5" stroke-linecap="round" stroke-linejoin="round"/>
<path d="M14.9412 5.55138L18.4706 9.07609M12.5882 22H22M3.17647 17.3004L2 22L6.70588 20.8251L20.3365 7.21269C20.7776 6.77204 21.0254 6.17447 21.0254 5.55138C21.0254 4.9283 20.7776 4.33073 20.3365 3.89007L20.1341 3.68799C19.6929 3.24747 19.0945 3 18.4706 3C17.8467 3 17.2483 3.24747 16.8071 3.68799L3.17647 17.3004Z" stroke="black" stroke-opacity="0.2" stroke-width="1.5" stroke-linecap="round" stroke-linejoin="round"/>
<path d="M14.9412 5.55138L18.4706 9.07609M12.5882 22H22M3.17647 17.3004L2 22L6.70588 20.8251L20.3365 7.21269C20.7776 6.77204 21.0254 6.17447 21.0254 5.55138C21.0254 4.9283 20.7776 4.33073 20.3365 3.89007L20.1341 3.68799C19.6929 3.24747 19.0945 3 18.4706 3C17.8467 3 17.2483 3.24747 16.8071 3.68799L3.17647 17.3004Z" stroke="black" stroke-opacity="0.2" stroke-width="1.5" stroke-linecap="round" stroke-linejoin="round"/>
<path d="M14.9412 5.55138L18.4706 9.07609M12.5882 22H22M3.17647 17.3004L2 22L6.70588 20.8251L20.3365 7.21269C20.7776 6.77204 21.0254 6.17447 21.0254 5.55138C21.0254 4.9283 20.7776 4.33073 20.3365 3.89007L20.1341 3.68799C19.6929 3.24747 19.0945 3 18.4706 3C17.8467 3 17.2483 3.24747 16.8071 3.68799L3.17647 17.3004Z" stroke="black" stroke-opacity="0.2" stroke-width="1.5" stroke-linecap="round" stroke-linejoin="round"/>
</svg>
