<svg width="21" height="22" viewBox="0 0 21 22" fill="none" xmlns="http://www.w3.org/2000/svg">
<path d="M10.2505 20.75L10.2505 7.39324M10.2505 2.67865L10.2505 0.75M10.2505 2.67865C10.8756 2.67865 11.475 2.92695 11.917 3.36893C12.359 3.8109 12.6073 4.41035 12.6073 5.03541C12.6073 5.66046 12.359 6.25991 11.917 6.70188C11.475 7.14386 10.8756 7.39216 10.2505 7.39216C9.62549 7.39216 9.02604 7.14386 8.58406 6.70188C8.14209 6.25991 7.89378 5.66046 7.89378 5.0354C7.89378 4.41035 8.14209 3.8109 8.58406 3.36893C9.02604 2.92695 9.62549 2.67865 10.2505 2.67865ZM3.10784 20.75L3.10784 14.5359M3.10784 14.5359C2.48264 14.5359 1.88252 14.287 1.44044 13.845C0.998358 13.4029 0.749999 12.8033 0.75 12.1781C0.75 11.5531 0.999381 10.9536 1.44136 10.5116C1.88334 10.0697 2.48279 9.82135 3.10784 9.82135M3.10784 14.5359C3.73303 14.5359 4.33208 14.287 4.77416 13.845C5.21624 13.4029 5.46459 12.8033 5.4646 12.1781C5.4646 11.5531 5.21629 10.9536 4.77432 10.5116C4.33234 10.0697 3.73289 9.82135 3.10784 9.82135M3.10784 9.82135L3.10784 0.749999M17.3932 20.75L17.3932 17.3932M17.3932 12.6786L17.3932 0.75M17.3932 12.6786C18.0183 12.6786 18.6177 12.9269 19.0597 13.3689C19.5017 13.8109 19.75 14.4104 19.75 15.0354C19.75 15.3449 19.689 15.6514 19.5706 15.9373C19.4522 16.2232 19.2786 16.483 19.0597 16.7019C18.8409 16.9207 18.5811 17.0943 18.2951 17.2128C18.0092 17.3312 17.7027 17.3922 17.3932 17.3922C17.0837 17.3922 16.7773 17.3312 16.4914 17.2128C16.2054 17.0943 15.9456 16.9207 15.7268 16.7019C15.5079 16.483 15.3343 16.2232 15.2159 15.9373C15.0974 15.6514 15.0365 15.3449 15.0365 15.0354C15.0365 14.4104 15.2848 13.8109 15.7268 13.3689C16.1687 12.9269 16.7682 12.6786 17.3932 12.6786Z" stroke="#423526" stroke-width="1.5" stroke-miterlimit="10" stroke-linecap="round"/>
</svg>
