<svg width="24" height="24" viewBox="0 0 24 24" fill="none" xmlns="http://www.w3.org/2000/svg">
<path d="M7.95 2H4.8C4.32261 2 3.86477 2.1873 3.52721 2.5207C3.18964 2.8541 3 3.30628 3 3.77778V9.11111C3 9.34457 3.04656 9.57575 3.13702 9.79144C3.22748 10.0071 3.36006 10.2031 3.52721 10.3682C3.69435 10.5333 3.89278 10.6642 4.11117 10.7536C4.32956 10.8429 4.56362 10.8889 4.8 10.8889H7.95C8.18638 10.8889 8.42044 10.8429 8.63883 10.7536C8.85722 10.6642 9.05565 10.5333 9.22279 10.3682C9.38994 10.2031 9.52252 10.0071 9.61298 9.79144C9.70344 9.57575 9.75 9.34457 9.75 9.11111V3.77778C9.75 3.30628 9.56036 2.8541 9.22279 2.5207C8.88523 2.1873 8.42739 2 7.95 2ZM7.95 15.3333H4.8C4.32261 15.3333 3.86477 15.5206 3.52721 15.854C3.18964 16.1874 3 16.6396 3 17.1111V20.2222C3 20.6937 3.18964 21.1459 3.52721 21.4793C3.86477 21.8127 4.32261 22 4.8 22H7.95C8.42739 22 8.88523 21.8127 9.22279 21.4793C9.56036 21.1459 9.75 20.6937 9.75 20.2222V17.1111C9.75 16.6396 9.56036 16.1874 9.22279 15.854C8.88523 15.5206 8.42739 15.3333 7.95 15.3333ZM19.2 2H16.05C15.5726 2 15.1148 2.1873 14.7772 2.5207C14.4396 2.8541 14.25 3.30628 14.25 3.77778V6.88889C14.25 7.36039 14.4396 7.81257 14.7772 8.14597C15.1148 8.47937 15.5726 8.66667 16.05 8.66667H19.2C19.6774 8.66667 20.1352 8.47937 20.4728 8.14597C20.8104 7.81257 21 7.36039 21 6.88889V3.77778C21 3.30628 20.8104 2.8541 20.4728 2.5207C20.1352 2.1873 19.6774 2 19.2 2ZM19.2 13.1111H16.05C15.5726 13.1111 15.1148 13.2984 14.7772 13.6318C14.4396 13.9652 14.25 14.4174 14.25 14.8889V20.2222C14.25 20.6937 14.4396 21.1459 14.7772 21.4793C15.1148 21.8127 15.5726 22 16.05 22H19.2C19.6774 22 20.1352 21.8127 20.4728 21.4793C20.8104 21.1459 21 20.6937 21 20.2222V14.8889C21 14.4174 20.8104 13.9652 20.4728 13.6318C20.1352 13.2984 19.6774 13.1111 19.2 13.1111Z" stroke="#80828D" stroke-width="1.5" stroke-miterlimit="10" stroke-linejoin="round"/>
</svg>
