<svg width="48" height="48" viewBox="0 0 48 48" fill="none" xmlns="http://www.w3.org/2000/svg">
<rect width="48" height="48" rx="12" fill="#F8EFE4"/>
<path d="M20 19H17C16.4696 19 15.9609 19.2107 15.5858 19.5858C15.2107 19.9609 15 20.4696 15 21V25M20 19H28M20 19V17C20 16.4696 20.2107 15.9609 20.5858 15.5858C20.9609 15.2107 21.4696 15 22 15H26C26.5304 15 27.0391 15.2107 27.4142 15.5858C27.7893 15.9609 28 16.4696 28 17V19M15 25V31C15 31.5304 15.2107 32.0391 15.5858 32.4142C15.9609 32.7893 16.4696 33 17 33H31C31.5304 33 32.0391 32.7893 32.4142 32.4142C32.7893 32.0391 33 31.5304 33 31V25M15 25C15 25 19 27 24 27C29 27 33 25 33 25M28 19H31C31.5304 19 32.0391 19.2107 32.4142 19.5858C32.7893 19.9609 33 20.4696 33 21V25M24 23H24.01" stroke="#2D2D2D" stroke-width="1.5" stroke-linecap="round" stroke-linejoin="round"/>
<path d="M20 19H17C16.4696 19 15.9609 19.2107 15.5858 19.5858C15.2107 19.9609 15 20.4696 15 21V25M20 19H28M20 19V17C20 16.4696 20.2107 15.9609 20.5858 15.5858C20.9609 15.2107 21.4696 15 22 15H26C26.5304 15 27.0391 15.2107 27.4142 15.5858C27.7893 15.9609 28 16.4696 28 17V19M15 25V31C15 31.5304 15.2107 32.0391 15.5858 32.4142C15.9609 32.7893 16.4696 33 17 33H31C31.5304 33 32.0391 32.7893 32.4142 32.4142C32.7893 32.0391 33 31.5304 33 31V25M15 25C15 25 19 27 24 27C29 27 33 25 33 25M28 19H31C31.5304 19 32.0391 19.2107 32.4142 19.5858C32.7893 19.9609 33 20.4696 33 21V25M24 23H24.01" stroke="black" stroke-opacity="0.2" stroke-width="1.5" stroke-linecap="round" stroke-linejoin="round"/>
<path d="M20 19H17C16.4696 19 15.9609 19.2107 15.5858 19.5858C15.2107 19.9609 15 20.4696 15 21V25M20 19H28M20 19V17C20 16.4696 20.2107 15.9609 20.5858 15.5858C20.9609 15.2107 21.4696 15 22 15H26C26.5304 15 27.0391 15.2107 27.4142 15.5858C27.7893 15.9609 28 16.4696 28 17V19M15 25V31C15 31.5304 15.2107 32.0391 15.5858 32.4142C15.9609 32.7893 16.4696 33 17 33H31C31.5304 33 32.0391 32.7893 32.4142 32.4142C32.7893 32.0391 33 31.5304 33 31V25M15 25C15 25 19 27 24 27C29 27 33 25 33 25M28 19H31C31.5304 19 32.0391 19.2107 32.4142 19.5858C32.7893 19.9609 33 20.4696 33 21V25M24 23H24.01" stroke="black" stroke-opacity="0.2" stroke-width="1.5" stroke-linecap="round" stroke-linejoin="round"/>
<path d="M20 19H17C16.4696 19 15.9609 19.2107 15.5858 19.5858C15.2107 19.9609 15 20.4696 15 21V25M20 19H28M20 19V17C20 16.4696 20.2107 15.9609 20.5858 15.5858C20.9609 15.2107 21.4696 15 22 15H26C26.5304 15 27.0391 15.2107 27.4142 15.5858C27.7893 15.9609 28 16.4696 28 17V19M15 25V31C15 31.5304 15.2107 32.0391 15.5858 32.4142C15.9609 32.7893 16.4696 33 17 33H31C31.5304 33 32.0391 32.7893 32.4142 32.4142C32.7893 32.0391 33 31.5304 33 31V25M15 25C15 25 19 27 24 27C29 27 33 25 33 25M28 19H31C31.5304 19 32.0391 19.2107 32.4142 19.5858C32.7893 19.9609 33 20.4696 33 21V25M24 23H24.01" stroke="black" stroke-opacity="0.2" stroke-width="1.5" stroke-linecap="round" stroke-linejoin="round"/>
<path d="M20 19H17C16.4696 19 15.9609 19.2107 15.5858 19.5858C15.2107 19.9609 15 20.4696 15 21V25M20 19H28M20 19V17C20 16.4696 20.2107 15.9609 20.5858 15.5858C20.9609 15.2107 21.4696 15 22 15H26C26.5304 15 27.0391 15.2107 27.4142 15.5858C27.7893 15.9609 28 16.4696 28 17V19M15 25V31C15 31.5304 15.2107 32.0391 15.5858 32.4142C15.9609 32.7893 16.4696 33 17 33H31C31.5304 33 32.0391 32.7893 32.4142 32.4142C32.7893 32.0391 33 31.5304 33 31V25M15 25C15 25 19 27 24 27C29 27 33 25 33 25M28 19H31C31.5304 19 32.0391 19.2107 32.4142 19.5858C32.7893 19.9609 33 20.4696 33 21V25M24 23H24.01" stroke="black" stroke-opacity="0.2" stroke-width="1.5" stroke-linecap="round" stroke-linejoin="round"/>
<path d="M20 19H17C16.4696 19 15.9609 19.2107 15.5858 19.5858C15.2107 19.9609 15 20.4696 15 21V25M20 19H28M20 19V17C20 16.4696 20.2107 15.9609 20.5858 15.5858C20.9609 15.2107 21.4696 15 22 15H26C26.5304 15 27.0391 15.2107 27.4142 15.5858C27.7893 15.9609 28 16.4696 28 17V19M15 25V31C15 31.5304 15.2107 32.0391 15.5858 32.4142C15.9609 32.7893 16.4696 33 17 33H31C31.5304 33 32.0391 32.7893 32.4142 32.4142C32.7893 32.0391 33 31.5304 33 31V25M15 25C15 25 19 27 24 27C29 27 33 25 33 25M28 19H31C31.5304 19 32.0391 19.2107 32.4142 19.5858C32.7893 19.9609 33 20.4696 33 21V25M24 23H24.01" stroke="black" stroke-opacity="0.2" stroke-width="1.5" stroke-linecap="round" stroke-linejoin="round"/>
<path d="M20 19H17C16.4696 19 15.9609 19.2107 15.5858 19.5858C15.2107 19.9609 15 20.4696 15 21V25M20 19H28M20 19V17C20 16.4696 20.2107 15.9609 20.5858 15.5858C20.9609 15.2107 21.4696 15 22 15H26C26.5304 15 27.0391 15.2107 27.4142 15.5858C27.7893 15.9609 28 16.4696 28 17V19M15 25V31C15 31.5304 15.2107 32.0391 15.5858 32.4142C15.9609 32.7893 16.4696 33 17 33H31C31.5304 33 32.0391 32.7893 32.4142 32.4142C32.7893 32.0391 33 31.5304 33 31V25M15 25C15 25 19 27 24 27C29 27 33 25 33 25M28 19H31C31.5304 19 32.0391 19.2107 32.4142 19.5858C32.7893 19.9609 33 20.4696 33 21V25M24 23H24.01" stroke="black" stroke-opacity="0.2" stroke-width="1.5" stroke-linecap="round" stroke-linejoin="round"/>
</svg>
