<svg width="18" height="20" viewBox="0 0 18 20" fill="none" xmlns="http://www.w3.org/2000/svg">
<path d="M0.75 10.75C0.75 8.864 0.75 7.922 1.336 7.336C1.922 6.75 2.864 6.75 4.75 6.75H12.75C14.636 6.75 15.578 6.75 16.164 7.336C16.75 7.922 16.75 8.864 16.75 10.75V12.75C16.75 15.578 16.75 16.993 15.871 17.871C14.993 18.75 13.578 18.75 10.75 18.75H6.75C3.922 18.75 2.507 18.75 1.629 17.871C0.75 16.993 0.75 15.578 0.75 12.75V10.75Z" stroke="#2D2D2D" stroke-width="1.5"/>
<path d="M0.75 10.75C0.75 8.864 0.75 7.922 1.336 7.336C1.922 6.75 2.864 6.75 4.75 6.75H12.75C14.636 6.75 15.578 6.75 16.164 7.336C16.75 7.922 16.75 8.864 16.75 10.75V12.75C16.75 15.578 16.75 16.993 15.871 17.871C14.993 18.75 13.578 18.75 10.75 18.75H6.75C3.922 18.75 2.507 18.75 1.629 17.871C0.75 16.993 0.75 15.578 0.75 12.75V10.75Z" stroke="black" stroke-opacity="0.2" stroke-width="1.5"/>
<path d="M0.75 10.75C0.75 8.864 0.75 7.922 1.336 7.336C1.922 6.75 2.864 6.75 4.75 6.75H12.75C14.636 6.75 15.578 6.75 16.164 7.336C16.75 7.922 16.75 8.864 16.75 10.75V12.75C16.75 15.578 16.75 16.993 15.871 17.871C14.993 18.75 13.578 18.75 10.75 18.75H6.75C3.922 18.75 2.507 18.75 1.629 17.871C0.75 16.993 0.75 15.578 0.75 12.75V10.75Z" stroke="black" stroke-opacity="0.2" stroke-width="1.5"/>
<path d="M0.75 10.75C0.75 8.864 0.75 7.922 1.336 7.336C1.922 6.75 2.864 6.75 4.75 6.75H12.75C14.636 6.75 15.578 6.75 16.164 7.336C16.75 7.922 16.75 8.864 16.75 10.75V12.75C16.75 15.578 16.75 16.993 15.871 17.871C14.993 18.75 13.578 18.75 10.75 18.75H6.75C3.922 18.75 2.507 18.75 1.629 17.871C0.75 16.993 0.75 15.578 0.75 12.75V10.75Z" stroke="black" stroke-opacity="0.2" stroke-width="1.5"/>
<path d="M0.75 10.75C0.75 8.864 0.75 7.922 1.336 7.336C1.922 6.75 2.864 6.75 4.75 6.75H12.75C14.636 6.75 15.578 6.75 16.164 7.336C16.75 7.922 16.75 8.864 16.75 10.75V12.75C16.75 15.578 16.75 16.993 15.871 17.871C14.993 18.75 13.578 18.75 10.75 18.75H6.75C3.922 18.75 2.507 18.75 1.629 17.871C0.75 16.993 0.75 15.578 0.75 12.75V10.75Z" stroke="black" stroke-opacity="0.2" stroke-width="1.5"/>
<path d="M0.75 10.75C0.75 8.864 0.75 7.922 1.336 7.336C1.922 6.75 2.864 6.75 4.75 6.75H12.75C14.636 6.75 15.578 6.75 16.164 7.336C16.75 7.922 16.75 8.864 16.75 10.75V12.75C16.75 15.578 16.75 16.993 15.871 17.871C14.993 18.75 13.578 18.75 10.75 18.75H6.75C3.922 18.75 2.507 18.75 1.629 17.871C0.75 16.993 0.75 15.578 0.75 12.75V10.75Z" stroke="black" stroke-opacity="0.2" stroke-width="1.5"/>
<path d="M0.75 10.75C0.75 8.864 0.75 7.922 1.336 7.336C1.922 6.75 2.864 6.75 4.75 6.75H12.75C14.636 6.75 15.578 6.75 16.164 7.336C16.75 7.922 16.75 8.864 16.75 10.75V12.75C16.75 15.578 16.75 16.993 15.871 17.871C14.993 18.75 13.578 18.75 10.75 18.75H6.75C3.922 18.75 2.507 18.75 1.629 17.871C0.75 16.993 0.75 15.578 0.75 12.75V10.75Z" stroke="black" stroke-opacity="0.2" stroke-width="1.5"/>
<path d="M12.75 5.75V4.75C12.75 3.68913 12.3286 2.67172 11.5784 1.92157C10.8283 1.17143 9.81087 0.75 8.75 0.75C7.68913 0.75 6.67172 1.17143 5.92157 1.92157C5.17143 2.67172 4.75 3.68913 4.75 4.75V5.75" stroke="#2D2D2D" stroke-width="1.5" stroke-linecap="round"/>
<path d="M12.75 5.75V4.75C12.75 3.68913 12.3286 2.67172 11.5784 1.92157C10.8283 1.17143 9.81087 0.75 8.75 0.75C7.68913 0.75 6.67172 1.17143 5.92157 1.92157C5.17143 2.67172 4.75 3.68913 4.75 4.75V5.75" stroke="black" stroke-opacity="0.2" stroke-width="1.5" stroke-linecap="round"/>
<path d="M12.75 5.75V4.75C12.75 3.68913 12.3286 2.67172 11.5784 1.92157C10.8283 1.17143 9.81087 0.75 8.75 0.75C7.68913 0.75 6.67172 1.17143 5.92157 1.92157C5.17143 2.67172 4.75 3.68913 4.75 4.75V5.75" stroke="black" stroke-opacity="0.2" stroke-width="1.5" stroke-linecap="round"/>
<path d="M12.75 5.75V4.75C12.75 3.68913 12.3286 2.67172 11.5784 1.92157C10.8283 1.17143 9.81087 0.75 8.75 0.75C7.68913 0.75 6.67172 1.17143 5.92157 1.92157C5.17143 2.67172 4.75 3.68913 4.75 4.75V5.75" stroke="black" stroke-opacity="0.2" stroke-width="1.5" stroke-linecap="round"/>
<path d="M12.75 5.75V4.75C12.75 3.68913 12.3286 2.67172 11.5784 1.92157C10.8283 1.17143 9.81087 0.75 8.75 0.75C7.68913 0.75 6.67172 1.17143 5.92157 1.92157C5.17143 2.67172 4.75 3.68913 4.75 4.75V5.75" stroke="black" stroke-opacity="0.2" stroke-width="1.5" stroke-linecap="round"/>
<path d="M12.75 5.75V4.75C12.75 3.68913 12.3286 2.67172 11.5784 1.92157C10.8283 1.17143 9.81087 0.75 8.75 0.75C7.68913 0.75 6.67172 1.17143 5.92157 1.92157C5.17143 2.67172 4.75 3.68913 4.75 4.75V5.75" stroke="black" stroke-opacity="0.2" stroke-width="1.5" stroke-linecap="round"/>
<path d="M12.75 5.75V4.75C12.75 3.68913 12.3286 2.67172 11.5784 1.92157C10.8283 1.17143 9.81087 0.75 8.75 0.75C7.68913 0.75 6.67172 1.17143 5.92157 1.92157C5.17143 2.67172 4.75 3.68913 4.75 4.75V5.75" stroke="black" stroke-opacity="0.2" stroke-width="1.5" stroke-linecap="round"/>
<path d="M8.75 14.75C9.85457 14.75 10.75 13.8546 10.75 12.75C10.75 11.6454 9.85457 10.75 8.75 10.75C7.64543 10.75 6.75 11.6454 6.75 12.75C6.75 13.8546 7.64543 14.75 8.75 14.75Z" fill="#2D2D2D"/>
<path d="M8.75 14.75C9.85457 14.75 10.75 13.8546 10.75 12.75C10.75 11.6454 9.85457 10.75 8.75 10.75C7.64543 10.75 6.75 11.6454 6.75 12.75C6.75 13.8546 7.64543 14.75 8.75 14.75Z" fill="black" fill-opacity="0.2"/>
<path d="M8.75 14.75C9.85457 14.75 10.75 13.8546 10.75 12.75C10.75 11.6454 9.85457 10.75 8.75 10.75C7.64543 10.75 6.75 11.6454 6.75 12.75C6.75 13.8546 7.64543 14.75 8.75 14.75Z" fill="black" fill-opacity="0.2"/>
<path d="M8.75 14.75C9.85457 14.75 10.75 13.8546 10.75 12.75C10.75 11.6454 9.85457 10.75 8.75 10.75C7.64543 10.75 6.75 11.6454 6.75 12.75C6.75 13.8546 7.64543 14.75 8.75 14.75Z" fill="black" fill-opacity="0.2"/>
<path d="M8.75 14.75C9.85457 14.75 10.75 13.8546 10.75 12.75C10.75 11.6454 9.85457 10.75 8.75 10.75C7.64543 10.75 6.75 11.6454 6.75 12.75C6.75 13.8546 7.64543 14.75 8.75 14.75Z" fill="black" fill-opacity="0.2"/>
<path d="M8.75 14.75C9.85457 14.75 10.75 13.8546 10.75 12.75C10.75 11.6454 9.85457 10.75 8.75 10.75C7.64543 10.75 6.75 11.6454 6.75 12.75C6.75 13.8546 7.64543 14.75 8.75 14.75Z" fill="black" fill-opacity="0.2"/>
<path d="M8.75 14.75C9.85457 14.75 10.75 13.8546 10.75 12.75C10.75 11.6454 9.85457 10.75 8.75 10.75C7.64543 10.75 6.75 11.6454 6.75 12.75C6.75 13.8546 7.64543 14.75 8.75 14.75Z" fill="black" fill-opacity="0.2"/>
</svg>
