<svg width="22" height="22" viewBox="0 0 22 22" fill="none" xmlns="http://www.w3.org/2000/svg">
<path d="M8 10.998L21 10.998M21 10.998L17.5 13.998M21 10.998L17.5 7.99805" stroke="#A70204" stroke-width="2" stroke-linecap="round" stroke-linejoin="round"/>
<path d="M13.998 15.998C13.986 18.173 13.889 19.351 13.121 20.119C12.242 20.998 10.828 20.998 8.00005 20.998L7.00005 20.998C4.17105 20.998 2.75705 20.998 1.87805 20.119C1.00005 19.241 1.00005 17.826 1.00005 14.998L1.00005 6.99805C1.00005 4.17005 1.00005 2.75505 1.87805 1.87705C2.64705 1.10805 3.82505 1.01205 6.00005 1.00005M13.998 5.99805C13.986 3.82305 13.889 2.64505 13.121 1.87705C12.48 1.23505 11.553 1.06205 10 1.01505" stroke="#A70204" stroke-width="2" stroke-linecap="round"/>
</svg>
