<svg width="24" height="24" viewBox="0 0 24 24" fill="none" xmlns="http://www.w3.org/2000/svg">
<path d="M14.6113 17.8158C14.6113 18.2996 14.5309 18.7787 14.3745 19.2257C14.2181 19.6727 13.9889 20.0788 13.7 20.4209C13.411 20.763 13.068 21.0344 12.6905 21.2196C12.313 21.4047 11.9084 21.5 11.4997 21.5C11.0911 21.5 10.6865 21.4047 10.309 21.2196C9.93146 21.0344 9.58844 20.763 9.2995 20.4209C9.01056 20.0788 8.78136 19.6727 8.62498 19.2257C8.46861 18.7787 8.38813 18.2996 8.38813 17.8158M17.9283 17.8158H5.07204C4.76103 17.8156 4.45704 17.7063 4.19851 17.5016C3.93997 17.2969 3.7385 17.0061 3.61956 16.6658C3.50062 16.3256 3.46955 15.9512 3.53028 15.5901C3.59101 15.2289 3.74081 14.8972 3.96075 14.6368L4.49594 14.0021C4.99583 13.4099 5.2766 12.6068 5.27651 11.7695V8.86842C5.27651 6.91419 5.93217 5.04001 7.09925 3.65816C8.26633 2.27631 9.84924 1.5 11.4997 1.5C13.1502 1.5 14.7331 2.27631 15.9002 3.65816C17.0673 5.04001 17.723 6.91419 17.723 8.86842V11.7695C17.7231 12.6069 18.0042 13.41 18.5044 14.0021L19.0405 14.6368C19.26 14.8974 19.4094 15.2291 19.4699 15.5901C19.5304 15.951 19.4992 16.3251 19.3804 16.6652C19.2615 17.0052 19.0602 17.296 18.802 17.5007C18.5437 17.7055 18.2391 17.8151 17.9283 17.8158Z" stroke="#80828D" stroke-width="1.5" stroke-linecap="round" stroke-linejoin="round"/>
</svg>
