<svg width="60" height="69" viewBox="0 0 60 69" fill="none" xmlns="http://www.w3.org/2000/svg">
<path fill-rule="evenodd" clip-rule="evenodd" d="M60 19.4062V60.375C60 62.6625 59.0969 64.8563 57.4895 66.4738C55.882 68.0913 53.7019 69 51.4286 69H47.1429V64.6875H51.4286C52.5652 64.6875 53.6553 64.2331 54.459 63.4244C55.2628 62.6156 55.7143 61.5187 55.7143 60.375V19.4062H47.1429C45.4379 19.4062 43.8028 18.7247 42.5972 17.5116C41.3916 16.2985 40.7143 14.6531 40.7143 12.9375V4.3125H17.1429C16.0062 4.3125 14.9161 4.76685 14.1124 5.5756C13.3087 6.38435 12.8571 7.48125 12.8571 8.625V47.4375H8.57143V8.625C8.57143 6.33751 9.47449 4.14371 11.0819 2.5262C12.6894 0.908703 14.8696 0 17.1429 0L40.7143 0L60 19.4062ZM6.85714 51.1031H0V68.3488H3.39V62.5614H6.83143C8.06 62.5614 9.10571 62.3127 9.96857 61.8154C10.84 61.3122 11.5014 60.6309 11.9529 59.7712C12.4234 58.872 12.6607 57.8678 12.6429 56.8517C12.6429 55.7736 12.4171 54.8004 11.9657 53.9321C11.5135 53.0738 10.8303 52.361 9.99429 51.8751C9.13714 51.3576 8.09143 51.1003 6.85714 51.1031ZM9.19286 56.8517C9.20741 57.4198 9.08228 57.9827 8.82857 58.4904C8.60108 58.9329 8.24537 59.2953 7.80857 59.5298C7.30932 59.7771 6.75772 59.8985 6.20143 59.8834H3.37714V53.82H6.20571C7.14 53.82 7.87143 54.0802 8.4 54.6006C8.92857 55.1267 9.19286 55.8771 9.19286 56.8517ZM14.4086 51.1031V68.3488H20.6657C22.3857 68.3488 23.8114 68.0081 24.9429 67.3268C26.0878 66.6375 26.9819 65.5956 27.4929 64.3554C28.0529 63.0617 28.3329 61.5034 28.3329 59.6807C28.3329 57.8694 28.0529 56.3241 27.4929 55.0448C26.9869 53.8194 26.1016 52.791 24.9686 52.1122C23.8371 51.4395 22.4014 51.1031 20.6614 51.1031H14.4086ZM17.7986 53.8847H20.2114C21.2714 53.8847 22.1414 54.1032 22.8214 54.5402C23.5265 55.0081 24.0595 55.6959 24.3386 56.4981C24.6757 57.3663 24.8443 58.4488 24.8443 59.7454C24.8576 60.6055 24.7596 61.4637 24.5529 62.2984C24.405 62.9583 24.1186 63.5788 23.7129 64.1182C23.34 64.6019 22.8459 64.9769 22.2814 65.205C21.6199 65.4538 20.9175 65.5738 20.2114 65.5586H17.7986V53.8847ZM33.84 61.4876V68.3488H30.4543V51.1031H41.3743V53.9192H33.84V58.7362H40.7229V61.4876H33.84Z" fill="#A70204"/>
</svg>
