<svg width="96" height="96" viewBox="0 0 96 96" fill="none" xmlns="http://www.w3.org/2000/svg">
<rect width="96" height="96" rx="48" fill="#E9FFF4"/>
<path d="M32 34.3546C32.0007 31.8164 32.6051 29.3148 33.7635 27.0564C34.9218 24.798 36.6008 22.8476 38.6618 21.3662C40.7228 19.8848 43.1067 18.9151 45.6165 18.5369C48.1263 18.1588 50.69 18.3832 53.0959 19.1916C55.5019 20 57.681 21.3692 59.4533 23.1861C61.2256 25.003 62.5402 27.2155 63.2886 29.6408C64.037 32.0661 64.1977 34.6347 63.7574 37.1344C63.3171 39.6341 62.2884 41.9931 60.7564 44.0167L60.2477 44.5714C59.999 44.8391 59.1384 45.6654 58.8592 45.8987C58.4282 46.2625 57.9774 46.6021 57.509 46.9162L51.7064 50.9134C50.2722 51.9022 49.0998 53.2249 48.2902 54.7675C47.4806 56.31 47.0581 58.0263 47.059 59.7684" stroke="#006333" stroke-width="6" stroke-linecap="round" stroke-linejoin="round"/>
<path d="M47.0588 73.1143C47.4805 73.1143 47.8224 73.4561 47.8225 73.8779C47.8225 74.2999 47.4806 74.6416 47.0588 74.6416C46.6371 74.6415 46.2952 74.2998 46.2952 73.8779C46.2953 73.4561 46.6372 73.1143 47.0588 73.1143Z" fill="#006333" stroke="#006333" stroke-width="6"/>
</svg>
