<svg width="48" height="48" viewBox="0 0 48 48" fill="none" xmlns="http://www.w3.org/2000/svg">
<rect width="48" height="48" rx="12" fill="#F8EFE4"/>
<path d="M17.625 15C16.9288 15 16.2611 15.2766 15.7688 15.7688C15.2766 16.2611 15 16.9288 15 17.625V29.25C15 30.2446 15.3951 31.1984 16.0983 31.9016C16.8016 32.6049 17.7554 33 18.75 33H29.25C30.2446 33 31.1984 32.6049 31.9016 31.9016C32.6049 31.1984 33 30.2446 33 29.25V27H28.5V17.625C28.5 16.9288 28.2234 16.2611 27.7312 15.7688C27.2389 15.2766 26.5712 15 25.875 15H17.625ZM28.5 28.5H31.5V29.25C31.5 29.8467 31.2629 30.419 30.841 30.841C30.419 31.2629 29.8467 31.5 29.25 31.5H28.5V28.5ZM16.5 17.625C16.5 17.3266 16.6185 17.0405 16.8295 16.8295C17.0405 16.6185 17.3266 16.5 17.625 16.5H25.875C26.1734 16.5 26.4595 16.6185 26.6705 16.8295C26.8815 17.0405 27 17.3266 27 17.625V31.5H18.75C18.1533 31.5 17.581 31.2629 17.159 30.841C16.7371 30.419 16.5 29.8467 16.5 29.25V17.625ZM18.75 20.25C18.75 20.0511 18.829 19.8603 18.9697 19.7197C19.1103 19.579 19.3011 19.5 19.5 19.5H24C24.1989 19.5 24.3897 19.579 24.5303 19.7197C24.671 19.8603 24.75 20.0511 24.75 20.25C24.75 20.4489 24.671 20.6397 24.5303 20.7803C24.3897 20.921 24.1989 21 24 21H19.5C19.3011 21 19.1103 20.921 18.9697 20.7803C18.829 20.6397 18.75 20.4489 18.75 20.25ZM18.75 24C18.75 23.8011 18.829 23.6103 18.9697 23.4697C19.1103 23.329 19.3011 23.25 19.5 23.25H24C24.1989 23.25 24.3897 23.329 24.5303 23.4697C24.671 23.6103 24.75 23.8011 24.75 24C24.75 24.1989 24.671 24.3897 24.5303 24.5303C24.3897 24.671 24.1989 24.75 24 24.75H19.5C19.3011 24.75 19.1103 24.671 18.9697 24.5303C18.829 24.3897 18.75 24.1989 18.75 24ZM19.5 27C19.3011 27 19.1103 27.079 18.9697 27.2197C18.829 27.3603 18.75 27.5511 18.75 27.75C18.75 27.9489 18.829 28.1397 18.9697 28.2803C19.1103 28.421 19.3011 28.5 19.5 28.5H21.75C21.9489 28.5 22.1397 28.421 22.2803 28.2803C22.421 28.1397 22.5 27.9489 22.5 27.75C22.5 27.5511 22.421 27.3603 22.2803 27.2197C22.1397 27.079 21.9489 27 21.75 27H19.5Z" fill="#2D2D2D"/>
<path d="M17.625 15C16.9288 15 16.2611 15.2766 15.7688 15.7688C15.2766 16.2611 15 16.9288 15 17.625V29.25C15 30.2446 15.3951 31.1984 16.0983 31.9016C16.8016 32.6049 17.7554 33 18.75 33H29.25C30.2446 33 31.1984 32.6049 31.9016 31.9016C32.6049 31.1984 33 30.2446 33 29.25V27H28.5V17.625C28.5 16.9288 28.2234 16.2611 27.7312 15.7688C27.2389 15.2766 26.5712 15 25.875 15H17.625ZM28.5 28.5H31.5V29.25C31.5 29.8467 31.2629 30.419 30.841 30.841C30.419 31.2629 29.8467 31.5 29.25 31.5H28.5V28.5ZM16.5 17.625C16.5 17.3266 16.6185 17.0405 16.8295 16.8295C17.0405 16.6185 17.3266 16.5 17.625 16.5H25.875C26.1734 16.5 26.4595 16.6185 26.6705 16.8295C26.8815 17.0405 27 17.3266 27 17.625V31.5H18.75C18.1533 31.5 17.581 31.2629 17.159 30.841C16.7371 30.419 16.5 29.8467 16.5 29.25V17.625ZM18.75 20.25C18.75 20.0511 18.829 19.8603 18.9697 19.7197C19.1103 19.579 19.3011 19.5 19.5 19.5H24C24.1989 19.5 24.3897 19.579 24.5303 19.7197C24.671 19.8603 24.75 20.0511 24.75 20.25C24.75 20.4489 24.671 20.6397 24.5303 20.7803C24.3897 20.921 24.1989 21 24 21H19.5C19.3011 21 19.1103 20.921 18.9697 20.7803C18.829 20.6397 18.75 20.4489 18.75 20.25ZM18.75 24C18.75 23.8011 18.829 23.6103 18.9697 23.4697C19.1103 23.329 19.3011 23.25 19.5 23.25H24C24.1989 23.25 24.3897 23.329 24.5303 23.4697C24.671 23.6103 24.75 23.8011 24.75 24C24.75 24.1989 24.671 24.3897 24.5303 24.5303C24.3897 24.671 24.1989 24.75 24 24.75H19.5C19.3011 24.75 19.1103 24.671 18.9697 24.5303C18.829 24.3897 18.75 24.1989 18.75 24ZM19.5 27C19.3011 27 19.1103 27.079 18.9697 27.2197C18.829 27.3603 18.75 27.5511 18.75 27.75C18.75 27.9489 18.829 28.1397 18.9697 28.2803C19.1103 28.421 19.3011 28.5 19.5 28.5H21.75C21.9489 28.5 22.1397 28.421 22.2803 28.2803C22.421 28.1397 22.5 27.9489 22.5 27.75C22.5 27.5511 22.421 27.3603 22.2803 27.2197C22.1397 27.079 21.9489 27 21.75 27H19.5Z" fill="black" fill-opacity="0.2"/>
<path d="M17.625 15C16.9288 15 16.2611 15.2766 15.7688 15.7688C15.2766 16.2611 15 16.9288 15 17.625V29.25C15 30.2446 15.3951 31.1984 16.0983 31.9016C16.8016 32.6049 17.7554 33 18.75 33H29.25C30.2446 33 31.1984 32.6049 31.9016 31.9016C32.6049 31.1984 33 30.2446 33 29.25V27H28.5V17.625C28.5 16.9288 28.2234 16.2611 27.7312 15.7688C27.2389 15.2766 26.5712 15 25.875 15H17.625ZM28.5 28.5H31.5V29.25C31.5 29.8467 31.2629 30.419 30.841 30.841C30.419 31.2629 29.8467 31.5 29.25 31.5H28.5V28.5ZM16.5 17.625C16.5 17.3266 16.6185 17.0405 16.8295 16.8295C17.0405 16.6185 17.3266 16.5 17.625 16.5H25.875C26.1734 16.5 26.4595 16.6185 26.6705 16.8295C26.8815 17.0405 27 17.3266 27 17.625V31.5H18.75C18.1533 31.5 17.581 31.2629 17.159 30.841C16.7371 30.419 16.5 29.8467 16.5 29.25V17.625ZM18.75 20.25C18.75 20.0511 18.829 19.8603 18.9697 19.7197C19.1103 19.579 19.3011 19.5 19.5 19.5H24C24.1989 19.5 24.3897 19.579 24.5303 19.7197C24.671 19.8603 24.75 20.0511 24.75 20.25C24.75 20.4489 24.671 20.6397 24.5303 20.7803C24.3897 20.921 24.1989 21 24 21H19.5C19.3011 21 19.1103 20.921 18.9697 20.7803C18.829 20.6397 18.75 20.4489 18.75 20.25ZM18.75 24C18.75 23.8011 18.829 23.6103 18.9697 23.4697C19.1103 23.329 19.3011 23.25 19.5 23.25H24C24.1989 23.25 24.3897 23.329 24.5303 23.4697C24.671 23.6103 24.75 23.8011 24.75 24C24.75 24.1989 24.671 24.3897 24.5303 24.5303C24.3897 24.671 24.1989 24.75 24 24.75H19.5C19.3011 24.75 19.1103 24.671 18.9697 24.5303C18.829 24.3897 18.75 24.1989 18.75 24ZM19.5 27C19.3011 27 19.1103 27.079 18.9697 27.2197C18.829 27.3603 18.75 27.5511 18.75 27.75C18.75 27.9489 18.829 28.1397 18.9697 28.2803C19.1103 28.421 19.3011 28.5 19.5 28.5H21.75C21.9489 28.5 22.1397 28.421 22.2803 28.2803C22.421 28.1397 22.5 27.9489 22.5 27.75C22.5 27.5511 22.421 27.3603 22.2803 27.2197C22.1397 27.079 21.9489 27 21.75 27H19.5Z" fill="black" fill-opacity="0.2"/>
<path d="M17.625 15C16.9288 15 16.2611 15.2766 15.7688 15.7688C15.2766 16.2611 15 16.9288 15 17.625V29.25C15 30.2446 15.3951 31.1984 16.0983 31.9016C16.8016 32.6049 17.7554 33 18.75 33H29.25C30.2446 33 31.1984 32.6049 31.9016 31.9016C32.6049 31.1984 33 30.2446 33 29.25V27H28.5V17.625C28.5 16.9288 28.2234 16.2611 27.7312 15.7688C27.2389 15.2766 26.5712 15 25.875 15H17.625ZM28.5 28.5H31.5V29.25C31.5 29.8467 31.2629 30.419 30.841 30.841C30.419 31.2629 29.8467 31.5 29.25 31.5H28.5V28.5ZM16.5 17.625C16.5 17.3266 16.6185 17.0405 16.8295 16.8295C17.0405 16.6185 17.3266 16.5 17.625 16.5H25.875C26.1734 16.5 26.4595 16.6185 26.6705 16.8295C26.8815 17.0405 27 17.3266 27 17.625V31.5H18.75C18.1533 31.5 17.581 31.2629 17.159 30.841C16.7371 30.419 16.5 29.8467 16.5 29.25V17.625ZM18.75 20.25C18.75 20.0511 18.829 19.8603 18.9697 19.7197C19.1103 19.579 19.3011 19.5 19.5 19.5H24C24.1989 19.5 24.3897 19.579 24.5303 19.7197C24.671 19.8603 24.75 20.0511 24.75 20.25C24.75 20.4489 24.671 20.6397 24.5303 20.7803C24.3897 20.921 24.1989 21 24 21H19.5C19.3011 21 19.1103 20.921 18.9697 20.7803C18.829 20.6397 18.75 20.4489 18.75 20.25ZM18.75 24C18.75 23.8011 18.829 23.6103 18.9697 23.4697C19.1103 23.329 19.3011 23.25 19.5 23.25H24C24.1989 23.25 24.3897 23.329 24.5303 23.4697C24.671 23.6103 24.75 23.8011 24.75 24C24.75 24.1989 24.671 24.3897 24.5303 24.5303C24.3897 24.671 24.1989 24.75 24 24.75H19.5C19.3011 24.75 19.1103 24.671 18.9697 24.5303C18.829 24.3897 18.75 24.1989 18.75 24ZM19.5 27C19.3011 27 19.1103 27.079 18.9697 27.2197C18.829 27.3603 18.75 27.5511 18.75 27.75C18.75 27.9489 18.829 28.1397 18.9697 28.2803C19.1103 28.421 19.3011 28.5 19.5 28.5H21.75C21.9489 28.5 22.1397 28.421 22.2803 28.2803C22.421 28.1397 22.5 27.9489 22.5 27.75C22.5 27.5511 22.421 27.3603 22.2803 27.2197C22.1397 27.079 21.9489 27 21.75 27H19.5Z" fill="black" fill-opacity="0.2"/>
<path d="M17.625 15C16.9288 15 16.2611 15.2766 15.7688 15.7688C15.2766 16.2611 15 16.9288 15 17.625V29.25C15 30.2446 15.3951 31.1984 16.0983 31.9016C16.8016 32.6049 17.7554 33 18.75 33H29.25C30.2446 33 31.1984 32.6049 31.9016 31.9016C32.6049 31.1984 33 30.2446 33 29.25V27H28.5V17.625C28.5 16.9288 28.2234 16.2611 27.7312 15.7688C27.2389 15.2766 26.5712 15 25.875 15H17.625ZM28.5 28.5H31.5V29.25C31.5 29.8467 31.2629 30.419 30.841 30.841C30.419 31.2629 29.8467 31.5 29.25 31.5H28.5V28.5ZM16.5 17.625C16.5 17.3266 16.6185 17.0405 16.8295 16.8295C17.0405 16.6185 17.3266 16.5 17.625 16.5H25.875C26.1734 16.5 26.4595 16.6185 26.6705 16.8295C26.8815 17.0405 27 17.3266 27 17.625V31.5H18.75C18.1533 31.5 17.581 31.2629 17.159 30.841C16.7371 30.419 16.5 29.8467 16.5 29.25V17.625ZM18.75 20.25C18.75 20.0511 18.829 19.8603 18.9697 19.7197C19.1103 19.579 19.3011 19.5 19.5 19.5H24C24.1989 19.5 24.3897 19.579 24.5303 19.7197C24.671 19.8603 24.75 20.0511 24.75 20.25C24.75 20.4489 24.671 20.6397 24.5303 20.7803C24.3897 20.921 24.1989 21 24 21H19.5C19.3011 21 19.1103 20.921 18.9697 20.7803C18.829 20.6397 18.75 20.4489 18.75 20.25ZM18.75 24C18.75 23.8011 18.829 23.6103 18.9697 23.4697C19.1103 23.329 19.3011 23.25 19.5 23.25H24C24.1989 23.25 24.3897 23.329 24.5303 23.4697C24.671 23.6103 24.75 23.8011 24.75 24C24.75 24.1989 24.671 24.3897 24.5303 24.5303C24.3897 24.671 24.1989 24.75 24 24.75H19.5C19.3011 24.75 19.1103 24.671 18.9697 24.5303C18.829 24.3897 18.75 24.1989 18.75 24ZM19.5 27C19.3011 27 19.1103 27.079 18.9697 27.2197C18.829 27.3603 18.75 27.5511 18.75 27.75C18.75 27.9489 18.829 28.1397 18.9697 28.2803C19.1103 28.421 19.3011 28.5 19.5 28.5H21.75C21.9489 28.5 22.1397 28.421 22.2803 28.2803C22.421 28.1397 22.5 27.9489 22.5 27.75C22.5 27.5511 22.421 27.3603 22.2803 27.2197C22.1397 27.079 21.9489 27 21.75 27H19.5Z" fill="black" fill-opacity="0.2"/>
<path d="M17.625 15C16.9288 15 16.2611 15.2766 15.7688 15.7688C15.2766 16.2611 15 16.9288 15 17.625V29.25C15 30.2446 15.3951 31.1984 16.0983 31.9016C16.8016 32.6049 17.7554 33 18.75 33H29.25C30.2446 33 31.1984 32.6049 31.9016 31.9016C32.6049 31.1984 33 30.2446 33 29.25V27H28.5V17.625C28.5 16.9288 28.2234 16.2611 27.7312 15.7688C27.2389 15.2766 26.5712 15 25.875 15H17.625ZM28.5 28.5H31.5V29.25C31.5 29.8467 31.2629 30.419 30.841 30.841C30.419 31.2629 29.8467 31.5 29.25 31.5H28.5V28.5ZM16.5 17.625C16.5 17.3266 16.6185 17.0405 16.8295 16.8295C17.0405 16.6185 17.3266 16.5 17.625 16.5H25.875C26.1734 16.5 26.4595 16.6185 26.6705 16.8295C26.8815 17.0405 27 17.3266 27 17.625V31.5H18.75C18.1533 31.5 17.581 31.2629 17.159 30.841C16.7371 30.419 16.5 29.8467 16.5 29.25V17.625ZM18.75 20.25C18.75 20.0511 18.829 19.8603 18.9697 19.7197C19.1103 19.579 19.3011 19.5 19.5 19.5H24C24.1989 19.5 24.3897 19.579 24.5303 19.7197C24.671 19.8603 24.75 20.0511 24.75 20.25C24.75 20.4489 24.671 20.6397 24.5303 20.7803C24.3897 20.921 24.1989 21 24 21H19.5C19.3011 21 19.1103 20.921 18.9697 20.7803C18.829 20.6397 18.75 20.4489 18.75 20.25ZM18.75 24C18.75 23.8011 18.829 23.6103 18.9697 23.4697C19.1103 23.329 19.3011 23.25 19.5 23.25H24C24.1989 23.25 24.3897 23.329 24.5303 23.4697C24.671 23.6103 24.75 23.8011 24.75 24C24.75 24.1989 24.671 24.3897 24.5303 24.5303C24.3897 24.671 24.1989 24.75 24 24.75H19.5C19.3011 24.75 19.1103 24.671 18.9697 24.5303C18.829 24.3897 18.75 24.1989 18.75 24ZM19.5 27C19.3011 27 19.1103 27.079 18.9697 27.2197C18.829 27.3603 18.75 27.5511 18.75 27.75C18.75 27.9489 18.829 28.1397 18.9697 28.2803C19.1103 28.421 19.3011 28.5 19.5 28.5H21.75C21.9489 28.5 22.1397 28.421 22.2803 28.2803C22.421 28.1397 22.5 27.9489 22.5 27.75C22.5 27.5511 22.421 27.3603 22.2803 27.2197C22.1397 27.079 21.9489 27 21.75 27H19.5Z" fill="black" fill-opacity="0.2"/>
<path d="M17.625 15C16.9288 15 16.2611 15.2766 15.7688 15.7688C15.2766 16.2611 15 16.9288 15 17.625V29.25C15 30.2446 15.3951 31.1984 16.0983 31.9016C16.8016 32.6049 17.7554 33 18.75 33H29.25C30.2446 33 31.1984 32.6049 31.9016 31.9016C32.6049 31.1984 33 30.2446 33 29.25V27H28.5V17.625C28.5 16.9288 28.2234 16.2611 27.7312 15.7688C27.2389 15.2766 26.5712 15 25.875 15H17.625ZM28.5 28.5H31.5V29.25C31.5 29.8467 31.2629 30.419 30.841 30.841C30.419 31.2629 29.8467 31.5 29.25 31.5H28.5V28.5ZM16.5 17.625C16.5 17.3266 16.6185 17.0405 16.8295 16.8295C17.0405 16.6185 17.3266 16.5 17.625 16.5H25.875C26.1734 16.5 26.4595 16.6185 26.6705 16.8295C26.8815 17.0405 27 17.3266 27 17.625V31.5H18.75C18.1533 31.5 17.581 31.2629 17.159 30.841C16.7371 30.419 16.5 29.8467 16.5 29.25V17.625ZM18.75 20.25C18.75 20.0511 18.829 19.8603 18.9697 19.7197C19.1103 19.579 19.3011 19.5 19.5 19.5H24C24.1989 19.5 24.3897 19.579 24.5303 19.7197C24.671 19.8603 24.75 20.0511 24.75 20.25C24.75 20.4489 24.671 20.6397 24.5303 20.7803C24.3897 20.921 24.1989 21 24 21H19.5C19.3011 21 19.1103 20.921 18.9697 20.7803C18.829 20.6397 18.75 20.4489 18.75 20.25ZM18.75 24C18.75 23.8011 18.829 23.6103 18.9697 23.4697C19.1103 23.329 19.3011 23.25 19.5 23.25H24C24.1989 23.25 24.3897 23.329 24.5303 23.4697C24.671 23.6103 24.75 23.8011 24.75 24C24.75 24.1989 24.671 24.3897 24.5303 24.5303C24.3897 24.671 24.1989 24.75 24 24.75H19.5C19.3011 24.75 19.1103 24.671 18.9697 24.5303C18.829 24.3897 18.75 24.1989 18.75 24ZM19.5 27C19.3011 27 19.1103 27.079 18.9697 27.2197C18.829 27.3603 18.75 27.5511 18.75 27.75C18.75 27.9489 18.829 28.1397 18.9697 28.2803C19.1103 28.421 19.3011 28.5 19.5 28.5H21.75C21.9489 28.5 22.1397 28.421 22.2803 28.2803C22.421 28.1397 22.5 27.9489 22.5 27.75C22.5 27.5511 22.421 27.3603 22.2803 27.2197C22.1397 27.079 21.9489 27 21.75 27H19.5Z" fill="black" fill-opacity="0.2"/>
</svg>
