<svg width="48" height="48" viewBox="0 0 48 48" fill="none" xmlns="http://www.w3.org/2000/svg">
<rect width="48" height="48" rx="12" fill="#F8EFE4"/>
<path d="M27.1111 16.8018C28.8028 16.8126 29.719 16.8999 30.3163 17.5911C31 18.3822 31 19.6548 31 22.2V27.6C31 30.1461 31 31.4187 30.3163 32.2098C29.6334 33 28.5329 33 26.3333 33H21.6667C19.4671 33 18.3666 33 17.6837 32.2098C17 31.4178 17 30.1461 17 27.6V22.2C17 19.6548 17 18.3822 17.6837 17.5911C18.281 16.8999 19.1972 16.8126 20.8889 16.8018" stroke="#2D2D2D" stroke-width="1.5"/>
<path d="M27.1111 16.8018C28.8028 16.8126 29.719 16.8999 30.3163 17.5911C31 18.3822 31 19.6548 31 22.2V27.6C31 30.1461 31 31.4187 30.3163 32.2098C29.6334 33 28.5329 33 26.3333 33H21.6667C19.4671 33 18.3666 33 17.6837 32.2098C17 31.4178 17 30.1461 17 27.6V22.2C17 19.6548 17 18.3822 17.6837 17.5911C18.281 16.8999 19.1972 16.8126 20.8889 16.8018" stroke="black" stroke-opacity="0.2" stroke-width="1.5"/>
<path d="M27.1111 16.8018C28.8028 16.8126 29.719 16.8999 30.3163 17.5911C31 18.3822 31 19.6548 31 22.2V27.6C31 30.1461 31 31.4187 30.3163 32.2098C29.6334 33 28.5329 33 26.3333 33H21.6667C19.4671 33 18.3666 33 17.6837 32.2098C17 31.4178 17 30.1461 17 27.6V22.2C17 19.6548 17 18.3822 17.6837 17.5911C18.281 16.8999 19.1972 16.8126 20.8889 16.8018" stroke="black" stroke-opacity="0.2" stroke-width="1.5"/>
<path d="M27.1111 16.8018C28.8028 16.8126 29.719 16.8999 30.3163 17.5911C31 18.3822 31 19.6548 31 22.2V27.6C31 30.1461 31 31.4187 30.3163 32.2098C29.6334 33 28.5329 33 26.3333 33H21.6667C19.4671 33 18.3666 33 17.6837 32.2098C17 31.4178 17 30.1461 17 27.6V22.2C17 19.6548 17 18.3822 17.6837 17.5911C18.281 16.8999 19.1972 16.8126 20.8889 16.8018" stroke="black" stroke-opacity="0.2" stroke-width="1.5"/>
<path d="M27.1111 16.8018C28.8028 16.8126 29.719 16.8999 30.3163 17.5911C31 18.3822 31 19.6548 31 22.2V27.6C31 30.1461 31 31.4187 30.3163 32.2098C29.6334 33 28.5329 33 26.3333 33H21.6667C19.4671 33 18.3666 33 17.6837 32.2098C17 31.4178 17 30.1461 17 27.6V22.2C17 19.6548 17 18.3822 17.6837 17.5911C18.281 16.8999 19.1972 16.8126 20.8889 16.8018" stroke="black" stroke-opacity="0.2" stroke-width="1.5"/>
<path d="M27.1111 16.8018C28.8028 16.8126 29.719 16.8999 30.3163 17.5911C31 18.3822 31 19.6548 31 22.2V27.6C31 30.1461 31 31.4187 30.3163 32.2098C29.6334 33 28.5329 33 26.3333 33H21.6667C19.4671 33 18.3666 33 17.6837 32.2098C17 31.4178 17 30.1461 17 27.6V22.2C17 19.6548 17 18.3822 17.6837 17.5911C18.281 16.8999 19.1972 16.8126 20.8889 16.8018" stroke="black" stroke-opacity="0.2" stroke-width="1.5"/>
<path d="M27.1111 16.8018C28.8028 16.8126 29.719 16.8999 30.3163 17.5911C31 18.3822 31 19.6548 31 22.2V27.6C31 30.1461 31 31.4187 30.3163 32.2098C29.6334 33 28.5329 33 26.3333 33H21.6667C19.4671 33 18.3666 33 17.6837 32.2098C17 31.4178 17 30.1461 17 27.6V22.2C17 19.6548 17 18.3822 17.6837 17.5911C18.281 16.8999 19.1972 16.8126 20.8889 16.8018" stroke="black" stroke-opacity="0.2" stroke-width="1.5"/>
<path d="M20.8889 25.7999H27.1111M20.1111 22.6499H27.8889M21.6666 28.9499H26.3333" stroke="#2D2D2D" stroke-width="1.5" stroke-linecap="round"/>
<path d="M20.8889 25.7999H27.1111M20.1111 22.6499H27.8889M21.6666 28.9499H26.3333" stroke="black" stroke-opacity="0.2" stroke-width="1.5" stroke-linecap="round"/>
<path d="M20.8889 25.7999H27.1111M20.1111 22.6499H27.8889M21.6666 28.9499H26.3333" stroke="black" stroke-opacity="0.2" stroke-width="1.5" stroke-linecap="round"/>
<path d="M20.8889 25.7999H27.1111M20.1111 22.6499H27.8889M21.6666 28.9499H26.3333" stroke="black" stroke-opacity="0.2" stroke-width="1.5" stroke-linecap="round"/>
<path d="M20.8889 25.7999H27.1111M20.1111 22.6499H27.8889M21.6666 28.9499H26.3333" stroke="black" stroke-opacity="0.2" stroke-width="1.5" stroke-linecap="round"/>
<path d="M20.8889 25.7999H27.1111M20.1111 22.6499H27.8889M21.6666 28.9499H26.3333" stroke="black" stroke-opacity="0.2" stroke-width="1.5" stroke-linecap="round"/>
<path d="M20.8889 25.7999H27.1111M20.1111 22.6499H27.8889M21.6666 28.9499H26.3333" stroke="black" stroke-opacity="0.2" stroke-width="1.5" stroke-linecap="round"/>
<path d="M20.8889 16.35C20.8889 15.992 21.0118 15.6486 21.2306 15.3954C21.4494 15.1422 21.7462 15 22.0556 15H25.9445C26.2539 15 26.5506 15.1422 26.7694 15.3954C26.9882 15.6486 27.1111 15.992 27.1111 16.35V17.25C27.1111 17.608 26.9882 17.9514 26.7694 18.2046C26.5506 18.4578 26.2539 18.6 25.9445 18.6H22.0556C21.7462 18.6 21.4494 18.4578 21.2306 18.2046C21.0118 17.9514 20.8889 17.608 20.8889 17.25V16.35Z" stroke="#2D2D2D" stroke-width="1.5"/>
<path d="M20.8889 16.35C20.8889 15.992 21.0118 15.6486 21.2306 15.3954C21.4494 15.1422 21.7462 15 22.0556 15H25.9445C26.2539 15 26.5506 15.1422 26.7694 15.3954C26.9882 15.6486 27.1111 15.992 27.1111 16.35V17.25C27.1111 17.608 26.9882 17.9514 26.7694 18.2046C26.5506 18.4578 26.2539 18.6 25.9445 18.6H22.0556C21.7462 18.6 21.4494 18.4578 21.2306 18.2046C21.0118 17.9514 20.8889 17.608 20.8889 17.25V16.35Z" stroke="black" stroke-opacity="0.2" stroke-width="1.5"/>
<path d="M20.8889 16.35C20.8889 15.992 21.0118 15.6486 21.2306 15.3954C21.4494 15.1422 21.7462 15 22.0556 15H25.9445C26.2539 15 26.5506 15.1422 26.7694 15.3954C26.9882 15.6486 27.1111 15.992 27.1111 16.35V17.25C27.1111 17.608 26.9882 17.9514 26.7694 18.2046C26.5506 18.4578 26.2539 18.6 25.9445 18.6H22.0556C21.7462 18.6 21.4494 18.4578 21.2306 18.2046C21.0118 17.9514 20.8889 17.608 20.8889 17.25V16.35Z" stroke="black" stroke-opacity="0.2" stroke-width="1.5"/>
<path d="M20.8889 16.35C20.8889 15.992 21.0118 15.6486 21.2306 15.3954C21.4494 15.1422 21.7462 15 22.0556 15H25.9445C26.2539 15 26.5506 15.1422 26.7694 15.3954C26.9882 15.6486 27.1111 15.992 27.1111 16.35V17.25C27.1111 17.608 26.9882 17.9514 26.7694 18.2046C26.5506 18.4578 26.2539 18.6 25.9445 18.6H22.0556C21.7462 18.6 21.4494 18.4578 21.2306 18.2046C21.0118 17.9514 20.8889 17.608 20.8889 17.25V16.35Z" stroke="black" stroke-opacity="0.2" stroke-width="1.5"/>
<path d="M20.8889 16.35C20.8889 15.992 21.0118 15.6486 21.2306 15.3954C21.4494 15.1422 21.7462 15 22.0556 15H25.9445C26.2539 15 26.5506 15.1422 26.7694 15.3954C26.9882 15.6486 27.1111 15.992 27.1111 16.35V17.25C27.1111 17.608 26.9882 17.9514 26.7694 18.2046C26.5506 18.4578 26.2539 18.6 25.9445 18.6H22.0556C21.7462 18.6 21.4494 18.4578 21.2306 18.2046C21.0118 17.9514 20.8889 17.608 20.8889 17.25V16.35Z" stroke="black" stroke-opacity="0.2" stroke-width="1.5"/>
<path d="M20.8889 16.35C20.8889 15.992 21.0118 15.6486 21.2306 15.3954C21.4494 15.1422 21.7462 15 22.0556 15H25.9445C26.2539 15 26.5506 15.1422 26.7694 15.3954C26.9882 15.6486 27.1111 15.992 27.1111 16.35V17.25C27.1111 17.608 26.9882 17.9514 26.7694 18.2046C26.5506 18.4578 26.2539 18.6 25.9445 18.6H22.0556C21.7462 18.6 21.4494 18.4578 21.2306 18.2046C21.0118 17.9514 20.8889 17.608 20.8889 17.25V16.35Z" stroke="black" stroke-opacity="0.2" stroke-width="1.5"/>
<path d="M20.8889 16.35C20.8889 15.992 21.0118 15.6486 21.2306 15.3954C21.4494 15.1422 21.7462 15 22.0556 15H25.9445C26.2539 15 26.5506 15.1422 26.7694 15.3954C26.9882 15.6486 27.1111 15.992 27.1111 16.35V17.25C27.1111 17.608 26.9882 17.9514 26.7694 18.2046C26.5506 18.4578 26.2539 18.6 25.9445 18.6H22.0556C21.7462 18.6 21.4494 18.4578 21.2306 18.2046C21.0118 17.9514 20.8889 17.608 20.8889 17.25V16.35Z" stroke="black" stroke-opacity="0.2" stroke-width="1.5"/>
</svg>
