<svg width="18" height="20" viewBox="0 0 18 20" fill="none" xmlns="http://www.w3.org/2000/svg">
<path fill-rule="evenodd" clip-rule="evenodd" d="M8.9999 6.18945C8.12049 6.18945 7.2771 6.5388 6.65526 7.16063C6.03343 7.78247 5.68408 8.62586 5.68408 9.50527C5.68408 10.3847 6.03343 11.2281 6.65526 11.8499C7.2771 12.4717 8.12049 12.8211 8.9999 12.8211C9.87931 12.8211 10.7227 12.4717 11.3445 11.8499C11.9664 11.2281 12.3157 10.3847 12.3157 9.50527C12.3157 8.62586 11.9664 7.78247 11.3445 7.16063C10.7227 6.5388 9.87931 6.18945 8.9999 6.18945ZM7.01041 9.50527C7.01041 8.97762 7.22002 8.47159 7.59312 8.09849C7.96622 7.72539 8.47225 7.51578 8.9999 7.51578C9.52755 7.51578 10.0336 7.72539 10.4067 8.09849C10.7798 8.47159 10.9894 8.97762 10.9894 9.50527C10.9894 10.0329 10.7798 10.539 10.4067 10.9121C10.0336 11.2852 9.52755 11.4948 8.9999 11.4948C8.47225 11.4948 7.96622 11.2852 7.59312 10.9121C7.22002 10.539 7.01041 10.0329 7.01041 9.50527Z" fill="#2D2D2D"/>
<path fill-rule="evenodd" clip-rule="evenodd" d="M8.9999 6.18945C8.12049 6.18945 7.2771 6.5388 6.65526 7.16063C6.03343 7.78247 5.68408 8.62586 5.68408 9.50527C5.68408 10.3847 6.03343 11.2281 6.65526 11.8499C7.2771 12.4717 8.12049 12.8211 8.9999 12.8211C9.87931 12.8211 10.7227 12.4717 11.3445 11.8499C11.9664 11.2281 12.3157 10.3847 12.3157 9.50527C12.3157 8.62586 11.9664 7.78247 11.3445 7.16063C10.7227 6.5388 9.87931 6.18945 8.9999 6.18945ZM7.01041 9.50527C7.01041 8.97762 7.22002 8.47159 7.59312 8.09849C7.96622 7.72539 8.47225 7.51578 8.9999 7.51578C9.52755 7.51578 10.0336 7.72539 10.4067 8.09849C10.7798 8.47159 10.9894 8.97762 10.9894 9.50527C10.9894 10.0329 10.7798 10.539 10.4067 10.9121C10.0336 11.2852 9.52755 11.4948 8.9999 11.4948C8.47225 11.4948 7.96622 11.2852 7.59312 10.9121C7.22002 10.539 7.01041 10.0329 7.01041 9.50527Z" fill="black" fill-opacity="0.2"/>
<path fill-rule="evenodd" clip-rule="evenodd" d="M8.9999 6.18945C8.12049 6.18945 7.2771 6.5388 6.65526 7.16063C6.03343 7.78247 5.68408 8.62586 5.68408 9.50527C5.68408 10.3847 6.03343 11.2281 6.65526 11.8499C7.2771 12.4717 8.12049 12.8211 8.9999 12.8211C9.87931 12.8211 10.7227 12.4717 11.3445 11.8499C11.9664 11.2281 12.3157 10.3847 12.3157 9.50527C12.3157 8.62586 11.9664 7.78247 11.3445 7.16063C10.7227 6.5388 9.87931 6.18945 8.9999 6.18945ZM7.01041 9.50527C7.01041 8.97762 7.22002 8.47159 7.59312 8.09849C7.96622 7.72539 8.47225 7.51578 8.9999 7.51578C9.52755 7.51578 10.0336 7.72539 10.4067 8.09849C10.7798 8.47159 10.9894 8.97762 10.9894 9.50527C10.9894 10.0329 10.7798 10.539 10.4067 10.9121C10.0336 11.2852 9.52755 11.4948 8.9999 11.4948C8.47225 11.4948 7.96622 11.2852 7.59312 10.9121C7.22002 10.539 7.01041 10.0329 7.01041 9.50527Z" fill="black" fill-opacity="0.2"/>
<path fill-rule="evenodd" clip-rule="evenodd" d="M8.9999 6.18945C8.12049 6.18945 7.2771 6.5388 6.65526 7.16063C6.03343 7.78247 5.68408 8.62586 5.68408 9.50527C5.68408 10.3847 6.03343 11.2281 6.65526 11.8499C7.2771 12.4717 8.12049 12.8211 8.9999 12.8211C9.87931 12.8211 10.7227 12.4717 11.3445 11.8499C11.9664 11.2281 12.3157 10.3847 12.3157 9.50527C12.3157 8.62586 11.9664 7.78247 11.3445 7.16063C10.7227 6.5388 9.87931 6.18945 8.9999 6.18945ZM7.01041 9.50527C7.01041 8.97762 7.22002 8.47159 7.59312 8.09849C7.96622 7.72539 8.47225 7.51578 8.9999 7.51578C9.52755 7.51578 10.0336 7.72539 10.4067 8.09849C10.7798 8.47159 10.9894 8.97762 10.9894 9.50527C10.9894 10.0329 10.7798 10.539 10.4067 10.9121C10.0336 11.2852 9.52755 11.4948 8.9999 11.4948C8.47225 11.4948 7.96622 11.2852 7.59312 10.9121C7.22002 10.539 7.01041 10.0329 7.01041 9.50527Z" fill="black" fill-opacity="0.2"/>
<path fill-rule="evenodd" clip-rule="evenodd" d="M8.9999 6.18945C8.12049 6.18945 7.2771 6.5388 6.65526 7.16063C6.03343 7.78247 5.68408 8.62586 5.68408 9.50527C5.68408 10.3847 6.03343 11.2281 6.65526 11.8499C7.2771 12.4717 8.12049 12.8211 8.9999 12.8211C9.87931 12.8211 10.7227 12.4717 11.3445 11.8499C11.9664 11.2281 12.3157 10.3847 12.3157 9.50527C12.3157 8.62586 11.9664 7.78247 11.3445 7.16063C10.7227 6.5388 9.87931 6.18945 8.9999 6.18945ZM7.01041 9.50527C7.01041 8.97762 7.22002 8.47159 7.59312 8.09849C7.96622 7.72539 8.47225 7.51578 8.9999 7.51578C9.52755 7.51578 10.0336 7.72539 10.4067 8.09849C10.7798 8.47159 10.9894 8.97762 10.9894 9.50527C10.9894 10.0329 10.7798 10.539 10.4067 10.9121C10.0336 11.2852 9.52755 11.4948 8.9999 11.4948C8.47225 11.4948 7.96622 11.2852 7.59312 10.9121C7.22002 10.539 7.01041 10.0329 7.01041 9.50527Z" fill="black" fill-opacity="0.2"/>
<path fill-rule="evenodd" clip-rule="evenodd" d="M8.9999 6.18945C8.12049 6.18945 7.2771 6.5388 6.65526 7.16063C6.03343 7.78247 5.68408 8.62586 5.68408 9.50527C5.68408 10.3847 6.03343 11.2281 6.65526 11.8499C7.2771 12.4717 8.12049 12.8211 8.9999 12.8211C9.87931 12.8211 10.7227 12.4717 11.3445 11.8499C11.9664 11.2281 12.3157 10.3847 12.3157 9.50527C12.3157 8.62586 11.9664 7.78247 11.3445 7.16063C10.7227 6.5388 9.87931 6.18945 8.9999 6.18945ZM7.01041 9.50527C7.01041 8.97762 7.22002 8.47159 7.59312 8.09849C7.96622 7.72539 8.47225 7.51578 8.9999 7.51578C9.52755 7.51578 10.0336 7.72539 10.4067 8.09849C10.7798 8.47159 10.9894 8.97762 10.9894 9.50527C10.9894 10.0329 10.7798 10.539 10.4067 10.9121C10.0336 11.2852 9.52755 11.4948 8.9999 11.4948C8.47225 11.4948 7.96622 11.2852 7.59312 10.9121C7.22002 10.539 7.01041 10.0329 7.01041 9.50527Z" fill="black" fill-opacity="0.2"/>
<path fill-rule="evenodd" clip-rule="evenodd" d="M8.9999 6.18945C8.12049 6.18945 7.2771 6.5388 6.65526 7.16063C6.03343 7.78247 5.68408 8.62586 5.68408 9.50527C5.68408 10.3847 6.03343 11.2281 6.65526 11.8499C7.2771 12.4717 8.12049 12.8211 8.9999 12.8211C9.87931 12.8211 10.7227 12.4717 11.3445 11.8499C11.9664 11.2281 12.3157 10.3847 12.3157 9.50527C12.3157 8.62586 11.9664 7.78247 11.3445 7.16063C10.7227 6.5388 9.87931 6.18945 8.9999 6.18945ZM7.01041 9.50527C7.01041 8.97762 7.22002 8.47159 7.59312 8.09849C7.96622 7.72539 8.47225 7.51578 8.9999 7.51578C9.52755 7.51578 10.0336 7.72539 10.4067 8.09849C10.7798 8.47159 10.9894 8.97762 10.9894 9.50527C10.9894 10.0329 10.7798 10.539 10.4067 10.9121C10.0336 11.2852 9.52755 11.4948 8.9999 11.4948C8.47225 11.4948 7.96622 11.2852 7.59312 10.9121C7.22002 10.539 7.01041 10.0329 7.01041 9.50527Z" fill="black" fill-opacity="0.2"/>
<path fill-rule="evenodd" clip-rule="evenodd" d="M8.97789 0C8.58442 0 8.25637 -1.64698e-08 7.98757 0.0176843C7.71277 0.0287515 7.44173 0.0855295 7.18559 0.185686C6.89048 0.307787 6.62231 0.486827 6.39641 0.71258C6.1705 0.938333 5.99128 1.20638 5.86898 1.5014C5.74077 1.81088 5.70629 2.13804 5.69214 2.49349C5.69056 2.62346 5.65608 2.75091 5.59191 2.86393C5.52774 2.97696 5.43598 3.07189 5.32519 3.13986C5.21097 3.20204 5.08285 3.23425 4.95281 3.23347C4.82276 3.2327 4.69503 3.19897 4.58156 3.13544C4.26678 2.9692 3.96615 2.83569 3.63368 2.79148C3.31708 2.74983 2.99538 2.77095 2.68695 2.85364C2.37851 2.93632 2.08938 3.07895 1.83607 3.27338C1.62155 3.44534 1.43717 3.65183 1.2905 3.88437C1.14019 4.10896 0.975722 4.3928 0.779426 4.73322L0.75732 4.77212C0.560139 5.11255 0.396559 5.39638 0.278074 5.63866C0.154283 5.89154 0.0570194 6.14089 0.0216507 6.41677C-0.0627034 7.05605 0.11032 7.70266 0.502665 8.21439C0.70692 8.48053 0.973069 8.67418 1.2737 8.8634C1.38567 8.92979 1.47897 9.02351 1.54485 9.13578C1.61073 9.24806 1.64704 9.37521 1.65038 9.50534C1.64704 9.63547 1.61073 9.76263 1.54485 9.8749C1.47897 9.98718 1.38567 10.0809 1.2737 10.1473C0.973069 10.3365 0.707804 10.5302 0.502665 10.7963C0.308241 11.0496 0.165614 11.3387 0.0829297 11.6472C0.000245315 11.9556 -0.0208777 12.2773 0.0207666 12.5939C0.0570195 12.8698 0.153399 13.1191 0.27719 13.372C0.396559 13.6143 0.560139 13.8981 0.75732 14.2386L0.779426 14.2775C0.975722 14.6179 1.14019 14.9017 1.2905 15.1263C1.44701 15.3589 1.61501 15.5684 1.83607 15.7364C2.08931 15.931 2.37841 16.0738 2.68685 16.1566C2.99529 16.2395 3.31702 16.2607 3.63368 16.2192C3.96615 16.175 4.26678 16.0424 4.58156 15.8752C4.69493 15.8119 4.82249 15.7782 4.95237 15.7775C5.08224 15.7767 5.2102 15.8088 5.32431 15.8708C5.436 15.9379 5.52856 16.0326 5.59313 16.1458C5.6577 16.259 5.6921 16.3869 5.69303 16.5172C5.70629 16.8726 5.74077 17.1998 5.86987 17.5093C5.99197 17.8044 6.17101 18.0726 6.39676 18.2985C6.62252 18.5244 6.89056 18.7036 7.18559 18.8259C7.44201 18.932 7.70727 18.9735 7.98757 18.9921C8.25637 19.0107 8.58442 19.0107 8.97789 19.0107H9.02211C9.41558 19.0107 9.74363 19.0107 10.0124 18.993C10.2936 18.9735 10.558 18.932 10.8144 18.825C11.1095 18.7029 11.3777 18.5239 11.6036 18.2981C11.8295 18.0724 12.0087 17.8043 12.131 17.5093C12.2592 17.1998 12.2937 16.8726 12.3079 16.5172C12.3093 16.3871 12.3437 16.2595 12.4079 16.1463C12.4721 16.0331 12.5639 15.938 12.6748 15.8699C12.7891 15.8079 12.9173 15.7758 13.0473 15.7768C13.1774 15.7777 13.305 15.8116 13.4184 15.8752C13.7332 16.0415 14.0339 16.175 14.3663 16.2183C15.0056 16.3027 15.6522 16.1297 16.1639 15.7373C16.385 15.5675 16.553 15.3589 16.7095 15.1263C16.8598 14.9017 17.0243 14.6179 17.2206 14.2775L17.2427 14.2386C17.4399 13.8981 17.6034 13.6143 17.7219 13.372C17.8457 13.1191 17.943 12.8689 17.9783 12.5939C18.0627 11.9546 17.8897 11.308 17.4973 10.7963C17.2931 10.5302 17.0269 10.3365 16.7263 10.1473C16.6143 10.0809 16.521 9.98718 16.4552 9.8749C16.3893 9.76263 16.353 9.63547 16.3496 9.50534C16.3496 9.25953 16.484 9.01549 16.7263 8.8634C17.0269 8.67418 17.2922 8.48053 17.4973 8.21439C17.6918 7.96107 17.8344 7.67194 17.9171 7.36351C17.9998 7.05507 18.0209 6.73337 17.9792 6.41677C17.9376 6.14496 17.8509 5.88199 17.7228 5.63866C17.5718 5.3449 17.4117 5.05592 17.2427 4.77212L17.2206 4.73322C17.0591 4.44503 16.8886 4.16195 16.7095 3.88437C16.5627 3.65214 16.3784 3.44595 16.1639 3.27426C15.9107 3.07968 15.6216 2.93689 15.3131 2.85406C15.0047 2.77122 14.683 2.74996 14.3663 2.79148C14.0339 2.83569 13.7332 2.96832 13.4184 3.13544C13.3051 3.19881 13.1775 3.23246 13.0476 3.23323C12.9178 3.234 12.7898 3.20188 12.6757 3.13986C12.5646 3.07211 12.4725 2.97727 12.408 2.86423C12.3435 2.75118 12.3087 2.62363 12.307 2.49349C12.2937 2.13804 12.2592 1.81088 12.1301 1.5014C12.008 1.20629 11.829 0.93813 11.6032 0.712226C11.3775 0.486321 11.1094 0.307101 10.8144 0.184802C10.558 0.0786954 10.2927 0.0371372 10.0124 0.0185686C9.74363 2.47048e-08 9.41558 0 9.02211 0H8.97789ZM7.69313 1.41033C7.76121 1.38203 7.86466 1.35639 8.07776 1.34136C8.29616 1.32633 8.57911 1.32633 9 1.32633C9.42089 1.32633 9.70384 1.32633 9.92224 1.34136C10.1353 1.35639 10.2388 1.38203 10.3069 1.41033C10.5783 1.52262 10.7932 1.73749 10.9055 2.00894C10.9409 2.09383 10.97 2.22734 10.9815 2.54301C11.0081 3.24331 11.3697 3.91797 12.0116 4.28846C12.6536 4.65894 13.4184 4.63507 14.0383 4.30791C14.3177 4.16025 14.4477 4.11869 14.5396 4.10719C14.8301 4.0688 15.124 4.14736 15.3566 4.32559C15.415 4.37069 15.4893 4.44762 15.6086 4.62446C15.7316 4.80661 15.873 5.05154 16.0835 5.41583C16.2939 5.78013 16.4345 6.02595 16.5309 6.22224C16.6255 6.41412 16.6547 6.51669 16.6635 6.59008C16.7019 6.8806 16.6233 7.17448 16.4451 7.40709C16.3885 7.48048 16.2877 7.57244 16.0207 7.74044C15.4265 8.11358 15.0233 8.76437 15.0233 9.50534C15.0233 10.2463 15.4265 10.8971 16.0207 11.2702C16.2877 11.4382 16.3885 11.5302 16.4451 11.6036C16.6237 11.8361 16.7015 12.1297 16.6635 12.4206C16.6547 12.494 16.6246 12.5975 16.5309 12.7884C16.4345 12.9856 16.2939 13.2306 16.0835 13.5949C15.873 13.9591 15.7307 14.2041 15.6086 14.3862C15.4893 14.5631 15.415 14.64 15.3566 14.6851C15.124 14.8633 14.8301 14.9419 14.5396 14.9035C14.4477 14.892 14.3186 14.8504 14.0383 14.7028C13.4193 14.3756 12.6536 14.3509 12.0116 14.7213C11.3697 15.0918 11.0081 15.7674 10.9815 16.4677C10.97 16.7833 10.9409 16.9169 10.9055 17.0017C10.8499 17.136 10.7685 17.2579 10.6658 17.3606C10.5631 17.4634 10.4411 17.5448 10.3069 17.6004C10.2388 17.6287 10.1353 17.6543 9.92224 17.6693C9.70384 17.6844 9.42089 17.6844 9 17.6844C8.57911 17.6844 8.29616 17.6844 8.07776 17.6693C7.86466 17.6543 7.76121 17.6287 7.69313 17.6004C7.55891 17.5448 7.43695 17.4634 7.33423 17.3606C7.23152 17.2579 7.15006 17.136 7.09451 17.0017C7.05914 16.9169 7.02996 16.7833 7.01847 16.4677C6.99194 15.7674 6.6303 15.0927 5.98835 14.7222C5.34641 14.3517 4.58156 14.3756 3.96173 14.7028C3.68231 14.8504 3.55233 14.892 3.46037 14.9035C3.16985 14.9419 2.87597 14.8633 2.64336 14.6851C2.585 14.64 2.51072 14.5631 2.39136 14.3862C2.22502 14.1274 2.06667 13.8634 1.91653 13.5949C1.70609 13.2306 1.5655 12.9847 1.46912 12.7884C1.3745 12.5966 1.34532 12.494 1.33648 12.4206C1.29809 12.1301 1.37665 11.8362 1.55488 11.6036C1.61147 11.5302 1.71228 11.4382 1.97931 11.2702C2.5735 10.8971 2.97671 10.2463 2.97671 9.50534C2.97671 8.76437 2.5735 8.11358 1.97931 7.74044C1.71228 7.57244 1.61147 7.48048 1.55488 7.40709C1.37665 7.17448 1.29809 6.8806 1.33648 6.59008C1.34532 6.51669 1.37539 6.41323 1.46912 6.22224C1.5655 6.02506 1.70609 5.78013 1.91653 5.41583C2.12697 5.05154 2.26933 4.80661 2.39136 4.62446C2.51072 4.44762 2.585 4.37069 2.64336 4.32559C2.87597 4.14736 3.16985 4.0688 3.46037 4.10719C3.55233 4.11869 3.68143 4.16025 3.96173 4.30791C4.58068 4.63507 5.34641 4.65983 5.98835 4.28846C6.6303 3.91797 6.99194 3.24331 7.01847 2.54301C7.02996 2.22734 7.05914 2.09383 7.09451 2.00894C7.20681 1.73749 7.42167 1.52262 7.69313 1.41033Z" fill="#2D2D2D"/>
<path fill-rule="evenodd" clip-rule="evenodd" d="M8.97789 0C8.58442 0 8.25637 -1.64698e-08 7.98757 0.0176843C7.71277 0.0287515 7.44173 0.0855295 7.18559 0.185686C6.89048 0.307787 6.62231 0.486827 6.39641 0.71258C6.1705 0.938333 5.99128 1.20638 5.86898 1.5014C5.74077 1.81088 5.70629 2.13804 5.69214 2.49349C5.69056 2.62346 5.65608 2.75091 5.59191 2.86393C5.52774 2.97696 5.43598 3.07189 5.32519 3.13986C5.21097 3.20204 5.08285 3.23425 4.95281 3.23347C4.82276 3.2327 4.69503 3.19897 4.58156 3.13544C4.26678 2.9692 3.96615 2.83569 3.63368 2.79148C3.31708 2.74983 2.99538 2.77095 2.68695 2.85364C2.37851 2.93632 2.08938 3.07895 1.83607 3.27338C1.62155 3.44534 1.43717 3.65183 1.2905 3.88437C1.14019 4.10896 0.975722 4.3928 0.779426 4.73322L0.75732 4.77212C0.560139 5.11255 0.396559 5.39638 0.278074 5.63866C0.154283 5.89154 0.0570194 6.14089 0.0216507 6.41677C-0.0627034 7.05605 0.11032 7.70266 0.502665 8.21439C0.70692 8.48053 0.973069 8.67418 1.2737 8.8634C1.38567 8.92979 1.47897 9.02351 1.54485 9.13578C1.61073 9.24806 1.64704 9.37521 1.65038 9.50534C1.64704 9.63547 1.61073 9.76263 1.54485 9.8749C1.47897 9.98718 1.38567 10.0809 1.2737 10.1473C0.973069 10.3365 0.707804 10.5302 0.502665 10.7963C0.308241 11.0496 0.165614 11.3387 0.0829297 11.6472C0.000245315 11.9556 -0.0208777 12.2773 0.0207666 12.5939C0.0570195 12.8698 0.153399 13.1191 0.27719 13.372C0.396559 13.6143 0.560139 13.8981 0.75732 14.2386L0.779426 14.2775C0.975722 14.6179 1.14019 14.9017 1.2905 15.1263C1.44701 15.3589 1.61501 15.5684 1.83607 15.7364C2.08931 15.931 2.37841 16.0738 2.68685 16.1566C2.99529 16.2395 3.31702 16.2607 3.63368 16.2192C3.96615 16.175 4.26678 16.0424 4.58156 15.8752C4.69493 15.8119 4.82249 15.7782 4.95237 15.7775C5.08224 15.7767 5.2102 15.8088 5.32431 15.8708C5.436 15.9379 5.52856 16.0326 5.59313 16.1458C5.6577 16.259 5.6921 16.3869 5.69303 16.5172C5.70629 16.8726 5.74077 17.1998 5.86987 17.5093C5.99197 17.8044 6.17101 18.0726 6.39676 18.2985C6.62252 18.5244 6.89056 18.7036 7.18559 18.8259C7.44201 18.932 7.70727 18.9735 7.98757 18.9921C8.25637 19.0107 8.58442 19.0107 8.97789 19.0107H9.02211C9.41558 19.0107 9.74363 19.0107 10.0124 18.993C10.2936 18.9735 10.558 18.932 10.8144 18.825C11.1095 18.7029 11.3777 18.5239 11.6036 18.2981C11.8295 18.0724 12.0087 17.8043 12.131 17.5093C12.2592 17.1998 12.2937 16.8726 12.3079 16.5172C12.3093 16.3871 12.3437 16.2595 12.4079 16.1463C12.4721 16.0331 12.5639 15.938 12.6748 15.8699C12.7891 15.8079 12.9173 15.7758 13.0473 15.7768C13.1774 15.7777 13.305 15.8116 13.4184 15.8752C13.7332 16.0415 14.0339 16.175 14.3663 16.2183C15.0056 16.3027 15.6522 16.1297 16.1639 15.7373C16.385 15.5675 16.553 15.3589 16.7095 15.1263C16.8598 14.9017 17.0243 14.6179 17.2206 14.2775L17.2427 14.2386C17.4399 13.8981 17.6034 13.6143 17.7219 13.372C17.8457 13.1191 17.943 12.8689 17.9783 12.5939C18.0627 11.9546 17.8897 11.308 17.4973 10.7963C17.2931 10.5302 17.0269 10.3365 16.7263 10.1473C16.6143 10.0809 16.521 9.98718 16.4552 9.8749C16.3893 9.76263 16.353 9.63547 16.3496 9.50534C16.3496 9.25953 16.484 9.01549 16.7263 8.8634C17.0269 8.67418 17.2922 8.48053 17.4973 8.21439C17.6918 7.96107 17.8344 7.67194 17.9171 7.36351C17.9998 7.05507 18.0209 6.73337 17.9792 6.41677C17.9376 6.14496 17.8509 5.88199 17.7228 5.63866C17.5718 5.3449 17.4117 5.05592 17.2427 4.77212L17.2206 4.73322C17.0591 4.44503 16.8886 4.16195 16.7095 3.88437C16.5627 3.65214 16.3784 3.44595 16.1639 3.27426C15.9107 3.07968 15.6216 2.93689 15.3131 2.85406C15.0047 2.77122 14.683 2.74996 14.3663 2.79148C14.0339 2.83569 13.7332 2.96832 13.4184 3.13544C13.3051 3.19881 13.1775 3.23246 13.0476 3.23323C12.9178 3.234 12.7898 3.20188 12.6757 3.13986C12.5646 3.07211 12.4725 2.97727 12.408 2.86423C12.3435 2.75118 12.3087 2.62363 12.307 2.49349C12.2937 2.13804 12.2592 1.81088 12.1301 1.5014C12.008 1.20629 11.829 0.93813 11.6032 0.712226C11.3775 0.486321 11.1094 0.307101 10.8144 0.184802C10.558 0.0786954 10.2927 0.0371372 10.0124 0.0185686C9.74363 2.47048e-08 9.41558 0 9.02211 0H8.97789ZM7.69313 1.41033C7.76121 1.38203 7.86466 1.35639 8.07776 1.34136C8.29616 1.32633 8.57911 1.32633 9 1.32633C9.42089 1.32633 9.70384 1.32633 9.92224 1.34136C10.1353 1.35639 10.2388 1.38203 10.3069 1.41033C10.5783 1.52262 10.7932 1.73749 10.9055 2.00894C10.9409 2.09383 10.97 2.22734 10.9815 2.54301C11.0081 3.24331 11.3697 3.91797 12.0116 4.28846C12.6536 4.65894 13.4184 4.63507 14.0383 4.30791C14.3177 4.16025 14.4477 4.11869 14.5396 4.10719C14.8301 4.0688 15.124 4.14736 15.3566 4.32559C15.415 4.37069 15.4893 4.44762 15.6086 4.62446C15.7316 4.80661 15.873 5.05154 16.0835 5.41583C16.2939 5.78013 16.4345 6.02595 16.5309 6.22224C16.6255 6.41412 16.6547 6.51669 16.6635 6.59008C16.7019 6.8806 16.6233 7.17448 16.4451 7.40709C16.3885 7.48048 16.2877 7.57244 16.0207 7.74044C15.4265 8.11358 15.0233 8.76437 15.0233 9.50534C15.0233 10.2463 15.4265 10.8971 16.0207 11.2702C16.2877 11.4382 16.3885 11.5302 16.4451 11.6036C16.6237 11.8361 16.7015 12.1297 16.6635 12.4206C16.6547 12.494 16.6246 12.5975 16.5309 12.7884C16.4345 12.9856 16.2939 13.2306 16.0835 13.5949C15.873 13.9591 15.7307 14.2041 15.6086 14.3862C15.4893 14.5631 15.415 14.64 15.3566 14.6851C15.124 14.8633 14.8301 14.9419 14.5396 14.9035C14.4477 14.892 14.3186 14.8504 14.0383 14.7028C13.4193 14.3756 12.6536 14.3509 12.0116 14.7213C11.3697 15.0918 11.0081 15.7674 10.9815 16.4677C10.97 16.7833 10.9409 16.9169 10.9055 17.0017C10.8499 17.136 10.7685 17.2579 10.6658 17.3606C10.5631 17.4634 10.4411 17.5448 10.3069 17.6004C10.2388 17.6287 10.1353 17.6543 9.92224 17.6693C9.70384 17.6844 9.42089 17.6844 9 17.6844C8.57911 17.6844 8.29616 17.6844 8.07776 17.6693C7.86466 17.6543 7.76121 17.6287 7.69313 17.6004C7.55891 17.5448 7.43695 17.4634 7.33423 17.3606C7.23152 17.2579 7.15006 17.136 7.09451 17.0017C7.05914 16.9169 7.02996 16.7833 7.01847 16.4677C6.99194 15.7674 6.6303 15.0927 5.98835 14.7222C5.34641 14.3517 4.58156 14.3756 3.96173 14.7028C3.68231 14.8504 3.55233 14.892 3.46037 14.9035C3.16985 14.9419 2.87597 14.8633 2.64336 14.6851C2.585 14.64 2.51072 14.5631 2.39136 14.3862C2.22502 14.1274 2.06667 13.8634 1.91653 13.5949C1.70609 13.2306 1.5655 12.9847 1.46912 12.7884C1.3745 12.5966 1.34532 12.494 1.33648 12.4206C1.29809 12.1301 1.37665 11.8362 1.55488 11.6036C1.61147 11.5302 1.71228 11.4382 1.97931 11.2702C2.5735 10.8971 2.97671 10.2463 2.97671 9.50534C2.97671 8.76437 2.5735 8.11358 1.97931 7.74044C1.71228 7.57244 1.61147 7.48048 1.55488 7.40709C1.37665 7.17448 1.29809 6.8806 1.33648 6.59008C1.34532 6.51669 1.37539 6.41323 1.46912 6.22224C1.5655 6.02506 1.70609 5.78013 1.91653 5.41583C2.12697 5.05154 2.26933 4.80661 2.39136 4.62446C2.51072 4.44762 2.585 4.37069 2.64336 4.32559C2.87597 4.14736 3.16985 4.0688 3.46037 4.10719C3.55233 4.11869 3.68143 4.16025 3.96173 4.30791C4.58068 4.63507 5.34641 4.65983 5.98835 4.28846C6.6303 3.91797 6.99194 3.24331 7.01847 2.54301C7.02996 2.22734 7.05914 2.09383 7.09451 2.00894C7.20681 1.73749 7.42167 1.52262 7.69313 1.41033Z" fill="black" fill-opacity="0.2"/>
<path fill-rule="evenodd" clip-rule="evenodd" d="M8.97789 0C8.58442 0 8.25637 -1.64698e-08 7.98757 0.0176843C7.71277 0.0287515 7.44173 0.0855295 7.18559 0.185686C6.89048 0.307787 6.62231 0.486827 6.39641 0.71258C6.1705 0.938333 5.99128 1.20638 5.86898 1.5014C5.74077 1.81088 5.70629 2.13804 5.69214 2.49349C5.69056 2.62346 5.65608 2.75091 5.59191 2.86393C5.52774 2.97696 5.43598 3.07189 5.32519 3.13986C5.21097 3.20204 5.08285 3.23425 4.95281 3.23347C4.82276 3.2327 4.69503 3.19897 4.58156 3.13544C4.26678 2.9692 3.96615 2.83569 3.63368 2.79148C3.31708 2.74983 2.99538 2.77095 2.68695 2.85364C2.37851 2.93632 2.08938 3.07895 1.83607 3.27338C1.62155 3.44534 1.43717 3.65183 1.2905 3.88437C1.14019 4.10896 0.975722 4.3928 0.779426 4.73322L0.75732 4.77212C0.560139 5.11255 0.396559 5.39638 0.278074 5.63866C0.154283 5.89154 0.0570194 6.14089 0.0216507 6.41677C-0.0627034 7.05605 0.11032 7.70266 0.502665 8.21439C0.70692 8.48053 0.973069 8.67418 1.2737 8.8634C1.38567 8.92979 1.47897 9.02351 1.54485 9.13578C1.61073 9.24806 1.64704 9.37521 1.65038 9.50534C1.64704 9.63547 1.61073 9.76263 1.54485 9.8749C1.47897 9.98718 1.38567 10.0809 1.2737 10.1473C0.973069 10.3365 0.707804 10.5302 0.502665 10.7963C0.308241 11.0496 0.165614 11.3387 0.0829297 11.6472C0.000245315 11.9556 -0.0208777 12.2773 0.0207666 12.5939C0.0570195 12.8698 0.153399 13.1191 0.27719 13.372C0.396559 13.6143 0.560139 13.8981 0.75732 14.2386L0.779426 14.2775C0.975722 14.6179 1.14019 14.9017 1.2905 15.1263C1.44701 15.3589 1.61501 15.5684 1.83607 15.7364C2.08931 15.931 2.37841 16.0738 2.68685 16.1566C2.99529 16.2395 3.31702 16.2607 3.63368 16.2192C3.96615 16.175 4.26678 16.0424 4.58156 15.8752C4.69493 15.8119 4.82249 15.7782 4.95237 15.7775C5.08224 15.7767 5.2102 15.8088 5.32431 15.8708C5.436 15.9379 5.52856 16.0326 5.59313 16.1458C5.6577 16.259 5.6921 16.3869 5.69303 16.5172C5.70629 16.8726 5.74077 17.1998 5.86987 17.5093C5.99197 17.8044 6.17101 18.0726 6.39676 18.2985C6.62252 18.5244 6.89056 18.7036 7.18559 18.8259C7.44201 18.932 7.70727 18.9735 7.98757 18.9921C8.25637 19.0107 8.58442 19.0107 8.97789 19.0107H9.02211C9.41558 19.0107 9.74363 19.0107 10.0124 18.993C10.2936 18.9735 10.558 18.932 10.8144 18.825C11.1095 18.7029 11.3777 18.5239 11.6036 18.2981C11.8295 18.0724 12.0087 17.8043 12.131 17.5093C12.2592 17.1998 12.2937 16.8726 12.3079 16.5172C12.3093 16.3871 12.3437 16.2595 12.4079 16.1463C12.4721 16.0331 12.5639 15.938 12.6748 15.8699C12.7891 15.8079 12.9173 15.7758 13.0473 15.7768C13.1774 15.7777 13.305 15.8116 13.4184 15.8752C13.7332 16.0415 14.0339 16.175 14.3663 16.2183C15.0056 16.3027 15.6522 16.1297 16.1639 15.7373C16.385 15.5675 16.553 15.3589 16.7095 15.1263C16.8598 14.9017 17.0243 14.6179 17.2206 14.2775L17.2427 14.2386C17.4399 13.8981 17.6034 13.6143 17.7219 13.372C17.8457 13.1191 17.943 12.8689 17.9783 12.5939C18.0627 11.9546 17.8897 11.308 17.4973 10.7963C17.2931 10.5302 17.0269 10.3365 16.7263 10.1473C16.6143 10.0809 16.521 9.98718 16.4552 9.8749C16.3893 9.76263 16.353 9.63547 16.3496 9.50534C16.3496 9.25953 16.484 9.01549 16.7263 8.8634C17.0269 8.67418 17.2922 8.48053 17.4973 8.21439C17.6918 7.96107 17.8344 7.67194 17.9171 7.36351C17.9998 7.05507 18.0209 6.73337 17.9792 6.41677C17.9376 6.14496 17.8509 5.88199 17.7228 5.63866C17.5718 5.3449 17.4117 5.05592 17.2427 4.77212L17.2206 4.73322C17.0591 4.44503 16.8886 4.16195 16.7095 3.88437C16.5627 3.65214 16.3784 3.44595 16.1639 3.27426C15.9107 3.07968 15.6216 2.93689 15.3131 2.85406C15.0047 2.77122 14.683 2.74996 14.3663 2.79148C14.0339 2.83569 13.7332 2.96832 13.4184 3.13544C13.3051 3.19881 13.1775 3.23246 13.0476 3.23323C12.9178 3.234 12.7898 3.20188 12.6757 3.13986C12.5646 3.07211 12.4725 2.97727 12.408 2.86423C12.3435 2.75118 12.3087 2.62363 12.307 2.49349C12.2937 2.13804 12.2592 1.81088 12.1301 1.5014C12.008 1.20629 11.829 0.93813 11.6032 0.712226C11.3775 0.486321 11.1094 0.307101 10.8144 0.184802C10.558 0.0786954 10.2927 0.0371372 10.0124 0.0185686C9.74363 2.47048e-08 9.41558 0 9.02211 0H8.97789ZM7.69313 1.41033C7.76121 1.38203 7.86466 1.35639 8.07776 1.34136C8.29616 1.32633 8.57911 1.32633 9 1.32633C9.42089 1.32633 9.70384 1.32633 9.92224 1.34136C10.1353 1.35639 10.2388 1.38203 10.3069 1.41033C10.5783 1.52262 10.7932 1.73749 10.9055 2.00894C10.9409 2.09383 10.97 2.22734 10.9815 2.54301C11.0081 3.24331 11.3697 3.91797 12.0116 4.28846C12.6536 4.65894 13.4184 4.63507 14.0383 4.30791C14.3177 4.16025 14.4477 4.11869 14.5396 4.10719C14.8301 4.0688 15.124 4.14736 15.3566 4.32559C15.415 4.37069 15.4893 4.44762 15.6086 4.62446C15.7316 4.80661 15.873 5.05154 16.0835 5.41583C16.2939 5.78013 16.4345 6.02595 16.5309 6.22224C16.6255 6.41412 16.6547 6.51669 16.6635 6.59008C16.7019 6.8806 16.6233 7.17448 16.4451 7.40709C16.3885 7.48048 16.2877 7.57244 16.0207 7.74044C15.4265 8.11358 15.0233 8.76437 15.0233 9.50534C15.0233 10.2463 15.4265 10.8971 16.0207 11.2702C16.2877 11.4382 16.3885 11.5302 16.4451 11.6036C16.6237 11.8361 16.7015 12.1297 16.6635 12.4206C16.6547 12.494 16.6246 12.5975 16.5309 12.7884C16.4345 12.9856 16.2939 13.2306 16.0835 13.5949C15.873 13.9591 15.7307 14.2041 15.6086 14.3862C15.4893 14.5631 15.415 14.64 15.3566 14.6851C15.124 14.8633 14.8301 14.9419 14.5396 14.9035C14.4477 14.892 14.3186 14.8504 14.0383 14.7028C13.4193 14.3756 12.6536 14.3509 12.0116 14.7213C11.3697 15.0918 11.0081 15.7674 10.9815 16.4677C10.97 16.7833 10.9409 16.9169 10.9055 17.0017C10.8499 17.136 10.7685 17.2579 10.6658 17.3606C10.5631 17.4634 10.4411 17.5448 10.3069 17.6004C10.2388 17.6287 10.1353 17.6543 9.92224 17.6693C9.70384 17.6844 9.42089 17.6844 9 17.6844C8.57911 17.6844 8.29616 17.6844 8.07776 17.6693C7.86466 17.6543 7.76121 17.6287 7.69313 17.6004C7.55891 17.5448 7.43695 17.4634 7.33423 17.3606C7.23152 17.2579 7.15006 17.136 7.09451 17.0017C7.05914 16.9169 7.02996 16.7833 7.01847 16.4677C6.99194 15.7674 6.6303 15.0927 5.98835 14.7222C5.34641 14.3517 4.58156 14.3756 3.96173 14.7028C3.68231 14.8504 3.55233 14.892 3.46037 14.9035C3.16985 14.9419 2.87597 14.8633 2.64336 14.6851C2.585 14.64 2.51072 14.5631 2.39136 14.3862C2.22502 14.1274 2.06667 13.8634 1.91653 13.5949C1.70609 13.2306 1.5655 12.9847 1.46912 12.7884C1.3745 12.5966 1.34532 12.494 1.33648 12.4206C1.29809 12.1301 1.37665 11.8362 1.55488 11.6036C1.61147 11.5302 1.71228 11.4382 1.97931 11.2702C2.5735 10.8971 2.97671 10.2463 2.97671 9.50534C2.97671 8.76437 2.5735 8.11358 1.97931 7.74044C1.71228 7.57244 1.61147 7.48048 1.55488 7.40709C1.37665 7.17448 1.29809 6.8806 1.33648 6.59008C1.34532 6.51669 1.37539 6.41323 1.46912 6.22224C1.5655 6.02506 1.70609 5.78013 1.91653 5.41583C2.12697 5.05154 2.26933 4.80661 2.39136 4.62446C2.51072 4.44762 2.585 4.37069 2.64336 4.32559C2.87597 4.14736 3.16985 4.0688 3.46037 4.10719C3.55233 4.11869 3.68143 4.16025 3.96173 4.30791C4.58068 4.63507 5.34641 4.65983 5.98835 4.28846C6.6303 3.91797 6.99194 3.24331 7.01847 2.54301C7.02996 2.22734 7.05914 2.09383 7.09451 2.00894C7.20681 1.73749 7.42167 1.52262 7.69313 1.41033Z" fill="black" fill-opacity="0.2"/>
<path fill-rule="evenodd" clip-rule="evenodd" d="M8.97789 0C8.58442 0 8.25637 -1.64698e-08 7.98757 0.0176843C7.71277 0.0287515 7.44173 0.0855295 7.18559 0.185686C6.89048 0.307787 6.62231 0.486827 6.39641 0.71258C6.1705 0.938333 5.99128 1.20638 5.86898 1.5014C5.74077 1.81088 5.70629 2.13804 5.69214 2.49349C5.69056 2.62346 5.65608 2.75091 5.59191 2.86393C5.52774 2.97696 5.43598 3.07189 5.32519 3.13986C5.21097 3.20204 5.08285 3.23425 4.95281 3.23347C4.82276 3.2327 4.69503 3.19897 4.58156 3.13544C4.26678 2.9692 3.96615 2.83569 3.63368 2.79148C3.31708 2.74983 2.99538 2.77095 2.68695 2.85364C2.37851 2.93632 2.08938 3.07895 1.83607 3.27338C1.62155 3.44534 1.43717 3.65183 1.2905 3.88437C1.14019 4.10896 0.975722 4.3928 0.779426 4.73322L0.75732 4.77212C0.560139 5.11255 0.396559 5.39638 0.278074 5.63866C0.154283 5.89154 0.0570194 6.14089 0.0216507 6.41677C-0.0627034 7.05605 0.11032 7.70266 0.502665 8.21439C0.70692 8.48053 0.973069 8.67418 1.2737 8.8634C1.38567 8.92979 1.47897 9.02351 1.54485 9.13578C1.61073 9.24806 1.64704 9.37521 1.65038 9.50534C1.64704 9.63547 1.61073 9.76263 1.54485 9.8749C1.47897 9.98718 1.38567 10.0809 1.2737 10.1473C0.973069 10.3365 0.707804 10.5302 0.502665 10.7963C0.308241 11.0496 0.165614 11.3387 0.0829297 11.6472C0.000245315 11.9556 -0.0208777 12.2773 0.0207666 12.5939C0.0570195 12.8698 0.153399 13.1191 0.27719 13.372C0.396559 13.6143 0.560139 13.8981 0.75732 14.2386L0.779426 14.2775C0.975722 14.6179 1.14019 14.9017 1.2905 15.1263C1.44701 15.3589 1.61501 15.5684 1.83607 15.7364C2.08931 15.931 2.37841 16.0738 2.68685 16.1566C2.99529 16.2395 3.31702 16.2607 3.63368 16.2192C3.96615 16.175 4.26678 16.0424 4.58156 15.8752C4.69493 15.8119 4.82249 15.7782 4.95237 15.7775C5.08224 15.7767 5.2102 15.8088 5.32431 15.8708C5.436 15.9379 5.52856 16.0326 5.59313 16.1458C5.6577 16.259 5.6921 16.3869 5.69303 16.5172C5.70629 16.8726 5.74077 17.1998 5.86987 17.5093C5.99197 17.8044 6.17101 18.0726 6.39676 18.2985C6.62252 18.5244 6.89056 18.7036 7.18559 18.8259C7.44201 18.932 7.70727 18.9735 7.98757 18.9921C8.25637 19.0107 8.58442 19.0107 8.97789 19.0107H9.02211C9.41558 19.0107 9.74363 19.0107 10.0124 18.993C10.2936 18.9735 10.558 18.932 10.8144 18.825C11.1095 18.7029 11.3777 18.5239 11.6036 18.2981C11.8295 18.0724 12.0087 17.8043 12.131 17.5093C12.2592 17.1998 12.2937 16.8726 12.3079 16.5172C12.3093 16.3871 12.3437 16.2595 12.4079 16.1463C12.4721 16.0331 12.5639 15.938 12.6748 15.8699C12.7891 15.8079 12.9173 15.7758 13.0473 15.7768C13.1774 15.7777 13.305 15.8116 13.4184 15.8752C13.7332 16.0415 14.0339 16.175 14.3663 16.2183C15.0056 16.3027 15.6522 16.1297 16.1639 15.7373C16.385 15.5675 16.553 15.3589 16.7095 15.1263C16.8598 14.9017 17.0243 14.6179 17.2206 14.2775L17.2427 14.2386C17.4399 13.8981 17.6034 13.6143 17.7219 13.372C17.8457 13.1191 17.943 12.8689 17.9783 12.5939C18.0627 11.9546 17.8897 11.308 17.4973 10.7963C17.2931 10.5302 17.0269 10.3365 16.7263 10.1473C16.6143 10.0809 16.521 9.98718 16.4552 9.8749C16.3893 9.76263 16.353 9.63547 16.3496 9.50534C16.3496 9.25953 16.484 9.01549 16.7263 8.8634C17.0269 8.67418 17.2922 8.48053 17.4973 8.21439C17.6918 7.96107 17.8344 7.67194 17.9171 7.36351C17.9998 7.05507 18.0209 6.73337 17.9792 6.41677C17.9376 6.14496 17.8509 5.88199 17.7228 5.63866C17.5718 5.3449 17.4117 5.05592 17.2427 4.77212L17.2206 4.73322C17.0591 4.44503 16.8886 4.16195 16.7095 3.88437C16.5627 3.65214 16.3784 3.44595 16.1639 3.27426C15.9107 3.07968 15.6216 2.93689 15.3131 2.85406C15.0047 2.77122 14.683 2.74996 14.3663 2.79148C14.0339 2.83569 13.7332 2.96832 13.4184 3.13544C13.3051 3.19881 13.1775 3.23246 13.0476 3.23323C12.9178 3.234 12.7898 3.20188 12.6757 3.13986C12.5646 3.07211 12.4725 2.97727 12.408 2.86423C12.3435 2.75118 12.3087 2.62363 12.307 2.49349C12.2937 2.13804 12.2592 1.81088 12.1301 1.5014C12.008 1.20629 11.829 0.93813 11.6032 0.712226C11.3775 0.486321 11.1094 0.307101 10.8144 0.184802C10.558 0.0786954 10.2927 0.0371372 10.0124 0.0185686C9.74363 2.47048e-08 9.41558 0 9.02211 0H8.97789ZM7.69313 1.41033C7.76121 1.38203 7.86466 1.35639 8.07776 1.34136C8.29616 1.32633 8.57911 1.32633 9 1.32633C9.42089 1.32633 9.70384 1.32633 9.92224 1.34136C10.1353 1.35639 10.2388 1.38203 10.3069 1.41033C10.5783 1.52262 10.7932 1.73749 10.9055 2.00894C10.9409 2.09383 10.97 2.22734 10.9815 2.54301C11.0081 3.24331 11.3697 3.91797 12.0116 4.28846C12.6536 4.65894 13.4184 4.63507 14.0383 4.30791C14.3177 4.16025 14.4477 4.11869 14.5396 4.10719C14.8301 4.0688 15.124 4.14736 15.3566 4.32559C15.415 4.37069 15.4893 4.44762 15.6086 4.62446C15.7316 4.80661 15.873 5.05154 16.0835 5.41583C16.2939 5.78013 16.4345 6.02595 16.5309 6.22224C16.6255 6.41412 16.6547 6.51669 16.6635 6.59008C16.7019 6.8806 16.6233 7.17448 16.4451 7.40709C16.3885 7.48048 16.2877 7.57244 16.0207 7.74044C15.4265 8.11358 15.0233 8.76437 15.0233 9.50534C15.0233 10.2463 15.4265 10.8971 16.0207 11.2702C16.2877 11.4382 16.3885 11.5302 16.4451 11.6036C16.6237 11.8361 16.7015 12.1297 16.6635 12.4206C16.6547 12.494 16.6246 12.5975 16.5309 12.7884C16.4345 12.9856 16.2939 13.2306 16.0835 13.5949C15.873 13.9591 15.7307 14.2041 15.6086 14.3862C15.4893 14.5631 15.415 14.64 15.3566 14.6851C15.124 14.8633 14.8301 14.9419 14.5396 14.9035C14.4477 14.892 14.3186 14.8504 14.0383 14.7028C13.4193 14.3756 12.6536 14.3509 12.0116 14.7213C11.3697 15.0918 11.0081 15.7674 10.9815 16.4677C10.97 16.7833 10.9409 16.9169 10.9055 17.0017C10.8499 17.136 10.7685 17.2579 10.6658 17.3606C10.5631 17.4634 10.4411 17.5448 10.3069 17.6004C10.2388 17.6287 10.1353 17.6543 9.92224 17.6693C9.70384 17.6844 9.42089 17.6844 9 17.6844C8.57911 17.6844 8.29616 17.6844 8.07776 17.6693C7.86466 17.6543 7.76121 17.6287 7.69313 17.6004C7.55891 17.5448 7.43695 17.4634 7.33423 17.3606C7.23152 17.2579 7.15006 17.136 7.09451 17.0017C7.05914 16.9169 7.02996 16.7833 7.01847 16.4677C6.99194 15.7674 6.6303 15.0927 5.98835 14.7222C5.34641 14.3517 4.58156 14.3756 3.96173 14.7028C3.68231 14.8504 3.55233 14.892 3.46037 14.9035C3.16985 14.9419 2.87597 14.8633 2.64336 14.6851C2.585 14.64 2.51072 14.5631 2.39136 14.3862C2.22502 14.1274 2.06667 13.8634 1.91653 13.5949C1.70609 13.2306 1.5655 12.9847 1.46912 12.7884C1.3745 12.5966 1.34532 12.494 1.33648 12.4206C1.29809 12.1301 1.37665 11.8362 1.55488 11.6036C1.61147 11.5302 1.71228 11.4382 1.97931 11.2702C2.5735 10.8971 2.97671 10.2463 2.97671 9.50534C2.97671 8.76437 2.5735 8.11358 1.97931 7.74044C1.71228 7.57244 1.61147 7.48048 1.55488 7.40709C1.37665 7.17448 1.29809 6.8806 1.33648 6.59008C1.34532 6.51669 1.37539 6.41323 1.46912 6.22224C1.5655 6.02506 1.70609 5.78013 1.91653 5.41583C2.12697 5.05154 2.26933 4.80661 2.39136 4.62446C2.51072 4.44762 2.585 4.37069 2.64336 4.32559C2.87597 4.14736 3.16985 4.0688 3.46037 4.10719C3.55233 4.11869 3.68143 4.16025 3.96173 4.30791C4.58068 4.63507 5.34641 4.65983 5.98835 4.28846C6.6303 3.91797 6.99194 3.24331 7.01847 2.54301C7.02996 2.22734 7.05914 2.09383 7.09451 2.00894C7.20681 1.73749 7.42167 1.52262 7.69313 1.41033Z" fill="black" fill-opacity="0.2"/>
<path fill-rule="evenodd" clip-rule="evenodd" d="M8.97789 0C8.58442 0 8.25637 -1.64698e-08 7.98757 0.0176843C7.71277 0.0287515 7.44173 0.0855295 7.18559 0.185686C6.89048 0.307787 6.62231 0.486827 6.39641 0.71258C6.1705 0.938333 5.99128 1.20638 5.86898 1.5014C5.74077 1.81088 5.70629 2.13804 5.69214 2.49349C5.69056 2.62346 5.65608 2.75091 5.59191 2.86393C5.52774 2.97696 5.43598 3.07189 5.32519 3.13986C5.21097 3.20204 5.08285 3.23425 4.95281 3.23347C4.82276 3.2327 4.69503 3.19897 4.58156 3.13544C4.26678 2.9692 3.96615 2.83569 3.63368 2.79148C3.31708 2.74983 2.99538 2.77095 2.68695 2.85364C2.37851 2.93632 2.08938 3.07895 1.83607 3.27338C1.62155 3.44534 1.43717 3.65183 1.2905 3.88437C1.14019 4.10896 0.975722 4.3928 0.779426 4.73322L0.75732 4.77212C0.560139 5.11255 0.396559 5.39638 0.278074 5.63866C0.154283 5.89154 0.0570194 6.14089 0.0216507 6.41677C-0.0627034 7.05605 0.11032 7.70266 0.502665 8.21439C0.70692 8.48053 0.973069 8.67418 1.2737 8.8634C1.38567 8.92979 1.47897 9.02351 1.54485 9.13578C1.61073 9.24806 1.64704 9.37521 1.65038 9.50534C1.64704 9.63547 1.61073 9.76263 1.54485 9.8749C1.47897 9.98718 1.38567 10.0809 1.2737 10.1473C0.973069 10.3365 0.707804 10.5302 0.502665 10.7963C0.308241 11.0496 0.165614 11.3387 0.0829297 11.6472C0.000245315 11.9556 -0.0208777 12.2773 0.0207666 12.5939C0.0570195 12.8698 0.153399 13.1191 0.27719 13.372C0.396559 13.6143 0.560139 13.8981 0.75732 14.2386L0.779426 14.2775C0.975722 14.6179 1.14019 14.9017 1.2905 15.1263C1.44701 15.3589 1.61501 15.5684 1.83607 15.7364C2.08931 15.931 2.37841 16.0738 2.68685 16.1566C2.99529 16.2395 3.31702 16.2607 3.63368 16.2192C3.96615 16.175 4.26678 16.0424 4.58156 15.8752C4.69493 15.8119 4.82249 15.7782 4.95237 15.7775C5.08224 15.7767 5.2102 15.8088 5.32431 15.8708C5.436 15.9379 5.52856 16.0326 5.59313 16.1458C5.6577 16.259 5.6921 16.3869 5.69303 16.5172C5.70629 16.8726 5.74077 17.1998 5.86987 17.5093C5.99197 17.8044 6.17101 18.0726 6.39676 18.2985C6.62252 18.5244 6.89056 18.7036 7.18559 18.8259C7.44201 18.932 7.70727 18.9735 7.98757 18.9921C8.25637 19.0107 8.58442 19.0107 8.97789 19.0107H9.02211C9.41558 19.0107 9.74363 19.0107 10.0124 18.993C10.2936 18.9735 10.558 18.932 10.8144 18.825C11.1095 18.7029 11.3777 18.5239 11.6036 18.2981C11.8295 18.0724 12.0087 17.8043 12.131 17.5093C12.2592 17.1998 12.2937 16.8726 12.3079 16.5172C12.3093 16.3871 12.3437 16.2595 12.4079 16.1463C12.4721 16.0331 12.5639 15.938 12.6748 15.8699C12.7891 15.8079 12.9173 15.7758 13.0473 15.7768C13.1774 15.7777 13.305 15.8116 13.4184 15.8752C13.7332 16.0415 14.0339 16.175 14.3663 16.2183C15.0056 16.3027 15.6522 16.1297 16.1639 15.7373C16.385 15.5675 16.553 15.3589 16.7095 15.1263C16.8598 14.9017 17.0243 14.6179 17.2206 14.2775L17.2427 14.2386C17.4399 13.8981 17.6034 13.6143 17.7219 13.372C17.8457 13.1191 17.943 12.8689 17.9783 12.5939C18.0627 11.9546 17.8897 11.308 17.4973 10.7963C17.2931 10.5302 17.0269 10.3365 16.7263 10.1473C16.6143 10.0809 16.521 9.98718 16.4552 9.8749C16.3893 9.76263 16.353 9.63547 16.3496 9.50534C16.3496 9.25953 16.484 9.01549 16.7263 8.8634C17.0269 8.67418 17.2922 8.48053 17.4973 8.21439C17.6918 7.96107 17.8344 7.67194 17.9171 7.36351C17.9998 7.05507 18.0209 6.73337 17.9792 6.41677C17.9376 6.14496 17.8509 5.88199 17.7228 5.63866C17.5718 5.3449 17.4117 5.05592 17.2427 4.77212L17.2206 4.73322C17.0591 4.44503 16.8886 4.16195 16.7095 3.88437C16.5627 3.65214 16.3784 3.44595 16.1639 3.27426C15.9107 3.07968 15.6216 2.93689 15.3131 2.85406C15.0047 2.77122 14.683 2.74996 14.3663 2.79148C14.0339 2.83569 13.7332 2.96832 13.4184 3.13544C13.3051 3.19881 13.1775 3.23246 13.0476 3.23323C12.9178 3.234 12.7898 3.20188 12.6757 3.13986C12.5646 3.07211 12.4725 2.97727 12.408 2.86423C12.3435 2.75118 12.3087 2.62363 12.307 2.49349C12.2937 2.13804 12.2592 1.81088 12.1301 1.5014C12.008 1.20629 11.829 0.93813 11.6032 0.712226C11.3775 0.486321 11.1094 0.307101 10.8144 0.184802C10.558 0.0786954 10.2927 0.0371372 10.0124 0.0185686C9.74363 2.47048e-08 9.41558 0 9.02211 0H8.97789ZM7.69313 1.41033C7.76121 1.38203 7.86466 1.35639 8.07776 1.34136C8.29616 1.32633 8.57911 1.32633 9 1.32633C9.42089 1.32633 9.70384 1.32633 9.92224 1.34136C10.1353 1.35639 10.2388 1.38203 10.3069 1.41033C10.5783 1.52262 10.7932 1.73749 10.9055 2.00894C10.9409 2.09383 10.97 2.22734 10.9815 2.54301C11.0081 3.24331 11.3697 3.91797 12.0116 4.28846C12.6536 4.65894 13.4184 4.63507 14.0383 4.30791C14.3177 4.16025 14.4477 4.11869 14.5396 4.10719C14.8301 4.0688 15.124 4.14736 15.3566 4.32559C15.415 4.37069 15.4893 4.44762 15.6086 4.62446C15.7316 4.80661 15.873 5.05154 16.0835 5.41583C16.2939 5.78013 16.4345 6.02595 16.5309 6.22224C16.6255 6.41412 16.6547 6.51669 16.6635 6.59008C16.7019 6.8806 16.6233 7.17448 16.4451 7.40709C16.3885 7.48048 16.2877 7.57244 16.0207 7.74044C15.4265 8.11358 15.0233 8.76437 15.0233 9.50534C15.0233 10.2463 15.4265 10.8971 16.0207 11.2702C16.2877 11.4382 16.3885 11.5302 16.4451 11.6036C16.6237 11.8361 16.7015 12.1297 16.6635 12.4206C16.6547 12.494 16.6246 12.5975 16.5309 12.7884C16.4345 12.9856 16.2939 13.2306 16.0835 13.5949C15.873 13.9591 15.7307 14.2041 15.6086 14.3862C15.4893 14.5631 15.415 14.64 15.3566 14.6851C15.124 14.8633 14.8301 14.9419 14.5396 14.9035C14.4477 14.892 14.3186 14.8504 14.0383 14.7028C13.4193 14.3756 12.6536 14.3509 12.0116 14.7213C11.3697 15.0918 11.0081 15.7674 10.9815 16.4677C10.97 16.7833 10.9409 16.9169 10.9055 17.0017C10.8499 17.136 10.7685 17.2579 10.6658 17.3606C10.5631 17.4634 10.4411 17.5448 10.3069 17.6004C10.2388 17.6287 10.1353 17.6543 9.92224 17.6693C9.70384 17.6844 9.42089 17.6844 9 17.6844C8.57911 17.6844 8.29616 17.6844 8.07776 17.6693C7.86466 17.6543 7.76121 17.6287 7.69313 17.6004C7.55891 17.5448 7.43695 17.4634 7.33423 17.3606C7.23152 17.2579 7.15006 17.136 7.09451 17.0017C7.05914 16.9169 7.02996 16.7833 7.01847 16.4677C6.99194 15.7674 6.6303 15.0927 5.98835 14.7222C5.34641 14.3517 4.58156 14.3756 3.96173 14.7028C3.68231 14.8504 3.55233 14.892 3.46037 14.9035C3.16985 14.9419 2.87597 14.8633 2.64336 14.6851C2.585 14.64 2.51072 14.5631 2.39136 14.3862C2.22502 14.1274 2.06667 13.8634 1.91653 13.5949C1.70609 13.2306 1.5655 12.9847 1.46912 12.7884C1.3745 12.5966 1.34532 12.494 1.33648 12.4206C1.29809 12.1301 1.37665 11.8362 1.55488 11.6036C1.61147 11.5302 1.71228 11.4382 1.97931 11.2702C2.5735 10.8971 2.97671 10.2463 2.97671 9.50534C2.97671 8.76437 2.5735 8.11358 1.97931 7.74044C1.71228 7.57244 1.61147 7.48048 1.55488 7.40709C1.37665 7.17448 1.29809 6.8806 1.33648 6.59008C1.34532 6.51669 1.37539 6.41323 1.46912 6.22224C1.5655 6.02506 1.70609 5.78013 1.91653 5.41583C2.12697 5.05154 2.26933 4.80661 2.39136 4.62446C2.51072 4.44762 2.585 4.37069 2.64336 4.32559C2.87597 4.14736 3.16985 4.0688 3.46037 4.10719C3.55233 4.11869 3.68143 4.16025 3.96173 4.30791C4.58068 4.63507 5.34641 4.65983 5.98835 4.28846C6.6303 3.91797 6.99194 3.24331 7.01847 2.54301C7.02996 2.22734 7.05914 2.09383 7.09451 2.00894C7.20681 1.73749 7.42167 1.52262 7.69313 1.41033Z" fill="black" fill-opacity="0.2"/>
<path fill-rule="evenodd" clip-rule="evenodd" d="M8.97789 0C8.58442 0 8.25637 -1.64698e-08 7.98757 0.0176843C7.71277 0.0287515 7.44173 0.0855295 7.18559 0.185686C6.89048 0.307787 6.62231 0.486827 6.39641 0.71258C6.1705 0.938333 5.99128 1.20638 5.86898 1.5014C5.74077 1.81088 5.70629 2.13804 5.69214 2.49349C5.69056 2.62346 5.65608 2.75091 5.59191 2.86393C5.52774 2.97696 5.43598 3.07189 5.32519 3.13986C5.21097 3.20204 5.08285 3.23425 4.95281 3.23347C4.82276 3.2327 4.69503 3.19897 4.58156 3.13544C4.26678 2.9692 3.96615 2.83569 3.63368 2.79148C3.31708 2.74983 2.99538 2.77095 2.68695 2.85364C2.37851 2.93632 2.08938 3.07895 1.83607 3.27338C1.62155 3.44534 1.43717 3.65183 1.2905 3.88437C1.14019 4.10896 0.975722 4.3928 0.779426 4.73322L0.75732 4.77212C0.560139 5.11255 0.396559 5.39638 0.278074 5.63866C0.154283 5.89154 0.0570194 6.14089 0.0216507 6.41677C-0.0627034 7.05605 0.11032 7.70266 0.502665 8.21439C0.70692 8.48053 0.973069 8.67418 1.2737 8.8634C1.38567 8.92979 1.47897 9.02351 1.54485 9.13578C1.61073 9.24806 1.64704 9.37521 1.65038 9.50534C1.64704 9.63547 1.61073 9.76263 1.54485 9.8749C1.47897 9.98718 1.38567 10.0809 1.2737 10.1473C0.973069 10.3365 0.707804 10.5302 0.502665 10.7963C0.308241 11.0496 0.165614 11.3387 0.0829297 11.6472C0.000245315 11.9556 -0.0208777 12.2773 0.0207666 12.5939C0.0570195 12.8698 0.153399 13.1191 0.27719 13.372C0.396559 13.6143 0.560139 13.8981 0.75732 14.2386L0.779426 14.2775C0.975722 14.6179 1.14019 14.9017 1.2905 15.1263C1.44701 15.3589 1.61501 15.5684 1.83607 15.7364C2.08931 15.931 2.37841 16.0738 2.68685 16.1566C2.99529 16.2395 3.31702 16.2607 3.63368 16.2192C3.96615 16.175 4.26678 16.0424 4.58156 15.8752C4.69493 15.8119 4.82249 15.7782 4.95237 15.7775C5.08224 15.7767 5.2102 15.8088 5.32431 15.8708C5.436 15.9379 5.52856 16.0326 5.59313 16.1458C5.6577 16.259 5.6921 16.3869 5.69303 16.5172C5.70629 16.8726 5.74077 17.1998 5.86987 17.5093C5.99197 17.8044 6.17101 18.0726 6.39676 18.2985C6.62252 18.5244 6.89056 18.7036 7.18559 18.8259C7.44201 18.932 7.70727 18.9735 7.98757 18.9921C8.25637 19.0107 8.58442 19.0107 8.97789 19.0107H9.02211C9.41558 19.0107 9.74363 19.0107 10.0124 18.993C10.2936 18.9735 10.558 18.932 10.8144 18.825C11.1095 18.7029 11.3777 18.5239 11.6036 18.2981C11.8295 18.0724 12.0087 17.8043 12.131 17.5093C12.2592 17.1998 12.2937 16.8726 12.3079 16.5172C12.3093 16.3871 12.3437 16.2595 12.4079 16.1463C12.4721 16.0331 12.5639 15.938 12.6748 15.8699C12.7891 15.8079 12.9173 15.7758 13.0473 15.7768C13.1774 15.7777 13.305 15.8116 13.4184 15.8752C13.7332 16.0415 14.0339 16.175 14.3663 16.2183C15.0056 16.3027 15.6522 16.1297 16.1639 15.7373C16.385 15.5675 16.553 15.3589 16.7095 15.1263C16.8598 14.9017 17.0243 14.6179 17.2206 14.2775L17.2427 14.2386C17.4399 13.8981 17.6034 13.6143 17.7219 13.372C17.8457 13.1191 17.943 12.8689 17.9783 12.5939C18.0627 11.9546 17.8897 11.308 17.4973 10.7963C17.2931 10.5302 17.0269 10.3365 16.7263 10.1473C16.6143 10.0809 16.521 9.98718 16.4552 9.8749C16.3893 9.76263 16.353 9.63547 16.3496 9.50534C16.3496 9.25953 16.484 9.01549 16.7263 8.8634C17.0269 8.67418 17.2922 8.48053 17.4973 8.21439C17.6918 7.96107 17.8344 7.67194 17.9171 7.36351C17.9998 7.05507 18.0209 6.73337 17.9792 6.41677C17.9376 6.14496 17.8509 5.88199 17.7228 5.63866C17.5718 5.3449 17.4117 5.05592 17.2427 4.77212L17.2206 4.73322C17.0591 4.44503 16.8886 4.16195 16.7095 3.88437C16.5627 3.65214 16.3784 3.44595 16.1639 3.27426C15.9107 3.07968 15.6216 2.93689 15.3131 2.85406C15.0047 2.77122 14.683 2.74996 14.3663 2.79148C14.0339 2.83569 13.7332 2.96832 13.4184 3.13544C13.3051 3.19881 13.1775 3.23246 13.0476 3.23323C12.9178 3.234 12.7898 3.20188 12.6757 3.13986C12.5646 3.07211 12.4725 2.97727 12.408 2.86423C12.3435 2.75118 12.3087 2.62363 12.307 2.49349C12.2937 2.13804 12.2592 1.81088 12.1301 1.5014C12.008 1.20629 11.829 0.93813 11.6032 0.712226C11.3775 0.486321 11.1094 0.307101 10.8144 0.184802C10.558 0.0786954 10.2927 0.0371372 10.0124 0.0185686C9.74363 2.47048e-08 9.41558 0 9.02211 0H8.97789ZM7.69313 1.41033C7.76121 1.38203 7.86466 1.35639 8.07776 1.34136C8.29616 1.32633 8.57911 1.32633 9 1.32633C9.42089 1.32633 9.70384 1.32633 9.92224 1.34136C10.1353 1.35639 10.2388 1.38203 10.3069 1.41033C10.5783 1.52262 10.7932 1.73749 10.9055 2.00894C10.9409 2.09383 10.97 2.22734 10.9815 2.54301C11.0081 3.24331 11.3697 3.91797 12.0116 4.28846C12.6536 4.65894 13.4184 4.63507 14.0383 4.30791C14.3177 4.16025 14.4477 4.11869 14.5396 4.10719C14.8301 4.0688 15.124 4.14736 15.3566 4.32559C15.415 4.37069 15.4893 4.44762 15.6086 4.62446C15.7316 4.80661 15.873 5.05154 16.0835 5.41583C16.2939 5.78013 16.4345 6.02595 16.5309 6.22224C16.6255 6.41412 16.6547 6.51669 16.6635 6.59008C16.7019 6.8806 16.6233 7.17448 16.4451 7.40709C16.3885 7.48048 16.2877 7.57244 16.0207 7.74044C15.4265 8.11358 15.0233 8.76437 15.0233 9.50534C15.0233 10.2463 15.4265 10.8971 16.0207 11.2702C16.2877 11.4382 16.3885 11.5302 16.4451 11.6036C16.6237 11.8361 16.7015 12.1297 16.6635 12.4206C16.6547 12.494 16.6246 12.5975 16.5309 12.7884C16.4345 12.9856 16.2939 13.2306 16.0835 13.5949C15.873 13.9591 15.7307 14.2041 15.6086 14.3862C15.4893 14.5631 15.415 14.64 15.3566 14.6851C15.124 14.8633 14.8301 14.9419 14.5396 14.9035C14.4477 14.892 14.3186 14.8504 14.0383 14.7028C13.4193 14.3756 12.6536 14.3509 12.0116 14.7213C11.3697 15.0918 11.0081 15.7674 10.9815 16.4677C10.97 16.7833 10.9409 16.9169 10.9055 17.0017C10.8499 17.136 10.7685 17.2579 10.6658 17.3606C10.5631 17.4634 10.4411 17.5448 10.3069 17.6004C10.2388 17.6287 10.1353 17.6543 9.92224 17.6693C9.70384 17.6844 9.42089 17.6844 9 17.6844C8.57911 17.6844 8.29616 17.6844 8.07776 17.6693C7.86466 17.6543 7.76121 17.6287 7.69313 17.6004C7.55891 17.5448 7.43695 17.4634 7.33423 17.3606C7.23152 17.2579 7.15006 17.136 7.09451 17.0017C7.05914 16.9169 7.02996 16.7833 7.01847 16.4677C6.99194 15.7674 6.6303 15.0927 5.98835 14.7222C5.34641 14.3517 4.58156 14.3756 3.96173 14.7028C3.68231 14.8504 3.55233 14.892 3.46037 14.9035C3.16985 14.9419 2.87597 14.8633 2.64336 14.6851C2.585 14.64 2.51072 14.5631 2.39136 14.3862C2.22502 14.1274 2.06667 13.8634 1.91653 13.5949C1.70609 13.2306 1.5655 12.9847 1.46912 12.7884C1.3745 12.5966 1.34532 12.494 1.33648 12.4206C1.29809 12.1301 1.37665 11.8362 1.55488 11.6036C1.61147 11.5302 1.71228 11.4382 1.97931 11.2702C2.5735 10.8971 2.97671 10.2463 2.97671 9.50534C2.97671 8.76437 2.5735 8.11358 1.97931 7.74044C1.71228 7.57244 1.61147 7.48048 1.55488 7.40709C1.37665 7.17448 1.29809 6.8806 1.33648 6.59008C1.34532 6.51669 1.37539 6.41323 1.46912 6.22224C1.5655 6.02506 1.70609 5.78013 1.91653 5.41583C2.12697 5.05154 2.26933 4.80661 2.39136 4.62446C2.51072 4.44762 2.585 4.37069 2.64336 4.32559C2.87597 4.14736 3.16985 4.0688 3.46037 4.10719C3.55233 4.11869 3.68143 4.16025 3.96173 4.30791C4.58068 4.63507 5.34641 4.65983 5.98835 4.28846C6.6303 3.91797 6.99194 3.24331 7.01847 2.54301C7.02996 2.22734 7.05914 2.09383 7.09451 2.00894C7.20681 1.73749 7.42167 1.52262 7.69313 1.41033Z" fill="black" fill-opacity="0.2"/>
<path fill-rule="evenodd" clip-rule="evenodd" d="M8.97789 0C8.58442 0 8.25637 -1.64698e-08 7.98757 0.0176843C7.71277 0.0287515 7.44173 0.0855295 7.18559 0.185686C6.89048 0.307787 6.62231 0.486827 6.39641 0.71258C6.1705 0.938333 5.99128 1.20638 5.86898 1.5014C5.74077 1.81088 5.70629 2.13804 5.69214 2.49349C5.69056 2.62346 5.65608 2.75091 5.59191 2.86393C5.52774 2.97696 5.43598 3.07189 5.32519 3.13986C5.21097 3.20204 5.08285 3.23425 4.95281 3.23347C4.82276 3.2327 4.69503 3.19897 4.58156 3.13544C4.26678 2.9692 3.96615 2.83569 3.63368 2.79148C3.31708 2.74983 2.99538 2.77095 2.68695 2.85364C2.37851 2.93632 2.08938 3.07895 1.83607 3.27338C1.62155 3.44534 1.43717 3.65183 1.2905 3.88437C1.14019 4.10896 0.975722 4.3928 0.779426 4.73322L0.75732 4.77212C0.560139 5.11255 0.396559 5.39638 0.278074 5.63866C0.154283 5.89154 0.0570194 6.14089 0.0216507 6.41677C-0.0627034 7.05605 0.11032 7.70266 0.502665 8.21439C0.70692 8.48053 0.973069 8.67418 1.2737 8.8634C1.38567 8.92979 1.47897 9.02351 1.54485 9.13578C1.61073 9.24806 1.64704 9.37521 1.65038 9.50534C1.64704 9.63547 1.61073 9.76263 1.54485 9.8749C1.47897 9.98718 1.38567 10.0809 1.2737 10.1473C0.973069 10.3365 0.707804 10.5302 0.502665 10.7963C0.308241 11.0496 0.165614 11.3387 0.0829297 11.6472C0.000245315 11.9556 -0.0208777 12.2773 0.0207666 12.5939C0.0570195 12.8698 0.153399 13.1191 0.27719 13.372C0.396559 13.6143 0.560139 13.8981 0.75732 14.2386L0.779426 14.2775C0.975722 14.6179 1.14019 14.9017 1.2905 15.1263C1.44701 15.3589 1.61501 15.5684 1.83607 15.7364C2.08931 15.931 2.37841 16.0738 2.68685 16.1566C2.99529 16.2395 3.31702 16.2607 3.63368 16.2192C3.96615 16.175 4.26678 16.0424 4.58156 15.8752C4.69493 15.8119 4.82249 15.7782 4.95237 15.7775C5.08224 15.7767 5.2102 15.8088 5.32431 15.8708C5.436 15.9379 5.52856 16.0326 5.59313 16.1458C5.6577 16.259 5.6921 16.3869 5.69303 16.5172C5.70629 16.8726 5.74077 17.1998 5.86987 17.5093C5.99197 17.8044 6.17101 18.0726 6.39676 18.2985C6.62252 18.5244 6.89056 18.7036 7.18559 18.8259C7.44201 18.932 7.70727 18.9735 7.98757 18.9921C8.25637 19.0107 8.58442 19.0107 8.97789 19.0107H9.02211C9.41558 19.0107 9.74363 19.0107 10.0124 18.993C10.2936 18.9735 10.558 18.932 10.8144 18.825C11.1095 18.7029 11.3777 18.5239 11.6036 18.2981C11.8295 18.0724 12.0087 17.8043 12.131 17.5093C12.2592 17.1998 12.2937 16.8726 12.3079 16.5172C12.3093 16.3871 12.3437 16.2595 12.4079 16.1463C12.4721 16.0331 12.5639 15.938 12.6748 15.8699C12.7891 15.8079 12.9173 15.7758 13.0473 15.7768C13.1774 15.7777 13.305 15.8116 13.4184 15.8752C13.7332 16.0415 14.0339 16.175 14.3663 16.2183C15.0056 16.3027 15.6522 16.1297 16.1639 15.7373C16.385 15.5675 16.553 15.3589 16.7095 15.1263C16.8598 14.9017 17.0243 14.6179 17.2206 14.2775L17.2427 14.2386C17.4399 13.8981 17.6034 13.6143 17.7219 13.372C17.8457 13.1191 17.943 12.8689 17.9783 12.5939C18.0627 11.9546 17.8897 11.308 17.4973 10.7963C17.2931 10.5302 17.0269 10.3365 16.7263 10.1473C16.6143 10.0809 16.521 9.98718 16.4552 9.8749C16.3893 9.76263 16.353 9.63547 16.3496 9.50534C16.3496 9.25953 16.484 9.01549 16.7263 8.8634C17.0269 8.67418 17.2922 8.48053 17.4973 8.21439C17.6918 7.96107 17.8344 7.67194 17.9171 7.36351C17.9998 7.05507 18.0209 6.73337 17.9792 6.41677C17.9376 6.14496 17.8509 5.88199 17.7228 5.63866C17.5718 5.3449 17.4117 5.05592 17.2427 4.77212L17.2206 4.73322C17.0591 4.44503 16.8886 4.16195 16.7095 3.88437C16.5627 3.65214 16.3784 3.44595 16.1639 3.27426C15.9107 3.07968 15.6216 2.93689 15.3131 2.85406C15.0047 2.77122 14.683 2.74996 14.3663 2.79148C14.0339 2.83569 13.7332 2.96832 13.4184 3.13544C13.3051 3.19881 13.1775 3.23246 13.0476 3.23323C12.9178 3.234 12.7898 3.20188 12.6757 3.13986C12.5646 3.07211 12.4725 2.97727 12.408 2.86423C12.3435 2.75118 12.3087 2.62363 12.307 2.49349C12.2937 2.13804 12.2592 1.81088 12.1301 1.5014C12.008 1.20629 11.829 0.93813 11.6032 0.712226C11.3775 0.486321 11.1094 0.307101 10.8144 0.184802C10.558 0.0786954 10.2927 0.0371372 10.0124 0.0185686C9.74363 2.47048e-08 9.41558 0 9.02211 0H8.97789ZM7.69313 1.41033C7.76121 1.38203 7.86466 1.35639 8.07776 1.34136C8.29616 1.32633 8.57911 1.32633 9 1.32633C9.42089 1.32633 9.70384 1.32633 9.92224 1.34136C10.1353 1.35639 10.2388 1.38203 10.3069 1.41033C10.5783 1.52262 10.7932 1.73749 10.9055 2.00894C10.9409 2.09383 10.97 2.22734 10.9815 2.54301C11.0081 3.24331 11.3697 3.91797 12.0116 4.28846C12.6536 4.65894 13.4184 4.63507 14.0383 4.30791C14.3177 4.16025 14.4477 4.11869 14.5396 4.10719C14.8301 4.0688 15.124 4.14736 15.3566 4.32559C15.415 4.37069 15.4893 4.44762 15.6086 4.62446C15.7316 4.80661 15.873 5.05154 16.0835 5.41583C16.2939 5.78013 16.4345 6.02595 16.5309 6.22224C16.6255 6.41412 16.6547 6.51669 16.6635 6.59008C16.7019 6.8806 16.6233 7.17448 16.4451 7.40709C16.3885 7.48048 16.2877 7.57244 16.0207 7.74044C15.4265 8.11358 15.0233 8.76437 15.0233 9.50534C15.0233 10.2463 15.4265 10.8971 16.0207 11.2702C16.2877 11.4382 16.3885 11.5302 16.4451 11.6036C16.6237 11.8361 16.7015 12.1297 16.6635 12.4206C16.6547 12.494 16.6246 12.5975 16.5309 12.7884C16.4345 12.9856 16.2939 13.2306 16.0835 13.5949C15.873 13.9591 15.7307 14.2041 15.6086 14.3862C15.4893 14.5631 15.415 14.64 15.3566 14.6851C15.124 14.8633 14.8301 14.9419 14.5396 14.9035C14.4477 14.892 14.3186 14.8504 14.0383 14.7028C13.4193 14.3756 12.6536 14.3509 12.0116 14.7213C11.3697 15.0918 11.0081 15.7674 10.9815 16.4677C10.97 16.7833 10.9409 16.9169 10.9055 17.0017C10.8499 17.136 10.7685 17.2579 10.6658 17.3606C10.5631 17.4634 10.4411 17.5448 10.3069 17.6004C10.2388 17.6287 10.1353 17.6543 9.92224 17.6693C9.70384 17.6844 9.42089 17.6844 9 17.6844C8.57911 17.6844 8.29616 17.6844 8.07776 17.6693C7.86466 17.6543 7.76121 17.6287 7.69313 17.6004C7.55891 17.5448 7.43695 17.4634 7.33423 17.3606C7.23152 17.2579 7.15006 17.136 7.09451 17.0017C7.05914 16.9169 7.02996 16.7833 7.01847 16.4677C6.99194 15.7674 6.6303 15.0927 5.98835 14.7222C5.34641 14.3517 4.58156 14.3756 3.96173 14.7028C3.68231 14.8504 3.55233 14.892 3.46037 14.9035C3.16985 14.9419 2.87597 14.8633 2.64336 14.6851C2.585 14.64 2.51072 14.5631 2.39136 14.3862C2.22502 14.1274 2.06667 13.8634 1.91653 13.5949C1.70609 13.2306 1.5655 12.9847 1.46912 12.7884C1.3745 12.5966 1.34532 12.494 1.33648 12.4206C1.29809 12.1301 1.37665 11.8362 1.55488 11.6036C1.61147 11.5302 1.71228 11.4382 1.97931 11.2702C2.5735 10.8971 2.97671 10.2463 2.97671 9.50534C2.97671 8.76437 2.5735 8.11358 1.97931 7.74044C1.71228 7.57244 1.61147 7.48048 1.55488 7.40709C1.37665 7.17448 1.29809 6.8806 1.33648 6.59008C1.34532 6.51669 1.37539 6.41323 1.46912 6.22224C1.5655 6.02506 1.70609 5.78013 1.91653 5.41583C2.12697 5.05154 2.26933 4.80661 2.39136 4.62446C2.51072 4.44762 2.585 4.37069 2.64336 4.32559C2.87597 4.14736 3.16985 4.0688 3.46037 4.10719C3.55233 4.11869 3.68143 4.16025 3.96173 4.30791C4.58068 4.63507 5.34641 4.65983 5.98835 4.28846C6.6303 3.91797 6.99194 3.24331 7.01847 2.54301C7.02996 2.22734 7.05914 2.09383 7.09451 2.00894C7.20681 1.73749 7.42167 1.52262 7.69313 1.41033Z" fill="black" fill-opacity="0.2"/>
</svg>
