<svg width="16" height="22" viewBox="0 0 16 22" fill="none" xmlns="http://www.w3.org/2000/svg">
<path d="M14.75 7.75C14.75 8.66925 14.5689 9.57951 14.2172 10.4288C13.8654 11.2781 13.3498 12.0497 12.6997 12.6997C12.0497 13.3498 11.2781 13.8654 10.4288 14.2172C9.57951 14.5689 8.66925 14.75 7.75 14.75C6.83075 14.75 5.92049 14.5689 5.07122 14.2172C4.22194 13.8654 3.45026 13.3498 2.80025 12.6997C2.15024 12.0497 1.63463 11.2781 1.28284 10.4288C0.93106 9.57951 0.75 8.66925 0.75 7.75C0.75 5.89348 1.4875 4.11301 2.80025 2.80025C4.11301 1.4875 5.89348 0.75 7.75 0.75C9.60652 0.75 11.387 1.4875 12.6997 2.80025C14.0125 4.11301 14.75 5.89348 14.75 7.75Z" stroke="#2D2D2D" stroke-width="1.5" stroke-linecap="round" stroke-linejoin="round"/>
<path d="M14.75 7.75C14.75 8.66925 14.5689 9.57951 14.2172 10.4288C13.8654 11.2781 13.3498 12.0497 12.6997 12.6997C12.0497 13.3498 11.2781 13.8654 10.4288 14.2172C9.57951 14.5689 8.66925 14.75 7.75 14.75C6.83075 14.75 5.92049 14.5689 5.07122 14.2172C4.22194 13.8654 3.45026 13.3498 2.80025 12.6997C2.15024 12.0497 1.63463 11.2781 1.28284 10.4288C0.93106 9.57951 0.75 8.66925 0.75 7.75C0.75 5.89348 1.4875 4.11301 2.80025 2.80025C4.11301 1.4875 5.89348 0.75 7.75 0.75C9.60652 0.75 11.387 1.4875 12.6997 2.80025C14.0125 4.11301 14.75 5.89348 14.75 7.75Z" stroke="black" stroke-opacity="0.2" stroke-width="1.5" stroke-linecap="round" stroke-linejoin="round"/>
<path d="M14.75 7.75C14.75 8.66925 14.5689 9.57951 14.2172 10.4288C13.8654 11.2781 13.3498 12.0497 12.6997 12.6997C12.0497 13.3498 11.2781 13.8654 10.4288 14.2172C9.57951 14.5689 8.66925 14.75 7.75 14.75C6.83075 14.75 5.92049 14.5689 5.07122 14.2172C4.22194 13.8654 3.45026 13.3498 2.80025 12.6997C2.15024 12.0497 1.63463 11.2781 1.28284 10.4288C0.93106 9.57951 0.75 8.66925 0.75 7.75C0.75 5.89348 1.4875 4.11301 2.80025 2.80025C4.11301 1.4875 5.89348 0.75 7.75 0.75C9.60652 0.75 11.387 1.4875 12.6997 2.80025C14.0125 4.11301 14.75 5.89348 14.75 7.75Z" stroke="black" stroke-opacity="0.2" stroke-width="1.5" stroke-linecap="round" stroke-linejoin="round"/>
<path d="M14.75 7.75C14.75 8.66925 14.5689 9.57951 14.2172 10.4288C13.8654 11.2781 13.3498 12.0497 12.6997 12.6997C12.0497 13.3498 11.2781 13.8654 10.4288 14.2172C9.57951 14.5689 8.66925 14.75 7.75 14.75C6.83075 14.75 5.92049 14.5689 5.07122 14.2172C4.22194 13.8654 3.45026 13.3498 2.80025 12.6997C2.15024 12.0497 1.63463 11.2781 1.28284 10.4288C0.93106 9.57951 0.75 8.66925 0.75 7.75C0.75 5.89348 1.4875 4.11301 2.80025 2.80025C4.11301 1.4875 5.89348 0.75 7.75 0.75C9.60652 0.75 11.387 1.4875 12.6997 2.80025C14.0125 4.11301 14.75 5.89348 14.75 7.75Z" stroke="black" stroke-opacity="0.2" stroke-width="1.5" stroke-linecap="round" stroke-linejoin="round"/>
<path d="M14.75 7.75C14.75 8.66925 14.5689 9.57951 14.2172 10.4288C13.8654 11.2781 13.3498 12.0497 12.6997 12.6997C12.0497 13.3498 11.2781 13.8654 10.4288 14.2172C9.57951 14.5689 8.66925 14.75 7.75 14.75C6.83075 14.75 5.92049 14.5689 5.07122 14.2172C4.22194 13.8654 3.45026 13.3498 2.80025 12.6997C2.15024 12.0497 1.63463 11.2781 1.28284 10.4288C0.93106 9.57951 0.75 8.66925 0.75 7.75C0.75 5.89348 1.4875 4.11301 2.80025 2.80025C4.11301 1.4875 5.89348 0.75 7.75 0.75C9.60652 0.75 11.387 1.4875 12.6997 2.80025C14.0125 4.11301 14.75 5.89348 14.75 7.75Z" stroke="black" stroke-opacity="0.2" stroke-width="1.5" stroke-linecap="round" stroke-linejoin="round"/>
<path d="M14.75 7.75C14.75 8.66925 14.5689 9.57951 14.2172 10.4288C13.8654 11.2781 13.3498 12.0497 12.6997 12.6997C12.0497 13.3498 11.2781 13.8654 10.4288 14.2172C9.57951 14.5689 8.66925 14.75 7.75 14.75C6.83075 14.75 5.92049 14.5689 5.07122 14.2172C4.22194 13.8654 3.45026 13.3498 2.80025 12.6997C2.15024 12.0497 1.63463 11.2781 1.28284 10.4288C0.93106 9.57951 0.75 8.66925 0.75 7.75C0.75 5.89348 1.4875 4.11301 2.80025 2.80025C4.11301 1.4875 5.89348 0.75 7.75 0.75C9.60652 0.75 11.387 1.4875 12.6997 2.80025C14.0125 4.11301 14.75 5.89348 14.75 7.75Z" stroke="black" stroke-opacity="0.2" stroke-width="1.5" stroke-linecap="round" stroke-linejoin="round"/>
<path d="M14.75 7.75C14.75 8.66925 14.5689 9.57951 14.2172 10.4288C13.8654 11.2781 13.3498 12.0497 12.6997 12.6997C12.0497 13.3498 11.2781 13.8654 10.4288 14.2172C9.57951 14.5689 8.66925 14.75 7.75 14.75C6.83075 14.75 5.92049 14.5689 5.07122 14.2172C4.22194 13.8654 3.45026 13.3498 2.80025 12.6997C2.15024 12.0497 1.63463 11.2781 1.28284 10.4288C0.93106 9.57951 0.75 8.66925 0.75 7.75C0.75 5.89348 1.4875 4.11301 2.80025 2.80025C4.11301 1.4875 5.89348 0.75 7.75 0.75C9.60652 0.75 11.387 1.4875 12.6997 2.80025C14.0125 4.11301 14.75 5.89348 14.75 7.75Z" stroke="black" stroke-opacity="0.2" stroke-width="1.5" stroke-linecap="round" stroke-linejoin="round"/>
<path d="M3.75 13.7499V19.2629C3.75 20.1369 3.75 20.5749 4.026 20.7129C4.303 20.8519 4.652 20.5899 5.35 20.0649L6.55 19.1629C7.128 18.7279 7.417 18.5109 7.75 18.5109C8.083 18.5109 8.372 18.7279 8.95 19.1629L10.15 20.0649C10.848 20.5889 11.197 20.8519 11.474 20.7129C11.75 20.5749 11.75 20.1369 11.75 19.2629V13.7499M7.419 3.9619C7.44832 3.89882 7.49505 3.84543 7.55369 3.80802C7.61233 3.77061 7.68044 3.75073 7.75 3.75073C7.81956 3.75073 7.88767 3.77061 7.94631 3.80802C8.00495 3.84543 8.05168 3.89882 8.081 3.9619L8.895 5.6299C8.949 5.7399 9.05 5.8169 9.168 5.8369L10.936 6.1309C11.236 6.1809 11.356 6.5649 11.141 6.7889L9.875 8.1149C9.83335 8.15917 9.80234 8.21235 9.78432 8.27039C9.7663 8.32844 9.76174 8.38983 9.771 8.4499L10.05 10.2999C10.097 10.6139 9.784 10.8509 9.514 10.7069L7.919 9.8579C7.86696 9.83024 7.80893 9.81577 7.75 9.81577C7.69107 9.81577 7.63304 9.83024 7.581 9.8579L5.986 10.7069C5.716 10.8509 5.403 10.6139 5.45 10.2999L5.729 8.4499C5.73826 8.38983 5.7337 8.32844 5.71568 8.27039C5.69766 8.21235 5.66665 8.15917 5.625 8.1149L4.359 6.7899C4.145 6.5659 4.264 6.1819 4.564 6.1319L6.332 5.8379C6.39082 5.82796 6.44637 5.80395 6.4939 5.7679C6.54144 5.73186 6.57955 5.68486 6.605 5.6309L7.419 3.9619Z" stroke="#2D2D2D" stroke-width="1.5" stroke-linecap="round" stroke-linejoin="round"/>
<path d="M3.75 13.7499V19.2629C3.75 20.1369 3.75 20.5749 4.026 20.7129C4.303 20.8519 4.652 20.5899 5.35 20.0649L6.55 19.1629C7.128 18.7279 7.417 18.5109 7.75 18.5109C8.083 18.5109 8.372 18.7279 8.95 19.1629L10.15 20.0649C10.848 20.5889 11.197 20.8519 11.474 20.7129C11.75 20.5749 11.75 20.1369 11.75 19.2629V13.7499M7.419 3.9619C7.44832 3.89882 7.49505 3.84543 7.55369 3.80802C7.61233 3.77061 7.68044 3.75073 7.75 3.75073C7.81956 3.75073 7.88767 3.77061 7.94631 3.80802C8.00495 3.84543 8.05168 3.89882 8.081 3.9619L8.895 5.6299C8.949 5.7399 9.05 5.8169 9.168 5.8369L10.936 6.1309C11.236 6.1809 11.356 6.5649 11.141 6.7889L9.875 8.1149C9.83335 8.15917 9.80234 8.21235 9.78432 8.27039C9.7663 8.32844 9.76174 8.38983 9.771 8.4499L10.05 10.2999C10.097 10.6139 9.784 10.8509 9.514 10.7069L7.919 9.8579C7.86696 9.83024 7.80893 9.81577 7.75 9.81577C7.69107 9.81577 7.63304 9.83024 7.581 9.8579L5.986 10.7069C5.716 10.8509 5.403 10.6139 5.45 10.2999L5.729 8.4499C5.73826 8.38983 5.7337 8.32844 5.71568 8.27039C5.69766 8.21235 5.66665 8.15917 5.625 8.1149L4.359 6.7899C4.145 6.5659 4.264 6.1819 4.564 6.1319L6.332 5.8379C6.39082 5.82796 6.44637 5.80395 6.4939 5.7679C6.54144 5.73186 6.57955 5.68486 6.605 5.6309L7.419 3.9619Z" stroke="black" stroke-opacity="0.2" stroke-width="1.5" stroke-linecap="round" stroke-linejoin="round"/>
<path d="M3.75 13.7499V19.2629C3.75 20.1369 3.75 20.5749 4.026 20.7129C4.303 20.8519 4.652 20.5899 5.35 20.0649L6.55 19.1629C7.128 18.7279 7.417 18.5109 7.75 18.5109C8.083 18.5109 8.372 18.7279 8.95 19.1629L10.15 20.0649C10.848 20.5889 11.197 20.8519 11.474 20.7129C11.75 20.5749 11.75 20.1369 11.75 19.2629V13.7499M7.419 3.9619C7.44832 3.89882 7.49505 3.84543 7.55369 3.80802C7.61233 3.77061 7.68044 3.75073 7.75 3.75073C7.81956 3.75073 7.88767 3.77061 7.94631 3.80802C8.00495 3.84543 8.05168 3.89882 8.081 3.9619L8.895 5.6299C8.949 5.7399 9.05 5.8169 9.168 5.8369L10.936 6.1309C11.236 6.1809 11.356 6.5649 11.141 6.7889L9.875 8.1149C9.83335 8.15917 9.80234 8.21235 9.78432 8.27039C9.7663 8.32844 9.76174 8.38983 9.771 8.4499L10.05 10.2999C10.097 10.6139 9.784 10.8509 9.514 10.7069L7.919 9.8579C7.86696 9.83024 7.80893 9.81577 7.75 9.81577C7.69107 9.81577 7.63304 9.83024 7.581 9.8579L5.986 10.7069C5.716 10.8509 5.403 10.6139 5.45 10.2999L5.729 8.4499C5.73826 8.38983 5.7337 8.32844 5.71568 8.27039C5.69766 8.21235 5.66665 8.15917 5.625 8.1149L4.359 6.7899C4.145 6.5659 4.264 6.1819 4.564 6.1319L6.332 5.8379C6.39082 5.82796 6.44637 5.80395 6.4939 5.7679C6.54144 5.73186 6.57955 5.68486 6.605 5.6309L7.419 3.9619Z" stroke="black" stroke-opacity="0.2" stroke-width="1.5" stroke-linecap="round" stroke-linejoin="round"/>
<path d="M3.75 13.7499V19.2629C3.75 20.1369 3.75 20.5749 4.026 20.7129C4.303 20.8519 4.652 20.5899 5.35 20.0649L6.55 19.1629C7.128 18.7279 7.417 18.5109 7.75 18.5109C8.083 18.5109 8.372 18.7279 8.95 19.1629L10.15 20.0649C10.848 20.5889 11.197 20.8519 11.474 20.7129C11.75 20.5749 11.75 20.1369 11.75 19.2629V13.7499M7.419 3.9619C7.44832 3.89882 7.49505 3.84543 7.55369 3.80802C7.61233 3.77061 7.68044 3.75073 7.75 3.75073C7.81956 3.75073 7.88767 3.77061 7.94631 3.80802C8.00495 3.84543 8.05168 3.89882 8.081 3.9619L8.895 5.6299C8.949 5.7399 9.05 5.8169 9.168 5.8369L10.936 6.1309C11.236 6.1809 11.356 6.5649 11.141 6.7889L9.875 8.1149C9.83335 8.15917 9.80234 8.21235 9.78432 8.27039C9.7663 8.32844 9.76174 8.38983 9.771 8.4499L10.05 10.2999C10.097 10.6139 9.784 10.8509 9.514 10.7069L7.919 9.8579C7.86696 9.83024 7.80893 9.81577 7.75 9.81577C7.69107 9.81577 7.63304 9.83024 7.581 9.8579L5.986 10.7069C5.716 10.8509 5.403 10.6139 5.45 10.2999L5.729 8.4499C5.73826 8.38983 5.7337 8.32844 5.71568 8.27039C5.69766 8.21235 5.66665 8.15917 5.625 8.1149L4.359 6.7899C4.145 6.5659 4.264 6.1819 4.564 6.1319L6.332 5.8379C6.39082 5.82796 6.44637 5.80395 6.4939 5.7679C6.54144 5.73186 6.57955 5.68486 6.605 5.6309L7.419 3.9619Z" stroke="black" stroke-opacity="0.2" stroke-width="1.5" stroke-linecap="round" stroke-linejoin="round"/>
<path d="M3.75 13.7499V19.2629C3.75 20.1369 3.75 20.5749 4.026 20.7129C4.303 20.8519 4.652 20.5899 5.35 20.0649L6.55 19.1629C7.128 18.7279 7.417 18.5109 7.75 18.5109C8.083 18.5109 8.372 18.7279 8.95 19.1629L10.15 20.0649C10.848 20.5889 11.197 20.8519 11.474 20.7129C11.75 20.5749 11.75 20.1369 11.75 19.2629V13.7499M7.419 3.9619C7.44832 3.89882 7.49505 3.84543 7.55369 3.80802C7.61233 3.77061 7.68044 3.75073 7.75 3.75073C7.81956 3.75073 7.88767 3.77061 7.94631 3.80802C8.00495 3.84543 8.05168 3.89882 8.081 3.9619L8.895 5.6299C8.949 5.7399 9.05 5.8169 9.168 5.8369L10.936 6.1309C11.236 6.1809 11.356 6.5649 11.141 6.7889L9.875 8.1149C9.83335 8.15917 9.80234 8.21235 9.78432 8.27039C9.7663 8.32844 9.76174 8.38983 9.771 8.4499L10.05 10.2999C10.097 10.6139 9.784 10.8509 9.514 10.7069L7.919 9.8579C7.86696 9.83024 7.80893 9.81577 7.75 9.81577C7.69107 9.81577 7.63304 9.83024 7.581 9.8579L5.986 10.7069C5.716 10.8509 5.403 10.6139 5.45 10.2999L5.729 8.4499C5.73826 8.38983 5.7337 8.32844 5.71568 8.27039C5.69766 8.21235 5.66665 8.15917 5.625 8.1149L4.359 6.7899C4.145 6.5659 4.264 6.1819 4.564 6.1319L6.332 5.8379C6.39082 5.82796 6.44637 5.80395 6.4939 5.7679C6.54144 5.73186 6.57955 5.68486 6.605 5.6309L7.419 3.9619Z" stroke="black" stroke-opacity="0.2" stroke-width="1.5" stroke-linecap="round" stroke-linejoin="round"/>
<path d="M3.75 13.7499V19.2629C3.75 20.1369 3.75 20.5749 4.026 20.7129C4.303 20.8519 4.652 20.5899 5.35 20.0649L6.55 19.1629C7.128 18.7279 7.417 18.5109 7.75 18.5109C8.083 18.5109 8.372 18.7279 8.95 19.1629L10.15 20.0649C10.848 20.5889 11.197 20.8519 11.474 20.7129C11.75 20.5749 11.75 20.1369 11.75 19.2629V13.7499M7.419 3.9619C7.44832 3.89882 7.49505 3.84543 7.55369 3.80802C7.61233 3.77061 7.68044 3.75073 7.75 3.75073C7.81956 3.75073 7.88767 3.77061 7.94631 3.80802C8.00495 3.84543 8.05168 3.89882 8.081 3.9619L8.895 5.6299C8.949 5.7399 9.05 5.8169 9.168 5.8369L10.936 6.1309C11.236 6.1809 11.356 6.5649 11.141 6.7889L9.875 8.1149C9.83335 8.15917 9.80234 8.21235 9.78432 8.27039C9.7663 8.32844 9.76174 8.38983 9.771 8.4499L10.05 10.2999C10.097 10.6139 9.784 10.8509 9.514 10.7069L7.919 9.8579C7.86696 9.83024 7.80893 9.81577 7.75 9.81577C7.69107 9.81577 7.63304 9.83024 7.581 9.8579L5.986 10.7069C5.716 10.8509 5.403 10.6139 5.45 10.2999L5.729 8.4499C5.73826 8.38983 5.7337 8.32844 5.71568 8.27039C5.69766 8.21235 5.66665 8.15917 5.625 8.1149L4.359 6.7899C4.145 6.5659 4.264 6.1819 4.564 6.1319L6.332 5.8379C6.39082 5.82796 6.44637 5.80395 6.4939 5.7679C6.54144 5.73186 6.57955 5.68486 6.605 5.6309L7.419 3.9619Z" stroke="black" stroke-opacity="0.2" stroke-width="1.5" stroke-linecap="round" stroke-linejoin="round"/>
<path d="M3.75 13.7499V19.2629C3.75 20.1369 3.75 20.5749 4.026 20.7129C4.303 20.8519 4.652 20.5899 5.35 20.0649L6.55 19.1629C7.128 18.7279 7.417 18.5109 7.75 18.5109C8.083 18.5109 8.372 18.7279 8.95 19.1629L10.15 20.0649C10.848 20.5889 11.197 20.8519 11.474 20.7129C11.75 20.5749 11.75 20.1369 11.75 19.2629V13.7499M7.419 3.9619C7.44832 3.89882 7.49505 3.84543 7.55369 3.80802C7.61233 3.77061 7.68044 3.75073 7.75 3.75073C7.81956 3.75073 7.88767 3.77061 7.94631 3.80802C8.00495 3.84543 8.05168 3.89882 8.081 3.9619L8.895 5.6299C8.949 5.7399 9.05 5.8169 9.168 5.8369L10.936 6.1309C11.236 6.1809 11.356 6.5649 11.141 6.7889L9.875 8.1149C9.83335 8.15917 9.80234 8.21235 9.78432 8.27039C9.7663 8.32844 9.76174 8.38983 9.771 8.4499L10.05 10.2999C10.097 10.6139 9.784 10.8509 9.514 10.7069L7.919 9.8579C7.86696 9.83024 7.80893 9.81577 7.75 9.81577C7.69107 9.81577 7.63304 9.83024 7.581 9.8579L5.986 10.7069C5.716 10.8509 5.403 10.6139 5.45 10.2999L5.729 8.4499C5.73826 8.38983 5.7337 8.32844 5.71568 8.27039C5.69766 8.21235 5.66665 8.15917 5.625 8.1149L4.359 6.7899C4.145 6.5659 4.264 6.1819 4.564 6.1319L6.332 5.8379C6.39082 5.82796 6.44637 5.80395 6.4939 5.7679C6.54144 5.73186 6.57955 5.68486 6.605 5.6309L7.419 3.9619Z" stroke="black" stroke-opacity="0.2" stroke-width="1.5" stroke-linecap="round" stroke-linejoin="round"/>
</svg>
