<svg width="4" height="15" viewBox="0 0 4 15" fill="none" xmlns="http://www.w3.org/2000/svg">
<path d="M1.5 1.5H1.51M1.5 7.5H1.51M1.5 13.5H1.51" stroke="#2D2D2D" stroke-width="3" stroke-linecap="round"/>
<path d="M1.5 1.5H1.51M1.5 7.5H1.51M1.5 13.5H1.51" stroke="black" stroke-opacity="0.2" stroke-width="3" stroke-linecap="round"/>
<path d="M1.5 1.5H1.51M1.5 7.5H1.51M1.5 13.5H1.51" stroke="black" stroke-opacity="0.2" stroke-width="3" stroke-linecap="round"/>
<path d="M1.5 1.5H1.51M1.5 7.5H1.51M1.5 13.5H1.51" stroke="black" stroke-opacity="0.2" stroke-width="3" stroke-linecap="round"/>
<path d="M1.5 1.5H1.51M1.5 7.5H1.51M1.5 13.5H1.51" stroke="black" stroke-opacity="0.2" stroke-width="3" stroke-linecap="round"/>
<path d="M1.5 1.5H1.51M1.5 7.5H1.51M1.5 13.5H1.51" stroke="black" stroke-opacity="0.2" stroke-width="3" stroke-linecap="round"/>
<path d="M1.5 1.5H1.51M1.5 7.5H1.51M1.5 13.5H1.51" stroke="black" stroke-opacity="0.2" stroke-width="3" stroke-linecap="round"/>
</svg>
