<svg width="52" height="64" viewBox="0 0 52 64" fill="none" xmlns="http://www.w3.org/2000/svg">
<path d="M2 32.0005L2 24.3685C2 14.6335 2 9.76449 4.658 6.46749C5.19481 5.80175 5.80126 5.19531 6.46699 4.65849C9.76999 2.00049 14.633 2.00049 24.368 2.00049C26.483 2.00049 27.542 2.00049 28.511 2.34249C28.711 2.41449 28.908 2.49649 29.102 2.58849C30.032 3.03249 30.779 3.77949 32.276 5.27649L46.484 19.4845C48.221 21.2185 49.085 22.0855 49.544 23.1895C50 24.2935 50 25.5175 50 27.9715L50 38.0005C50 49.3135 50 54.9715 46.484 58.4845C42.968 61.9975 37.313 62.0005 26 62.0005M29 3.50049L29 5.00049C29 13.4845 29 17.7295 31.637 20.3635C34.271 23.0005 38.516 23.0005 47 23.0005L48.5 23.0005" stroke="#80828D" stroke-width="4" stroke-linecap="round" stroke-linejoin="round"/>
<path d="M20 47.0005C18.23 45.1795 13.52 38.0005 11 38.0005C8.48 38.0005 3.77 45.1795 2 47.0005M11 41.0005L11 62.0005" stroke="#80828D" stroke-width="4" stroke-linecap="round" stroke-linejoin="round"/>
</svg>
