<svg width="20" height="16" viewBox="0 0 20 16" fill="none" xmlns="http://www.w3.org/2000/svg">
<path d="M12.6667 0H7.33333C6.8029 0 6.29419 0.210714 5.91912 0.585787C5.54405 0.960859 5.33333 1.46957 5.33333 2V14C5.33333 14.5304 5.54405 15.0391 5.91912 15.4142C6.29419 15.7893 6.8029 16 7.33333 16H12.6667C13.1971 16 13.7058 15.7893 14.0809 15.4142C14.456 15.0391 14.6667 14.5304 14.6667 14V2C14.6667 1.46957 14.456 0.960859 14.0809 0.585787C13.7058 0.210714 13.1971 0 12.6667 0ZM13.3333 14C13.3333 14.1768 13.2631 14.3464 13.1381 14.4714C13.013 14.5964 12.8435 14.6667 12.6667 14.6667H7.33333C7.15652 14.6667 6.98695 14.5964 6.86193 14.4714C6.73691 14.3464 6.66667 14.1768 6.66667 14V2C6.66667 1.82319 6.73691 1.65362 6.86193 1.5286C6.98695 1.40357 7.15652 1.33333 7.33333 1.33333H12.6667C12.8435 1.33333 13.013 1.40357 13.1381 1.5286C13.2631 1.65362 13.3333 1.82319 13.3333 2V14ZM17.3333 4.66667V11.3333C17.3333 11.5101 17.2631 11.6797 17.1381 11.8047C17.013 11.9298 16.8435 12 16.6667 12C16.4899 12 16.3203 11.9298 16.1953 11.8047C16.0702 11.6797 16 11.5101 16 11.3333V4.66667C16 4.48986 16.0702 4.32029 16.1953 4.19526C16.3203 4.07024 16.4899 4 16.6667 4C16.8435 4 17.013 4.07024 17.1381 4.19526C17.2631 4.32029 17.3333 4.48986 17.3333 4.66667ZM20 6V10C20 10.1768 19.9298 10.3464 19.8047 10.4714C19.6797 10.5964 19.5101 10.6667 19.3333 10.6667C19.1565 10.6667 18.987 10.5964 18.8619 10.4714C18.7369 10.3464 18.6667 10.1768 18.6667 10V6C18.6667 5.82319 18.7369 5.65362 18.8619 5.5286C18.987 5.40357 19.1565 5.33333 19.3333 5.33333C19.5101 5.33333 19.6797 5.40357 19.8047 5.5286C19.9298 5.65362 20 5.82319 20 6ZM4 4.66667V11.3333C4 11.5101 3.92976 11.6797 3.80474 11.8047C3.67971 11.9298 3.51014 12 3.33333 12C3.15652 12 2.98695 11.9298 2.86193 11.8047C2.7369 11.6797 2.66667 11.5101 2.66667 11.3333V4.66667C2.66667 4.48986 2.7369 4.32029 2.86193 4.19526C2.98695 4.07024 3.15652 4 3.33333 4C3.51014 4 3.67971 4.07024 3.80474 4.19526C3.92976 4.32029 4 4.48986 4 4.66667ZM1.33333 6V10C1.33333 10.1768 1.2631 10.3464 1.13807 10.4714C1.01305 10.5964 0.843478 10.6667 0.666667 10.6667C0.489856 10.6667 0.320286 10.5964 0.195262 10.4714C0.0702379 10.3464 0 10.1768 0 10V6C0 5.82319 0.0702379 5.65362 0.195262 5.5286C0.320286 5.40357 0.489856 5.33333 0.666667 5.33333C0.843478 5.33333 1.01305 5.40357 1.13807 5.5286C1.2631 5.65362 1.33333 5.82319 1.33333 6Z" fill="#2D2D2D"/>
<path d="M12.6667 0H7.33333C6.8029 0 6.29419 0.210714 5.91912 0.585787C5.54405 0.960859 5.33333 1.46957 5.33333 2V14C5.33333 14.5304 5.54405 15.0391 5.91912 15.4142C6.29419 15.7893 6.8029 16 7.33333 16H12.6667C13.1971 16 13.7058 15.7893 14.0809 15.4142C14.456 15.0391 14.6667 14.5304 14.6667 14V2C14.6667 1.46957 14.456 0.960859 14.0809 0.585787C13.7058 0.210714 13.1971 0 12.6667 0ZM13.3333 14C13.3333 14.1768 13.2631 14.3464 13.1381 14.4714C13.013 14.5964 12.8435 14.6667 12.6667 14.6667H7.33333C7.15652 14.6667 6.98695 14.5964 6.86193 14.4714C6.73691 14.3464 6.66667 14.1768 6.66667 14V2C6.66667 1.82319 6.73691 1.65362 6.86193 1.5286C6.98695 1.40357 7.15652 1.33333 7.33333 1.33333H12.6667C12.8435 1.33333 13.013 1.40357 13.1381 1.5286C13.2631 1.65362 13.3333 1.82319 13.3333 2V14ZM17.3333 4.66667V11.3333C17.3333 11.5101 17.2631 11.6797 17.1381 11.8047C17.013 11.9298 16.8435 12 16.6667 12C16.4899 12 16.3203 11.9298 16.1953 11.8047C16.0702 11.6797 16 11.5101 16 11.3333V4.66667C16 4.48986 16.0702 4.32029 16.1953 4.19526C16.3203 4.07024 16.4899 4 16.6667 4C16.8435 4 17.013 4.07024 17.1381 4.19526C17.2631 4.32029 17.3333 4.48986 17.3333 4.66667ZM20 6V10C20 10.1768 19.9298 10.3464 19.8047 10.4714C19.6797 10.5964 19.5101 10.6667 19.3333 10.6667C19.1565 10.6667 18.987 10.5964 18.8619 10.4714C18.7369 10.3464 18.6667 10.1768 18.6667 10V6C18.6667 5.82319 18.7369 5.65362 18.8619 5.5286C18.987 5.40357 19.1565 5.33333 19.3333 5.33333C19.5101 5.33333 19.6797 5.40357 19.8047 5.5286C19.9298 5.65362 20 5.82319 20 6ZM4 4.66667V11.3333C4 11.5101 3.92976 11.6797 3.80474 11.8047C3.67971 11.9298 3.51014 12 3.33333 12C3.15652 12 2.98695 11.9298 2.86193 11.8047C2.7369 11.6797 2.66667 11.5101 2.66667 11.3333V4.66667C2.66667 4.48986 2.7369 4.32029 2.86193 4.19526C2.98695 4.07024 3.15652 4 3.33333 4C3.51014 4 3.67971 4.07024 3.80474 4.19526C3.92976 4.32029 4 4.48986 4 4.66667ZM1.33333 6V10C1.33333 10.1768 1.2631 10.3464 1.13807 10.4714C1.01305 10.5964 0.843478 10.6667 0.666667 10.6667C0.489856 10.6667 0.320286 10.5964 0.195262 10.4714C0.0702379 10.3464 0 10.1768 0 10V6C0 5.82319 0.0702379 5.65362 0.195262 5.5286C0.320286 5.40357 0.489856 5.33333 0.666667 5.33333C0.843478 5.33333 1.01305 5.40357 1.13807 5.5286C1.2631 5.65362 1.33333 5.82319 1.33333 6Z" fill="black" fill-opacity="0.2"/>
<path d="M12.6667 0H7.33333C6.8029 0 6.29419 0.210714 5.91912 0.585787C5.54405 0.960859 5.33333 1.46957 5.33333 2V14C5.33333 14.5304 5.54405 15.0391 5.91912 15.4142C6.29419 15.7893 6.8029 16 7.33333 16H12.6667C13.1971 16 13.7058 15.7893 14.0809 15.4142C14.456 15.0391 14.6667 14.5304 14.6667 14V2C14.6667 1.46957 14.456 0.960859 14.0809 0.585787C13.7058 0.210714 13.1971 0 12.6667 0ZM13.3333 14C13.3333 14.1768 13.2631 14.3464 13.1381 14.4714C13.013 14.5964 12.8435 14.6667 12.6667 14.6667H7.33333C7.15652 14.6667 6.98695 14.5964 6.86193 14.4714C6.73691 14.3464 6.66667 14.1768 6.66667 14V2C6.66667 1.82319 6.73691 1.65362 6.86193 1.5286C6.98695 1.40357 7.15652 1.33333 7.33333 1.33333H12.6667C12.8435 1.33333 13.013 1.40357 13.1381 1.5286C13.2631 1.65362 13.3333 1.82319 13.3333 2V14ZM17.3333 4.66667V11.3333C17.3333 11.5101 17.2631 11.6797 17.1381 11.8047C17.013 11.9298 16.8435 12 16.6667 12C16.4899 12 16.3203 11.9298 16.1953 11.8047C16.0702 11.6797 16 11.5101 16 11.3333V4.66667C16 4.48986 16.0702 4.32029 16.1953 4.19526C16.3203 4.07024 16.4899 4 16.6667 4C16.8435 4 17.013 4.07024 17.1381 4.19526C17.2631 4.32029 17.3333 4.48986 17.3333 4.66667ZM20 6V10C20 10.1768 19.9298 10.3464 19.8047 10.4714C19.6797 10.5964 19.5101 10.6667 19.3333 10.6667C19.1565 10.6667 18.987 10.5964 18.8619 10.4714C18.7369 10.3464 18.6667 10.1768 18.6667 10V6C18.6667 5.82319 18.7369 5.65362 18.8619 5.5286C18.987 5.40357 19.1565 5.33333 19.3333 5.33333C19.5101 5.33333 19.6797 5.40357 19.8047 5.5286C19.9298 5.65362 20 5.82319 20 6ZM4 4.66667V11.3333C4 11.5101 3.92976 11.6797 3.80474 11.8047C3.67971 11.9298 3.51014 12 3.33333 12C3.15652 12 2.98695 11.9298 2.86193 11.8047C2.7369 11.6797 2.66667 11.5101 2.66667 11.3333V4.66667C2.66667 4.48986 2.7369 4.32029 2.86193 4.19526C2.98695 4.07024 3.15652 4 3.33333 4C3.51014 4 3.67971 4.07024 3.80474 4.19526C3.92976 4.32029 4 4.48986 4 4.66667ZM1.33333 6V10C1.33333 10.1768 1.2631 10.3464 1.13807 10.4714C1.01305 10.5964 0.843478 10.6667 0.666667 10.6667C0.489856 10.6667 0.320286 10.5964 0.195262 10.4714C0.0702379 10.3464 0 10.1768 0 10V6C0 5.82319 0.0702379 5.65362 0.195262 5.5286C0.320286 5.40357 0.489856 5.33333 0.666667 5.33333C0.843478 5.33333 1.01305 5.40357 1.13807 5.5286C1.2631 5.65362 1.33333 5.82319 1.33333 6Z" fill="black" fill-opacity="0.2"/>
<path d="M12.6667 0H7.33333C6.8029 0 6.29419 0.210714 5.91912 0.585787C5.54405 0.960859 5.33333 1.46957 5.33333 2V14C5.33333 14.5304 5.54405 15.0391 5.91912 15.4142C6.29419 15.7893 6.8029 16 7.33333 16H12.6667C13.1971 16 13.7058 15.7893 14.0809 15.4142C14.456 15.0391 14.6667 14.5304 14.6667 14V2C14.6667 1.46957 14.456 0.960859 14.0809 0.585787C13.7058 0.210714 13.1971 0 12.6667 0ZM13.3333 14C13.3333 14.1768 13.2631 14.3464 13.1381 14.4714C13.013 14.5964 12.8435 14.6667 12.6667 14.6667H7.33333C7.15652 14.6667 6.98695 14.5964 6.86193 14.4714C6.73691 14.3464 6.66667 14.1768 6.66667 14V2C6.66667 1.82319 6.73691 1.65362 6.86193 1.5286C6.98695 1.40357 7.15652 1.33333 7.33333 1.33333H12.6667C12.8435 1.33333 13.013 1.40357 13.1381 1.5286C13.2631 1.65362 13.3333 1.82319 13.3333 2V14ZM17.3333 4.66667V11.3333C17.3333 11.5101 17.2631 11.6797 17.1381 11.8047C17.013 11.9298 16.8435 12 16.6667 12C16.4899 12 16.3203 11.9298 16.1953 11.8047C16.0702 11.6797 16 11.5101 16 11.3333V4.66667C16 4.48986 16.0702 4.32029 16.1953 4.19526C16.3203 4.07024 16.4899 4 16.6667 4C16.8435 4 17.013 4.07024 17.1381 4.19526C17.2631 4.32029 17.3333 4.48986 17.3333 4.66667ZM20 6V10C20 10.1768 19.9298 10.3464 19.8047 10.4714C19.6797 10.5964 19.5101 10.6667 19.3333 10.6667C19.1565 10.6667 18.987 10.5964 18.8619 10.4714C18.7369 10.3464 18.6667 10.1768 18.6667 10V6C18.6667 5.82319 18.7369 5.65362 18.8619 5.5286C18.987 5.40357 19.1565 5.33333 19.3333 5.33333C19.5101 5.33333 19.6797 5.40357 19.8047 5.5286C19.9298 5.65362 20 5.82319 20 6ZM4 4.66667V11.3333C4 11.5101 3.92976 11.6797 3.80474 11.8047C3.67971 11.9298 3.51014 12 3.33333 12C3.15652 12 2.98695 11.9298 2.86193 11.8047C2.7369 11.6797 2.66667 11.5101 2.66667 11.3333V4.66667C2.66667 4.48986 2.7369 4.32029 2.86193 4.19526C2.98695 4.07024 3.15652 4 3.33333 4C3.51014 4 3.67971 4.07024 3.80474 4.19526C3.92976 4.32029 4 4.48986 4 4.66667ZM1.33333 6V10C1.33333 10.1768 1.2631 10.3464 1.13807 10.4714C1.01305 10.5964 0.843478 10.6667 0.666667 10.6667C0.489856 10.6667 0.320286 10.5964 0.195262 10.4714C0.0702379 10.3464 0 10.1768 0 10V6C0 5.82319 0.0702379 5.65362 0.195262 5.5286C0.320286 5.40357 0.489856 5.33333 0.666667 5.33333C0.843478 5.33333 1.01305 5.40357 1.13807 5.5286C1.2631 5.65362 1.33333 5.82319 1.33333 6Z" fill="black" fill-opacity="0.2"/>
<path d="M12.6667 0H7.33333C6.8029 0 6.29419 0.210714 5.91912 0.585787C5.54405 0.960859 5.33333 1.46957 5.33333 2V14C5.33333 14.5304 5.54405 15.0391 5.91912 15.4142C6.29419 15.7893 6.8029 16 7.33333 16H12.6667C13.1971 16 13.7058 15.7893 14.0809 15.4142C14.456 15.0391 14.6667 14.5304 14.6667 14V2C14.6667 1.46957 14.456 0.960859 14.0809 0.585787C13.7058 0.210714 13.1971 0 12.6667 0ZM13.3333 14C13.3333 14.1768 13.2631 14.3464 13.1381 14.4714C13.013 14.5964 12.8435 14.6667 12.6667 14.6667H7.33333C7.15652 14.6667 6.98695 14.5964 6.86193 14.4714C6.73691 14.3464 6.66667 14.1768 6.66667 14V2C6.66667 1.82319 6.73691 1.65362 6.86193 1.5286C6.98695 1.40357 7.15652 1.33333 7.33333 1.33333H12.6667C12.8435 1.33333 13.013 1.40357 13.1381 1.5286C13.2631 1.65362 13.3333 1.82319 13.3333 2V14ZM17.3333 4.66667V11.3333C17.3333 11.5101 17.2631 11.6797 17.1381 11.8047C17.013 11.9298 16.8435 12 16.6667 12C16.4899 12 16.3203 11.9298 16.1953 11.8047C16.0702 11.6797 16 11.5101 16 11.3333V4.66667C16 4.48986 16.0702 4.32029 16.1953 4.19526C16.3203 4.07024 16.4899 4 16.6667 4C16.8435 4 17.013 4.07024 17.1381 4.19526C17.2631 4.32029 17.3333 4.48986 17.3333 4.66667ZM20 6V10C20 10.1768 19.9298 10.3464 19.8047 10.4714C19.6797 10.5964 19.5101 10.6667 19.3333 10.6667C19.1565 10.6667 18.987 10.5964 18.8619 10.4714C18.7369 10.3464 18.6667 10.1768 18.6667 10V6C18.6667 5.82319 18.7369 5.65362 18.8619 5.5286C18.987 5.40357 19.1565 5.33333 19.3333 5.33333C19.5101 5.33333 19.6797 5.40357 19.8047 5.5286C19.9298 5.65362 20 5.82319 20 6ZM4 4.66667V11.3333C4 11.5101 3.92976 11.6797 3.80474 11.8047C3.67971 11.9298 3.51014 12 3.33333 12C3.15652 12 2.98695 11.9298 2.86193 11.8047C2.7369 11.6797 2.66667 11.5101 2.66667 11.3333V4.66667C2.66667 4.48986 2.7369 4.32029 2.86193 4.19526C2.98695 4.07024 3.15652 4 3.33333 4C3.51014 4 3.67971 4.07024 3.80474 4.19526C3.92976 4.32029 4 4.48986 4 4.66667ZM1.33333 6V10C1.33333 10.1768 1.2631 10.3464 1.13807 10.4714C1.01305 10.5964 0.843478 10.6667 0.666667 10.6667C0.489856 10.6667 0.320286 10.5964 0.195262 10.4714C0.0702379 10.3464 0 10.1768 0 10V6C0 5.82319 0.0702379 5.65362 0.195262 5.5286C0.320286 5.40357 0.489856 5.33333 0.666667 5.33333C0.843478 5.33333 1.01305 5.40357 1.13807 5.5286C1.2631 5.65362 1.33333 5.82319 1.33333 6Z" fill="black" fill-opacity="0.2"/>
<path d="M12.6667 0H7.33333C6.8029 0 6.29419 0.210714 5.91912 0.585787C5.54405 0.960859 5.33333 1.46957 5.33333 2V14C5.33333 14.5304 5.54405 15.0391 5.91912 15.4142C6.29419 15.7893 6.8029 16 7.33333 16H12.6667C13.1971 16 13.7058 15.7893 14.0809 15.4142C14.456 15.0391 14.6667 14.5304 14.6667 14V2C14.6667 1.46957 14.456 0.960859 14.0809 0.585787C13.7058 0.210714 13.1971 0 12.6667 0ZM13.3333 14C13.3333 14.1768 13.2631 14.3464 13.1381 14.4714C13.013 14.5964 12.8435 14.6667 12.6667 14.6667H7.33333C7.15652 14.6667 6.98695 14.5964 6.86193 14.4714C6.73691 14.3464 6.66667 14.1768 6.66667 14V2C6.66667 1.82319 6.73691 1.65362 6.86193 1.5286C6.98695 1.40357 7.15652 1.33333 7.33333 1.33333H12.6667C12.8435 1.33333 13.013 1.40357 13.1381 1.5286C13.2631 1.65362 13.3333 1.82319 13.3333 2V14ZM17.3333 4.66667V11.3333C17.3333 11.5101 17.2631 11.6797 17.1381 11.8047C17.013 11.9298 16.8435 12 16.6667 12C16.4899 12 16.3203 11.9298 16.1953 11.8047C16.0702 11.6797 16 11.5101 16 11.3333V4.66667C16 4.48986 16.0702 4.32029 16.1953 4.19526C16.3203 4.07024 16.4899 4 16.6667 4C16.8435 4 17.013 4.07024 17.1381 4.19526C17.2631 4.32029 17.3333 4.48986 17.3333 4.66667ZM20 6V10C20 10.1768 19.9298 10.3464 19.8047 10.4714C19.6797 10.5964 19.5101 10.6667 19.3333 10.6667C19.1565 10.6667 18.987 10.5964 18.8619 10.4714C18.7369 10.3464 18.6667 10.1768 18.6667 10V6C18.6667 5.82319 18.7369 5.65362 18.8619 5.5286C18.987 5.40357 19.1565 5.33333 19.3333 5.33333C19.5101 5.33333 19.6797 5.40357 19.8047 5.5286C19.9298 5.65362 20 5.82319 20 6ZM4 4.66667V11.3333C4 11.5101 3.92976 11.6797 3.80474 11.8047C3.67971 11.9298 3.51014 12 3.33333 12C3.15652 12 2.98695 11.9298 2.86193 11.8047C2.7369 11.6797 2.66667 11.5101 2.66667 11.3333V4.66667C2.66667 4.48986 2.7369 4.32029 2.86193 4.19526C2.98695 4.07024 3.15652 4 3.33333 4C3.51014 4 3.67971 4.07024 3.80474 4.19526C3.92976 4.32029 4 4.48986 4 4.66667ZM1.33333 6V10C1.33333 10.1768 1.2631 10.3464 1.13807 10.4714C1.01305 10.5964 0.843478 10.6667 0.666667 10.6667C0.489856 10.6667 0.320286 10.5964 0.195262 10.4714C0.0702379 10.3464 0 10.1768 0 10V6C0 5.82319 0.0702379 5.65362 0.195262 5.5286C0.320286 5.40357 0.489856 5.33333 0.666667 5.33333C0.843478 5.33333 1.01305 5.40357 1.13807 5.5286C1.2631 5.65362 1.33333 5.82319 1.33333 6Z" fill="black" fill-opacity="0.2"/>
<path d="M12.6667 0H7.33333C6.8029 0 6.29419 0.210714 5.91912 0.585787C5.54405 0.960859 5.33333 1.46957 5.33333 2V14C5.33333 14.5304 5.54405 15.0391 5.91912 15.4142C6.29419 15.7893 6.8029 16 7.33333 16H12.6667C13.1971 16 13.7058 15.7893 14.0809 15.4142C14.456 15.0391 14.6667 14.5304 14.6667 14V2C14.6667 1.46957 14.456 0.960859 14.0809 0.585787C13.7058 0.210714 13.1971 0 12.6667 0ZM13.3333 14C13.3333 14.1768 13.2631 14.3464 13.1381 14.4714C13.013 14.5964 12.8435 14.6667 12.6667 14.6667H7.33333C7.15652 14.6667 6.98695 14.5964 6.86193 14.4714C6.73691 14.3464 6.66667 14.1768 6.66667 14V2C6.66667 1.82319 6.73691 1.65362 6.86193 1.5286C6.98695 1.40357 7.15652 1.33333 7.33333 1.33333H12.6667C12.8435 1.33333 13.013 1.40357 13.1381 1.5286C13.2631 1.65362 13.3333 1.82319 13.3333 2V14ZM17.3333 4.66667V11.3333C17.3333 11.5101 17.2631 11.6797 17.1381 11.8047C17.013 11.9298 16.8435 12 16.6667 12C16.4899 12 16.3203 11.9298 16.1953 11.8047C16.0702 11.6797 16 11.5101 16 11.3333V4.66667C16 4.48986 16.0702 4.32029 16.1953 4.19526C16.3203 4.07024 16.4899 4 16.6667 4C16.8435 4 17.013 4.07024 17.1381 4.19526C17.2631 4.32029 17.3333 4.48986 17.3333 4.66667ZM20 6V10C20 10.1768 19.9298 10.3464 19.8047 10.4714C19.6797 10.5964 19.5101 10.6667 19.3333 10.6667C19.1565 10.6667 18.987 10.5964 18.8619 10.4714C18.7369 10.3464 18.6667 10.1768 18.6667 10V6C18.6667 5.82319 18.7369 5.65362 18.8619 5.5286C18.987 5.40357 19.1565 5.33333 19.3333 5.33333C19.5101 5.33333 19.6797 5.40357 19.8047 5.5286C19.9298 5.65362 20 5.82319 20 6ZM4 4.66667V11.3333C4 11.5101 3.92976 11.6797 3.80474 11.8047C3.67971 11.9298 3.51014 12 3.33333 12C3.15652 12 2.98695 11.9298 2.86193 11.8047C2.7369 11.6797 2.66667 11.5101 2.66667 11.3333V4.66667C2.66667 4.48986 2.7369 4.32029 2.86193 4.19526C2.98695 4.07024 3.15652 4 3.33333 4C3.51014 4 3.67971 4.07024 3.80474 4.19526C3.92976 4.32029 4 4.48986 4 4.66667ZM1.33333 6V10C1.33333 10.1768 1.2631 10.3464 1.13807 10.4714C1.01305 10.5964 0.843478 10.6667 0.666667 10.6667C0.489856 10.6667 0.320286 10.5964 0.195262 10.4714C0.0702379 10.3464 0 10.1768 0 10V6C0 5.82319 0.0702379 5.65362 0.195262 5.5286C0.320286 5.40357 0.489856 5.33333 0.666667 5.33333C0.843478 5.33333 1.01305 5.40357 1.13807 5.5286C1.2631 5.65362 1.33333 5.82319 1.33333 6Z" fill="black" fill-opacity="0.2"/>
</svg>
